<svg width="98" height="130" viewBox="0 0 98 130" fill="none" xmlns="http://www.w3.org/2000/svg">
<path d="M3.97772 54.5493C3.76441 54.1227 3.54374 53.7034 3.33043 53.2768C3.41134 52.9605 3.49224 52.6442 3.57315 52.3279C4.8089 54.439 6.70665 55.8733 8.67796 57.2047C12.5911 59.838 16.8648 60.1984 21.3443 59.0877C22.4845 58.8082 23.1023 58.3816 22.6904 56.9987C21.44 52.8428 21.668 48.5618 21.793 44.2956C21.8151 43.4423 22.0726 42.545 21.2634 41.8756C21.2634 41.6991 21.2634 41.5225 21.2634 41.346C23.5216 40.8899 23.0876 38.8598 23.3451 37.4254C23.5731 36.1676 22.2491 35.8881 21.2414 35.7851C17.034 35.3585 13.0325 36.3147 9.21492 37.9477C7.62611 38.6318 6.2506 39.816 4.33814 41.0591C6.37565 41.4122 7.71438 40.2206 9.12666 40.8973C9.08253 41.0003 9.0678 41.1106 9.08987 41.2209C5.9858 41.8535 2.9038 42.5302 0.755958 45.1783C0.513222 45.215 0.277834 45.2518 0.0350986 45.296C-0.089947 44.3986 0.108661 43.6777 0.80009 42.9716C5.46355 38.1684 11.12 35.4688 17.7548 34.7554C18.277 34.6965 19.0715 35.0275 19.2333 34.2993C19.3068 33.9462 18.8361 33.4166 18.5198 33.0488C15.7394 29.7535 14.5257 26.0831 15.7026 21.8021C15.9233 22.2876 16.1439 22.7657 16.3646 23.2511C16.3572 24.1632 16.3499 25.0753 16.3425 25.9874C16.2175 26.3405 16.291 26.6421 16.5926 26.8775C17.3429 27.7381 16.725 29.6873 18.7184 29.5623C18.7699 30.011 18.8214 30.4597 18.8729 30.9084C19.7776 32.8208 21.3443 33.9977 23.1685 34.9687C24.0733 35.4468 24.4631 35.3806 24.9633 34.4391C26.7654 31.0702 28.9795 27.9882 31.5907 25.1783C33.5547 23.0673 33.4664 22.7951 30.7448 21.0812C30.7007 20.787 30.6566 20.4928 30.6124 20.1986C30.8478 19.9926 31.0832 19.7867 31.3186 19.5807C31.804 20.0441 32.2969 20.5002 32.7823 20.9636C33.7754 22.4273 34.7536 22.2655 36.1438 21.2946C42.6389 16.7488 50.068 15.7264 57.7547 16.0279C58.8065 16.0721 59.7995 16.609 60.5057 15.4248C61.3442 14.0125 62.4034 12.6811 62.3299 10.8937C62.4623 10.6583 62.5432 10.4377 62.2048 10.3053C62.7197 9.55499 62.58 8.80471 62.1975 8.05444C62.1828 7.56161 62.1681 7.06879 62.1533 6.58332C62.2784 6.40678 62.4034 6.23025 62.5358 6.05371C63.1905 7.52484 64.4777 7.27474 65.6914 7.20854C63.7201 8.23833 63.3376 9.87128 64.4924 12.3501C63.3449 13.0857 62.7638 14.2332 62.146 15.388C61.7341 16.153 61.7561 16.5355 62.6388 16.7929C67.442 18.1684 71.598 20.7208 75.3788 23.9205C75.7245 24.2074 76.0555 24.4281 76.5409 24.2957C78.0121 23.869 79.7701 20.5296 79.4391 18.7863C80.0937 18.7127 80.4836 18.4259 80.3438 17.6903C80.3953 16.837 80.4468 15.9912 80.4983 15.1379C81.0573 14.5789 80.535 13.6226 81.2412 13.1151C81.6678 14.7554 81.2779 16.4104 81.2927 18.0507C81.3074 19.2865 81.6678 19.5881 82.8006 19.2644C83.492 19.0658 84.2128 18.9408 84.9263 18.8966C87.9201 18.6907 90.9359 18.0213 93.8781 19.235C93.8708 19.4557 93.8634 19.6837 93.8634 19.9043C92.076 20.228 90.2297 20.331 88.6042 21.2725C88.6924 20.1839 88.2143 19.7425 87.1036 19.7205C83.4479 19.6469 80.638 20.993 78.6741 24.1853C77.3868 26.2817 77.4236 26.5685 79.8877 27.0099C78.8065 27.9073 79.3876 28.8488 79.8068 29.7829C79.7039 30.0404 79.6082 30.2978 79.5053 30.5553C79.0933 30.2243 78.6888 29.9006 78.2769 29.5696L78.2916 29.577C78.1665 28.7532 77.6663 28.1941 76.997 27.7601C76.8646 27.6204 76.7395 27.4733 76.6071 27.3335C76.2614 26.4361 75.5921 25.8183 74.8271 25.2813C74.6506 25.1121 74.4814 24.9429 74.3048 24.7738C74.0474 24.2662 73.6502 23.9647 73.0911 23.869L73.0985 23.9205C72.9367 23.766 72.7749 23.6189 72.613 23.4645L72.6498 23.4939C72.4953 23.3688 72.3409 23.2438 72.1864 23.1188C71.8922 22.9349 71.6053 22.751 71.3111 22.5744C67.3758 19.3821 62.7933 18.0654 57.8062 17.4108C48.6337 16.2118 40.7411 18.6465 33.9151 24.7885C33.2825 25.0533 32.8559 25.5314 32.547 26.1272C32.4293 26.2596 32.3042 26.3994 32.1865 26.5318C32.0321 26.6862 31.8849 26.8481 31.7305 27.0025C31.5834 27.1496 31.4436 27.2894 31.2965 27.4365C31.1715 27.5836 31.0464 27.7234 30.9214 27.8705C30.7522 28.0544 30.5904 28.2383 30.4212 28.4148C29.8989 28.6208 29.59 29.0106 29.465 29.5549L29.5164 29.5329C29.3693 29.702 29.2222 29.8712 29.0825 30.0404L29.1045 30.011C28.7662 30.2096 28.6043 30.5112 28.6043 30.901L28.6558 30.8495C28.5234 31.0187 28.391 31.1879 28.2586 31.357C27.3833 32.1809 26.839 33.2107 26.4418 34.3287L26.4344 34.3434C25.8828 34.6156 25.7062 35.0864 25.6989 35.6601C25.5885 35.7557 25.5371 35.8808 25.5371 36.0205C24.8971 36.9841 24.4264 38.0065 24.316 39.1761C24.2351 39.2496 24.2204 39.3305 24.2719 39.4262C23.0729 41.5372 22.8817 43.8837 22.7713 46.2228C22.7125 47.3629 23.4039 46.7377 23.86 46.5096C24.0365 46.7082 24.2057 46.9142 24.3822 47.1128C22.4109 49.4666 22.5727 52.1661 23.1465 54.9098C24.853 63.0524 29.8033 68.7457 36.7397 72.9899C37.9681 73.7402 39.5642 73.9093 40.4248 75.2554C39.6378 76.1087 39.0273 75.2333 38.4388 74.9685C32.7382 72.4823 28.4499 68.3043 24.8089 63.3761C24.8603 63.2584 24.8383 63.1554 24.7353 63.0745C24.7794 62.7435 24.6691 62.486 24.3675 62.3242L24.3896 62.2359C24.2351 61.9785 24.0806 61.7211 23.9262 61.4636C23.9335 59.941 23.3304 59.2864 21.771 59.9116C21.1678 60.1543 20.5352 60.3088 19.91 60.5C19.6673 60.5662 19.4245 60.6324 19.1818 60.6986C18.5639 60.4853 17.9608 60.6177 17.3576 60.7722C13.4076 60.7575 9.7666 59.7645 6.59632 57.3077L6.49333 57.3665L6.59632 57.3224C6.44186 57.1826 6.28738 57.0429 6.13292 56.9031L6.11085 56.984C6.11085 56.6604 5.89754 56.5059 5.63274 56.4103C5.48563 55.9984 5.16198 55.7998 4.75742 55.6968C4.61031 55.5423 4.46319 55.3879 4.31608 55.226L4.33814 55.2408C4.23516 55.0054 4.11013 54.7773 3.97772 54.5493Z" fill="#383634"/>
<path d="M64.2423 122.206C63.7789 124.361 62.3299 125.855 60.822 127.311C54.2019 130.717 47.6922 131.349 41.4178 126.487C41.153 124.575 42.7713 123.744 43.7422 122.596C45.6841 120.301 47.6333 118.094 46.1916 114.755C46.0077 114.321 46.0739 113.747 46.1402 113.254C46.3682 111.511 45.7724 111.173 44.0879 111.673C41.2119 112.526 38.8287 114.328 36.1144 115.454C36.2542 113.527 35.32 112.019 34.2314 110.555C33.4738 109.532 32.4587 108.657 32.1571 107.341C33.9445 108.422 34.9817 110.172 36.0188 111.872C36.8279 113.196 37.7179 113.416 39.064 112.754C40.7999 111.901 42.5947 111.158 44.3601 110.371C45.2428 110.187 45 109.135 45.6032 108.738C45.6914 110.143 47.1552 110.165 47.8393 110.959C46.6698 114.314 47.7657 117.381 49.0603 120.419C45.7356 120.147 44.7794 123.192 42.8963 124.906C42.3594 125.391 42.8448 125.921 43.5436 126.119C44.772 126.465 46.8684 125.663 46.4785 128.267C46.4638 128.356 46.8021 128.532 47.0007 128.606C51.6495 130.209 59.2994 128.326 62.043 124.516C63.904 121.927 63.3449 120.448 60.3586 119.977C62.6094 118.962 64.1246 117.521 63.7716 114.74C63.6833 114.034 64.0732 113.151 64.4998 112.519C66.758 109.201 67.8907 105.45 68.4424 101.581C69.1632 96.5278 69.4207 91.4524 64.7425 87.5539C66.3534 87.5465 67.6406 88.1718 68.5601 89.1133C70.6711 91.2611 72.8925 92.0114 75.6288 90.4226C74.7094 91.6216 73.7899 92.8205 72.8778 94.0268C71.951 92.9603 71.2964 91.5186 69.428 91.3715C69.9576 94.9537 70.2666 98.3887 69.7223 101.816C69.3913 103.905 68.8764 105.972 70.4799 107.804C70.3475 107.855 70.2004 107.988 70.0974 107.958C69.0897 107.694 68.185 107.127 67.6774 108.841C67.1478 110.621 68.3468 110.783 69.3398 111.224C71.1419 112.019 72.9955 111.886 74.9447 111.541C74.577 110.665 73.4295 110.474 73.7605 109.452C74.68 109.724 75.3714 110.599 76.4527 110.437C76.894 110.15 77.3353 109.863 77.784 109.569C78.2621 109.422 78.5564 109.084 78.7108 108.62C79.2037 108.782 79.6009 109.076 79.8657 109.525C79.9245 109.797 79.9834 110.069 80.0496 110.342C80.0201 110.599 79.9907 110.857 79.9613 111.107C78.9094 111.364 77.8135 111.504 76.8204 111.908C73.8414 113.122 70.8403 113.078 67.9348 111.901C66.5741 111.349 65.9635 111.776 65.3236 112.82C64.7352 113.784 64.4777 114.799 64.4483 115.91C64.3968 118.006 64.3159 120.11 64.2423 122.206Z" fill="#383634"/>
<path d="M36.1145 115.446C35.9821 115.755 35.8644 116.086 35.4157 115.983C33.4812 116.748 32.4808 115.851 31.2524 114.306C27.6261 109.768 22.5581 107.466 17.0119 106.105C16.9531 105.972 16.931 105.833 16.9678 105.686C17.2694 105.538 17.571 105.384 17.8652 105.237C18.0123 105.141 18.1594 105.046 18.2992 104.943C20.2043 103.942 22.1535 103.06 24.2352 102.471C26.6625 104.104 29.0237 105.862 31.7673 106.958C31.8997 107.083 32.0321 107.201 32.1645 107.326C32.4661 108.65 33.4812 109.518 34.2388 110.54C35.3127 112.019 36.2469 113.519 36.1145 115.446Z" fill="#664F3F"/>
<path d="M17.0045 106.105C22.5433 107.466 27.6187 109.768 31.245 114.306C32.4808 115.851 33.4811 116.748 35.4083 115.983C33.9372 118.47 31.6349 118.676 29.1193 118.286C25.5076 116.844 21.874 115.41 19.2259 112.394C17.6665 110.629 16.1072 108.782 17.0045 106.105Z" fill="#383634"/>
<path d="M31.4731 6.55381C30.9802 7.57624 30.48 8.59867 29.9872 9.6211C29.7739 9.60639 29.5532 9.59169 29.3399 9.58433C29.362 8.09849 28.4572 8.31916 27.6187 8.74579C25.3017 9.92269 23.0214 11.2099 21.3517 13.2401C20.0498 14.8142 18.3065 16.1897 18.2991 18.5288C18.1152 19.3673 16.9972 19.5806 16.953 20.5221C16.8721 20.7134 16.7986 20.9046 16.7177 21.0959C16.7618 21.2136 16.7397 21.3239 16.6515 21.4122C16.3793 21.3754 16.0998 21.3386 15.8276 21.3018C17.4606 14.5347 21.8445 10.0919 27.8688 7.02457C29.0236 6.75241 30.1711 6.48761 31.3259 6.21545C31.2744 6.37728 31.3259 6.48761 31.4731 6.55381Z" fill="#383634"/>
<path d="M58.9537 2.39058C58.0857 1.92717 57.2766 1.39756 56.8132 0.485463C57.1515 0.33835 57.4899 0.191244 57.8209 0.0441319C58.2475 0.0294207 58.6668 0.0147112 59.0934 0C59.5421 0.00735562 59.9908 0.00734754 60.4395 0.0147032C62.1387 0.228016 63.8452 0.382492 65.537 0.65465C69.6561 1.32401 73.1721 3.32473 76.4601 5.78151L76.4159 5.75209C76.4085 5.88449 76.4453 6.00954 76.5189 6.11252C76.3497 6.33319 76.1805 6.55386 76.0187 6.76717C75.114 6.25963 74.018 6.04631 73.3854 5.10479C69.7076 2.00072 65.228 1.36078 60.6675 0.978288C59.8658 0.912087 59.5053 1.42699 59.498 2.20669C59.3141 2.27289 59.1302 2.33173 58.9537 2.39058Z" fill="#383634"/>
<path d="M15.8276 21.3019C16.0998 21.3387 16.3793 21.3754 16.6515 21.4122C16.6956 22.0448 16.6809 22.67 16.3573 23.2364C16.1366 22.7509 15.9159 22.2728 15.6953 21.7874C15.7394 21.6255 15.7835 21.4637 15.8276 21.3019Z" fill="#664F3F"/>
<path d="M76.5189 6.11261C76.4453 6.00227 76.4085 5.88458 76.4159 5.75218C76.5851 5.72275 76.7616 5.70069 76.9308 5.67126C76.9455 5.80367 76.9602 5.93607 76.9823 6.06847L76.9234 6.14202C76.7837 6.12731 76.6513 6.11996 76.5189 6.11261Z" fill="#FAF285"/>
<path d="M90.7299 112.879C87.3096 111.276 83.6244 111.261 79.9613 111.099C79.9907 110.842 80.0201 110.584 80.0496 110.334C82.7491 110.717 85.5222 110.231 88.207 110.974C88.891 111.165 89.8252 111.695 90.3401 110.731C90.7741 109.93 90.5975 109.003 90.1268 108.253C89.5604 107.341 88.8322 106.524 88.6483 105.413C87.8539 104.693 87.1257 103.883 86.2577 103.273C83.6391 101.434 80.8587 100.301 77.6296 101.684C74.9374 101.846 74.9374 101.846 75.8569 104.332C76.4968 106.075 77.1367 107.819 77.7767 109.562C77.3353 109.849 76.894 110.136 76.4453 110.43C76.9823 107.745 75.5406 105.722 74.1724 103.692C73.4074 102.552 73.3707 102 74.8859 101.368C79.2331 99.573 83.3081 100.103 87.3243 102.243C88.1775 103.096 89.0381 103.95 89.8914 104.803C90.0606 105.024 90.2224 105.252 90.3916 105.472C90.5755 105.98 90.7667 106.487 90.9506 106.995C91.0462 107.171 91.1345 107.348 91.2301 107.517C91.7082 109.179 91.8921 110.886 91.8848 112.615C91.5023 112.71 91.1198 112.798 90.7299 112.879Z" fill="#664F3F"/>
<path d="M29.3399 9.58447C29.5532 9.59918 29.7738 9.60653 29.9872 9.62124C28.9353 13.1372 29.1707 16.484 31.3112 19.5734C31.0758 19.7794 30.8404 19.9853 30.605 20.1913C30.5021 20.1692 30.4064 20.1619 30.3035 20.1692C29.7444 19.1174 29.1928 18.0655 28.6337 17.0136C28.7514 14.5274 28.4793 12.0045 29.3399 9.58447Z" fill="#664F3F"/>
<path d="M58.9537 2.39065C59.1376 2.33181 59.3215 2.27296 59.5053 2.21411C60.9618 3.13356 61.9401 4.42815 62.5285 6.03903C62.4035 6.21557 62.2784 6.3921 62.146 6.56864C61.4031 4.92098 60.1894 3.64846 58.9537 2.39065Z" fill="#664F3F"/>
<path d="M76.5998 27.3188C76.7322 27.4586 76.8573 27.6057 76.9897 27.7454C76.9308 28.7017 77.1441 29.4593 78.2843 29.5623L78.2696 29.5549C78.1813 30.3861 78.6006 31.0702 78.9169 31.7837C79.5127 33.1445 79.7628 34.4906 78.7992 35.8072C78.4976 36.0647 78.196 36.3221 77.8944 36.5869C77.7326 36.7561 77.5781 36.9179 77.4163 37.0871C77.2913 37.2195 77.1736 37.3592 77.0485 37.4916C76.2468 37.5358 76.0776 38.0654 76.1144 38.7421L76.0996 38.7715C75.3126 38.8966 75.217 39.4556 75.2685 40.1029C75.1361 40.3898 74.9963 40.6693 74.8639 40.9561C74.3269 41.2209 73.7606 41.471 74.4152 42.1698C74.246 42.4788 74.0769 42.7803 73.9077 43.0893C72.4292 43.6851 70.8698 44.531 71.5686 46.3331C72.3998 48.4809 72.032 50.6141 72.2085 52.7472C72.363 54.6229 71.5759 55.4467 69.6929 55.2628C67.3465 55.0348 64.772 55.5276 63.0434 56.5721C60.8956 57.8667 59.6893 57.8226 58.1446 56.2191L58.2034 56.1676C58.2181 55.7851 58.0857 55.4761 57.74 55.2775L57.7768 55.307C57.6665 55.1598 57.5561 55.0127 57.4531 54.873C57.4017 54.7332 57.3502 54.5935 57.2987 54.4611C57.3943 53.8138 57.3281 53.2547 56.5411 53.1003C56.4749 53.012 56.4454 52.909 56.4602 52.7913C56.3204 52.6074 56.188 52.4236 56.0482 52.2397C55.8791 51.9749 55.7172 51.7027 55.548 51.4379C55.5848 50.9451 55.4083 50.5994 54.8787 50.5111C54.8198 50.3566 54.761 50.2022 54.6948 50.0403C54.5992 49.9227 54.5035 49.7976 54.4079 49.6799C54.2167 49.6652 54.0254 49.6505 53.8342 49.6284H53.8783C52.5396 46.3184 49.9431 44.2662 46.8978 42.6627L46.9346 42.6921C46.1034 41.4195 44.5367 41.3754 43.4113 40.5957C43.0141 39.9411 42.3888 40.044 41.771 40.0808C41.565 40.0367 41.3591 39.9852 41.1531 39.9411C39.0935 39.4115 37.0266 39.4335 34.9597 39.919C34.5992 39.9926 34.2314 40.0588 33.871 40.1323C33.1428 39.3747 32.7162 39.9926 32.2528 40.478C32.1351 40.5516 32.0027 40.5737 31.8703 40.5442C31.7011 40.6546 31.5319 40.7575 31.3701 40.8679C31.2598 40.9488 31.1347 40.9856 30.995 40.9782C30.6125 40.9341 30.2815 41.0297 30.0461 41.3607L30.0314 41.3681C29.899 41.449 29.7592 41.5299 29.6268 41.6108C29.4797 41.6623 29.34 41.7138 29.1929 41.7653C29.0237 41.883 28.8619 42.0006 28.6927 42.111L28.6191 42.1551C28.1336 42.1919 27.6702 42.2802 27.4569 42.8024C27.3172 42.898 27.1848 42.9863 27.045 43.0819C26.6257 43.1481 26.1403 43.1113 25.8019 43.3099C24.0071 44.3471 23.7791 43.4571 24.1101 41.9565C24.3014 41.1033 24.397 40.2647 24.3087 39.4041C24.2572 39.3085 24.2719 39.2276 24.3528 39.154C25.9417 38.5582 25.5959 37.2195 25.5739 35.9985C25.5739 35.8513 25.6254 35.7337 25.7357 35.638C26.4786 35.4762 26.5228 34.9245 26.4713 34.3214L26.4786 34.3067C28.2366 34.0198 27.9497 32.4825 28.2955 31.335C28.4279 31.1658 28.5603 30.9966 28.6927 30.8274C28.6927 30.8274 28.6412 30.8789 28.6485 30.8789C28.9795 30.673 29.134 30.3714 29.1487 29.9889L29.1267 30.0183C29.2738 29.8492 29.4209 29.68 29.5606 29.5108L29.5091 29.5329C30.2447 29.5034 30.4433 29.0253 30.4654 28.3927C30.6346 28.2088 30.7964 28.025 30.9656 27.8484C31.0906 27.7013 31.2156 27.5616 31.3407 27.4144C31.4878 27.2673 31.6276 27.1276 31.7747 26.9805C31.9291 26.826 32.0763 26.6642 32.2234 26.5097C32.3411 26.3773 32.4661 26.2375 32.5838 26.1051C32.8927 25.5093 33.3194 25.0386 33.9519 24.7664C37.159 24.4796 39.4098 21.655 42.6536 21.4564C42.7125 21.4564 42.7566 21.3608 42.8155 21.3166C46.1623 18.4847 48.06 19.0364 49.2296 23.185C49.1634 23.7146 48.8838 24.1044 48.4204 24.3766C46.9199 25.9948 46.8537 31.8205 48.4278 33.6373C50.149 35.6233 52.1865 37.1239 55.0258 36.9326C55.1803 36.7267 55.3274 36.7487 55.4745 36.94C55.982 37.7344 56.5999 38.0433 57.4311 37.3666C59.167 37.5284 60.8809 37.374 62.5727 36.962C64.11 37.4843 64.7058 36.4986 65.1986 35.3364C65.2207 35.182 65.2354 35.0275 65.2575 34.873C65.5738 34.954 65.8974 35.0422 66.2137 35.1231C66.3682 35.182 66.5226 35.2482 66.6771 35.307C66.6845 35.1231 66.6918 34.9466 66.6992 34.7627C66.7359 34.623 66.8169 34.542 66.9566 34.5126C67.751 34.6303 67.751 34.1743 67.6039 33.6079C67.6995 33.4902 67.8025 33.3651 67.8981 33.2475C68.0232 33.218 68.0894 33.1445 68.1041 33.0194C68.3762 32.4236 69.0677 32.0632 69.075 31.3056C70.3476 29.3048 70.7889 27.282 69.2442 25.2004C69.2074 25.0459 69.1707 24.8915 69.1265 24.7296C69.2442 23.8102 68.4645 23.2659 68.185 22.5082C69.2516 21.0077 70.2887 23.1114 71.3406 22.5377C71.6348 22.7216 71.9217 22.9054 72.2159 23.082C72.3703 23.207 72.5248 23.3321 72.6793 23.4571L72.6425 23.4277C72.8043 23.5822 72.9662 23.7293 73.128 23.8764L73.1206 23.8249C73.1648 24.612 73.687 24.7591 74.3343 24.7296C74.5108 24.8988 74.68 25.068 74.8565 25.2372C74.8124 26.4729 75.3126 27.2453 76.5998 27.3188Z" fill="#F3740F"/>
<path d="M40.4469 75.2332C39.5863 73.8872 37.9901 73.718 36.7617 72.9677C29.8254 68.7235 24.875 63.0303 23.1685 54.8876C22.5948 52.1513 22.4329 49.4444 24.4042 47.0906C27.7437 43.2363 31.8261 40.8898 37.0191 40.5662C38.7551 40.4559 40.4322 41.1399 42.1534 40.6986L42.1019 40.6471C43.6245 41.5371 45.1618 42.383 46.9272 42.692L46.8904 42.6625C49.2148 44.9869 51.5465 47.3039 53.8709 49.6283H53.8267C55.342 52.9898 57.4089 56.0939 58.4829 59.6614C58.5123 60.0586 58.5417 60.4558 58.5711 60.8456C58.3063 61.2428 58.0415 61.64 57.7694 62.0373C56.8205 62.1917 56.129 62.736 55.5921 63.501L55.6436 63.4642C52.7455 63.7217 50.5608 65.7592 50.4652 68.2969C49.6855 68.4808 49.5163 69.0104 49.6635 69.7165C49.8915 71.1435 50.1048 72.5779 50.3622 73.9975C50.5756 75.1597 52.363 76.2998 51.495 77.1383C50.6418 77.9622 48.9058 77.1457 47.5671 76.8956C47.214 76.8294 46.8536 76.8221 46.5005 76.7853C45.0147 76.7926 43.7348 75.4539 42.146 76.0938C42.021 74.8949 41.1751 75.1229 40.3954 75.2112L40.4469 75.2332ZM49.8988 62.4786C51.3332 61.2943 50.8845 59.6835 50.8771 58.1755C51.7819 57.9917 51.7598 57.3149 51.6127 56.6603C49.9209 49.0178 42.7565 46.6419 36.7543 49.7975C35.4303 50.4963 34.4226 51.7394 34.0328 53.2988C32.4734 59.5731 37.1001 65.3399 43.5583 65.1781C46.9272 66.0166 48.8838 65.1855 49.8988 62.4786Z" fill="#F7F1BB"/>
<path d="M1.66805 48.3338C1.35911 47.2819 1.05753 46.2227 0.748596 45.1708C2.89644 42.5302 5.97846 41.8461 9.08253 41.2135C13.1796 40.6692 17.262 40.4927 21.2561 41.8682C22.0652 42.5375 21.8077 43.4349 21.7857 44.2882C21.6606 48.5544 21.4326 52.8354 22.6831 56.9913C23.1023 58.3742 22.4771 58.8008 21.337 59.0803C16.8501 60.191 12.5765 59.8306 8.67062 57.1973C6.69931 55.8733 4.80156 54.4316 3.56581 52.3205C2.93323 50.9965 2.30063 49.6651 1.66805 48.3338Z" fill="#F2C6B2"/>
<path d="M88.5895 21.2578C90.2151 20.3163 92.0613 20.2133 93.8487 19.8896C95.3346 20.3678 95.5699 21.7359 95.9892 22.9422C97.35 26.8628 96.6218 30.6436 95.2242 34.3876C95.0992 34.6818 94.7167 34.9687 95.2095 35.2703L95.2169 35.2629C94.1283 35.3291 93.9223 36.3368 93.4295 37.0062C91.2669 39.9411 88.4497 41.7653 84.7793 42.0816C83.8966 42.1551 82.7859 42.3831 82.705 40.9194C82.9183 37.5799 82.1018 34.4685 80.5498 31.5336C80.4174 31.335 80.3732 30.9451 79.9981 31.2761L80.0349 31.335C80.4321 31.0334 80.1673 30.7539 80.0128 30.467C79.9392 30.239 79.8657 30.011 79.7921 29.7756C79.3729 28.8414 78.7844 27.8926 79.873 27.0025C82.4402 24.5678 85.6104 23.0526 88.5895 21.2578Z" fill="#F2C6B2"/>
<path d="M73.3853 5.11206C74.0179 6.05358 75.1066 6.26689 76.0113 6.76708C78.218 9.16501 79.9539 11.8277 80.4835 15.1231C80.4321 15.9763 80.3805 16.8222 80.3291 17.6681C78.9094 18.2198 78.2695 16.3514 76.9528 16.5795L76.9013 16.5353C76.5115 15.2555 75.4596 14.9907 74.3269 14.8435L74.2901 14.8141C74.1503 14.233 73.6355 14.1227 73.1941 13.88C70.502 12.4088 67.5891 12.1587 64.6027 12.2249L64.4777 12.3206C63.3229 9.84173 63.7054 8.20878 65.6767 7.17899C67.9569 6.91419 70.1048 5.8844 72.4586 6.0168C73.0764 6.06093 73.3853 5.72993 73.3853 5.11206Z" fill="#F2C6B2"/>
<path d="M64.4777 12.3354L64.6028 12.2397C67.4862 13.1739 70.5535 13.4902 73.2898 14.9025C73.606 15.0643 73.9738 15.1011 74.2828 14.8289L74.3196 14.8583C74.6726 16.1897 75.8054 16.3368 76.894 16.5501L76.9455 16.5943C77.3868 17.7565 78.4461 18.2199 79.417 18.7789C79.7554 20.5222 77.99 23.8616 76.5189 24.2882C76.0334 24.428 75.6951 24.2073 75.3567 23.9131C71.5686 20.7134 67.42 18.1537 62.6168 16.7855C61.7341 16.5354 61.712 16.1456 62.1239 15.3806C62.7492 14.2184 63.3376 13.0709 64.4777 12.3354Z" fill="#F8F7F5"/>
<path d="M28.6338 17.0135C29.1928 18.0654 29.7445 19.1172 30.3035 20.1617C29.34 21.1768 28.0454 21.6991 26.8979 22.442C25.2135 23.5233 23.2274 24.222 22.1976 26.1345L22.1829 26.1492C21.4253 26.4655 20.778 26.8627 20.8957 27.8484L20.8589 27.8925C19.7409 27.9293 19.2039 28.7016 18.7111 29.5549C16.7177 29.6799 17.3356 27.7307 16.5853 26.8701C16.6736 26.5244 16.6441 26.2154 16.3352 25.98C16.3426 25.0679 16.3499 24.1558 16.3573 23.2437C16.6883 22.67 16.6956 22.0448 16.6515 21.4195C16.7398 21.3313 16.7618 21.2209 16.7177 21.1032C16.7986 20.912 16.8722 20.7208 16.9531 20.5295C16.9972 19.5953 18.1153 19.382 18.2992 18.5361C21.6901 17.6461 25.0884 16.8517 28.6338 17.0135Z" fill="#F2C6B2"/>
<path d="M30.7375 21.0665C33.459 22.7804 33.54 23.0525 31.5834 25.1636C28.9721 27.9735 26.7581 31.0555 24.9559 34.4243C24.4484 35.3659 24.0585 35.4394 23.1612 34.9539C21.337 33.983 19.7702 32.8061 18.8655 30.901C19.6967 30.011 20.7117 29.2313 20.8588 27.8852L20.8956 27.8411C21.9328 27.7381 22.4918 27.2673 22.1829 26.1419L22.1976 26.1272C25.3531 24.965 27.935 22.8319 30.7375 21.0665Z" fill="#F8F7F5"/>
<path d="M49.1927 23.2069C48.0232 19.0583 46.1254 18.5066 42.7786 21.3385C42.7271 21.3827 42.6757 21.4783 42.6168 21.4783C39.373 21.6769 37.1222 24.5015 33.9151 24.7883C40.7411 18.639 48.6337 16.2117 57.8062 17.4106C62.7933 18.0653 67.3685 19.3746 71.3111 22.5743C70.2519 23.148 69.2221 21.037 68.1555 22.5449C67.0743 21.5298 66.3387 20.0292 64.5439 20.0292C62.602 18.1094 60.3218 17.8226 57.8209 18.6758C55.5186 18.8156 53.3707 19.279 52.0688 21.4783C50.7301 21.4268 50.149 22.6258 49.1927 23.2069Z" fill="#F05A41"/>
<path d="M73.3854 5.1122C73.3854 5.73007 73.0765 6.06108 72.4586 6.03165C70.1048 5.89925 67.957 6.92904 65.6767 7.19384C64.463 7.26004 63.1758 7.51013 62.5212 6.03901C61.9327 4.42812 60.9544 3.13354 59.498 2.21408C59.498 1.43439 59.8658 0.919496 60.6675 0.985697C65.2207 1.36819 69.7076 2.00077 73.3854 5.1122Z" fill="#148177"/>
<path d="M88.5894 21.2577C85.6031 23.0525 82.4401 24.5678 79.873 26.9951C77.4162 26.5611 77.3721 26.2669 78.6593 24.1705C80.6233 20.9782 83.4258 19.6248 87.0889 19.7057C88.2069 19.7278 88.6851 20.1691 88.5894 21.2577Z" fill="#F06F4A"/>
<path d="M9.11927 40.8898C7.70699 40.2131 6.36826 41.4121 4.33075 41.059C6.24321 39.8159 7.61872 38.6316 9.20753 37.9476C13.0251 36.3073 17.0266 35.351 21.234 35.785C22.2417 35.888 23.5584 36.1749 23.3377 37.4253C23.0803 38.8597 23.5142 40.8898 21.256 41.3459C20.2557 40.5073 18.814 40.853 17.7916 40.066C18.586 40.0733 19.3951 39.9704 20.1674 40.1101C21.234 40.3087 22.0431 40.3528 22.1461 38.9553C22.2343 37.7269 21.9622 36.7265 20.5425 36.6162C16.8059 36.322 13.1943 36.8001 9.86955 38.6831C9.51649 38.8817 8.95745 39.095 9.05307 39.5805C9.18547 40.2646 9.88426 39.9336 10.3256 40.0733C9.9284 40.3381 9.52383 40.6177 9.11927 40.8898Z" fill="#F06F4A"/>
<path d="M95.2316 34.3876C96.6291 30.651 97.3647 26.8628 95.9966 22.9423C95.5773 21.7286 95.3346 20.3605 93.8561 19.8897C93.8634 19.669 93.8708 19.441 93.8708 19.2203C96.1731 20.4414 98.0267 24.9724 97.5486 28.3854C97.453 29.0989 97.3132 29.783 97.4603 30.4965C97.4236 30.9305 97.3794 31.3645 97.3426 31.7985C97.2691 32.0338 97.2029 32.2692 97.1293 32.5046C96.688 33.3505 96.2393 34.2037 95.798 35.0496C95.6067 34.829 95.4155 34.6083 95.2316 34.3876Z" fill="#664F3F"/>
<path d="M42.1534 40.7061C40.4322 41.1548 38.7478 40.4707 37.0192 40.5737C31.8188 40.8973 27.7364 43.2438 24.4043 47.0981C24.2278 46.8995 24.0586 46.6935 23.8821 46.4949C24.5147 44.9723 26.28 44.5089 27.0303 43.0966C27.17 43.001 27.3024 42.9127 27.4422 42.8171C27.9056 42.7289 28.3469 42.6185 28.6044 42.1698L28.6779 42.1257C28.8471 42.008 29.009 41.8903 29.1781 41.78C29.3252 41.7285 29.465 41.677 29.6121 41.6255C29.7445 41.5446 29.8843 41.4637 30.0167 41.3828L30.0314 41.3754C30.3477 41.2504 30.664 41.1253 30.9803 40.9929C31.12 41.0003 31.2451 40.9635 31.3554 40.8826C31.5246 40.7723 31.6938 40.6693 31.8629 40.5589C32.0027 40.5884 32.1277 40.5663 32.2454 40.4927C32.8118 40.5075 33.3929 40.581 33.8637 40.147C34.2241 40.0735 34.5919 40.0073 34.9523 39.9337C37.0192 39.9411 39.0788 39.9484 41.1457 39.9558C41.3517 39.9999 41.5576 40.0514 41.7636 40.0955C41.8886 40.2941 42.021 40.5001 42.1534 40.7061Z" fill="#664F3F"/>
<path d="M80.4836 15.1232C79.9466 11.8205 78.218 9.16513 76.0114 6.7672C76.1805 6.54653 76.3497 6.33322 76.5189 6.11255C76.6513 6.1199 76.791 6.12726 76.9234 6.14197C78.6667 8.2751 80.6675 10.2391 81.2265 13.1004C80.5277 13.6079 81.05 14.5642 80.4836 15.1232Z" fill="#664F3F"/>
<path d="M27.0229 43.0892C26.2726 44.5015 24.5073 44.9649 23.8747 46.4875C23.4186 46.7156 22.7272 47.3408 22.7861 46.1933C22.8964 43.8542 23.095 41.5078 24.2866 39.3967C24.3749 40.2573 24.2792 41.0959 24.088 41.9491C23.757 43.4497 23.985 44.3471 25.7798 43.3026C26.1255 43.1187 26.6036 43.1628 27.0229 43.0892Z" fill="#F05A41"/>
<path d="M30.7375 21.0666C27.935 22.8319 25.3531 24.9651 22.1976 26.1273C23.2274 24.2148 25.2134 23.516 26.8978 22.4347C28.0453 21.6992 29.3399 21.1696 30.3035 20.1545C30.4065 20.1471 30.5094 20.1545 30.6124 20.1766C30.6492 20.4855 30.6933 20.7797 30.7375 21.0666Z" fill="#B59D69"/>
<path d="M17.7916 40.0587C18.814 40.8457 20.2557 40.5 21.2561 41.3386C21.2561 41.5151 21.2561 41.6916 21.2561 41.8682C17.262 40.4927 13.1796 40.6619 9.08253 41.2135C9.06046 41.1032 9.07516 40.9929 9.1193 40.8899C9.52386 40.6177 9.92841 40.3382 10.333 40.066C10.664 40.044 10.995 40.0219 11.326 39.9998C13.0693 40.6251 14.8126 40.6545 16.5485 39.9778C16.9678 39.9999 17.387 40.0293 17.8063 40.0513L17.7916 40.0587Z" fill="#664F3F"/>
<path d="M78.7991 35.8071C79.7627 34.4904 79.5126 33.1444 78.9168 31.7836C78.6005 31.0701 78.1813 30.386 78.2695 29.5548C78.6814 29.8858 79.086 30.2095 79.4979 30.5405L79.5126 30.4816C79.4244 30.9303 79.6082 31.2025 80.0422 31.3275L80.0054 31.2687C79.9172 31.7247 80.1084 32.0851 80.4026 32.4088C80.5424 33.6151 80.3144 34.7332 79.5935 35.7262C79.3214 35.7556 79.0566 35.785 78.7991 35.8071Z" fill="#F05A41"/>
<path d="M79.4244 18.7715C78.4534 18.2125 77.3942 17.7491 76.9529 16.5869C78.2695 16.3589 78.9095 18.2272 80.3291 17.6755C80.4689 18.4038 80.079 18.6906 79.4244 18.7715Z" fill="#B59D69"/>
<path d="M20.8589 27.8926C20.7118 29.2387 19.6967 30.011 18.8655 30.9084C18.814 30.4523 18.7625 30.0036 18.7111 29.5549C19.1965 28.7017 19.7408 27.9294 20.8589 27.8926Z" fill="#B59D69"/>
<path d="M28.266 31.3423C27.9203 32.4898 28.2072 34.0271 26.4492 34.314C26.8464 33.1886 27.3907 32.1661 28.266 31.3423Z" fill="#F05A41"/>
<path d="M25.5518 35.9984C25.5812 37.2194 25.9196 38.5582 24.3307 39.154C24.4484 37.9918 24.9192 36.962 25.5518 35.9984Z" fill="#F05A41"/>
<path d="M76.5997 27.3187C75.3052 27.2451 74.805 26.4728 74.8123 25.2665C75.5847 25.8034 76.2614 26.4213 76.5997 27.3187Z" fill="#F05A41"/>
<path d="M78.2843 29.5696C77.1515 29.4667 76.9308 28.7017 76.9897 27.7528C77.659 28.1868 78.1592 28.7458 78.2843 29.5696Z" fill="#F05A41"/>
<path d="M74.2975 24.7663C73.6428 24.7957 73.1279 24.6413 73.0838 23.8616C73.6428 23.9498 74.0474 24.2588 74.2975 24.7663Z" fill="#F05A41"/>
<path d="M30.4286 28.4075C30.4139 29.0401 30.2079 29.5182 29.4724 29.5476C29.5974 29.0033 29.9063 28.6134 30.4286 28.4075Z" fill="#F05A41"/>
<path d="M26.4492 34.3214C26.508 34.9246 26.4639 35.4763 25.7136 35.6381C25.721 35.0717 25.8975 34.5936 26.4492 34.3214Z" fill="#F05A41"/>
<path d="M16.3352 25.9727C16.6441 26.208 16.6736 26.517 16.5853 26.8627C16.2837 26.6273 16.2102 26.3257 16.3352 25.9727Z" fill="#664F3F"/>
<path d="M29.1119 29.9962C29.0972 30.3787 28.9427 30.6803 28.6117 30.8862C28.6117 30.4964 28.7735 30.1948 29.1119 29.9962Z" fill="#F05A41"/>
<path d="M24.75 63.0597C24.6249 62.8096 24.5072 62.5595 24.3822 62.3094C24.6838 62.4786 24.8015 62.7287 24.75 63.0597Z" fill="#F7F1BB"/>
<path d="M73.0911 23.9132C72.9293 23.7661 72.7675 23.6116 72.6057 23.4645C72.7675 23.6116 72.9293 23.7587 73.0911 23.9132Z" fill="#F05A41"/>
<path d="M32.5469 26.1199C32.4293 26.2523 32.3042 26.392 32.1865 26.5244C32.3042 26.392 32.4219 26.2523 32.5469 26.1199Z" fill="#F05A41"/>
<path d="M31.7305 26.9951C31.5834 27.1422 31.4436 27.282 31.2965 27.4291C31.4436 27.282 31.5834 27.1349 31.7305 26.9951Z" fill="#F05A41"/>
<path d="M31.3039 27.4218C31.1789 27.5689 31.0538 27.7086 30.9288 27.8557C31.0538 27.716 31.1789 27.5689 31.3039 27.4218Z" fill="#F05A41"/>
<path d="M79.7995 29.7682C79.8731 29.9962 79.9466 30.2242 80.0202 30.4523C79.851 30.4596 79.6818 30.4743 79.5127 30.4817L79.4979 30.5405C79.5935 30.2831 79.6965 30.0256 79.7995 29.7682Z" fill="#664F3F"/>
<path d="M49.0677 120.412C47.7731 117.374 46.6844 114.306 47.8466 110.952C51.1714 111.224 54.5108 111.489 57.7914 110.68C60.6749 109.974 63.2346 108.628 63.698 105.369C64.2276 101.633 64.2644 97.9255 62.2195 94.4169C59.1669 89.187 51.8922 85.5019 45.6694 87.5982C42.3961 88.7016 39.9099 90.8494 37.0927 92.5559C36.7838 91.8571 36.8647 91.1436 36.953 90.4228C39.2038 86.3845 41.3516 82.2727 44.8308 79.0877C45.2575 78.7862 45.6915 78.4772 46.1181 78.1757C50.149 78.3448 54.2607 77.9991 58.1004 79.6174C63.4626 81.8682 68.5233 81.1988 73.4001 78.2492C77.5413 79.0436 80.7189 81.4857 83.6465 84.3249C84.382 85.0384 84.4409 85.6343 83.2492 86.2668C81.8811 86.9877 80.079 86.8185 79.0786 88.2602L79.1301 88.2381C78.6299 88.1867 78.1665 88.3043 77.7473 88.5986C77.6222 88.7163 77.4972 88.834 77.3721 88.9516C77.0852 89.1576 76.7984 89.3709 76.5115 89.5769C76.357 89.724 76.2099 89.8711 76.0555 90.0182L76.0849 89.9814C75.8054 90.0108 75.6141 90.1285 75.6215 90.4448L75.6509 90.4154C72.9146 91.9969 70.6932 91.2539 68.5821 89.1061C67.6627 88.1719 66.3754 87.5394 64.7646 87.5467C69.4427 91.4452 69.1926 96.5279 68.4644 101.574C67.9128 105.443 66.78 109.194 64.5218 112.512C64.0952 113.137 63.7054 114.027 63.7936 114.733C64.1467 117.521 62.6314 118.955 60.3806 119.97C59.8216 120.022 59.395 120.309 59.0493 120.721C57.9459 120.507 57.0338 120.838 56.3056 121.699C56.1291 121.677 55.9525 121.655 55.776 121.64C53.7311 121.302 51.6863 120.956 49.6341 120.618C49.4355 120.551 49.2516 120.485 49.0677 120.412Z" fill="#F3740F"/>
<path d="M37.0781 92.5705C39.9026 90.864 42.3888 88.7088 45.6547 87.6128C51.8849 85.5165 59.1523 89.209 62.2049 94.4315C64.2497 97.9401 64.2129 101.647 63.6833 105.384C63.2199 108.635 60.6602 109.989 57.7768 110.695C54.4962 111.497 51.1567 111.232 47.832 110.967C47.1406 110.165 45.6841 110.143 45.5959 108.746C44.2645 105.333 42.5139 102.251 39.1009 100.478C38.152 99.198 35.5334 99.86 35.4819 97.9401C35.4378 96.3807 36.394 94.7846 36.9015 93.2105C36.9751 92.9898 37.0266 92.7765 37.0781 92.5705Z" fill="#F7F1BB"/>
<path d="M32.1571 107.333C32.0247 107.208 31.8923 107.09 31.7599 106.965C30.6198 105.516 28.9648 104.737 27.5157 103.7C26.964 103.302 25.9342 103.199 26.0446 102.331C26.1623 101.419 27.1847 101.353 27.9056 101.096C31.4877 99.7937 35.0699 99.9408 38.6448 101.118C38.8949 101.875 39.6966 102.045 40.1747 102.552C42.2784 104.781 44.7205 106.826 44.3674 110.371C42.6021 111.158 40.8073 111.901 39.0714 112.754C37.7253 113.416 36.8353 113.196 36.0262 111.872C34.9817 110.165 33.9445 108.422 32.1571 107.333Z" fill="#F3740F"/>
<path d="M55.7539 121.64C55.9305 121.662 56.107 121.684 56.2835 121.699C57.3501 121.794 58.5123 122.184 59.0198 120.72C59.3729 120.301 59.7995 120.014 60.3512 119.97C63.3376 120.441 63.8966 121.919 62.0356 124.509C59.2993 128.311 51.6421 130.202 46.9934 128.598C46.7948 128.532 46.4638 128.348 46.4711 128.26C46.8683 125.656 44.772 126.458 43.5363 126.112C42.8448 125.921 42.352 125.391 42.889 124.898C44.772 123.185 45.7282 120.139 49.053 120.412C49.2369 120.478 49.4208 120.551 49.6046 120.617C51.495 121.956 53.5178 122.434 55.7539 121.64Z" fill="#664F3F"/>
<path d="M79.976 95.9173L80.079 95.9688L80.0275 96.0791C79.8657 96.2483 79.7038 96.4175 79.542 96.594L79.6009 96.5352C79.2478 96.7926 79.1375 97.1531 79.1448 97.5723C77.3942 100.117 76.2982 100.132 74.8565 97.6091C74.1798 96.4248 73.5325 95.2185 72.8705 94.0269C73.7899 92.828 74.7094 91.629 75.6215 90.4227C75.6215 90.4227 75.5921 90.4595 75.5921 90.4521C75.7465 90.2976 75.901 90.1432 76.0555 89.9887L76.026 90.0255C76.1805 89.8783 76.3276 89.7312 76.4821 89.5841C76.769 89.3782 77.0558 89.1649 77.3427 88.9589C77.4677 88.8412 77.5928 88.7235 77.7178 88.6058C78.218 88.65 78.7108 88.6426 79.1007 88.2454L79.0492 88.2675C81.5428 87.3774 84.3085 87.3554 86.6255 85.8916C87.67 87.1421 88.7219 88.3852 89.7664 89.6356C89.9797 90.8125 91.1713 91.6364 90.9506 92.9604C88.5674 94.6448 86.1474 93.718 83.7862 92.9604C81.5575 92.2469 80.7116 92.6808 80.4247 94.9537C80.5056 95.042 80.5056 95.1229 80.4247 95.2038C80.2923 95.4539 80.1378 95.6819 79.976 95.9173Z" fill="#664F3F"/>
<path d="M77.6369 101.677C80.866 100.294 83.6465 101.427 86.2651 103.266C87.133 103.876 87.8612 104.685 88.6556 105.406C87.1845 106.024 86.2209 107.981 84.4188 107.503C82.1974 106.914 81.1161 108.238 79.873 109.511C79.6009 109.062 79.211 108.768 78.7182 108.606C78.7329 106.245 78.755 103.876 77.6369 101.677Z" fill="#F2C6B2"/>
<path d="M79.873 109.518C81.1161 108.245 82.2048 106.921 84.4188 107.51C86.2136 107.988 87.1845 106.024 88.6557 105.413C88.8396 106.524 89.5678 107.341 90.1341 108.253C90.6049 109.003 90.7741 109.93 90.3474 110.732C89.8252 111.695 88.8984 111.158 88.2143 110.974C85.5295 110.231 82.7638 110.717 80.0569 110.334C79.9907 110.062 79.9319 109.79 79.873 109.518Z" fill="#148177"/>
<path d="M73.0985 109.084C73.4221 109.01 73.6428 109.121 73.7605 109.444C73.4295 110.474 74.577 110.665 74.9447 111.533C72.9881 111.872 71.1345 112.004 69.3398 111.217C68.3468 110.783 67.1478 110.614 67.6774 108.834C68.1849 107.12 69.0897 107.679 70.0974 107.951C70.2077 107.981 70.3549 107.856 70.4799 107.797L70.421 107.789C70.5534 108.4 70.9433 108.444 71.4361 108.238C71.7745 108.15 72.0687 108.172 72.2232 108.554C72.0614 108.746 71.6642 108.929 72.2232 109.121L72.1643 109.069C72.4659 109.716 72.7822 109.68 73.0985 109.084Z" fill="#B59D69"/>
<path d="M77.6369 101.677C78.755 103.869 78.7329 106.245 78.7109 108.613C78.549 109.077 78.2622 109.408 77.7841 109.562C77.1441 107.819 76.5115 106.075 75.8642 104.332C74.9448 101.839 74.9448 101.839 77.6369 101.677Z" fill="#B59D69"/>
<path d="M44.3674 110.371C44.7205 106.826 42.2784 104.781 40.1747 102.552C39.6966 102.045 38.8949 101.875 38.6448 101.118C38.7992 100.897 38.9537 100.684 39.1082 100.463C42.5212 102.243 44.2718 105.325 45.6032 108.731C45 109.135 45.2501 110.18 44.3674 110.371Z" fill="#664F3F"/>
<path d="M39.1083 100.463C38.9538 100.684 38.7993 100.897 38.6449 101.118C35.07 99.9409 31.4805 99.7938 27.9056 101.096C27.1848 101.361 26.1624 101.419 26.0447 102.331C25.9343 103.199 26.9641 103.302 27.5158 103.7C28.9722 104.744 30.6199 105.516 31.76 106.966C29.009 105.862 26.6552 104.104 24.2278 102.479C25.037 101.574 25.9858 100.868 27.1333 100.448C28.4279 99.9703 28.7589 99.0877 28.244 97.8372C28.3617 97.3297 27.913 96.5279 28.7515 96.3955C29.4209 96.2925 29.4503 96.9839 29.5239 97.4694C29.6342 98.1608 29.4871 98.9994 30.5537 99.073C31.8409 99.1686 32.753 98.6316 33.4665 97.5577C34.0697 96.6456 33.5842 96.0645 33.0178 95.4687C31.9954 94.3874 31.3628 93.0781 30.9288 91.7026C29.8696 88.3779 29.8917 88.3632 26.692 89.8858C26.1035 90.1653 25.5445 90.5037 24.9487 90.7538C23.8086 91.2392 24.1175 91.7026 24.9119 92.2249C25.9638 92.9163 27.0009 93.6151 28.1557 94.3874C26.9273 95.0715 26.0447 93.8431 24.9413 94.3286C25.6916 95.4687 25.5077 97.0502 26.8906 97.8151C25.6401 98.5066 24.5588 98.433 24.5735 96.7559C24.5883 94.6669 23.8453 93.1664 22.0432 92.1587C22.9553 89.9226 25.2061 89.4077 26.9862 88.2676C28.5456 87.8336 30.0535 87.3187 31.1127 85.9873C31.4363 86.0388 31.7526 86.0903 32.0763 86.1418C30.7008 88.8266 31.4216 91.2833 32.8928 93.6592C33.746 95.0421 34.4595 94.6449 35.0038 93.4606C35.4525 92.4897 35.7467 91.4452 36.1072 90.4301C36.394 90.4228 36.6735 90.4154 36.9604 90.408C36.8648 91.1289 36.7912 91.8497 37.1002 92.5412C37.0413 92.7545 36.9898 92.9604 36.9236 93.1664C36.4161 94.7479 35.4672 96.3367 35.504 97.8961C35.5408 99.8453 38.1594 99.1906 39.1083 100.463Z" fill="#383634"/>
<path d="M28.6338 17.0137C25.0884 16.8445 21.6827 17.6462 18.2991 18.5289C18.3065 16.1825 20.0498 14.8143 21.3517 13.2402C23.0288 11.2101 25.309 9.92285 27.6187 8.74595C28.4572 8.31933 29.3546 8.10601 29.3399 9.58449C28.4793 12.0045 28.7515 14.5275 28.6338 17.0137Z" fill="#148177"/>
<path d="M90.399 105.48C90.2298 105.259 90.068 105.031 89.8988 104.81C90.0606 105.031 90.2298 105.252 90.399 105.48Z" fill="#FBF49F"/>
<path d="M26.8831 97.8225C25.5003 97.0575 25.6841 95.4761 24.9339 94.336C26.0446 93.8505 26.9199 95.0789 28.1483 94.3948C26.9934 93.6225 25.9563 92.9237 24.9044 92.2322C24.11 91.71 23.8085 91.2392 24.9412 90.7611C25.537 90.511 26.0961 90.1653 26.6845 89.8932C29.8916 88.3705 29.8622 88.3853 30.9214 91.71C31.3627 93.0928 31.9953 94.4021 33.0104 95.4761C33.5767 96.0719 34.0622 96.653 33.459 97.5651C32.7529 98.639 31.8335 99.1759 30.5462 99.0803C29.4797 98.9994 29.6268 98.1682 29.5164 97.4768C29.4429 96.984 29.4134 96.2925 28.7441 96.4029C27.9055 96.5353 28.3542 97.337 28.2365 97.8446C27.7878 97.8299 27.3318 97.8299 26.8831 97.8225Z" fill="#664F3F"/>
<path d="M55.445 36.9546C55.2979 36.7634 55.1508 36.7413 54.9963 36.9473L55.0037 36.8369L54.9081 36.7781C55.1508 35.9101 54.5697 36.1014 54.0989 36.1455L54.0769 36.1234C53.7606 35.6968 53.3707 35.4541 52.8264 35.6674C52.0394 35.1525 51.2523 34.645 50.4653 34.1301C50.5388 33.7181 50.3549 33.4607 49.9871 33.3062L49.9724 33.2842C49.9945 32.9164 49.8327 32.6516 49.5311 32.4677L49.4796 32.4235C49.2736 30.7759 48.1924 29.2459 48.8176 27.3997C49.4943 27.2526 50.0607 28.1352 50.7816 27.716C51.0905 27.841 51.4068 27.9734 51.7157 28.0984C52.2453 29.1503 53.3119 29.0032 54.1578 28.9738C56.2468 28.9076 58.2475 28.3633 60.0864 27.3408C60.6234 30.9083 60.0791 34.0197 56.4822 35.8513C56.0555 36.0719 55.5995 36.3367 55.4671 36.8884L55.445 36.9546Z" fill="#148177"/>
<path d="M55.4818 36.8812C55.6142 36.3368 56.0629 36.0647 56.4969 35.844C60.0938 34.0125 60.6307 30.9084 60.1011 27.3409C60.2777 27.1717 60.4469 27.0026 60.616 26.8334C61.4325 27.1423 62.249 27.4512 63.0655 27.7602L63.1317 27.8779C63.2273 27.9882 63.3155 28.1059 63.4112 28.2162C63.8672 30.4818 65.6914 32.3795 65.228 34.8951C65.2059 35.0496 65.1912 35.2041 65.1765 35.3512C63.9261 35.2923 63.4553 36.4839 62.5506 36.9768C60.8588 37.3813 59.1449 37.5432 57.409 37.3813C56.8352 36.9032 56.1512 36.9179 55.4818 36.8812Z" fill="#F2C6B2"/>
<path d="M58.1372 56.2189C59.6819 57.8151 60.8882 57.8592 63.0361 56.572C64.7646 55.5348 67.3391 55.0346 69.6855 55.2627C71.5759 55.4466 72.3556 54.6227 72.2012 52.747C72.0246 50.6066 72.3924 48.4808 71.5612 46.3329C70.8624 44.5235 72.4218 43.6776 73.9003 43.0891C73.8194 44.8545 72.9735 46.561 73.5252 48.3631C73.5252 50.6066 73.5178 52.85 73.5178 55.0935C72.3409 55.8805 70.9948 55.9835 69.634 56.1086C66.2578 56.4322 63.1243 57.4694 60.3954 59.5584C59.9687 59.5657 59.5348 59.5804 59.1081 59.5878C58.7845 58.4624 58.4609 57.3443 58.1372 56.2189Z" fill="#F05A41"/>
<path d="M51.7231 28.0985C51.4142 27.9734 51.0979 27.841 50.7889 27.716C50.1784 26.6347 49.5311 25.5902 48.2292 25.2151C48.2807 24.9429 48.3322 24.6634 48.391 24.3912C48.8471 24.1191 49.1266 23.7366 49.2001 23.1996C50.1563 22.6185 50.7375 21.4196 52.0688 21.4637C53.106 24.1926 54.9449 26.0389 57.8209 26.7818C57.6223 27.9881 56.622 28.1205 55.7246 28.1647C54.3932 28.2382 53.0545 28.1279 51.7231 28.0985Z" fill="#F5E721"/>
<path d="M65.2133 34.8877C65.6767 32.3721 63.8598 30.4744 63.3964 28.2088C63.3008 28.0985 63.2125 27.9808 63.1169 27.8705L63.0507 27.7528C64.0584 26.0389 65.022 28.1279 66.015 27.7896C66.5152 28.1132 66.8756 28.5472 67.0522 29.1283C67.1184 30.3861 67.9422 30.9745 69.0235 31.3203C69.0235 32.0705 68.3321 32.431 68.0599 33.0268C67.9496 33.0635 67.8834 33.1445 67.8539 33.2548C67.7583 33.3725 67.6553 33.4975 67.5671 33.6152C67.3537 33.9168 67.1331 34.2184 66.9198 34.52C66.78 34.5494 66.6918 34.6303 66.6623 34.77C66.5005 34.8877 66.3387 35.0128 66.1769 35.1305C65.8532 35.0569 65.5369 34.976 65.2133 34.8877Z" fill="#F8F167"/>
<path d="M67.0596 29.1356C66.8904 28.5545 66.53 28.1206 66.0298 27.7969C65.3898 25.7594 63.2494 26.6421 62.0283 25.73C62.58 24.0823 64.3527 25.2372 65.228 24.3324C65.662 24.2809 66.1033 24.2368 66.5373 24.1853C67.3832 24.3765 68.2365 24.5678 69.0824 24.7517C69.1192 24.9062 69.1559 25.0606 69.1927 25.2224C69.2883 25.9139 69.4502 26.6127 69.4722 27.3041C69.5458 29.0842 68.8323 29.6064 67.0596 29.1356Z" fill="#F7F1BB"/>
<path d="M48.3836 24.3912C48.3321 24.6634 48.2806 24.9429 48.2218 25.2151C47.2141 28.0838 47.7069 30.9157 49.4796 32.4236L49.5311 32.4677C49.487 32.8429 49.6488 33.1077 49.9724 33.2842L49.9871 33.3063C50.149 33.5784 50.3034 33.8579 50.4652 34.1301C51.2523 34.645 52.0394 35.1525 52.8264 35.6674C53.1427 36.094 53.5546 36.2706 54.0769 36.1235L54.0989 36.1455C54.3711 36.3588 54.6359 36.5648 54.9081 36.7781L55.0037 36.8369L54.9963 36.9473C52.1497 37.1459 50.1195 35.6453 48.3983 33.652C46.8242 31.8351 46.8831 26.0095 48.3836 24.3912Z" fill="#F05A41"/>
<path d="M69.0824 24.7517C68.2365 24.5604 67.3832 24.3692 66.5373 24.1853C65.8091 23.0084 64.4042 22.3832 63.9408 20.9929C64.1394 20.6693 64.338 20.3456 64.5366 20.022C66.324 20.0146 67.0669 21.5226 68.1482 22.5376C68.4204 23.2879 69.2001 23.8322 69.0824 24.7517Z" fill="#F5E721"/>
<path d="M73.5251 48.3633C72.9734 46.5538 73.8193 44.8473 73.9002 43.0893C74.0694 42.7803 74.2386 42.4787 74.4078 42.1698C74.7682 41.8462 74.8197 41.4048 74.8565 40.9561C74.9889 40.6693 75.1286 40.3898 75.261 40.1029C75.7171 39.7719 76.0187 39.3453 76.0922 38.7715L76.1069 38.7421C76.6218 38.4773 76.8646 38.0065 77.0411 37.4916C77.1661 37.3592 77.2838 37.2195 77.4089 37.0871C77.5707 36.9179 77.7252 36.7561 77.887 36.5869C78.1886 36.3295 78.4901 36.072 78.7917 35.8072C79.0565 35.7851 79.3213 35.7557 79.5788 35.7336C79.1374 36.4324 78.6961 37.1312 78.2548 37.83C77.99 38.058 77.681 38.2493 77.4751 38.5214C75.2537 41.4343 74.2092 44.8252 73.5251 48.3633Z" fill="#664F3F"/>
<path d="M53.8709 49.6284C51.5465 47.304 49.2148 44.987 46.8904 42.6626C49.9357 44.2735 52.5322 46.3183 53.8709 49.6284Z" fill="#664F3F"/>
<path d="M58.1372 56.2191C58.4608 57.3445 58.7918 58.4625 59.1155 59.5879C58.9095 59.61 58.6962 59.6394 58.4902 59.6615C57.4163 56.094 55.3494 52.9899 53.8268 49.6284C54.018 49.6431 54.2093 49.6578 54.4005 49.6726C54.4961 49.7903 54.5918 49.9153 54.6874 50.033C54.7462 50.1874 54.8051 50.3419 54.8639 50.5037C55.0846 50.8127 55.3126 51.1216 55.5333 51.4306C55.7025 51.6954 55.8643 51.9675 56.0335 52.2323C56.1732 52.4162 56.3056 52.6001 56.4454 52.784C56.4307 52.8943 56.4527 52.9973 56.5263 53.0929C56.5263 53.6887 56.8132 54.1227 57.2839 54.4537C57.3354 54.5935 57.3869 54.7332 57.4384 54.8656C57.5487 55.0127 57.6591 55.1599 57.762 55.2996L57.7253 55.2702C57.74 55.638 57.8577 55.9543 58.1887 56.1602L58.1372 56.2191Z" fill="#664F3F"/>
<path d="M67.0596 29.1357C68.8396 29.6065 69.5458 29.0842 69.4796 27.3115C69.4501 26.6127 69.2957 25.9213 69.2 25.2299C70.7447 27.3115 70.3034 29.3343 69.0309 31.335C67.9422 30.982 67.1258 30.3935 67.0596 29.1357Z" fill="#FAF285"/>
<path d="M46.9272 42.6919C45.1618 42.383 43.6245 41.5371 42.1019 40.6471C42.5358 40.6324 42.9698 40.6103 43.3965 40.5956C44.5292 41.3753 46.096 41.4194 46.9272 42.6919Z" fill="#664F3F"/>
<path d="M41.1383 39.9484C39.0714 39.941 37.0045 39.9337 34.9449 39.9263C37.0118 39.4482 39.0787 39.4188 41.1383 39.9484Z" fill="#F05A41"/>
<path d="M62.5358 36.9767C63.4406 36.4765 63.9113 35.2923 65.1618 35.3511C64.6763 36.5133 64.0732 37.4989 62.5358 36.9767Z" fill="#F05A41"/>
<path d="M55.4818 36.8811C56.1585 36.9179 56.8426 36.9105 57.4016 37.3813C56.5704 38.058 55.9599 37.7491 55.445 36.9547L55.4818 36.8811Z" fill="#F05A41"/>
<path d="M33.8637 40.1396C33.3929 40.5736 32.8118 40.5 32.2454 40.4853C32.7015 39.9998 33.1355 39.382 33.8637 40.1396Z" fill="#F05A41"/>
<path d="M66.9125 34.5346C67.1331 34.2331 67.3465 33.9315 67.5598 33.6299C67.7069 34.1889 67.7142 34.645 66.9125 34.5346Z" fill="#F05A41"/>
<path d="M77.0411 37.4916C76.8646 38.0065 76.6218 38.4772 76.107 38.742C76.0702 38.058 76.2393 37.5357 77.0411 37.4916Z" fill="#F05A41"/>
<path d="M76.0923 38.764C76.0188 39.3378 75.7172 39.7644 75.2611 40.0954C75.2096 39.4481 75.2979 38.8891 76.0923 38.764Z" fill="#F05A41"/>
<path d="M74.8565 40.9487C74.8198 41.3974 74.7683 41.8388 74.4079 42.1624C73.7459 41.4636 74.3122 41.2135 74.8565 40.9487Z" fill="#F05A41"/>
<path d="M57.2839 54.4537C56.8132 54.1227 56.5263 53.6887 56.5263 53.0929C57.3134 53.2474 57.3722 53.8064 57.2839 54.4537Z" fill="#F05A41"/>
<path d="M43.3965 40.6031C42.9625 40.6178 42.5285 40.6398 42.1019 40.6545L42.1534 40.706C42.021 40.5001 41.8886 40.2941 41.7635 40.0882C42.3741 40.044 43.0067 39.941 43.3965 40.6031Z" fill="#F05A41"/>
<path d="M66.1695 35.1452C66.3313 35.0202 66.4931 34.9025 66.655 34.7848C66.6476 34.9687 66.6403 35.1452 66.6329 35.3291C66.4858 35.2629 66.324 35.2041 66.1695 35.1452Z" fill="#F05A41"/>
<path d="M55.5407 51.4306C55.32 51.1217 55.092 50.8127 54.8713 50.5038C55.4009 50.5921 55.5775 50.9378 55.5407 51.4306Z" fill="#F05A41"/>
<path d="M28.597 42.1624C28.3395 42.611 27.8982 42.7214 27.4348 42.8097C27.6554 42.2874 28.1115 42.1991 28.597 42.1624Z" fill="#F05A41"/>
<path d="M30.9803 40.9856C30.664 41.1106 30.3477 41.2357 30.0314 41.3681C30.2668 41.0444 30.5978 40.9488 30.9803 40.9856Z" fill="#F05A41"/>
<path d="M58.1887 56.1675C57.8577 55.9615 57.74 55.6452 57.7253 55.2775C58.071 55.4687 58.2034 55.785 58.1887 56.1675Z" fill="#F05A41"/>
<path d="M54.6948 50.0404C54.5991 49.9153 54.5035 49.7976 54.4079 49.6799C54.4962 49.7976 54.5918 49.9153 54.6948 50.0404Z" fill="#F05A41"/>
<path d="M67.8539 33.2695C67.8834 33.1592 67.9496 33.0783 68.0599 33.0415C68.0452 33.1665 67.979 33.2401 67.8539 33.2695Z" fill="#F05A41"/>
<path d="M77.8944 36.5868C77.7325 36.756 77.5781 36.9178 77.4163 37.087C77.5707 36.9178 77.7325 36.7486 77.8944 36.5868Z" fill="#F05A41"/>
<path d="M31.8556 40.5516C31.6864 40.662 31.5172 40.7723 31.348 40.8753C31.5246 40.7723 31.6864 40.662 31.8556 40.5516Z" fill="#F05A41"/>
<path d="M30.0166 41.3754C29.8842 41.4563 29.7445 41.5372 29.6121 41.6181C29.7445 41.5372 29.8769 41.4563 30.0166 41.3754Z" fill="#F05A41"/>
<path d="M29.1781 41.7727C29.0089 41.8904 28.8471 42.0081 28.6779 42.1184C28.8397 42.0081 29.0089 41.8904 29.1781 41.7727Z" fill="#F05A41"/>
<path d="M49.6709 69.7166C49.5164 69.0105 49.693 68.4809 50.4727 68.297C52.1424 66.6273 53.6871 64.8251 55.651 63.4644L55.5995 63.5011C56.3719 64.5824 56.416 66.0682 57.5488 66.9362C61.0427 69.6137 64.9338 70.2095 69.1412 69.1502C69.4281 69.0914 69.715 69.0399 70.0019 68.9811C74.7977 67.4364 79.167 65.4357 80.1158 59.7056C80.2335 59.0142 80.6748 58.7568 81.3148 58.7273L81.278 58.6906C80.9176 59.6247 81.7561 60.1322 82.0577 60.8237C83.0581 63.126 83.3082 65.774 81.4472 67.3113C78.1739 70.0182 76.5042 73.8358 73.7826 76.8737C73.3634 77.1605 72.9514 77.4474 72.5322 77.7343C68.8838 79.4923 65.1324 80.5441 61.0353 79.5143C59.2626 79.0656 57.74 78.0432 56.0188 77.5357C52.5175 76.4912 51.0758 74.9171 50.6051 71.3275C50.5168 70.6581 50.789 69.7902 49.6709 69.7166ZM75.3935 70.3492C69.2221 68.5544 64.4042 72.1072 59.6672 74.9612C65.8606 77.1973 71.3259 75.8292 75.3935 70.3492Z" fill="#F2C6B2"/>
<path d="M70.0018 68.981C69.7149 69.0398 69.428 69.0913 69.1412 69.1501C68.4056 67.7599 66.7579 68.9662 65.7796 67.907C64.5586 66.5904 62.7344 66.4212 61.0426 66.1049C57.5855 65.465 57.5781 65.4429 57.7767 62.0373C58.0415 61.64 58.3063 61.2428 58.5785 60.8456C59.4538 60.7868 60.2556 60.6397 60.4027 59.551C61.1677 59.6761 61.8297 59.3819 62.4549 59.0214C66.2578 56.8148 70.4137 56.8074 74.6138 56.9913C76.3791 57.0648 77.4751 58.1903 78.5564 59.3524C79.1522 59.9924 78.8947 60.6838 78.218 60.9413C74.5255 62.3462 73.8193 66.9802 70.1268 68.3557C70.0238 68.4072 70.0386 68.7676 70.0018 68.981Z" fill="#664F3F"/>
<path d="M43.5583 65.1781C37.1001 65.3473 32.4734 59.5804 34.0328 53.3061C34.4226 51.7394 35.4303 50.4963 36.7543 49.8048C42.7565 46.6493 49.9209 49.0251 51.6127 56.6676C51.7598 57.3223 51.7745 57.999 50.8771 58.1829C50.3034 57.0428 49.7223 55.8953 49.1486 54.7552C49.0162 54.3432 48.8764 53.9387 48.3615 53.8578L48.3468 53.8651C48.3321 53.4826 48.1335 53.262 47.7657 53.1811C47.4862 53.0266 47.2067 52.8721 46.9272 52.7177C44.3968 51.1288 42.3152 51.2318 40.4248 53.0487L40.3954 53.0781C39.5642 53.1149 39.1523 53.5636 39.1155 54.38C38.9831 54.5566 38.858 54.7405 38.7256 54.917C38.1887 55.1818 38.1372 55.6011 38.3432 56.1012C38.3799 56.675 38.4167 57.2414 38.4535 57.8151C38.174 58.4771 38.3284 58.9994 38.9757 59.3524C39.167 59.7276 39.3582 60.1101 39.5495 60.4852C39.5715 61.0148 39.8805 61.2943 40.3807 61.4047C40.7484 61.7651 41.1162 62.1329 41.484 62.4933L41.5061 62.5006C42.1239 62.8758 42.7492 63.2509 43.367 63.6187C43.3229 64.1483 44.8602 64.4866 43.5583 65.1781Z" fill="#F5E721"/>
<path d="M49.1486 54.7479C49.7223 55.8954 50.3034 57.0355 50.8772 58.1756C50.8845 59.6835 51.3332 61.2944 49.8989 62.4787C48.0158 63.126 46.1696 64.0675 44.1247 63.0377C43.5142 62.2801 42.9037 61.5298 42.2858 60.7722C43.1685 60.3308 45.0809 61.0296 44.6102 59.0951C44.1468 57.19 42.8743 58.9847 41.9916 58.8082C41.918 58.7935 41.8518 58.7861 41.7783 58.7788C41.9916 54.9833 43.6466 52.8428 48.2071 54.3875C48.4351 54.7405 48.7882 54.7479 49.1486 54.7479Z" fill="#383634"/>
<path d="M49.6709 69.7167C50.7889 69.7902 50.5167 70.6508 50.605 71.3275C51.0684 74.9171 52.5175 76.4986 56.0188 77.5357C57.74 78.0432 59.2626 79.073 61.0353 79.5144C65.1397 80.5442 68.8837 79.4923 72.5321 77.7343C72.819 77.9108 73.1132 78.0874 73.4001 78.2565C68.5233 81.2061 63.4626 81.8755 58.1004 79.6247C54.2608 78.0138 50.149 78.3522 46.1181 78.183C46.6404 77.9844 47.1552 77.7858 47.7952 77.5504C47.2876 77.293 46.758 77.2635 46.5227 76.7928C46.8757 76.8296 47.2362 76.8369 47.5892 76.9031C48.928 77.1532 50.6639 77.9697 51.5171 77.1458C52.3851 76.3073 50.5977 75.1598 50.3844 74.005C50.1122 72.578 49.9062 71.1437 49.6709 69.7167Z" fill="#664F3F"/>
<path d="M57.7767 62.0447C57.5781 65.4503 57.5855 65.465 61.0426 66.1123C62.7344 66.4286 64.5586 66.5978 65.7797 67.9145C66.758 68.9737 68.4056 67.7747 69.1412 69.1576C64.9338 70.2168 61.0426 69.6283 57.5487 66.9435C56.416 66.0756 56.3645 64.5824 55.5995 63.5085C56.1364 62.7361 56.8279 62.1991 57.7767 62.0447Z" fill="#383634"/>
<path d="M44.1247 63.045C46.1696 64.0748 48.0232 63.1259 49.8989 62.486C48.8838 65.1928 46.9272 66.024 43.5583 65.1855C44.8676 64.494 43.3229 64.1557 43.3671 63.6187C43.6172 63.4201 43.8673 63.2289 44.1247 63.045Z" fill="#B59D69"/>
<path d="M55.651 63.4642C53.687 64.8177 52.1423 66.6271 50.4726 68.2969C50.5609 65.7665 52.7528 63.7217 55.651 63.4642Z" fill="#664F3F"/>
<path d="M46.5153 76.8001C46.7506 77.2708 47.2802 77.3003 47.7878 77.5577C47.1552 77.8004 46.633 77.9917 46.1107 78.1903C45.6841 78.4919 45.2501 78.8008 44.8235 79.1024C45.0662 77.0355 43.3376 77.0722 42.1239 76.5721C42.0798 76.4617 42.021 76.3587 42.0136 76.2484C42.0063 76.2043 42.1092 76.1528 42.1681 76.1086C43.7495 75.4614 45.0294 76.8001 46.5153 76.8001Z" fill="#383634"/>
<path d="M60.3954 59.5585C60.2482 60.6397 59.4465 60.7942 58.5712 60.8531C58.5418 60.4559 58.5123 60.0587 58.4829 59.6688C58.6889 59.6467 58.9022 59.6173 59.1081 59.5953C59.5421 59.5805 59.9687 59.5658 60.3954 59.5585Z" fill="#383634"/>
<path d="M42.1608 76.1087C41.2855 76.3882 40.5205 76.4544 40.4102 75.226C41.1899 75.1377 42.0358 74.9097 42.1608 76.1087Z" fill="#383634"/>
<path d="M92.591 39.7644C92.488 39.8821 92.385 39.9924 92.282 40.1101C92.1128 40.2719 91.951 40.4264 91.7818 40.5882C89.303 42.9567 86.1842 43.17 83.0066 43.17C82.1607 43.1332 82.3372 44.1336 81.7708 44.3911C81.587 43.9644 81.175 43.6114 81.3148 43.0744C81.4178 42.8979 81.5134 42.7287 81.6164 42.5521C81.7193 42.0078 81.8223 41.4635 81.9253 40.9192C82.1828 40.9192 82.4402 40.9192 82.705 40.9118C82.7859 42.3756 83.8966 42.1549 84.7793 42.074C88.4571 41.7577 91.2669 39.9335 93.4295 36.9986C93.9223 36.3293 94.1209 35.3216 95.2169 35.2554C95.8274 36.4176 94.7903 36.8148 94.2165 37.4326C93.8782 37.5945 93.8267 37.8887 93.8635 38.2197C93.7605 38.3962 93.6575 38.5728 93.5619 38.7419L93.4589 38.7787L93.4516 38.8891C93.2162 39.1244 92.9882 39.3598 92.7528 39.5952C92.6424 39.5952 92.591 39.654 92.591 39.7644Z" fill="#383634"/>
<path d="M82.705 40.912C82.4476 40.912 82.1901 40.912 81.9253 40.9193C81.8297 40.7428 81.734 40.5663 81.6384 40.3897C81.7193 39.3305 81.7267 38.2787 81.5575 37.2121C81.3663 35.9984 80.844 35.4173 79.5789 35.7336C80.2997 34.7406 80.5277 33.6226 80.388 32.4162C80.4395 32.122 80.491 31.8278 80.5424 31.5336C82.1018 34.4685 82.9183 37.5725 82.705 40.912Z" fill="#664F3F"/>
<path d="M79.5126 30.489C79.6818 30.4817 79.851 30.467 80.0202 30.4596C80.1746 30.7465 80.4394 31.0333 80.0422 31.3276C79.6083 31.2099 79.417 30.9377 79.5126 30.489Z" fill="#383634"/>
<path d="M80.5498 31.5262C80.4983 31.8204 80.4468 32.1147 80.3953 32.4089C80.1011 32.0853 79.9098 31.7248 79.9981 31.2688C80.3806 30.9378 80.4174 31.3276 80.5498 31.5262Z" fill="#383634"/>
<path d="M95.7906 35.0496C95.6582 35.285 95.6067 35.7116 95.2168 35.2702C94.724 34.9687 95.1065 34.6818 95.2316 34.3876C95.4154 34.6082 95.6067 34.8289 95.7906 35.0496Z" fill="#383634"/>
<path d="M42.124 76.572C43.345 77.0722 45.0736 77.0354 44.8235 79.1023C41.3369 82.2873 39.1965 86.3991 36.9456 90.4374C36.6588 90.4447 36.3792 90.4521 36.0924 90.4594C37.5561 86.5021 39.6966 82.9567 42.5506 79.8453C42.9552 79.4039 43.7054 78.8743 43.1685 78.2123C42.6683 77.6018 41.9769 78.2785 41.3737 78.3889C41.0353 78.4551 40.7411 78.7199 40.4175 78.8743C36.9824 80.5588 34.305 83.1112 32.0615 86.1637C31.7378 86.1123 31.4215 86.0608 31.0979 86.0093C33.4517 82.1549 36.7249 79.3598 40.8367 77.5135C41.3296 77.2929 42.0357 77.3517 42.124 76.572Z" fill="#664F3F"/>
<path d="M74.2902 14.8289C73.9739 15.1011 73.6061 15.0643 73.2972 14.9025C70.5609 13.4902 67.4936 13.1739 64.6102 12.2398C67.5892 12.1736 70.5094 12.4237 73.1942 13.8948C73.6355 14.1375 74.1504 14.2478 74.2902 14.8289Z" fill="#B59D69"/>
<path d="M76.9014 16.5427C75.8127 16.3294 74.68 16.1823 74.3269 14.851C75.4597 14.9981 76.5115 15.2702 76.9014 16.5427Z" fill="#B59D69"/>
<path d="M22.1829 26.1493C22.4918 27.2747 21.9328 27.7381 20.8957 27.8484C20.778 26.8628 21.4253 26.4656 22.1829 26.1493Z" fill="#B59D69"/>
<path d="M64.5293 20.022C64.3307 20.3457 64.1321 20.6693 63.9335 20.993C63.6981 20.9562 63.4627 20.9194 63.2347 20.89C62.5138 19.0658 60.9103 19.5881 59.5422 19.5292C58.9316 19.4998 58.402 19.7425 58.3138 20.4634C58.2181 21.324 58.1372 22.214 58.8213 22.8907C59.3435 23.4056 59.8731 23.0231 60.3954 22.7951C60.7779 22.6259 61.1824 22.523 61.5797 22.3906C61.3443 23.4792 60.9471 24.6414 62.9037 24.1044C63.6539 23.8985 64.4704 24.0014 65.2207 24.3398C64.3454 25.2445 62.5727 24.0897 62.021 25.7374C61.2413 25.7153 60.491 25.7153 60.6087 26.8407C60.4395 27.0099 60.263 27.1791 60.0938 27.3482C58.2476 28.3707 56.2468 28.915 54.1578 28.9812C53.3119 29.0106 52.2454 29.1577 51.7158 28.1059C53.0471 28.1427 54.3858 28.253 55.7099 28.1794C56.6072 28.1353 57.6076 28.0029 57.8062 26.7966C58.2108 24.0897 56.9677 21.3828 57.8062 18.676C60.3145 17.8154 62.5874 18.1022 64.5293 20.022Z" fill="#B59D69"/>
<path d="M57.8062 18.6613C56.9676 21.3681 58.2107 24.075 57.8062 26.7819C54.9375 26.0389 53.0912 24.1927 52.0541 21.4637C53.356 19.2644 55.5039 18.801 57.8062 18.6613Z" fill="#F2C6B2"/>
<path d="M11.3259 39.9925C10.9949 40.0146 10.6639 40.0367 10.3329 40.0587C9.89157 39.919 9.1928 40.25 9.0604 39.5659C8.96478 39.0878 9.52379 38.8671 9.87686 38.6685C13.1942 36.7781 16.8059 36.3074 20.5499 36.6016C21.9622 36.7119 22.2417 37.7123 22.1534 38.9407C22.0504 40.3382 21.2413 40.2941 20.1747 40.0955C19.4097 39.9557 18.5933 40.0587 17.7989 40.0514L17.8136 40.044C17.4752 39.6395 17.0339 39.588 16.5558 39.6615C14.8051 39.7204 13.0251 39.1687 11.3259 39.9925Z" fill="#F3740F"/>
<path d="M11.326 39.9925C13.0178 39.1687 14.8052 39.713 16.5485 39.6615C16.5411 39.7645 16.5411 39.8674 16.5558 39.9704C14.8126 40.6471 13.0693 40.6177 11.326 39.9925Z" fill="#ED4F3F"/>
<path d="M16.5559 39.9778C16.5412 39.8748 16.5412 39.7718 16.5485 39.6688C17.0266 39.6026 17.4753 39.6468 17.8063 40.0513C17.3871 40.0219 16.9678 39.9998 16.5559 39.9778Z" fill="#F06F4A"/>
<path d="M73.4001 78.2638C73.1132 78.0873 72.819 77.9108 72.5321 77.7416C72.9514 77.4547 73.3633 77.1679 73.7826 76.881C74.2386 77.0502 74.6873 77.2267 75.1434 77.3959C75.6068 77.6754 76.0628 77.9623 76.5262 78.2418C76.7542 78.3227 76.9823 78.411 77.2029 78.4919C78.4755 78.7861 79.5052 79.5217 80.513 80.294C80.7042 80.4411 80.8881 80.5809 81.0794 80.728C83.1904 82.1844 85.0587 83.8835 86.6549 85.899C84.3379 87.3628 81.5722 87.3774 79.0786 88.2748C80.0863 86.8331 81.8811 87.0023 83.2493 86.2815C84.4409 85.6489 84.3894 85.0604 83.6465 84.3396C80.7189 81.5003 77.5413 79.0582 73.4001 78.2638Z" fill="#383634"/>
<path d="M55.7539 121.64C53.5178 122.427 51.495 121.949 49.612 120.618C51.6642 120.963 53.7091 121.302 55.7539 121.64Z" fill="#383634"/>
<path d="M59.0272 120.728C58.5196 122.192 57.3501 121.802 56.2909 121.706C57.0044 120.846 57.9165 120.507 59.0272 120.728Z" fill="#383634"/>
<path d="M79.1228 88.2454C78.7329 88.6427 78.2401 88.6426 77.7399 88.6059C78.1592 88.3043 78.6153 88.194 79.1228 88.2454Z" fill="#383634"/>
<path d="M76.4968 89.5768C76.3423 89.7239 76.1952 89.871 76.0408 90.0181C76.1952 89.871 76.3497 89.7239 76.4968 89.5768Z" fill="#383634"/>
<path d="M76.0702 89.9886C75.9158 90.1431 75.7613 90.2976 75.6068 90.4521C75.5995 90.1358 75.7907 90.0181 76.0702 89.9886Z" fill="#383634"/>
<path d="M86.9712 96.3072C87.0815 97.234 86.3828 97.7268 85.8385 98.227C84.5659 99.3891 83.6097 99.117 82.9697 97.4841C82.6314 96.6308 82.3225 95.7628 82.0062 94.9022C82.7049 94.5124 83.4552 94.3726 84.257 94.3947C85.6031 94.4241 87.1036 94.1887 86.9712 96.3072Z" fill="#664F3F"/>
<path d="M86.9712 96.3071C87.1036 94.1887 85.5957 94.4241 84.2497 94.3947C83.4479 94.3799 82.705 94.5197 81.9988 94.9022C81.4619 94.3873 80.947 94.4462 80.4542 94.9611C80.741 92.6882 81.5869 92.2468 83.8157 92.9677C86.1768 93.7253 88.5968 94.6521 90.9801 92.9677C91.8701 94.63 91.3111 95.3435 89.4942 95.2479C88.4939 95.1964 87.4788 95.1596 86.9712 96.3071Z" fill="#383634"/>
<path d="M93.8708 38.2198C93.834 37.8888 93.8782 37.5946 94.2239 37.4327C94.0988 37.6975 93.9812 37.9623 93.8708 38.2198Z" fill="#664F3F"/>
<path d="M79.1522 97.565C79.1448 97.1531 79.2552 96.7853 79.6083 96.5278C79.6524 96.9618 79.5568 97.3296 79.1522 97.565Z" fill="#383634"/>
<path d="M71.4362 108.245C70.9433 108.451 70.5535 108.407 70.4211 107.797C70.8624 107.708 71.1787 107.9 71.4362 108.245Z" fill="#383634"/>
<path d="M73.0985 109.084C72.7822 109.68 72.4659 109.709 72.157 109.076C72.4806 108.709 72.7896 108.974 73.0985 109.084Z" fill="#383634"/>
<path d="M79.976 95.9173C80.1378 95.6819 80.2923 95.4465 80.4541 95.2185C80.5203 95.6084 80.2776 95.7775 79.976 95.9173Z" fill="#383634"/>
<path d="M79.5494 96.5941C79.7113 96.4249 79.8731 96.2558 80.0349 96.0792C80.0423 96.4102 79.8878 96.5868 79.5494 96.5941Z" fill="#383634"/>
<path d="M72.2159 109.128C71.6642 108.937 72.054 108.753 72.2159 108.562C72.4145 108.753 72.4145 108.937 72.2159 109.128Z" fill="#383634"/>
<path d="M93.4515 38.8891L93.4589 38.7862L93.5619 38.7494L93.5766 38.8671L93.4515 38.8891Z" fill="#664F3F"/>
<path d="M92.5909 39.7644C92.5909 39.654 92.6424 39.5952 92.7528 39.6025L92.7233 39.7423L92.5909 39.7644Z" fill="#664F3F"/>
<path d="M92.1643 40.6031C92.0392 40.6031 91.9142 40.5957 91.7818 40.5883C91.951 40.4265 92.1128 40.2721 92.282 40.1102C92.2452 40.2721 92.2011 40.4339 92.1643 40.6031Z" fill="#664F3F"/>
<path d="M32.0615 86.1564C34.305 83.1039 36.9825 80.5515 40.4175 78.867C40.7412 78.7126 41.0354 78.4478 41.3738 78.3816C41.9696 78.2639 42.6683 77.5872 43.1685 78.205C43.7128 78.867 42.9552 79.3966 42.5507 79.838C39.6967 82.9567 37.5562 86.5022 36.0924 90.4521C35.732 91.4672 35.4378 92.5043 34.9891 93.4826C34.4521 94.6595 33.7313 95.0567 32.878 93.6812C31.4143 91.298 30.686 88.8486 32.0615 86.1564Z" fill="#F05A41"/>
<path d="M49.4869 32.4236C47.7142 30.9157 47.2214 28.0911 48.2291 25.2151C49.5311 25.5829 50.1784 26.6347 50.7889 27.7086C50.068 28.1279 49.5017 27.2526 48.8249 27.3923C48.1924 29.246 49.281 30.7759 49.4869 32.4236Z" fill="#B59D69"/>
<path d="M54.0769 36.1161C53.5546 36.2633 53.1427 36.0941 52.8264 35.6601C53.3781 35.4541 53.7606 35.6895 54.0769 36.1161Z" fill="#B59D69"/>
<path d="M54.9081 36.7707C54.6359 36.5574 54.3711 36.3515 54.0989 36.1382C54.5697 36.094 55.1582 35.9028 54.9081 36.7707Z" fill="#F2C6B2"/>
<path d="M49.9798 33.2842C49.6562 33.1077 49.4943 32.8429 49.5385 32.4678C49.84 32.6517 50.0019 32.9165 49.9798 33.2842Z" fill="#B59D69"/>
<path d="M50.4653 34.1301C50.3035 33.8579 50.149 33.5784 49.9872 33.3063C50.355 33.4534 50.5388 33.7182 50.4653 34.1301Z" fill="#B59D69"/>
<path d="M60.6087 26.8332C60.491 25.7152 61.2486 25.7078 62.021 25.7299C63.242 26.642 65.3825 25.7593 66.0225 27.7968C65.0294 28.1352 64.0659 26.0462 63.0581 27.7601C62.2417 27.4511 61.4252 27.1422 60.6087 26.8332Z" fill="#FAF285"/>
<path d="M63.1243 27.8705C63.2199 27.9808 63.3082 28.0985 63.4038 28.2088C63.3082 28.0985 63.2125 27.9882 63.1243 27.8705Z" fill="#FAF285"/>
<path d="M79.9687 57.4106C80.4174 57.8446 80.866 58.286 81.3147 58.7199C80.6748 58.7494 80.2335 59.0142 80.1158 59.6982C79.1669 65.4283 74.7977 67.4364 70.0018 68.9737C70.0386 68.7604 70.0239 68.3999 70.1268 68.3632C73.8267 66.9877 74.5329 62.3536 78.218 60.9487C78.8947 60.6913 79.1522 59.9998 78.5564 59.3599C77.4751 58.1977 76.3718 57.0723 74.6138 56.9987C70.4137 56.8148 66.2504 56.8222 62.4549 59.0289C61.8297 59.3893 61.1677 59.6835 60.4027 59.5585C63.1316 57.4695 66.2578 56.4324 69.6414 56.1087C71.0022 55.9763 72.3482 55.8807 73.5251 55.0936C75.011 56.4176 76.9749 56.5795 78.7329 57.2415C79.1448 57.3003 79.5568 57.3592 79.9687 57.4106Z" fill="#383634"/>
<path d="M78.7256 57.2415C76.9676 56.5795 75.0037 56.4103 73.5178 55.0936C73.5178 52.8502 73.5178 50.6067 73.5252 48.3632C74.2092 44.8252 75.2537 41.4342 77.4825 38.5141C77.6884 38.2419 77.9974 38.0507 78.2622 37.8226C77.8429 38.8156 79.4538 39.8013 78.5417 40.6031C75.2023 43.5674 74.8786 47.3555 75.1802 51.4232C75.3199 53.3356 76.1364 54.3801 78.1151 54.3581C78.7918 54.9465 78.2622 56.0278 79.0125 56.5868C78.9169 56.8075 78.8212 57.0282 78.7256 57.2415Z" fill="#F7F1BB"/>
<path d="M65.2207 24.3323C64.4778 23.994 63.6539 23.891 62.9036 24.097C60.947 24.6339 61.3443 23.4791 61.5796 22.3831C62.1313 21.8829 62.683 21.3828 63.2273 20.8826C63.4627 20.9193 63.6981 20.9561 63.9261 20.9855C64.3895 22.3758 65.7944 23.0083 66.53 24.1852C66.096 24.2367 65.662 24.2882 65.2207 24.3323Z" fill="#FAF285"/>
<path d="M78.1151 54.3653C76.1364 54.3874 75.3273 53.3503 75.1802 51.4305C74.8786 47.3628 75.2023 43.5747 78.5417 40.6103C79.4538 39.8012 77.8429 38.8229 78.2622 37.8299C78.7035 37.1311 79.1449 36.4323 79.5862 35.7336C80.8514 35.4173 81.3736 35.9984 81.5649 37.212C81.734 38.2786 81.7267 39.3305 81.6458 40.3897C80.8808 40.3529 80.2409 40.7133 79.645 41.1179C77.0632 42.8538 75.1066 48.9884 76.1732 51.9086C76.3792 52.475 76.769 52.6809 77.3207 52.6956C77.5855 53.2547 77.8503 53.8063 78.1151 54.3653Z" fill="#FBF49F"/>
<path d="M75.3934 70.3492C71.3258 75.8218 65.8605 77.1899 59.6671 74.9611C64.4041 72.1145 69.2221 68.5544 75.3934 70.3492Z" fill="#664F3F"/>
<path d="M81.278 58.6906C84.5954 61.8388 84.5071 66.7302 81.0058 69.5842C78.3872 71.71 76.8058 74.5713 75.1434 77.3959C74.6873 77.2267 74.2386 77.0502 73.7826 76.881C76.5115 73.8431 78.1739 70.0256 81.4472 67.3187C83.3081 65.7814 83.058 63.1334 82.0577 60.831C81.7561 60.1323 80.9175 59.6247 81.278 58.6906Z" fill="#664F3F"/>
<path d="M44.1248 63.045C43.8747 63.2362 43.6246 63.4201 43.3671 63.6114C42.7419 63.2363 42.124 62.8685 41.5062 62.4933L41.4841 62.486C41.1163 62.1256 40.7485 61.7578 40.3808 61.3973C40.3808 60.8383 40.116 60.5294 39.5496 60.4779C39.3583 60.1028 39.1671 59.7203 38.9758 59.3451C39.145 58.7199 39.1524 58.1462 38.4536 57.8078C38.4168 57.2341 38.38 56.6677 38.3433 56.0939C38.7258 55.785 38.7625 55.3584 38.7257 54.9097C38.8581 54.7332 38.9832 54.5493 39.1156 54.3727C39.91 54.3065 40.3734 53.902 40.3955 53.0708L40.4249 53.0414C42.5727 52.5265 44.7574 52.703 46.9273 52.7104C47.2068 52.8648 47.4863 53.0193 47.7658 53.1738C47.8026 53.5342 47.9791 53.7769 48.3469 53.8578L48.3616 53.8505C48.3101 54.027 48.2586 54.2109 48.2145 54.3874C43.654 52.8428 41.999 54.9832 41.7857 58.7787C41.8372 59.4775 41.462 60.2793 42.2932 60.7795C42.8964 61.5297 43.5069 62.2874 44.1248 63.045Z" fill="#F8F7F5"/>
<path d="M46.9272 52.7104C44.75 52.6957 42.5727 52.5265 40.4249 53.0414C42.3153 51.2246 44.4043 51.1216 46.9272 52.7104Z" fill="#F7F1BB"/>
<path d="M40.3954 53.0635C40.3734 53.8947 39.9099 54.2919 39.1155 54.3654C39.1523 53.5489 39.5642 53.1003 40.3954 53.0635Z" fill="#F7F1BB"/>
<path d="M38.4536 57.8005C39.145 58.1389 39.145 58.7053 38.9758 59.3379C38.3285 58.9848 38.174 58.4625 38.4536 57.8005Z" fill="#F7F1BB"/>
<path d="M39.5495 60.4706C40.1085 60.5221 40.3807 60.831 40.3807 61.39C39.8805 61.2797 39.5716 61.0002 39.5495 60.4706Z" fill="#F7F1BB"/>
<path d="M48.2071 54.3874C48.2586 54.2109 48.3101 54.027 48.3542 53.8505C48.8691 53.9314 49.0088 54.3359 49.1412 54.7479C48.7882 54.7479 48.4351 54.7405 48.2071 54.3874Z" fill="#F7F1BB"/>
<path d="M38.7257 54.9023C38.7625 55.351 38.7331 55.7777 38.3432 56.0866C38.1372 55.5864 38.1887 55.1671 38.7257 54.9023Z" fill="#F7F1BB"/>
<path d="M48.3468 53.8579C47.9791 53.777 47.8025 53.5343 47.7657 53.1738C48.1335 53.2474 48.3321 53.4754 48.3468 53.8579Z" fill="#F7F1BB"/>
<path d="M41.4841 62.4786C41.4841 62.4786 41.5061 62.4934 41.5061 62.486L41.4841 62.4786Z" fill="#B59D69"/>
<path d="M42.2858 60.7796C41.4547 60.2794 41.8298 59.4776 41.7783 58.7788C41.8519 58.7935 41.9254 58.8009 41.9916 58.8156C42.8743 58.9921 44.1542 57.1974 44.6102 59.1025C45.081 61.037 43.1685 60.3382 42.2858 60.7796Z" fill="#F2C6B2"/>
<path d="M77.3206 52.7031C76.769 52.6884 76.3791 52.4824 76.1732 51.916C75.1066 48.9958 77.0706 42.8612 79.645 41.1253C80.2482 40.7208 80.8808 40.3603 81.6458 40.3971C81.7414 40.5737 81.837 40.7502 81.9326 40.9267C81.8296 41.471 81.7267 42.0153 81.6237 42.5597C81.5207 42.7362 81.4177 42.9054 81.3221 43.0819C81.1897 43.6189 81.5943 43.9719 81.7781 44.3986C81.7781 44.8178 81.7782 45.2298 81.7855 45.649L81.6899 45.7226C81.6163 45.8329 81.5428 45.9433 81.4619 46.0609L81.3 46.1198C81.1309 46.0904 80.969 46.0609 80.7999 46.0315C80.8146 44.6266 79.8069 44.634 79.0272 45.0532C77.9312 45.6343 76.9676 46.5096 77.9091 47.9808C77.534 49.5181 78.4461 51.232 77.3206 52.7031Z" fill="#B59D69"/>
<path d="M81.7782 45.6342C81.7782 45.215 81.7782 44.8031 81.7708 44.3838C82.3372 44.1337 82.1607 43.1333 83.0066 43.1627C82.9404 44.1631 82.6388 45.0458 81.7782 45.6342Z" fill="#F2C6B2"/>
<path d="M81.3148 43.0745C81.4177 42.898 81.5207 42.7288 81.6163 42.5522C81.5207 42.7214 81.4177 42.898 81.3148 43.0745Z" fill="#664F3F"/>
<path d="M63.2346 20.8827C62.6829 21.3829 62.1313 21.8831 61.587 22.3833C61.1898 22.5157 60.7852 22.6187 60.4027 22.7879C59.8804 23.0232 59.3509 23.3984 58.8286 22.8835C58.1445 22.2068 58.2254 21.3167 58.3211 20.4561C58.402 19.7353 58.9389 19.4925 59.5494 19.522C60.9029 19.5882 62.5138 19.0586 63.2346 20.8827Z" fill="#148177"/>
<path d="M80.513 80.2866C80.7042 80.4337 80.8882 80.5735 81.0794 80.7206C80.8882 80.5735 80.6969 80.4337 80.513 80.2866Z" fill="#664F3F"/>
<path d="M77.3207 52.7031C78.4461 51.2393 77.534 49.5255 77.9018 47.9661C78.9463 47.4291 79.6083 46.3478 80.7925 46.0168C80.9617 46.0463 81.1235 46.0757 81.2927 46.1051C80.9838 47.9955 80.2409 49.8271 80.4174 51.791C80.2556 52.0484 80.0717 52.3059 80.3439 52.6001C80.1379 53.9021 79.9393 55.1967 79.7333 56.4986C79.4906 56.528 79.2479 56.5574 79.0125 56.5942C78.2622 56.0352 78.7918 54.9539 78.1151 54.3655C77.8503 53.8064 77.5855 53.2548 77.3207 52.7031Z" fill="#383634"/>
<path d="M80.3439 52.6C80.0717 52.3058 80.2556 52.0483 80.4174 51.7909C80.7852 52.0925 80.7705 52.3646 80.3439 52.6Z" fill="#F2C6B2"/>
<path d="M79.0124 56.5942C79.2552 56.5647 79.4979 56.5353 79.7333 56.4985C79.8068 56.8001 79.8877 57.109 79.9613 57.4106C79.5494 57.3518 79.1375 57.3003 78.7182 57.2414C78.8212 57.0281 78.9168 56.8075 79.0124 56.5942Z" fill="#664F3F"/>
<path d="M81.4545 46.0462C81.5281 45.9359 81.6016 45.8256 81.6826 45.7079C81.6384 45.8476 81.5649 45.958 81.4545 46.0462Z" fill="#F2C6B2"/>
<path d="M80.7925 46.0168C79.6083 46.3404 78.9389 47.4291 77.9018 47.966C76.9603 46.4949 77.9312 45.6196 79.0198 45.0385C79.7995 44.6192 80.7999 44.6045 80.7925 46.0168Z" fill="#F2C6B2"/>
</svg>
