<svg width="90" height="130" viewBox="0 0 90 130" fill="none" xmlns="http://www.w3.org/2000/svg">
<path d="M81.0679 128.297C81.3877 128.392 81.6988 128.487 82.0186 128.583C81.2753 129.507 80.2554 129.862 79.1231 130C78.9329 128.989 78.0513 129.481 77.5068 129.248C77.4722 128.85 77.429 128.444 77.3944 128.038C77.9044 128.098 78.423 128.168 78.9329 128.228C79.6071 129.68 80.3418 128.712 81.0679 128.297Z" fill="#383634"/>
<path d="M79.0799 128.194C79.0885 127.735 79.3651 127.623 79.7627 127.658C79.5293 127.831 79.3046 128.012 79.0799 128.194Z" fill="#B59D69"/>
<path d="M3.16482 45.9341C0.13098 40.6271 -0.940807 35.0348 0.917525 29.0881C1.37563 27.636 2.13625 26.2876 2.75858 24.8874L2.7845 24.801C3.51919 23.9799 4.26252 23.1501 4.99721 22.329L4.91943 22.3463C5.12687 22.182 5.3343 22.0264 5.5331 21.8622C5.70597 21.8709 5.80105 21.7931 5.81834 21.6202C6.1295 21.4041 6.44066 21.1967 6.75183 20.9806L6.71726 21.0152C8.6966 20.0817 10.7105 19.2433 12.8973 18.9148C17.2622 18.2579 17.2622 18.2666 17.8932 13.7893L17.8154 13.7288C18.4723 12.8471 18.9045 11.8618 19.1378 10.7814C19.2675 10.5653 19.4058 10.3492 19.5354 10.1331C19.7083 9.90839 19.8725 9.67502 20.0454 9.45029L20.0195 9.53672C20.5121 9.21691 20.7801 8.74152 20.9616 8.19699L20.8665 8.24021C21.0653 8.06734 21.2641 7.90312 21.4629 7.73025C21.5753 7.63517 21.6876 7.54009 21.8 7.44502C21.9642 7.23757 22.1371 7.02149 22.3013 6.81405L22.2667 6.91777C22.915 6.44238 23.5632 5.97564 24.2115 5.50025L24.3325 5.53483L24.393 5.42246C24.5659 5.29281 24.7474 5.16316 24.9203 5.03351L24.8425 5.09401C25.2141 4.93843 25.5945 4.78284 25.9661 4.61862C28.611 3.73699 31.3337 3.27025 34.1169 3.17517C38.2916 3.51226 42.0861 4.92114 45.5607 7.22893C45.3014 7.83397 44.8779 7.66974 44.4976 7.4018C40.9365 4.9125 36.9432 4.53219 32.708 4.60998C23.9868 4.7742 18.3858 10.5307 18.7834 19.2692C18.8094 19.8915 19.1638 20.5916 18.2648 21.2399C17.0893 19.6668 15.3779 19.3902 13.5715 19.7792C10.9439 20.341 8.43729 21.3004 6.46659 23.1587C1.22004 28.1114 -0.206111 34.0235 2.36962 40.8258C6.69133 52.2351 17.3486 54.3441 26.3896 50.5583C29.3284 49.3223 31.6535 47.2306 30.7978 43.3843C30.6249 42.615 30.6595 41.7507 30.7891 40.9641C31.1867 38.4316 31.0225 35.7435 32.7512 33.5654C32.7339 33.6691 32.7512 33.7642 32.8203 33.8506C32.829 34.3606 32.9414 34.8965 32.8203 35.3632C31.1781 41.7939 31.5325 47.9912 34.6787 53.9552C36.4246 57.2743 38.6287 60.1525 41.7144 62.2961C47.8599 66.5486 54.766 67.776 62.0783 67.3525C62.3635 67.0499 62.6401 66.7474 62.9253 66.4536C63.9453 67.9229 65.3714 67.1623 66.6593 67.1191C66.8754 67.3179 67.0914 67.5167 67.3075 67.7241C65.6826 71.1296 65.527 74.6129 66.6679 78.1913C67.3248 80.2311 68.241 82.0722 70.6266 82.392C73.2023 82.7377 74.6804 81.6832 76.0201 78.8309C76.1843 78.8223 76.3485 78.805 76.5128 78.7963C78.4662 80.672 80.4887 80.3176 81.4827 77.8715C82.2779 75.9181 82.373 73.9993 81.8371 71.873C81.3444 69.9282 79.6244 68.5453 79.6849 66.4449C81.768 68.0612 82.5804 70.4468 83.5226 72.7632C83.5571 75.3476 83.5485 77.932 81.6556 80.0151C80.9209 80.8189 80.0825 81.4412 80.9209 82.781C81.1716 83.1785 80.4196 82.6167 80.143 82.781C79.3651 82.0808 78.4662 81.64 77.429 81.5363C76.6511 81.4585 75.5015 81.1819 75.32 82.0808C75.0866 83.2304 76.3918 82.9538 77.0659 83.1613C77.6018 83.3341 78.2242 83.265 78.8033 83.2996C78.7601 83.5243 78.7168 83.7576 78.6736 83.9824C76.9363 84.5183 78.2674 85.227 78.5699 85.8753C79.1576 89.1598 79.659 92.4443 77.6278 95.4522C76.2102 97.5525 74.058 98.9182 72.2861 100.664C71.9663 100.595 71.6552 100.517 71.3354 100.448C72.6146 98.1489 72.7183 95.5386 73.2283 93.0407C73.5999 92.8937 73.9803 92.7382 74.3519 92.5912C74.2655 94.0865 74.1791 95.5905 74.084 97.1463C77.8957 95.1497 78.3365 90.5427 77.4117 86.8434C76.7116 84.0429 75.9769 83.5934 73.0295 83.7836C72.6578 83.8441 72.2861 83.9132 71.9145 83.9737C69.7968 84.3022 68.3361 83.3255 67.2211 81.64C66.9013 80.8794 66.3654 80.2657 65.7604 79.7212C64.6886 76.5145 64.5935 73.2386 65.2763 69.9628C65.5443 68.6836 65.2936 68.1563 63.9193 68.3637C59.5112 69.0293 55.1376 68.5193 50.7986 67.7501C49.433 67.5081 48.7242 67.7846 48.0241 69.0639C47.5314 69.9628 47.298 71.5445 45.6212 71.363C45.0508 70.006 46.4251 69.4528 46.8745 68.5539C47.4623 67.3957 47.5487 66.7388 46.209 66.2029C43.1924 64.9928 40.5562 63.1864 38.1274 61.0428C36.8309 59.2968 35.543 57.5508 34.2465 55.8049C34.0045 55.3813 33.7711 54.9492 33.5291 54.5257C33.2612 53.9379 32.9846 53.3588 32.7166 52.771C32.6043 52.4772 32.4919 52.1746 32.3795 51.8808C31.7486 48.7951 31.8177 48.9593 29.1988 50.3768C26.3119 51.9499 23.3472 53.4193 19.9071 53.5835C16.7522 53.7391 13.7789 53.0563 10.8056 52.1746L10.8315 52.2265C10.6414 52.1487 10.4426 52.0709 10.2524 51.9931C7.67667 50.7139 5.77512 48.6049 3.67477 46.7293C3.67477 46.7293 3.64885 46.8071 3.64885 46.7984C3.49326 46.5046 3.32904 46.2193 3.16482 45.9341Z" fill="#383634"/>
<path d="M27.5219 123.102C25.871 124.096 23.788 124.235 22.3705 125.687C20.3998 126.854 18.5501 127.269 17.1758 124.823C17.2276 124.71 17.219 124.615 17.1326 124.52C17.1326 124.174 17.1326 123.837 17.1326 123.491C17.2104 123.396 17.219 123.293 17.1498 123.18C17.2017 122.878 17.2536 122.567 17.3141 122.264C18.2216 120.561 19.4576 119.127 20.9443 117.899L20.9011 117.934C21.2036 117.752 21.5061 117.571 21.8086 117.398C21.9988 117.311 22.1803 117.234 22.3705 117.147L22.2927 117.19C22.6038 117.018 22.9236 116.836 23.2348 116.663L23.2521 116.724C25.7673 115.816 28.3258 115.133 31.0225 115.03C30.9966 115.315 30.9707 115.6 30.9447 115.885C27.885 116.387 24.8598 117.026 22.1803 118.712C20.3393 119.87 19.0514 121.382 19.0168 123.69C19.0082 124.192 18.939 124.779 19.4576 125.09C20.0281 125.428 20.4516 124.978 20.806 124.632C22.2668 123.189 24.1337 122.852 26.0439 122.636C26.2254 122.593 26.4156 122.549 26.5971 122.515C26.891 122.394 27.1849 122.273 27.4787 122.152C27.4787 122.454 27.5046 122.774 27.5219 123.102Z" fill="#383634"/>
<path d="M75.4756 127.934C75.32 126.88 74.2569 126.594 73.7037 125.868C73.9198 125.713 74.1358 125.557 74.3519 125.402C75.0175 125.566 75.6398 125.799 76.0374 126.413C76.2103 126.906 76.4869 127.303 76.9709 127.528C77.1092 127.701 77.2561 127.874 77.3944 128.046C77.429 128.453 77.4722 128.85 77.5068 129.248C76.435 129.421 76.0115 128.591 75.4756 127.934Z" fill="#383634"/>
<path d="M17.1585 123.172C17.2276 123.284 17.219 123.379 17.1412 123.483C17.0374 123.371 17.0461 123.275 17.1585 123.172Z" fill="#FAF285"/>
<path d="M17.1412 124.511C17.219 124.607 17.2363 124.702 17.1844 124.814C17.0634 124.728 17.0461 124.624 17.1412 124.511Z" fill="#FAF285"/>
<path d="M20.0454 9.45032C19.8811 9.67505 19.7083 9.90841 19.5354 10.1331C19.7083 9.90841 19.8811 9.68369 20.0454 9.45032Z" fill="#FAF285"/>
<path d="M65.1035 112.497C62.9167 117.666 62.571 116.352 68.0422 117.294C70.7476 117.761 73.2715 118.746 75.8905 119.421L75.9423 119.403C76.3053 119.619 76.6684 119.827 77.0314 120.043C77.2734 120.414 77.6364 120.527 78.0599 120.527C78.4835 121.028 78.9502 121.469 79.6071 121.651L79.6763 121.823L79.8491 121.797C79.9442 122.135 80.143 122.351 80.5233 122.359L80.4369 122.29L80.3677 122.385C80.4542 122.982 80.8518 123.206 81.3877 123.275C82.0446 125.004 81.8112 126.672 81.0679 128.315C80.3418 128.729 79.5985 129.698 78.9329 128.254L79.0799 128.211C79.3046 128.029 79.538 127.856 79.7627 127.675L79.78 127.658C81.3099 126.318 81.3012 125.471 79.7281 123.941L79.7454 123.967C79.7195 123.69 79.5812 123.509 79.2873 123.483L79.3132 123.509C79.2873 123.215 79.1058 123.077 78.8206 123.059L78.8465 123.085C78.7168 122.575 78.3452 122.359 77.8525 122.29L77.8611 122.299C77.6969 121.936 77.429 121.746 77.0227 121.763L77.0573 121.78C76.8844 121.383 76.556 121.262 76.1584 121.287L76.193 121.305C76.0028 120.924 75.683 120.795 75.2768 120.838L75.3027 120.855C73.4616 119.403 71.2317 118.928 69.0449 118.297C65.2936 117.208 61.43 117.899 57.6529 117.433C58.6555 117.251 59.6668 117.078 60.6694 116.879C61.3868 116.732 62.1474 116.62 62.4845 115.825C63.3489 113.794 64.1268 111.745 64.3515 109.524C64.4552 108.513 64.2564 107.994 63.0204 108.426C60.2459 109.386 57.4368 110.233 54.4721 110.397C53.6596 110.44 53.4954 110.898 53.8411 111.598C54.6104 113.128 54.8783 114.805 55.2241 116.456C55.3969 117.294 55.7772 117.571 56.5465 117.51C56.5638 118.176 55.9674 118.254 55.5784 118.539C55.0253 118.945 53.9535 118.962 54.0313 119.844C54.1091 120.7 55.2154 120.51 55.7686 120.933C55.7686 121.218 55.7686 121.512 55.7686 121.797C55.3278 121.789 54.8697 121.858 54.4548 121.754C53.5645 121.53 52.2767 121.875 51.8791 120.916C51.395 119.749 52.7693 119.429 53.4349 118.859C54.0053 118.375 54.2128 117.891 54.0831 117.147C53.746 115.254 53.1497 113.465 52.2594 111.762C51.905 111.088 51.4037 110.613 50.7381 111.27C48.9922 112.998 47.1771 114.71 46.9523 117.389C46.6844 117.484 46.4251 117.588 46.1571 117.683C45.82 117.605 45.4743 117.528 45.1372 117.441C45.1891 117.32 45.215 117.199 45.2064 117.07C45.2928 116.983 45.3101 116.888 45.2582 116.776C46.5893 115.462 46.7622 113.457 48.0673 112.125C49.312 110.855 49.2601 109.895 47.3413 109.463C47.3586 109.221 47.3672 108.988 47.3845 108.746C54.1696 110.086 60.5225 109.143 66.3481 105.245C66.6852 105.021 67.0655 104.156 67.6446 105.029C68.1719 105.677 67.5063 105.721 67.1865 105.937C66.8235 105.963 66.5901 106.144 66.4605 106.473C65.9246 107.086 65.8382 107.804 66.0024 108.582C65.8987 108.737 65.7863 108.884 65.6826 109.04C65.6394 109.213 65.6048 109.386 65.5616 109.558C65.648 110.172 65.1294 110.751 65.4579 111.382C65.0775 111.633 65.0948 112.065 65.1035 112.497Z" fill="#383634"/>
<path d="M69.6326 13.6166C69.4079 15.0341 69.8573 15.8466 71.3613 16.3825C76.4782 18.1976 79.9356 22.0698 83.0904 26.2792C83.2287 26.6076 83.2028 27.0312 83.6436 27.1694L83.6263 27.1522C84.5166 28.9241 85.0006 30.9034 86.2885 32.4851L86.2712 32.4592C86.2971 32.7531 86.3317 33.0383 86.3576 33.3322C85.9168 33.4878 85.3463 33.289 85.0352 33.8076C84.6894 34.8102 84.3091 35.8042 84.5511 36.8933C84.2313 37.0489 83.9115 37.2044 83.5917 37.36C82.0273 36.6772 80.2121 36.6599 78.5699 35.493C80.0652 34.9139 80.8777 34.3521 79.0539 33.4273C78.2674 33.0297 78.276 32.2172 78.5267 31.4825C79.149 29.6587 80.264 28.7944 82.2261 29.676C82.5977 29.8403 83.099 30.1601 83.367 29.6328C83.4793 29.4081 83.2546 28.9413 83.0731 28.6561C81.8803 26.7373 80.8085 24.7061 78.8119 23.4268C78.5699 22.018 77.403 21.5339 76.3399 20.9289C76.0028 20.6264 75.6744 20.3325 75.3373 20.03C74.3173 18.915 72.8134 18.5606 71.6465 17.6876C70.2204 16.6245 69.6153 17.2382 69.3128 18.6816C69.0967 18.3186 68.8806 17.9556 68.6646 17.5839C68.6991 17.0653 68.7251 16.5467 68.7596 16.0281C68.9844 15.2243 69.2091 14.4204 69.4338 13.6166C69.4425 13.6252 69.6326 13.6166 69.6326 13.6166Z" fill="#383634"/>
<path d="M47.4363 4.35079C47.4277 4.14335 47.419 3.9359 47.4104 3.72846C52.7693 -0.921691 58.6987 -1.23285 63.7032 2.85548C63.5649 3.08885 63.4266 3.32223 63.2797 3.56425C62.8043 3.38274 62.2943 3.26172 61.8622 3.01106C57.4022 0.435322 53.115 0.634123 49.0354 3.82354C48.5427 4.21249 48.05 4.40265 47.4363 4.35079Z" fill="#383634"/>
<path d="M63.2797 3.55568C63.418 3.3223 63.5563 3.08894 63.7032 2.84692C67.2038 5.59553 68.6732 9.41591 69.4511 13.6166C69.2264 14.4204 69.0017 15.2243 68.7769 16.0281C68.4917 11.1965 66.4864 7.11676 63.2797 3.55568Z" fill="#664F3F"/>
<path d="M76.0374 126.404C75.6398 125.791 75.0175 125.557 74.352 125.393C73.5913 124.434 72.3121 124.658 71.3873 124.088C71.1712 123.526 70.7649 123.604 70.3241 123.768L70.1772 123.699C70.013 122.748 69.1486 122.748 68.5004 122.515C65.3801 121.4 62.1388 120.821 58.8457 120.492C58.111 120.423 56.9614 120.743 56.9787 119.567C56.9874 118.703 57.9986 118.608 58.716 118.617C62.9427 118.677 67.1952 118.314 71.3181 119.827C72.5714 120.285 73.7901 121.227 75.2941 120.829L75.2682 120.812C75.441 121.227 75.7435 121.382 76.1844 121.279L76.1498 121.261C76.3227 121.668 76.6252 121.815 77.0487 121.745L77.0141 121.728C77.1611 122.117 77.4463 122.29 77.8525 122.264L77.8439 122.255C77.9476 122.8 78.2934 123.051 78.8379 123.051L78.812 123.025C78.9762 123.172 79.1404 123.327 79.3046 123.474L79.2787 123.448C79.4343 123.612 79.5899 123.768 79.7368 123.932L79.7195 123.906C79.7368 125.142 79.7541 126.387 79.7714 127.623L79.7541 127.64C79.3565 127.606 79.0799 127.718 79.0713 128.176L78.9243 128.219C78.4144 128.159 77.8958 128.09 77.3858 128.029C77.2475 127.856 77.1006 127.684 76.9623 127.511C76.9796 126.888 76.8413 126.37 76.0374 126.404Z" fill="#F5E721"/>
<path d="M19.0082 106.775C19.0341 108.201 19.0601 109.636 19.086 111.062C18.6625 110.82 18.2303 110.57 17.7981 110.319C17.8673 109.965 17.6685 109.783 17.3659 109.679L17.4697 109.714C16.9684 108.996 16.4497 108.288 15.9657 107.553C10.4599 99.3418 13.3122 90.3008 22.3273 87.483C23.9954 86.9644 25.75 86.7397 27.4701 86.3767C27.7121 86.3248 27.9541 86.2643 28.1961 86.2124C30.5212 86.4112 31.351 85.9791 31.2386 84.6826C31.0398 82.3921 29.9162 80.6029 28.3604 78.9865C27.133 77.7073 25.4994 77.0245 24.1856 75.8922C24.2634 75.6243 24.3325 75.3563 24.4017 75.097C28.3776 76.1688 30.7459 79.0125 32.4228 82.5736C35.5517 80.43 36.1654 79.6262 36.3036 77.6468C36.9778 77.4221 37.652 77.1974 38.3176 76.9726C38.6374 77.0504 38.9658 77.1282 39.2856 77.206C38.6201 78.0876 38.9831 78.321 39.9252 78.2778C42.3886 78.1654 44.705 77.5777 46.8313 76.2898C47.2289 76.0478 47.6524 75.4255 48.1624 75.8663C48.5686 76.2207 48.3439 76.843 48.2575 77.3443C48.0933 78.2778 47.6697 79.1681 47.8512 80.1448C47.9377 80.5942 47.5228 81.2598 48.2143 81.4672C48.8712 81.666 49.044 81.0177 49.3206 80.6115C50.7295 78.5284 52.3199 76.6355 54.5067 75.3045C55.4834 74.7081 55.9415 74.7167 55.9501 76.0391C55.9588 77.7246 56.0884 79.4101 56.1662 81.0955C55.8896 81.1042 55.6217 81.1128 55.3451 81.1215C55.2154 80.3954 55.0339 79.678 54.9734 78.952C54.8438 77.2751 54.4634 76.8776 52.9681 78.1481C50.6863 80.0756 49.2515 82.6168 47.6006 85.1407C46.9523 84.3628 47.1857 83.6194 47.1511 82.9106C47.082 81.5191 47.4536 79.7558 46.7535 78.831C45.7941 77.5777 44.1173 79.1248 42.7171 78.9779C42.501 78.952 42.2762 79.0211 42.0602 79.0125C36.9346 78.8828 34.2811 82.0463 32.3363 86.2297C31.1349 88.8141 31.4979 91.554 31.4028 94.2508C30.2533 92.8246 29.2506 94.0434 28.1961 94.4237C27.764 93.9396 27.2194 93.8359 26.6144 93.9656L26.528 93.8705C27.0638 92.7382 28.2739 92.5826 29.2247 92.1072C30.5039 91.4676 30.9275 90.5255 30.6076 89.2463C30.2878 87.9411 29.1988 87.6559 28.0406 87.6732C26.1217 87.6991 24.2374 87.9757 22.405 88.5462C13.2863 91.4158 12.4565 101.442 16.9251 106.844C17.7895 107.873 18.3427 107.942 19.0082 106.775Z" fill="#383634"/>
<path d="M5.91345 82.2537C7.96193 79.2372 10.4167 76.6614 13.7271 75.0019C14.8075 75.0105 15.7929 74.3104 16.9079 74.5697C16.9943 74.7858 17.0807 75.0105 17.1672 75.2266C16.4065 75.4946 15.6373 75.7452 14.8767 76.0305C9.82892 77.9234 5.59364 83.7663 5.42942 89.0734C5.39484 90.1106 5.23926 91.2428 6.82964 91.2515C6.69135 92.8159 5.83566 93.7062 4.27984 93.9396C3.51058 89.8599 4.60829 86.0482 5.91345 82.2537Z" fill="#B59D69"/>
<path d="M4.28845 93.9397C5.83562 93.7063 6.69996 92.816 6.83825 91.2516C7.42601 90.5082 8.00512 89.7476 8.61016 89.0129C10.9007 86.2038 13.5801 84.0603 17.3746 83.7837C17.4178 83.9479 17.461 84.1035 17.4956 84.2677L17.3141 84.3628C17.0893 84.2418 16.9597 84.3455 16.8733 84.5529C12.37 86.0828 9.19791 89.0302 7.40872 93.4557C6.70861 94.8732 6.01714 96.2993 5.22194 97.9157C4.58233 96.9649 4.61689 96.0919 4.46996 95.2708C4.45267 95.0979 4.42675 94.9337 4.40946 94.7608C4.36624 94.4842 4.32303 94.2163 4.28845 93.9397Z" fill="#664F3F"/>
<path d="M4.4008 94.7609C4.41809 94.9337 4.44402 95.098 4.46131 95.2708C4.40081 95.1585 4.33166 95.0461 4.28845 94.9251C4.2798 94.8819 4.36623 94.8127 4.4008 94.7609Z" fill="#B59D69"/>
<path d="M63.2797 3.55568C66.4777 7.11676 68.4916 11.1965 68.7682 16.0368C68.7336 16.5554 68.7077 17.074 68.6731 17.5839C67.9039 19.7275 68.1632 22.0871 67.247 24.2221C66.7802 25.3198 66.3826 25.5359 65.6479 24.4986C65.3886 24.1356 65.1207 23.7899 64.8614 23.4355C60.9027 18.0593 54.0658 15.838 47.8339 18.1458C44.7309 19.2953 41.7576 20.8425 39.3547 23.1849C36.3641 26.115 33.4512 29.1488 32.7338 33.5569C31.0052 35.7351 31.1694 38.4232 30.7718 40.9557C30.6508 41.7423 30.6076 42.6066 30.7804 43.3759C31.6361 47.2222 29.3197 49.3139 26.3723 50.5499C17.3313 54.3443 6.67398 52.2267 2.35227 40.8174C-0.223462 34.015 1.19406 28.1029 6.44925 23.1503C8.41995 21.2919 10.9265 20.3239 13.5541 19.7707C15.3606 19.3818 17.072 19.6583 18.2475 21.2314C19.1464 20.5832 18.8007 19.8831 18.7661 19.2607C18.3685 10.5223 23.9608 4.76576 32.6906 4.60153C36.9259 4.52374 40.9192 4.89541 44.4802 7.39335C44.8606 7.6613 45.2754 7.82552 45.5434 7.22049C46.3299 6.35614 46.3126 4.96456 47.4449 4.33359C48.0586 4.39409 48.5426 4.1953 49.044 3.80634C53.1237 0.608282 57.4108 0.409482 61.8708 2.99386C62.3029 3.25316 62.8129 3.37416 63.2797 3.55568Z" fill="#ED4F3F"/>
<path d="M69.3301 18.6815C69.6326 17.2381 70.2376 16.6244 71.6638 17.6875C72.8306 18.5605 74.3346 18.9149 75.3545 20.0299C75.1212 20.4621 74.7495 20.8769 75.1903 21.3955C75.0088 21.966 74.8359 22.5278 74.6544 23.0983C73.9716 23.4354 73.8592 23.8935 74.3432 24.4899C74.3346 25.8123 74.3346 27.1348 74.326 28.4572C73.9284 28.8807 74.0753 29.1833 74.5334 29.4253C74.9569 30.4971 75.3805 31.5688 75.8126 32.6406C75.9077 33.9026 76.4609 35.2423 75.1989 36.2709C74.7754 36.2968 74.3432 36.3141 73.9197 36.34C73.0467 35.8905 72.2429 35.7695 71.6811 36.7981C71.5514 36.8413 71.4131 36.8672 71.2748 36.8759C71.1106 36.9191 70.955 36.971 70.7908 37.0142C70.4191 37.1871 70.0475 37.3599 69.6758 37.5241C68.4225 37.4636 67.3853 37.818 66.8408 39.0627C66.7543 39.1318 66.6593 39.1923 66.5469 39.2269C65.6826 39.1318 65.2072 39.5467 65.0602 40.3765C64.7836 40.5407 64.4984 40.7049 64.2218 40.8691C63.4526 40.9556 63.271 41.4742 63.2883 42.1397L63.2797 42.1484C62.5882 42.1138 61.8967 42.0792 61.2053 42.0446C59.8915 39.8492 58.9839 37.3686 57.0391 35.588C53.8929 32.7098 50.1158 31.3528 46.062 32.5715C42.3194 33.7038 40.3141 36.7635 40.003 40.7395C39.5708 46.2453 43.4344 51.6907 48.9835 53.4626C49.4243 53.8775 49.9083 54.0936 50.4874 53.7305C51.4036 54.0158 52.3198 54.1195 53.236 53.7132C53.9448 53.9898 54.6017 53.9553 55.1635 53.3848C55.5006 53.3329 55.8464 53.2811 56.1834 53.2292C56.5119 53.3675 56.8403 53.5058 57.1602 53.6441C57.2639 56.4273 57.817 59.1067 58.7851 61.7343C59.5544 63.8174 61.0843 65.3991 62.0783 67.318C54.7659 67.7415 47.8512 66.5141 41.7144 62.2616C38.6287 60.1267 36.4246 57.2398 34.6786 53.9207C31.5324 47.9481 31.1781 41.7508 32.8203 35.3287C32.9413 34.8533 32.829 34.3175 32.8203 33.8161C33.2438 33.1506 33.7452 32.511 34.0909 31.8109C37.3408 25.2937 42.354 20.9115 49.3465 18.6988C55.1203 16.8751 62.4499 20.0126 64.9306 25.579C65.3627 26.5384 65.769 27.5151 66.3654 28.8894C68.0681 25.3888 68.8288 22.0784 69.3301 18.6815Z" fill="#F8F7F5"/>
<path d="M31.4115 94.2337C31.5152 91.5369 31.1522 88.797 32.345 86.2213C34.2898 82.0378 36.9433 78.8744 42.0688 79.004C42.2849 79.0126 42.5096 78.9435 42.7257 78.9694C44.126 79.1164 45.8028 77.5692 46.7622 78.8225C47.471 79.7473 47.0906 81.5106 47.1598 82.9022C47.1944 83.6023 46.961 84.3456 47.6092 85.1322C49.2601 82.6083 50.6863 80.0758 52.9768 78.1397C54.4721 76.8777 54.8524 77.2667 54.9821 78.9435C55.0426 79.6695 55.2241 80.3956 55.3537 81.113C55.2587 82.617 55.7081 83.974 56.4082 85.573C57.869 83.4294 59.1136 81.5452 60.4101 79.7041C60.9979 78.8744 61.4819 78.6496 62.0783 79.8597C62.934 81.6057 63.4613 83.5504 64.7664 85.0976C65.6999 84.5012 65.527 83.464 66.0024 82.7552C66.3222 82.2885 66.1407 81.2859 67.2125 81.6316C68.3275 83.3171 69.7969 84.2938 71.9059 83.9653C72.9863 86.8954 73.7037 89.8774 73.2197 93.0409C72.7097 95.5388 72.6146 98.1492 71.3268 100.448C70.0648 101.753 68.7942 103.059 67.5323 104.355C67.2989 104.64 67.3594 104.848 67.7052 104.977L67.662 104.986C67.0915 104.113 66.7025 104.977 66.3654 105.202C60.5398 109.1 54.1869 110.034 47.4018 108.703C44.6273 107.985 42.2676 106.455 39.8734 104.969C34.2638 100.094 34.212 93.9052 35.7419 87.2758C33.6934 90.3787 33.7366 93.8966 33.4427 97.3626C31.9474 96.9477 32.8031 95.1412 31.5412 94.7782C31.4979 94.5881 31.4547 94.4066 31.4115 94.2337Z" fill="#F7F1BB"/>
<path d="M56.1662 81.087C56.0884 79.4015 55.9588 77.716 55.9501 76.0306C55.9415 74.7081 55.4834 74.6995 54.5067 75.2959C52.3199 76.627 50.7295 78.5199 49.3206 80.6029C49.0441 81.0092 48.8712 81.6574 48.2143 81.4586C47.5228 81.2512 47.9377 80.5856 47.8513 80.1362C47.6698 79.1595 48.0933 78.2692 48.2575 77.3357C48.3439 76.843 48.5687 76.2121 48.1624 75.8577C47.6525 75.4169 47.2289 76.0392 46.8314 76.2812C44.7051 77.5777 42.3886 78.1568 39.9253 78.2692C38.9831 78.3124 38.6201 78.079 39.2856 77.1974C40.4698 76.5665 41.7577 76.0824 42.6566 74.9934C42.89 74.881 43.1406 74.7859 42.9591 74.4488L42.9418 74.4748C43.3221 74.5353 43.616 74.5093 43.4086 73.9994L43.3826 74.0253C43.8494 74.1809 44.0309 74.0512 43.8494 73.5586L43.8234 73.5845C44.3161 73.766 44.4717 73.6104 44.2902 73.1177L44.2729 73.1437C44.8693 73.0572 45.4398 72.9622 44.7224 72.2275L44.6964 72.262C44.852 72.3139 45.0594 72.4608 45.1632 72.409C45.5089 72.2361 45.2928 72.0114 45.1545 71.8126L45.1718 71.7953C45.336 71.8299 45.4138 72.1583 45.6904 71.8904C45.9584 71.6224 45.6299 71.5446 45.5953 71.3718L45.6126 71.3372C47.2894 71.5187 47.5228 69.937 48.0155 69.0381C48.7156 67.7502 49.4244 67.4736 50.79 67.7243C55.129 68.4935 59.5026 69.0035 63.9107 68.3379C65.285 68.1305 65.5357 68.6577 65.2677 69.937C64.5849 73.2215 64.68 76.4887 65.7518 79.6954C65.406 80.6634 65.0603 81.6315 64.5503 83.0404C63.7724 81.1734 63.1587 79.7818 62.6056 78.3643C62.0697 76.9986 61.5424 76.4714 60.4879 78.0445C59.3643 79.7299 58.0764 81.303 56.8404 82.9453C56.1144 82.4353 56.4601 81.6488 56.1662 81.087Z" fill="#F8F7F5"/>
<path d="M76.0201 78.8311C74.6804 81.6748 73.2023 82.7293 70.6266 82.3922C68.2497 82.0724 67.3248 80.2313 66.6679 78.1915C65.5184 74.6131 65.6739 71.1298 67.2989 67.7243C70.1512 67.0501 73.1505 66.9032 75.7262 65.2869C76.7634 65.5289 77.8006 65.7709 78.8465 66.0129L78.786 65.987C78.9329 66.4278 79.27 66.5402 79.6935 66.4883L79.6676 66.4451C79.6157 68.5454 81.3271 69.937 81.8198 71.8732C82.3644 74.0081 82.2693 75.9183 81.4654 77.8717C80.4714 80.3091 78.4489 80.6721 76.4955 78.7965C77.282 76.3245 77.0919 73.913 75.9769 71.562C75.9596 73.9908 75.3718 76.4109 76.0201 78.8311Z" fill="#ED4F3F"/>
<path d="M36.3036 77.6469C36.3728 77.3617 36.3814 77.0505 36.5197 76.7999C37.9632 74.0772 38.8016 71.5187 35.8974 69.0208C34.9985 68.2429 34.5577 66.8167 34.5231 65.4165C34.4799 63.5322 34.428 61.7862 37.1161 62.0023C37.7039 62.0455 38.0064 61.5788 38.1274 61.0256C40.5562 63.1692 43.1924 64.9757 46.209 66.1857C47.5487 66.7216 47.4623 67.3785 46.8745 68.5368C46.4164 69.4357 45.0508 69.9888 45.6212 71.3459L45.6039 71.3804C45.4397 71.3545 45.3619 71.0174 45.094 71.2854C44.8347 71.5447 45.1458 71.6311 45.1804 71.804L45.1631 71.8212C44.4457 71.3977 44.6964 71.9509 44.7137 72.2707L44.7396 72.2361C44.2037 72.3485 43.5641 72.4176 44.2902 73.1523L44.3074 73.1264C44.1432 73.0745 43.9358 72.919 43.8234 72.9795C43.469 73.161 43.6938 73.3857 43.8407 73.5931L43.8666 73.5672C43.7024 73.5154 43.495 73.3598 43.3826 73.4203C43.0282 73.6018 43.2529 73.8265 43.3999 74.034L43.4258 74.008C43.2616 73.9562 43.0455 73.8006 42.9331 73.8611C42.5701 74.0426 42.8035 74.276 42.9504 74.4834L42.9677 74.4575C42.6565 73.6277 42.3713 74.3019 42.0688 74.4661C40.8241 75.3045 39.5708 76.1343 38.3262 76.9727C37.652 77.1974 36.9778 77.4222 36.3036 77.6469Z" fill="#F8F7F5"/>
<path d="M69.3301 18.6815C68.8288 22.0783 68.0768 25.3888 66.3568 28.9153C65.7604 27.5323 65.3541 26.5643 64.922 25.6049C62.4413 20.0385 55.1117 16.9009 49.3379 18.7247C42.3454 20.9374 37.3322 25.3196 34.0823 31.8367C33.7279 32.5455 33.2352 33.1765 32.8117 33.842C32.7426 33.7556 32.7253 33.6605 32.7426 33.5568C33.4513 29.1487 36.3642 26.1148 39.3634 23.1847C41.7576 20.8337 44.7396 19.2952 47.8426 18.1456C54.0745 15.8378 60.9114 18.0592 64.8701 23.4354C65.1294 23.7897 65.406 24.1355 65.6567 24.4985C66.3913 25.5357 66.7889 25.311 67.2557 24.2219C68.1719 22.087 67.9126 19.7273 68.6819 17.5838C68.8979 17.9554 69.114 18.3185 69.3301 18.6815Z" fill="#664F3F"/>
<path d="M66.6593 67.1193C65.3628 67.1539 63.9452 67.9231 62.9253 66.4537C62.7611 65.6758 61.7152 65.356 61.8622 64.4139C62.6487 64.3275 63.1155 64.7856 63.4094 65.4165C63.8502 66.376 64.6281 66.7217 65.5616 66.5229C68.3447 65.9438 71.1193 65.2869 73.8852 64.6386C74.2309 64.5608 74.5766 64.3188 74.4643 63.8521C74.3778 63.515 74.0494 63.394 73.7728 63.4804C71.4132 64.1892 69.0016 62.7889 66.5988 63.7397C65.8122 64.0509 64.4552 64.3966 64.2132 62.7457C65.4319 62.6074 66.6593 62.4605 68.0336 62.3049C67.4718 61.4838 66.6074 61.3368 66.4432 60.5503C68.5867 61.3887 70.981 61.1813 73.064 61.9678C74.4816 62.5037 75.6311 62.5556 77.0227 62.2617C79.3651 61.769 81.6902 61.0689 84.1362 61.2677C83.6436 61.5097 83.1509 61.7604 82.6582 62.0024C81.5086 62.1493 79.8664 61.8295 79.3392 62.6766C78.4143 64.1632 76.9709 64.2151 75.7089 64.7942C72.6924 65.5721 69.6758 66.35 66.6593 67.1193Z" fill="#F8F167"/>
<path d="M73.0209 83.775C75.9683 83.5935 76.703 84.043 77.4031 86.8348C78.3279 90.5342 77.8958 95.1411 74.0754 97.1377C74.1704 95.5819 74.2569 94.0866 74.3433 92.5827C74.8706 89.5056 73.7383 86.6706 73.0209 83.775Z" fill="#F8F7F5"/>
<path d="M56.1662 81.0871C56.46 81.6489 56.1143 82.4268 56.8317 82.9627C58.0677 81.3118 59.3556 79.7387 60.4792 78.0619C61.5251 76.4888 62.0523 77.016 62.5969 78.3817C63.15 79.7992 63.7637 81.1908 64.5416 83.0578C65.0516 81.6489 65.3973 80.6808 65.7431 79.7128C66.3481 80.2659 66.884 80.871 67.2038 81.6316C66.132 81.2859 66.3049 82.2885 65.9937 82.7552C65.5183 83.464 65.6826 84.5012 64.7577 85.0976C63.4526 83.5504 62.934 81.6057 62.0696 79.8597C61.4732 78.6496 60.9892 78.8743 60.4014 79.7041C59.1049 81.5538 57.8516 83.4294 56.3995 85.573C55.6994 83.9653 55.25 82.6169 55.3451 81.113C55.6216 81.113 55.8896 81.0957 56.1662 81.0871Z" fill="#664F3F"/>
<path d="M61.8622 64.4139C61.7152 65.356 62.7524 65.6758 62.9253 66.4537C62.6401 66.7562 62.3635 67.0587 62.0783 67.3526C61.0843 65.4338 59.5544 63.8434 58.7851 61.769C57.8084 59.1414 57.2552 56.4619 57.1602 53.6787C57.212 53.1947 57.2725 52.7107 57.3244 52.218C57.4627 51.8118 57.601 51.4142 57.7393 51.0079C58.0072 51.0252 58.2751 51.0339 58.5431 51.0511C58.6122 51.1981 58.69 51.345 58.7592 51.492C58.1714 53.2725 58.2406 55.1136 58.5604 56.8941C59.0531 59.6427 59.5112 62.4777 61.9227 64.3879L61.8622 64.4139Z" fill="#664F3F"/>
<path d="M73.0208 83.775C73.7382 86.6706 74.8705 89.5056 74.3433 92.5913C73.9716 92.7382 73.5913 92.8938 73.2196 93.0408C73.7037 89.8859 72.9862 86.9039 71.9058 83.9652C72.2775 83.9047 72.6492 83.8355 73.0208 83.775Z" fill="#664F3F"/>
<path d="M76.0201 78.8311C75.3719 76.411 75.9596 73.9908 75.9942 71.562C77.1092 73.913 77.2907 76.3159 76.5128 78.7965C76.3486 78.8052 76.1844 78.8225 76.0201 78.8311Z" fill="#664F3F"/>
<path d="M72.2775 100.664C71.2922 102.436 69.9179 103.871 68.3102 105.09C68.0509 104.848 67.7916 104.597 67.5323 104.355C68.7942 103.05 70.0648 101.745 71.3267 100.448C71.6465 100.517 71.9577 100.586 72.2775 100.664Z" fill="#664F3F"/>
<path d="M80.1343 82.7723C79.6849 82.9452 79.2354 83.1267 78.786 83.2996C78.2069 83.265 77.5845 83.3342 77.0486 83.1613C76.3745 82.9452 75.0693 83.2218 75.3027 82.0809C75.4842 81.182 76.6338 81.4586 77.4117 81.5363C78.4575 81.6314 79.3651 82.0722 80.1343 82.7723Z" fill="#F2C6B2"/>
<path d="M66.6593 67.1192C69.6759 66.3499 72.6924 65.572 75.7176 64.8027C75.7262 64.967 75.7349 65.1225 75.7435 65.2868C73.1678 66.8944 70.1685 67.05 67.3162 67.7242C67.0915 67.5168 66.8754 67.318 66.6593 67.1192Z" fill="#664F3F"/>
<path d="M78.665 83.9824C78.6304 84.6134 78.5959 85.2444 78.5613 85.8753C78.2588 85.2271 76.9277 84.5183 78.665 83.9824Z" fill="#F2C6B2"/>
<path d="M46.1744 117.631C46.4423 117.536 46.7016 117.432 46.9696 117.337C47.2808 117.64 47.6351 117.916 47.8944 118.262C48.6637 119.317 48.8366 120.043 47.082 120.207C43.2097 120.561 39.277 120.25 35.4479 121.166C32.803 121.797 30.1668 122.454 27.5219 123.094C27.5046 122.774 27.4787 122.454 27.4614 122.126C31.4374 120.631 35.4998 119.481 39.7956 119.576C41.6366 119.619 43.4517 119.567 45.2582 119.248C46.2868 119.083 46.7189 118.66 46.1744 117.631Z" fill="#664F3F"/>
<path d="M71.3959 124.097C72.3208 124.667 73.6 124.442 74.3606 125.402C74.1445 125.557 73.9284 125.713 73.7123 125.869C67.999 123.371 61.9054 122.523 55.7946 121.754C55.7946 121.469 55.7946 121.175 55.7946 120.89C60.7559 120.994 65.4925 122.273 70.1945 123.699L70.3414 123.768C70.6871 123.881 71.0415 123.984 71.3959 124.097Z" fill="#664F3F"/>
<path d="M46.1744 117.631C46.7189 118.66 46.2868 119.075 45.2582 119.256C43.4431 119.567 41.628 119.619 39.7956 119.585C35.4998 119.49 31.4461 120.639 27.4614 122.135C27.1676 122.256 26.8737 122.377 26.5798 122.498C26.3983 122.541 26.2081 122.584 26.0266 122.619C24.1078 122.843 22.2408 123.172 20.7887 124.615C20.4343 124.961 20.0108 125.41 19.4404 125.073C18.9218 124.762 18.9909 124.174 18.9995 123.673C19.0341 121.374 20.322 119.853 22.163 118.694C24.8425 117.009 27.8677 116.369 30.9274 115.868C33.2871 115.695 35.664 115.228 37.9891 116.153C40.1845 116.551 42.38 116.948 44.5667 117.346C44.7569 117.363 44.9557 117.372 45.1458 117.389C45.4916 117.476 45.8373 117.554 46.1744 117.631Z" fill="#F5E721"/>
<path d="M37.9892 116.162C35.6727 115.237 33.2958 115.704 30.9275 115.877C30.9534 115.591 30.9793 115.306 31.0053 115.012C32.7512 114.157 34.6096 114.641 36.4161 114.606C36.9001 114.597 37.4446 114.917 37.7212 114.234C37.8509 114.813 37.9805 115.401 38.1102 115.989L37.9892 116.162Z" fill="#B59D69"/>
<path d="M26.0266 122.619C26.2081 122.575 26.3983 122.532 26.5798 122.498C26.3983 122.532 26.2168 122.575 26.0266 122.619Z" fill="#664F3F"/>
<path d="M76.0374 126.404C76.8413 126.37 76.9795 126.888 76.9709 127.519C76.4869 127.295 76.2103 126.897 76.0374 126.404Z" fill="#B59D69"/>
<path d="M86.2885 32.4851C85.0006 30.9033 84.5166 28.924 83.6263 27.1521C86.202 28.0769 85.8131 30.4971 86.2885 32.4851Z" fill="#FBF49F"/>
<path d="M86.3576 33.3322C86.3317 33.0383 86.2971 32.7531 86.2712 32.4592C88.1122 33.0816 87.4726 34.6806 87.6541 35.9598L87.5591 36.0376C87.1528 35.13 86.7552 34.2311 86.3576 33.3322Z" fill="#FBF49F"/>
<path d="M83.6349 27.1608C83.1854 27.0225 83.22 26.599 83.0817 26.2705C83.2719 26.573 83.4534 26.8669 83.6349 27.1608Z" fill="#FBF49F"/>
<path d="M65.5789 109.506C65.6221 109.334 65.6566 109.161 65.6999 108.988C65.6566 109.161 65.6134 109.334 65.5789 109.506Z" fill="#664F3F"/>
<path d="M47.3585 109.411C49.2774 109.844 49.3206 110.812 48.0846 112.074C46.7794 113.405 46.6065 115.419 45.2755 116.724C43.5208 116.309 41.8267 115.617 39.9857 115.557C39.7523 115.419 39.3806 115.332 39.3115 115.125C38.2311 112.203 38.2311 109.161 38.4126 106.11C38.4472 105.513 38.8102 105.418 39.3115 105.531C41.6366 107.553 44.2555 108.997 47.3585 109.411Z" fill="#F8F7F5"/>
<path d="M56.5552 117.467C55.7859 117.528 55.4056 117.251 55.2327 116.413C54.887 114.77 54.619 113.085 53.8498 111.555C53.4954 110.855 53.6682 110.397 54.4807 110.354C57.4454 110.181 60.2545 109.342 63.0291 108.383C64.2651 107.959 64.4552 108.469 64.3601 109.481C64.1354 111.702 63.3575 113.75 62.4932 115.782C62.1561 116.577 61.4041 116.698 60.678 116.836C59.6754 117.035 58.6641 117.208 57.6615 117.389C57.2898 117.424 56.9182 117.45 56.5552 117.467Z" fill="#F8F7F5"/>
<path d="M56.5552 117.467C56.9182 117.441 57.2898 117.424 57.6529 117.398C61.4387 117.865 65.2936 117.173 69.0449 118.262C71.2317 118.902 73.4617 119.369 75.3027 120.821C73.7988 121.227 72.58 120.285 71.3267 119.818C67.2038 118.305 62.9513 118.668 58.7247 118.608C58.0073 118.599 56.996 118.694 56.9873 119.559C56.9701 120.734 58.1196 120.406 58.8543 120.484C62.1474 120.812 65.3801 121.391 68.509 122.506C69.1572 122.739 70.0216 122.739 70.1858 123.69C65.4838 122.255 60.7472 120.985 55.7859 120.881C55.2241 120.458 54.1264 120.648 54.0486 119.792C53.9708 118.91 55.0426 118.893 55.5957 118.487C55.9761 118.21 56.5725 118.133 56.5552 117.467Z" fill="#B59D69"/>
<path d="M47.3586 109.411C44.2557 108.996 41.6367 107.553 39.303 105.539C39.4931 105.349 39.6833 105.15 39.8734 104.96C42.259 106.447 44.6273 107.985 47.4018 108.694C47.3846 108.936 47.3759 109.169 47.3586 109.411Z" fill="#664F3F"/>
<path d="M39.9858 115.565C41.8182 115.626 43.5209 116.317 45.2755 116.732C45.3274 116.845 45.3101 116.94 45.2237 117.026C45.0076 117.139 44.7915 117.251 44.5668 117.355C42.3713 116.957 40.1846 116.559 37.9891 116.162L38.1274 115.989C38.7584 115.885 39.519 116.369 39.9858 115.565Z" fill="#B59D69"/>
<path d="M79.78 127.64C79.7627 126.404 79.7454 125.16 79.7281 123.924C81.3012 125.454 81.3099 126.301 79.78 127.64Z" fill="#B59D69"/>
<path d="M78.8465 123.068C78.3019 123.068 77.9562 122.817 77.8525 122.273C78.3452 122.333 78.7168 122.558 78.8465 123.068Z" fill="#B59D69"/>
<path d="M67.2038 105.885C66.9618 106.066 66.7198 106.248 66.4691 106.421C66.6074 106.101 66.8494 105.911 67.2038 105.885Z" fill="#664F3F"/>
<path d="M77.8698 122.273C77.4635 122.299 77.1783 122.126 77.0314 121.737C77.429 121.72 77.7056 121.91 77.8698 122.273Z" fill="#B59D69"/>
<path d="M77.0574 121.754C76.6338 121.823 76.3227 121.668 76.1584 121.27C76.5647 121.236 76.8845 121.348 77.0574 121.754Z" fill="#B59D69"/>
<path d="M76.193 121.279C75.7608 121.383 75.4497 121.227 75.2768 120.812C75.683 120.769 76.0028 120.898 76.193 121.279Z" fill="#B59D69"/>
<path d="M79.3046 123.491C79.1403 123.345 78.9761 123.189 78.8119 123.042C79.0971 123.068 79.2786 123.198 79.3046 123.491Z" fill="#B59D69"/>
<path d="M79.7455 123.95C79.5899 123.785 79.4343 123.63 79.2874 123.466C79.5812 123.492 79.7195 123.673 79.7455 123.95Z" fill="#B59D69"/>
<path d="M44.5668 117.355C44.7829 117.242 44.999 117.13 45.2237 117.026C45.2237 117.156 45.1977 117.277 45.1545 117.398C44.9557 117.381 44.7656 117.363 44.5668 117.355Z" fill="#664F3F"/>
<path d="M75.1904 36.2709C76.4609 35.2423 75.9078 33.9026 75.804 32.6493C77.1438 33.0382 76.8067 32.2517 76.7116 31.4651C76.3399 28.5177 76.2967 25.6308 78.8206 23.4268C80.8086 24.706 81.8804 26.7285 83.0818 28.656C83.2633 28.9413 83.488 29.408 83.3757 29.6327C83.1077 30.1513 82.6151 29.8402 82.2347 29.6759C80.2727 28.803 79.149 29.6586 78.5354 31.4824C78.2847 32.2257 78.2761 33.0296 79.0626 33.4272C80.8864 34.352 80.0825 34.9138 78.5786 35.4929C80.2122 36.6598 82.0359 36.6771 83.6004 37.3599C83.6868 37.4809 83.7128 37.6106 83.6782 37.7489C80.8432 37.2562 78.0168 36.7635 75.1904 36.2709Z" fill="#FBF49F"/>
<path d="M78.8206 23.4181C76.3054 25.6222 76.3399 28.5091 76.7116 31.4565C76.8153 32.2344 77.1438 33.0296 75.804 32.6407C75.3805 31.5689 74.957 30.4971 74.5248 29.4253C74.715 29.045 74.6199 28.7252 74.3174 28.4572C74.326 27.1348 74.326 25.8124 74.3347 24.4899C74.7496 24.0923 74.836 23.6256 74.6458 23.0983C74.8273 22.5279 75.0002 21.966 75.1817 21.3956C75.5707 21.24 75.9596 21.0844 76.3486 20.9288C77.4117 21.5252 78.5786 22.0092 78.8206 23.4181Z" fill="#F06F4A"/>
<path d="M86.3576 33.332C86.7552 34.2309 87.1528 35.1385 87.5504 36.0374C88.2333 39.4602 89.1495 42.8311 89.5298 46.3144C89.7977 48.7605 89.6076 51.1461 89.2791 53.5403C88.6568 51.3881 89.3137 49.1668 88.9161 47.0059C88.8815 46.5997 88.8469 46.1848 88.8037 45.7785C89.0198 45.1994 88.6568 44.7932 88.3975 44.3524C87.8875 41.9149 87.8789 39.1923 84.8796 38.1637C84.845 38.0686 84.8364 37.9649 84.8537 37.8612C84.9747 37.7402 85.0957 37.6105 85.2167 37.4895C85.6489 37.4204 86.6256 38.1896 86.3144 36.9709C86.0378 35.8818 85.9946 34.6372 85.0265 33.7988C85.355 33.2888 85.9168 33.4876 86.3576 33.332Z" fill="#664F3F"/>
<path d="M85.0438 33.7988C86.0032 34.6372 86.0551 35.8819 86.3317 36.971C86.6342 38.1897 85.6575 37.4204 85.234 37.4896C85.0092 37.2908 84.7845 37.0833 84.5684 36.8845C84.3178 35.7954 84.6894 34.8015 85.0438 33.7988Z" fill="#F2C6B2"/>
<path d="M76.3485 20.9288C75.9596 21.0844 75.5706 21.24 75.1817 21.3956C74.7409 20.877 75.1125 20.4621 75.3459 20.0299C75.683 20.3324 76.0114 20.6263 76.3485 20.9288Z" fill="#F2C6B2"/>
<path d="M84.5512 36.8845C84.7759 37.0833 85.0006 37.2908 85.2167 37.4896C85.0957 37.6106 84.9747 37.7402 84.8537 37.8612C84.4474 37.818 84.0412 37.7662 83.6349 37.7229L83.6695 37.7489C83.7041 37.6019 83.6695 37.4723 83.5917 37.3599C83.9115 37.2043 84.2313 37.0487 84.5512 36.8845Z" fill="#664F3F"/>
<path d="M71.3959 124.096C71.0415 123.993 70.6871 123.88 70.3327 123.777C70.7649 123.612 71.1711 123.535 71.3959 124.096Z" fill="#B59D69"/>
<path d="M19.0081 106.775C18.3426 107.942 17.7894 107.873 16.9251 106.827C12.4564 101.425 13.2862 91.3986 22.405 88.529C24.2374 87.9499 26.1216 87.6733 28.0405 87.656C29.1987 87.6387 30.2878 87.9153 30.6076 89.2291C30.9274 90.517 30.5038 91.4505 29.2246 92.0901C28.2738 92.5655 27.0638 92.7211 26.5279 93.8534C22.2062 96.3945 19.7342 100.154 19.1291 105.133C19.0946 105.678 19.0513 106.222 19.0081 106.775Z" fill="#148177"/>
<path d="M39.9857 115.565C39.519 116.369 38.7584 115.885 38.1274 115.998C37.9978 115.41 37.8681 114.831 37.7385 114.243C37.2544 110.846 36.3987 107.493 36.7531 104.009C36.7963 103.612 36.658 103.067 36.3901 102.799C34.9034 101.295 33.6588 99.5406 31.8869 98.3219C31.6362 98.2009 31.3855 98.0712 31.1262 97.9502C31.2386 96.8871 30.7114 95.7462 31.5325 94.7781C32.7944 95.1411 31.9387 96.9476 33.434 97.3625C33.7279 93.8965 33.6847 90.37 35.7332 87.2756C34.2033 93.9051 34.2552 100.094 39.8647 104.969C39.6746 105.159 39.4844 105.358 39.2943 105.548C38.7929 105.435 38.4299 105.539 38.3953 106.127C38.2138 109.178 38.2138 112.22 39.2943 115.142C39.3807 115.332 39.7524 115.419 39.9857 115.565Z" fill="#383634"/>
<path d="M32.319 108.461C33.0624 109.61 34.3243 110.379 34.8083 111.762C28.8789 112.713 24.1942 107.138 24.9548 100.146C25.1363 100.569 25.3092 100.993 25.4907 101.416C25.6117 104.675 26.6749 107.475 29.5186 109.325C30.9879 110.284 31.8868 110.051 31.6794 108.054C31.7831 108.046 31.8696 108.002 31.9387 107.925L32.0338 108.037C32.1289 108.175 32.2239 108.322 32.319 108.461Z" fill="#383634"/>
<path d="M19.1292 105.124C19.7342 100.146 22.2062 96.3858 26.5279 93.8446L26.6143 93.9397C26.6057 94.199 26.597 94.4496 26.5884 94.7089C23.0014 96.8006 21.3678 100.293 20.0108 103.966C19.8379 104.433 20.1577 105.306 19.1292 105.124Z" fill="#383634"/>
<path d="M31.9474 107.925C31.8782 108.003 31.7918 108.046 31.6881 108.054C30.089 104.761 29.8557 101.39 31.1435 97.9417C31.3942 98.0627 31.6448 98.1923 31.9041 98.3133C30.4607 99.1258 31.1522 100.543 30.9966 101.684C30.6854 103.836 31.3423 105.885 31.9474 107.925Z" fill="#664F3F"/>
<path d="M26.5884 94.7176C26.597 94.4583 26.6057 94.2076 26.6143 93.9483C27.228 93.8187 27.7639 93.9224 28.1961 94.4064C27.1502 96.6883 25.24 98.6417 25.482 101.416C25.3005 100.993 25.1277 100.569 24.9462 100.146C24.8511 98.1404 26.8563 96.7661 26.5884 94.7176Z" fill="#664F3F"/>
<path d="M17.366 83.7838C13.5715 84.0604 10.8834 86.2126 8.60155 89.013C7.99651 89.7477 7.42604 90.5083 6.82965 91.2517C5.2479 91.243 5.40349 90.1108 5.42942 89.0735C5.59364 83.7665 9.82892 77.9236 14.8767 76.0307C15.6373 75.7454 16.4065 75.4948 17.1672 75.2268C18.5933 75.2527 20.0281 75.2787 21.4543 75.3132H21.5148C22.4224 75.4083 23.1916 76.1171 24.177 75.901C25.4908 77.0333 27.1244 77.7161 28.3517 78.9953C29.9162 80.6203 31.0312 82.4008 31.23 84.6913C31.3424 85.9878 30.5126 86.4114 28.1962 86.2212C28.2567 85.4606 27.7553 85.5038 27.2454 85.547L27.2281 85.5384C25.4735 83.3862 20.2529 82.4613 17.366 83.7838Z" fill="#F2C6B2"/>
<path d="M25.4907 101.416C25.2487 98.6332 27.1589 96.6798 28.2047 94.4065C29.2506 94.0349 30.2619 92.8075 31.4114 94.2337C31.4547 94.4152 31.4979 94.5967 31.5497 94.7696C30.7286 95.7376 31.2559 96.8786 31.1435 97.9417C29.8556 101.39 30.089 104.761 31.688 108.063C31.8955 110.068 30.9966 110.293 29.5272 109.334C26.6749 107.475 25.6117 104.675 25.4907 101.416Z" fill="#148177"/>
<path d="M21.4629 75.3132C20.0368 75.2873 18.602 75.2614 17.1758 75.2268C17.0894 75.0107 17.0029 74.7946 16.9165 74.5699C19.475 73.913 21.9643 74.2414 24.4103 75.1058C24.3412 75.3737 24.2634 75.6417 24.1856 75.901C23.2089 76.117 22.431 75.4083 21.5234 75.3132L21.4975 75.2095L21.4629 75.3132Z" fill="#664F3F"/>
<path d="M38.3262 76.9814C39.5708 76.143 40.8241 75.3133 42.0688 74.4749C42.2676 74.6564 42.4664 74.8292 42.6652 75.0107C41.7749 76.0998 40.487 76.5838 39.2942 77.2148C38.9744 77.137 38.646 77.0592 38.3262 76.9814Z" fill="#664F3F"/>
<path d="M27.254 85.5469C27.764 85.5037 28.2653 85.4605 28.2048 86.2211C27.9628 86.2729 27.7208 86.3334 27.4788 86.3853C27.401 86.1087 27.3232 85.8235 27.254 85.5469Z" fill="#B59D69"/>
<path d="M17.366 83.7837C20.2442 82.4612 25.4648 83.3861 27.2367 85.5383C24.0387 84.7344 20.8493 83.8787 17.4956 84.2677C17.4524 84.1035 17.4092 83.9393 17.366 83.7837Z" fill="#B59D69"/>
<path d="M16.8733 84.5443C16.9597 84.3369 17.0894 84.2331 17.3141 84.3541C17.1672 84.4233 17.0202 84.4838 16.8733 84.5443Z" fill="#B59D69"/>
<path d="M84.8883 38.1724C87.8875 39.1923 87.8962 41.915 88.4061 44.3524C88.1382 44.9402 88.3715 45.3897 88.8124 45.7786C88.8469 46.1848 88.8815 46.5997 88.9247 47.006C88.5098 50.9906 88.1036 54.9665 87.6887 58.9512C87.464 59.5389 87.2911 60.1785 86.5305 60.2995C86.2971 60.4378 86.0724 60.5675 85.839 60.7058H85.8304C85.1994 60.7403 84.5339 60.6625 84.0844 61.2503H84.1449C81.6988 61.0515 79.3738 61.7603 77.0314 62.2443C75.6398 62.5382 74.4816 62.4863 73.0727 61.9504C70.9897 61.1639 68.5954 61.3713 66.4519 60.5329C65.3801 60.9305 64.68 61.7084 64.2219 62.7283C64.4552 64.3792 65.8209 64.0248 66.6074 63.7223C69.0017 62.7715 71.4218 64.1804 73.7815 63.463C74.0581 63.3766 74.3865 63.4976 74.473 63.8347C74.5853 64.3014 74.2396 64.5348 73.8938 64.6212C71.128 65.2781 68.3534 65.9264 65.5702 66.5055C64.6367 66.7043 63.8588 66.3586 63.418 65.3991C63.1328 64.7682 62.6574 64.3101 61.8709 64.3965L61.9227 64.3706C61.1362 61.9763 59.9866 59.7291 59.4507 57.2138C59.0272 55.2345 59.8656 53.3502 59.4248 51.44C59.5199 50.7054 59.6149 49.9793 59.71 49.2446C60.073 49.0026 60.1681 48.7174 59.8569 48.363C59.8829 48.1037 59.9088 47.8444 59.9347 47.5851C60.7991 46.8331 61.2485 45.865 61.4646 44.7587C61.9832 43.8252 63.2106 43.3844 63.2884 42.1397L63.297 42.1311C63.928 41.9409 64.17 41.4655 64.2305 40.8605C64.5071 40.6963 64.7923 40.5321 65.0689 40.3678C65.8036 40.29 66.2876 39.8924 66.5556 39.2183C66.6593 39.1837 66.763 39.1232 66.8495 39.054C67.9731 38.8639 68.9066 38.3453 69.6845 37.5155C70.0562 37.3426 70.4278 37.1698 70.7995 37.0055C70.9637 36.9623 71.1193 36.9105 71.2835 36.8673C71.4218 36.8586 71.5601 36.8327 71.6898 36.7895C72.4936 36.8932 73.2974 37.0142 73.9284 36.3314C74.3519 36.3054 74.7841 36.2881 75.2076 36.2622C78.034 36.7549 80.8604 37.2476 83.6955 37.7489L83.6609 37.7229C83.9288 38.2329 84.4129 38.1724 84.8883 38.1724Z" fill="#F5E721"/>
<path d="M53.2188 53.7392C52.3026 54.1368 51.3864 54.0417 50.4702 53.7565C50.0726 53.1083 49.528 53.2206 48.9662 53.4886C43.4171 51.7167 39.5535 46.2713 39.9857 40.7655C40.2969 36.7895 42.3021 33.7297 46.0447 32.5975C50.0985 31.3701 53.8843 32.7357 57.0219 35.614C58.9666 37.3945 59.8742 39.8666 61.188 42.0706C60.9546 42.8572 60.7299 43.7302 59.7359 43.7734C58.7678 43.8166 58.7851 42.814 58.3962 42.2435C57.8689 41.4483 57.4022 40.6012 56.7971 39.8752C54.014 36.5302 50.1504 35.9684 47.3499 38.449C43.9185 41.5002 43.6765 45.649 46.7362 48.9335C49.3033 51.6821 52.5014 52.8144 56.2094 52.6934C56.1921 52.8922 56.1748 53.0823 56.1575 53.2811C55.8204 53.333 55.4747 53.3849 55.1376 53.4367C54.4289 53.065 53.746 52.9267 53.2188 53.7392Z" fill="#F3740F"/>
<path d="M56.2267 52.6674C52.5273 52.7884 49.3206 51.6561 46.7535 48.9075C43.6937 45.623 43.9271 41.4742 47.3672 38.4231C50.1676 35.9338 54.0312 36.5042 56.8144 39.8492C57.4195 40.5753 57.8776 41.431 58.4135 42.2175C58.7938 42.788 58.7851 43.7906 59.7532 43.7474C60.7472 43.7042 60.9719 42.8312 61.2053 42.0446C61.8967 42.0792 62.5882 42.1138 63.2797 42.1484C63.2105 43.393 61.9745 43.8338 61.4559 44.7673C60.0471 45.2254 59.9779 46.4009 59.926 47.5937C59.9001 47.853 59.8742 48.1123 59.8483 48.3716C59.6581 48.363 59.4679 48.3543 59.2778 48.337C59.2519 46.9714 58.7419 45.744 58.1196 44.5858C56.9959 42.5114 54.9475 41.6384 52.5014 42.0965C50.5307 42.4595 50.5134 44.2228 50.0898 45.6403C49.7441 46.7899 49.9343 47.7234 51.5074 47.5764C52.5705 47.4814 52.8125 47.9827 52.4063 48.8989C51.6111 50.7053 52.5705 51.1634 54.1263 51.0943C54.9907 51.0597 55.8896 51.2845 56.728 50.8523C56.9787 50.7918 57.2293 50.7399 57.4886 50.6794C57.5577 50.8004 57.6442 50.9041 57.7479 50.9906C57.6096 51.3968 57.4713 51.7944 57.333 52.2007C56.8058 52.0191 56.4773 52.2525 56.2267 52.6674Z" fill="#FBF49F"/>
<path d="M69.6585 37.5243C68.8893 38.354 67.9471 38.8726 66.8235 39.0628C67.3767 37.8181 68.4052 37.4638 69.6585 37.5243Z" fill="#FBF49F"/>
<path d="M53.2188 53.7391C53.746 52.9353 54.4288 53.0736 55.1462 53.4107C54.5844 53.9725 53.9275 54.0157 53.2188 53.7391Z" fill="#B59D69"/>
<path d="M73.9025 36.3315C73.2628 37.0143 72.459 36.8933 71.6638 36.7896C72.2343 35.761 73.0381 35.882 73.9025 36.3315Z" fill="#FBF49F"/>
<path d="M56.2267 52.6675C56.4773 52.2526 56.8058 52.0106 57.3157 52.2094C57.2639 52.6934 57.2034 53.1774 57.1515 53.6701C56.8231 53.5318 56.4946 53.3935 56.1748 53.2552C56.1921 53.0564 56.2094 52.8663 56.2267 52.6675Z" fill="#B59D69"/>
<path d="M66.5383 39.227C66.2704 39.9012 65.7863 40.3074 65.0516 40.3766C65.1986 39.5468 65.674 39.1406 66.5383 39.227Z" fill="#FBF49F"/>
<path d="M48.9749 53.4798C49.5453 53.2119 50.0812 53.0995 50.4788 53.7478C49.891 54.1108 49.4157 53.8947 48.9749 53.4798Z" fill="#B59D69"/>
<path d="M74.6458 23.0983C74.836 23.6255 74.7495 24.0923 74.3347 24.4899C73.8506 23.8935 73.963 23.4354 74.6458 23.0983Z" fill="#F2C6B2"/>
<path d="M64.2132 40.8693C64.1527 41.4743 63.9107 41.9497 63.2797 42.1398C63.2624 41.4829 63.4439 40.9643 64.2132 40.8693Z" fill="#FBF49F"/>
<path d="M74.3173 28.4572C74.6199 28.7251 74.7149 29.0449 74.5248 29.4252C74.0667 29.1919 73.9197 28.8807 74.3173 28.4572Z" fill="#F2C6B2"/>
<path d="M71.2576 36.876C71.0934 36.9192 70.9378 36.9711 70.7736 37.0143C70.9378 36.9624 71.102 36.9192 71.2576 36.876Z" fill="#FBF49F"/>
<path d="M67.5322 104.355C67.7915 104.597 68.0508 104.848 68.3101 105.09C68.0508 105.34 67.852 105.306 67.7051 104.977C67.3594 104.848 67.2989 104.64 67.5322 104.355Z" fill="#383634"/>
<path d="M87.6887 58.9598C88.1036 54.9752 88.5099 50.9993 88.9247 47.0146C89.3223 49.1755 88.6654 51.3969 89.2878 53.5491C89.2964 54.301 89.305 55.053 89.3137 55.8136C88.9074 57.1534 88.5012 58.4931 88.095 59.8415C87.9567 59.5389 87.8184 59.2451 87.6887 58.9598Z" fill="#B59D69"/>
<path d="M87.2219 61.2417C87.075 61.38 86.9194 61.5097 86.7725 61.6479L86.6255 61.4924C86.8157 61.3973 87.0059 61.2936 87.196 61.1985C87.1874 61.1985 87.2219 61.2417 87.2219 61.2417Z" fill="#F7F1BB"/>
<path d="M42.6651 75.0106C42.4663 74.8291 42.2675 74.6563 42.0687 74.4747C42.3626 74.3019 42.6565 73.6363 42.9676 74.4661C43.1492 74.8032 42.8985 74.8983 42.6651 75.0106Z" fill="#383634"/>
<path d="M44.2814 73.1523C43.5554 72.4176 44.195 72.3484 44.7309 72.2361C45.4483 72.9621 44.8778 73.0658 44.2814 73.1523Z" fill="#383634"/>
<path d="M42.9419 74.4835C42.7863 74.276 42.5615 74.0426 42.9246 73.8611C43.0369 73.8093 43.2444 73.9562 43.4172 74.0081C43.616 74.518 43.3222 74.5526 42.9419 74.4835Z" fill="#383634"/>
<path d="M43.3912 74.0339C43.2443 73.8265 43.0196 73.5931 43.3739 73.4202C43.4863 73.3684 43.6937 73.5153 43.858 73.5672C44.0395 74.0598 43.858 74.1895 43.3912 74.0339Z" fill="#383634"/>
<path d="M43.832 73.5931C43.6851 73.3857 43.4603 73.1523 43.8147 72.9794C43.9271 72.9276 44.1345 73.0745 44.2988 73.1264C44.4803 73.619 44.3247 73.7746 43.832 73.5931Z" fill="#383634"/>
<path d="M44.705 72.2621C44.6877 71.9423 44.4457 71.3891 45.1544 71.8126C45.2927 72.0114 45.5088 72.2361 45.1631 72.409C45.068 72.4695 44.8692 72.3226 44.705 72.2621Z" fill="#383634"/>
<path d="M45.1805 71.804C45.1459 71.6398 44.8347 71.5533 45.094 71.2854C45.362 71.0174 45.4398 71.3545 45.604 71.3805C45.6386 71.5447 45.967 71.6225 45.6991 71.8991C45.4225 72.167 45.3447 71.8299 45.1805 71.804Z" fill="#383634"/>
<path d="M75.7349 65.2868C75.7262 65.1226 75.7176 64.967 75.7089 64.8028C76.9709 64.2151 78.4143 64.1718 79.3392 62.6852C79.8664 61.8381 81.5087 62.1579 82.6582 62.011C82.978 62.1493 83.2978 62.2962 83.6176 62.4345C82.2433 63.0482 80.9036 63.7742 79.4774 64.2323C78.276 64.6126 78.7514 65.33 78.8551 66.0302C77.8179 65.7709 76.7807 65.5288 75.7349 65.2868Z" fill="#383634"/>
<path d="M78.7947 65.9869C79.3046 65.7794 79.5034 66.1338 79.7022 66.4882C79.2787 66.5314 78.9503 66.4277 78.7947 65.9869Z" fill="#383634"/>
<path d="M64.2218 62.7457C64.6799 61.7258 65.38 60.9479 66.4518 60.5503C66.616 61.3368 67.4804 61.4838 68.0422 62.3049C66.6679 62.4605 65.4492 62.5988 64.2218 62.7457Z" fill="#664F3F"/>
<path d="M56.7193 50.8696C55.8896 51.2931 54.9907 51.0684 54.1177 51.1116C52.5619 51.1807 51.6024 50.7226 52.3976 48.9161C52.8039 47.9999 52.5619 47.49 51.4987 47.5937C49.9256 47.7406 49.7441 46.8072 50.0812 45.6576C50.5047 44.2401 50.522 42.4855 52.4927 42.1138C54.9388 41.6557 56.9873 42.5287 58.1109 44.6031C58.7333 45.7613 59.2432 46.9973 59.2692 48.3543C59.1827 48.6396 59.0963 48.9161 59.0012 49.2014C58.8456 49.8237 58.69 50.4374 58.5345 51.0597C58.2665 51.0424 57.9986 51.0338 57.7306 51.0165C57.6269 50.9301 57.5318 50.8263 57.4713 50.7053C57.1688 50.4979 56.9008 50.5065 56.7193 50.8696Z" fill="#383634"/>
<path d="M59.4161 51.4574C59.8569 53.3676 59.0272 55.2519 59.442 57.2312C59.9779 59.7464 61.1189 61.9937 61.9141 64.3879C59.5025 62.4691 59.0444 59.6427 58.5518 56.8941C58.232 55.1136 58.1628 53.2725 58.7506 51.492C58.9753 51.4833 59.1914 51.466 59.4161 51.4574Z" fill="#F8F167"/>
<path d="M59.4162 51.4574C59.1914 51.4661 58.9754 51.4834 58.7506 51.492C58.6815 51.3451 58.6037 51.1981 58.5345 51.0512C58.6901 50.4289 58.8457 49.8152 59.0013 49.1929C59.2347 49.2188 59.4594 49.2361 59.6928 49.262C59.5977 49.9967 59.5113 50.7314 59.4162 51.4574Z" fill="#FBF49F"/>
<path d="M88.8123 45.7872C88.3629 45.3983 88.1382 44.9488 88.4061 44.3611C88.6654 44.7933 89.0284 45.2081 88.8123 45.7872Z" fill="#B59D69"/>
<path d="M84.8882 38.1725C84.4215 38.1725 83.9288 38.233 83.6436 37.7317C84.0498 37.7749 84.456 37.8268 84.8623 37.87C84.8363 37.9737 84.845 38.0688 84.8882 38.1725Z" fill="#FBF49F"/>
<path d="M21.4629 75.3132L21.4975 75.2095L21.5234 75.3132H21.4629Z" fill="#B59D69"/>
<path d="M59.9175 47.6024C59.978 46.4183 60.0385 45.2341 61.4474 44.776C61.2313 45.8737 60.7818 46.8504 59.9175 47.6024Z" fill="#F8F167"/>
<path d="M59.6927 49.2619C59.4593 49.236 59.2346 49.2187 59.0012 49.1928C59.0877 48.9075 59.1741 48.6309 59.2692 48.3457C59.4593 48.3543 59.6495 48.363 59.8396 48.3716C60.1508 48.7347 60.0557 49.0199 59.6927 49.2619Z" fill="#F8F167"/>
<path d="M85.8304 60.7145C85.3464 61.2158 84.7413 61.3109 84.0844 61.259C84.5339 60.6713 85.1994 60.7577 85.8304 60.7145Z" fill="#F8F167"/>
<path d="M86.5305 60.3082C86.2971 60.4465 86.0724 60.5762 85.839 60.7145C86.0637 60.5762 86.2971 60.4465 86.5305 60.3082Z" fill="#F8F167"/>
<path d="M56.7194 50.8697C56.9095 50.5153 57.1688 50.498 57.48 50.6968C57.2207 50.7487 56.97 50.8092 56.7194 50.8697Z" fill="#664F3F"/>
</svg>
