<svg width="93" height="140" viewBox="0 0 93 140" fill="none" xmlns="http://www.w3.org/2000/svg">
<path d="M46.6377 138.512C46.5809 138.948 46.5334 139.393 46.4766 139.829C46.0594 139.886 45.6423 139.943 45.2157 140C43.9358 139.744 42.6559 139.488 41.3855 139.232L41.3287 139.384C41.1865 139.014 40.8831 138.957 40.5418 138.957C40.1152 138.331 39.0628 138.739 38.7879 137.876C38.9017 137.772 39.006 137.658 39.1102 137.554C39.3188 137.459 39.5274 137.374 39.736 137.279C41.0632 137.63 42.3905 138.009 43.7272 138.331C44.7606 138.587 45.1777 138.132 45.0735 137.089C44.9218 135.544 44.7985 133.989 44.6658 132.444C45.1493 128.775 44.5805 125.248 43.1963 121.826C42.6465 120.461 41.7363 120.11 40.4091 120.593C39.3757 120.973 38.3518 121.466 37.2047 121.096C37.4038 120.205 38.2665 120.309 38.8543 120.034C44.8933 117.19 49.1027 112.914 49.899 105.965C49.9654 105.738 50.0697 105.52 50.0791 105.292C50.2688 99.5468 50.0033 100.324 45.6423 101.206C41.9544 101.945 38.1717 102.088 34.5028 100.779C33.5547 100.438 32.5593 100.144 31.8672 98.7789C32.6256 98.978 32.9859 99.0539 33.3461 99.1676C39.1008 100.874 44.8175 101.652 50.4015 98.5988C51.5202 98.5893 52.1269 97.7455 52.8569 97.1009C53.3309 96.6837 53.6817 95.8495 54.5065 96.5984C54.4686 96.8828 54.4212 97.1672 54.3833 97.4517C54.2506 97.7835 54.1178 98.1248 53.9851 98.4566C52.8095 98.978 50.9703 98.7126 51.2832 100.931C51.9089 105.415 50.9513 109.615 48.7993 113.559C48.0124 114.507 47.2729 115.493 46.4387 116.394C43.6798 119.408 43.6703 119.399 45.3579 123.077C45.282 123.561 45.4053 123.978 45.7276 124.348C45.7087 124.68 45.6802 125.011 46.0973 125.144C46.4481 129.6 45.1114 134.113 46.6377 138.512Z" fill="#383634"/>
<path d="M35.9911 136.388C34.4743 134.862 34.1993 132.643 32.9479 130.965C31.431 126.471 28.8144 122.926 24.3112 121.039C27.5346 121.172 30.6821 122.319 33.9528 121.693L33.9433 121.854C33.0143 121.921 32.0947 121.987 31.1656 122.072C30.0374 122.177 29.4591 122.746 30.3028 123.713C32.1421 125.846 33.3366 128.367 34.7776 130.738C34.2846 133.705 36.6169 135.013 38.2665 136.729C38.238 137.014 38.2001 137.289 38.1716 137.573C37.6313 137.412 37.1003 137.251 36.56 137.08C36.4462 136.72 36.2281 136.502 35.8205 136.54L35.9532 136.53L35.9911 136.388Z" fill="#664F3F"/>
<path d="M71.5903 16.5739C72.2255 16.3843 72.9649 16.5644 73.5053 16.0525C77.0226 16.4127 80.2839 15.4362 83.4977 14.1753C84.1803 13.9099 84.9198 13.0187 85.6024 13.6634C86.3419 14.3554 85.318 15.0191 85.1189 15.7206C84.7017 17.1996 83.5357 18.195 82.7867 19.4559C80.9475 21.0771 79.3453 22.9732 77.2217 24.2625C77.051 23.9686 76.8804 23.6747 76.7002 23.3808C77.3449 22.8215 77.9801 22.2527 78.6342 21.7028C80.2933 20.2997 82.142 19.0957 83.2892 17.1522C83.5262 16.754 83.9623 16.3369 83.7158 15.8913C83.3839 15.294 82.7393 15.5879 82.2368 15.6827C78.7954 16.3274 75.354 17.01 71.9126 17.6736C71.7988 17.6357 71.6946 17.5693 71.6187 17.4745C71.6092 17.1711 71.5998 16.8773 71.5903 16.5739Z" fill="#664F3F"/>
<path d="M31.1656 0.495001C31.6017 -0.481486 32.3696 0.314872 32.9574 0.163185C33.5073 0.457079 34.0476 0.750974 34.5975 1.04487C35.4792 2.51434 37.2426 2.91252 38.3139 4.14498C38.001 4.22082 37.6787 4.28719 37.3658 4.36303C35.3844 3.67096 34.3605 1.46201 32.18 1.08279C31.8387 0.883701 31.4974 0.68461 31.1656 0.495001Z" fill="#664F3F"/>
<path d="M38.1811 137.554C38.2095 137.27 38.2475 136.995 38.2759 136.71C38.5793 136.833 38.8827 136.957 39.1955 137.089C39.1671 137.251 39.1386 137.402 39.1102 137.563C39.0059 137.677 38.9016 137.782 38.7879 137.886C38.5888 137.782 38.3897 137.668 38.1811 137.554Z" fill="#383634"/>
<path d="M87.6596 52.704C86.6737 53.2728 85.6972 53.8322 84.7112 54.401C80.9854 55.7188 77.1932 56.4488 73.2493 55.6524C71.9221 55.387 72.1117 56.2686 72.0548 57.0271C71.704 61.8337 70.3862 66.3653 67.8075 70.4514C66.0916 73.1723 64.4704 76.0733 61.2376 77.4006C61.1143 77.3058 60.9721 77.2773 60.8204 77.3153C60.6972 76.9266 61.0006 76.8033 61.2281 76.5948C66.4803 71.646 69.7416 65.6448 70.7275 58.4492C70.974 56.6289 71.0214 54.894 69.1822 53.7753C69.4098 53.5383 69.6373 53.3107 69.8648 53.0737C76.6907 57.6433 86.01 53.197 89.5368 49.1867C90.4374 48.1629 90.1625 47.6319 88.8257 47.3665C85.6213 46.7313 82.4644 45.9065 79.6202 44.2C79.9426 44.0673 80.2649 43.9251 80.5872 43.7924C82.1041 43.944 83.2986 45.2618 84.9293 45.0153C85.1473 45.0059 85.3654 45.0059 85.5834 44.9964C86.3703 45.423 87.2235 45.5462 88.1147 45.5083C88.7973 45.6505 89.4894 45.8117 90.172 45.9444C92.9592 46.4848 93.1488 46.8545 91.3286 49.1109C90.2667 50.4476 88.9016 51.5189 87.6596 52.704Z" fill="#383634"/>
<path d="M67.4284 34.3782C67.4189 34.5299 67.4379 34.6816 67.4853 34.8333C67.1345 34.8617 66.7932 34.8996 66.4424 34.9281C65.4849 34.492 65.2194 33.4586 64.5463 32.7286C66.5372 32.9561 68.4713 30.6998 68.9263 27.6755C69.4667 27.9504 70.0924 28.4434 70.6044 27.8746C71.7894 26.5663 73.6476 25.9785 74.4345 24.2625C75.1834 23.9687 75.9419 23.6748 76.6908 23.3809C76.8615 23.6748 77.0321 23.9687 77.2122 24.2625C75.9893 25.3054 74.7568 26.3388 73.5338 27.3816C73.0029 27.4954 72.6427 27.8082 72.3962 28.2823C72.2255 28.2917 72.1212 28.3771 72.0738 28.5477C71.8937 28.7468 71.7136 28.9554 71.5335 29.1545L71.5524 29.145C71.3723 29.2967 71.1921 29.4484 71.012 29.6L71.1353 29.6285L71.0215 29.5811C70.3199 29.8465 69.8839 30.3774 69.552 31.0221C69.1159 31.4867 68.6798 31.9417 68.2437 32.4063C68.1015 32.5959 67.9688 32.795 67.8266 32.9846C67.4 33.3543 66.8216 33.6956 67.4284 34.3782Z" fill="#383634"/>
<path d="M13.1337 12.3361C14.9255 15.4742 18.111 16.9057 20.9551 18.7544C21.7989 19.3043 22.7185 19.7498 23.6002 20.2428C23.6002 20.5841 23.5907 20.9254 23.5907 21.2572C19.8554 20.2049 16.6794 18.2045 13.9775 15.4552C13.1147 14.5735 12.2805 13.8246 10.9627 14.4977C10.8868 14.1658 10.8205 13.8435 10.7446 13.5117C11.0196 12.0612 12.053 12.156 13.1337 12.3361Z" fill="#383634"/>
<path d="M10.7446 13.5116C10.8204 13.8434 10.8868 14.1657 10.9627 14.4976C8.27969 18.65 9.25619 22.5465 11.7496 26.3481C11.5789 26.5567 11.4083 26.7653 11.2376 26.9739C10.4697 26.6705 10.4318 25.5707 9.54059 25.4096C9.60696 24.4426 9.14242 23.6178 8.89593 22.7266C7.9384 19.361 7.97631 16.1566 10.7446 13.5116Z" fill="#664F3F"/>
<path d="M9.91044 122.49C7.81526 120.963 6.40267 118.802 4.80995 116.82C4.7341 116.536 4.64878 116.242 4.57294 115.958C4.79099 115.929 5.00904 115.901 5.22709 115.872C7.24643 118.678 9.58808 121.143 12.8209 122.575C12.783 122.869 12.7451 123.163 12.7072 123.447C11.9866 123.22 11.2567 122.992 10.5362 122.755L10.5077 122.878C10.3086 122.755 10.1095 122.622 9.91044 122.49Z" fill="#664F3F"/>
<path d="M3.46363 108.278C5.21752 107.302 7.08517 106.619 9.00971 106.107C9.14243 106.392 9.27517 106.667 9.4079 106.951C5.47351 107.311 3.11286 109.776 1.36846 113.028C0.932356 113.038 0.48676 113.047 0.0506592 113.047C0.818577 111.198 2.07 109.691 3.46363 108.278Z" fill="#664F3F"/>
<path d="M0.0506944 113.047C0.486796 113.038 0.932391 113.028 1.36849 113.028C2.68628 113.976 4.18418 114.014 5.71053 113.872C5.25547 114.469 5.11328 115.133 5.22705 115.863C5.009 115.891 4.79094 115.92 4.57289 115.948C4.28848 115.645 4.00407 115.351 3.71966 115.047C3.11291 114.479 2.36394 114.374 1.57706 114.431C1.0272 114.024 -0.271641 114.422 0.0506944 113.047Z" fill="#383634"/>
<path d="M1.57703 114.45C2.3639 114.393 3.11287 114.488 3.71962 115.066C3.00859 114.858 2.28806 114.649 1.57703 114.45Z" fill="#664F3F"/>
<path d="M46.8178 11.407C48.3347 14.4692 49.1121 17.702 48.9699 21.115C48.9225 22.3 49.3396 22.7835 50.4868 23.2955C53.1128 24.4711 54.9426 24.3383 57.18 22.0725C60.6498 18.5553 65.3047 16.9815 70.2156 16.3463C70.6707 16.4221 71.1257 16.498 71.5808 16.5738C71.5903 16.8772 71.5997 17.1711 71.6092 17.4745C68.3669 17.465 65.3995 18.5363 62.4985 19.8351C61.8064 20.1385 60.6972 20.2712 61.1807 21.5511C57.9668 22.1863 56.5163 23.3998 56.3931 25.5424C55.6252 25.8457 54.8572 25.5992 54.0988 25.5613C52.2217 23.9876 50.2308 23.4946 48.0124 24.8598C47.965 24.49 47.9176 24.1203 47.8607 23.7505C47.728 23.6368 47.5952 23.5135 47.472 23.3998C47.4909 22.9921 47.5099 22.5844 47.5289 22.1673C47.7659 20.2143 47.5952 18.2898 47.1875 16.3747C47.0359 15.6637 46.8842 14.9337 45.9267 15.0285C44.5425 15.1707 43.1394 14.6777 41.7647 15.1802C42.9213 15.0285 44.078 14.8674 45.2346 14.7251C45.9266 14.6398 46.3912 14.4597 46.2585 13.559C45.9077 11.1605 42.1724 7.6622 39.6316 7.44415C40.0867 6.17377 38.8732 5.79455 38.3423 5.0456C38.5035 4.87495 38.6741 4.69482 38.8353 4.52417C41.9733 6.26857 44.6847 8.50596 46.8178 11.407Z" fill="#383634"/>
<path d="M37.3563 4.36295C37.6692 4.2871 37.9915 4.22074 38.3044 4.1449C38.4845 4.26814 38.6551 4.39139 38.8353 4.51463C38.6741 4.68528 38.5035 4.86541 38.3423 5.03606C38.02 4.80853 37.6881 4.59048 37.3563 4.36295Z" fill="#383634"/>
<path d="M31.1656 0.494995C31.5069 0.694085 31.8482 0.883694 32.18 1.08278C32.6256 3.9364 33.1944 6.74262 35.318 8.93261C35.3655 9.63416 35.2233 10.421 35.5077 11.0088C36.2471 12.5636 35.5266 14.8674 37.8019 15.6543C35.6309 16.6307 36.8444 18.6596 36.4273 20.167C36.0955 21.3805 36.6548 21.864 37.9347 21.7217C39.973 21.4942 41.9923 21.7786 43.9927 22.1199C43.9832 22.4233 43.9832 22.7362 43.9737 23.0395C42.9783 23.1912 41.9828 23.3524 40.9874 23.5041C40.7883 23.1154 40.5892 22.7267 40.0867 22.6698C37.5554 22.9542 35.0336 23.2386 32.5023 23.5136C32.5118 23.2291 32.5118 22.9542 32.5213 22.6698C34.5786 22.4612 35.1474 21.1245 35.2991 19.2758C35.612 15.5689 34.9009 12.1086 33.1565 8.84728L33.1281 8.8378C32.7868 8.013 32.436 7.1882 32.0947 6.3634C31.8577 4.39147 30.4546 2.60914 31.1656 0.494995Z" fill="#383634"/>
<path d="M32.5213 22.6603C32.5118 22.9447 32.5118 23.2197 32.5023 23.5041C29.1178 24.3952 26.3306 22.9163 23.5907 21.2572C23.5907 20.9159 23.6002 20.5746 23.6002 20.2428C26.5581 21.096 29.2221 23.068 32.5213 22.6603Z" fill="#664F3F"/>
<path d="M5.22703 115.872C5.12275 115.142 5.26493 114.469 5.71051 113.881C7.33167 112.639 9.20882 111.928 11.1144 111.284C12.508 111.928 11.6263 113.18 11.8823 114.137C12.1478 115.142 11.7306 116.441 13.2285 117.275C13.4371 113.606 12.7924 110.165 14.205 106.942C14.9066 106.325 14.9634 105.396 15.3427 104.619C16.9733 102.789 18.5945 100.95 20.2251 99.1202C21.0309 98.4281 21.8463 97.7361 22.6521 97.044C25.4204 95.2427 27.6104 92.8915 29.2884 90.0569C30.0469 88.6348 30.7958 87.2033 31.5543 85.7812C33.7632 85.1176 34.2183 83.5154 33.8959 81.4676C33.7253 80.4058 33.602 79.3345 33.4598 78.2727C33.7727 77.7797 33.7822 77.2867 33.4977 76.7748C33.0616 72.9257 31.905 69.4748 28.2835 67.3891C27.7526 65.4551 26.1219 65.0474 24.4913 64.6303C24.1784 64.4786 23.8656 64.3174 23.5622 64.1657C23.3347 63.8055 23.0029 63.6728 22.5952 63.7012C22.1591 63.6633 21.723 63.6159 21.2869 63.578C20.0166 61.8525 18.0162 62.4687 16.3476 62.0611C14.0249 61.5017 13.7405 60.6864 15.2763 58.942C19.8649 53.7562 17.8645 44.9204 11.4272 41.9815C12.0435 38.0471 14.224 34.8996 16.5467 31.8184C16.8596 31.534 17.1819 31.2496 17.4947 30.9652C18.1299 30.7376 18.6798 30.4058 18.9073 29.7137L18.8789 29.7327C20.6897 28.6519 22.1876 28.1305 21.7325 31.278C21.6946 31.534 21.9316 31.8374 22.0548 32.1123C24.0457 36.4164 29.1083 38.3884 33.6874 36.5776C35.318 35.9424 36.8823 35.146 38.5414 34.3876C38.8637 42.228 41.3666 45.6504 46.6472 45.6788C47.2824 45.6883 47.9175 45.6883 48.5527 45.6978C48.6949 45.6788 48.8466 45.6694 48.9888 45.6504C49.6051 45.6125 50.373 45.821 50.4583 44.8351L50.4678 44.8256C50.8849 45.4892 51.1125 45.0152 51.359 44.6739C51.5391 44.5696 51.7192 44.4653 51.8993 44.3705C55.3312 42.3891 55.9759 37.9617 53.2361 35.3167L53.2835 35.3641C52.5061 33.98 50.0886 34.9754 49.7568 32.9371C49.8136 32.7285 49.88 32.5105 49.9369 32.3019C50.0886 31.752 50.6195 31.3254 50.4299 30.6713L50.4488 30.6523C51.1219 30.4343 51.5201 30.0266 51.3779 29.2587L51.3874 29.2397C51.8993 29.1354 52.1458 28.7562 52.3165 28.3012C52.9043 27.7702 53.9187 27.5617 53.7385 26.443L53.748 26.4335C57.4075 26.2818 59.7586 28.6709 62.2046 30.8419C60.3749 34.2928 59.6638 37.8859 60.7825 41.716C60.5834 42.5313 60.9437 43.2329 61.2281 43.9629C62.8398 48.0869 65.6176 51.2534 69.1822 53.7941C71.0214 54.9128 70.974 56.6477 70.7275 58.468C69.7416 65.6637 66.4803 71.6553 61.2281 76.6136C61.01 76.8222 60.6972 76.9454 60.8204 77.3341C57.7393 79.4103 54.6392 81.4581 51.3495 83.2025C50.4678 83.7239 49.5008 83.8946 48.5053 83.9799C46.3438 84.4919 44.0116 84.1885 41.9923 85.3735C40.2194 85.2598 38.456 85.2218 36.759 85.857C38.5508 86.1983 40.3237 86.5207 42.0586 85.7338C44.3245 85.8665 46.5239 85.5631 48.6191 84.6625C50.7048 84.3876 51.9657 86.35 53.8618 86.5965C54.7245 87.6488 56.3362 87.4213 57.1705 88.5116C57.1041 88.9856 57.0472 89.4501 56.9809 89.9242C54.6392 90.6636 57.0567 90.967 57.1231 91.4789C56.4974 93.6689 54.7055 94.5885 52.8474 95.4513C51.4917 96.077 50.0886 96.7027 50.4109 98.6272C44.8174 101.68 39.1007 100.903 33.3461 99.196C32.9858 99.0918 32.6256 99.0064 31.8671 98.8073C32.5592 100.173 33.5547 100.476 34.5027 100.808C38.1716 102.116 41.9543 101.974 45.6422 101.234C50.0033 100.353 50.2782 99.5753 50.0791 105.32C50.0696 105.548 49.9558 105.775 49.899 105.994C48.5433 106.079 47.3582 105.709 46.1068 105.093C44.0969 104.107 41.8216 102.685 39.8023 102.884C34.825 103.386 29.99 104.752 26.5865 109.056C25.61 110.298 25.3161 112.194 23.4769 112.715C23.3442 112.677 23.2209 112.668 23.0882 112.658C22.965 112.507 22.8512 112.355 22.728 112.203C22.5763 111.113 22.0074 110.269 21.1352 109.615C20.5285 108.477 19.5615 107.899 17.9119 107.548C18.8031 108.828 19.5804 109.596 20.5285 110.193C21.1257 111.255 21.7325 112.317 22.3298 113.379C23.6001 121.172 21.3059 123.57 13.494 122.651C13.257 122.622 13.0294 122.603 12.7924 122.575C9.57854 121.134 7.24637 118.678 5.22703 115.872ZM33.2039 65.967C33.6305 68.2803 34.4268 70.2427 37.2615 70.2996C37.4321 71.5984 38.4371 71.57 39.3851 71.6269C43.9168 71.9018 50.6953 67.9674 52.5725 63.7865C56.0423 56.041 50.6858 50.6561 44.4761 50.7983C38.6077 50.931 34.9009 54.1923 32.2179 58.5438C30.5873 61.1889 30.2839 64.2985 33.2039 65.967ZM56.5922 90.5499C54.9426 89.6397 53.0085 89.2605 51.6054 90.1138C49.2732 91.5358 47.6331 90.4456 45.7939 89.4122C43.5376 88.1418 43.3006 88.0944 41.6984 88.4262C47.4814 91.3652 47.4814 91.3652 47.3866 94.2378C49.9748 91.3273 52.9801 90.1706 56.5922 90.5499Z" fill="#F8F7F5"/>
<path d="M23.4959 112.706C25.3351 112.184 25.629 110.288 26.6055 109.046C30.009 104.733 34.8345 103.377 39.8213 102.874C41.8406 102.666 44.1159 104.097 46.1258 105.083C47.3772 105.7 48.5622 106.069 49.9179 105.984C49.1216 112.943 44.9123 117.218 38.8732 120.053C38.2854 120.328 37.4227 120.224 37.2236 121.115L37.2805 121.086C36.4747 120.84 35.6972 120.944 34.9198 121.2C34.5122 121.172 34.1709 121.276 33.9813 121.674C30.7105 122.3 27.5535 121.153 24.3397 121.02L24.3207 121.058C24.1595 120.868 23.9984 120.688 23.8372 120.499C23.9415 118.271 24.4534 116.005 23.2684 113.891C23.3347 113.502 23.4106 113.104 23.4959 112.706Z" fill="#F7F1BB"/>
<path d="M34.7871 130.728C33.3461 128.358 32.1516 125.836 30.3124 123.703C29.4781 122.736 30.0564 122.167 31.1751 122.063C32.1042 121.978 33.0238 121.921 33.9529 121.845C34.9388 122.053 35.9343 122.376 36.8159 121.551C37.0719 121.504 37.5554 121.674 37.2615 121.086L37.2046 121.115C38.3613 121.485 39.3757 120.992 40.409 120.612C41.7363 120.119 42.6464 120.48 43.1963 121.845C44.5805 125.267 45.1493 128.785 44.6658 132.454C43.7746 132.245 42.8834 131.98 41.9828 131.837C39.5937 131.449 37.29 130.434 34.7871 130.728Z" fill="#F8F7F5"/>
<path d="M54.4022 97.4612C54.4401 97.1767 54.4875 96.8923 54.5254 96.6079C55.6725 95.11 57.3506 94.0103 57.9858 92.1142C58.0806 92.0573 58.1754 91.9909 58.2417 91.9056L58.4408 91.8203V91.6022C59.3225 90.5499 60.6213 90.1612 61.74 89.4786C63.0578 89.4976 64.3946 89.4122 65.6934 89.5829C66.4803 89.6872 67.6653 89.6398 67.9308 90.4835C68.2531 91.479 66.8595 91.6117 66.4329 92.3038C66.1674 92.465 66.1579 92.6356 66.4044 92.8157L66.4708 92.7683C65.8166 92.1047 65.3236 92.7778 64.9634 93.0907C62.47 95.1953 60.1094 97.5086 56.5637 97.6603C55.8337 97.5939 55.1132 97.5275 54.4022 97.4612Z" fill="#F8F7F5"/>
<path d="M34.7871 130.728C37.29 130.434 39.5937 131.458 41.9923 131.837C42.8929 131.979 43.7841 132.245 44.6753 132.454C44.808 134.008 44.9312 135.554 45.0829 137.099C45.1872 138.142 44.7606 138.587 43.7367 138.341C42.3999 138.009 41.0727 137.639 39.7454 137.289C39.5653 137.222 39.3757 137.156 39.1955 137.089C38.8922 136.966 38.5888 136.843 38.2759 136.71C36.6263 135.004 34.2847 133.686 34.7871 130.728Z" fill="#F2C6B2"/>
<path d="M57.9859 92.1237C57.3507 94.0198 55.6726 95.1195 54.5255 96.6174C53.7007 95.8685 53.3404 96.7028 52.8759 97.1104C52.1459 97.7551 51.5391 98.5989 50.4204 98.6084C50.1076 96.6838 51.5107 96.0581 52.8569 95.4324C54.7246 94.5697 56.5164 93.6501 57.1326 91.4601C57.417 91.6781 57.7015 91.8962 57.9859 92.1237Z" fill="#B59D69"/>
<path d="M54.4022 97.4612C55.1132 97.5275 55.8337 97.5939 56.5542 97.6508C56.5258 97.9257 56.4974 98.2007 56.4689 98.4756C55.6441 98.6747 54.8288 98.7695 54.0135 98.4566C54.1367 98.1343 54.2695 97.8025 54.4022 97.4612Z" fill="#B59D69"/>
<path d="M39.1955 137.09C39.3756 137.156 39.5653 137.222 39.7454 137.289C39.5368 137.383 39.3283 137.469 39.1197 137.564C39.1387 137.402 39.1671 137.251 39.1955 137.09Z" fill="#664F3F"/>
<path d="M36.816 121.551C35.9343 122.376 34.9388 122.054 33.9529 121.845L33.9624 121.684C34.152 121.276 34.4933 121.172 34.9009 121.21C35.4792 121.684 36.1429 121.636 36.816 121.551Z" fill="#383634"/>
<path d="M61.1807 21.551C60.6972 20.2806 61.8159 20.1479 62.4985 19.8351C65.3995 18.5362 68.3669 17.4649 71.6092 17.4744C71.685 17.5692 71.7893 17.6356 71.9126 17.6735C72.6994 19.8919 74.3206 21.788 74.4438 24.253C73.657 25.9689 71.7988 26.5567 70.6138 27.865C70.1018 28.4338 69.4761 27.9409 68.9262 27.6659C67.1155 24.6606 64.3566 22.8404 61.1807 21.551Z" fill="#FAF285"/>
<path d="M74.4439 24.253C74.3206 21.7786 72.6995 19.892 71.9126 17.6736C75.354 17.01 78.7954 16.3274 82.2368 15.6827C82.7393 15.5879 83.3839 15.294 83.7158 15.8913C83.9717 16.3368 83.5356 16.7445 83.2892 17.1522C82.142 19.0862 80.2933 20.2997 78.6342 21.7028C77.9801 22.2526 77.3449 22.8215 76.7002 23.3808C75.9513 23.6652 75.1928 23.9591 74.4439 24.253Z" fill="#F2C6B2"/>
<path d="M35.318 8.92306C33.1944 6.74256 32.6256 3.93634 32.18 1.07324C34.3605 1.45246 35.3749 3.67089 37.3658 4.35348C37.6976 4.58101 38.02 4.79906 38.3518 5.0266C38.8827 5.77555 40.0962 6.14529 39.6506 7.41567C38.2001 7.92762 36.7591 8.43008 35.318 8.92306Z" fill="#FAF285"/>
<path d="M61.1807 21.5513C64.3567 22.8501 67.1155 24.6609 68.9357 27.6756C68.4712 30.6999 66.5467 32.9563 64.5558 32.7287C65.2289 33.4682 65.4848 34.4921 66.4519 34.9282C70.0355 39.1754 74.5671 42.067 79.6392 44.2096C82.4833 45.9161 85.6308 46.7409 88.8447 47.376C90.1909 47.6415 90.4564 48.1724 89.5557 49.1963C86.029 53.197 76.7097 57.6529 69.8838 53.0833C69.0305 52.2964 68.2342 51.4337 67.3241 50.7226C64.2714 48.3431 62.9062 44.7594 60.8015 41.7067C59.6733 37.8671 60.3938 34.274 62.2236 30.8232C63.3612 29.8277 62.2899 29.3158 61.7116 28.8417C60.081 27.5334 58.3461 26.3673 56.412 25.5425C56.5163 23.3905 57.9668 22.1865 61.1807 21.5513Z" fill="#F2C6B2"/>
<path d="M79.6298 44.2094C74.5577 42.0763 70.0261 39.1753 66.4424 34.9281C66.7932 34.8996 67.1345 34.8712 67.4853 34.8333C71.3249 38.5875 75.8092 41.4127 80.5873 43.8018C80.2744 43.9345 79.9521 44.0672 79.6298 44.2094Z" fill="#664F3F"/>
<path d="M60.792 41.6971C62.8967 44.7499 64.2619 48.3335 67.3146 50.7131C68.2247 51.4241 69.0306 52.2773 69.8743 53.0737C69.6468 53.3107 69.4193 53.5382 69.1917 53.7752C65.6271 51.2345 62.8493 48.068 61.2376 43.944C60.9532 43.214 60.5929 42.5219 60.792 41.6971Z" fill="#664F3F"/>
<path d="M61.2566 77.4005C58.8865 80.4342 55.8338 82.4346 52.1079 83.4016C51.8615 83.3353 51.615 83.2594 51.3685 83.193C54.6582 81.4486 57.7583 79.4009 60.8395 77.3246C60.9912 77.2772 61.1334 77.2962 61.2566 77.4005Z" fill="#B59D69"/>
<path d="M21.6946 82.539C18.2247 82.4916 14.8497 81.8564 11.5031 80.9652C10.1663 80.6144 9.18985 79.7043 8.06167 79.0312C6.33623 76.5947 4.44014 74.2246 5.07533 70.9254C5.17962 70.404 5.29339 69.8731 5.40715 69.3516C5.82429 69.2853 6.24141 69.2189 6.65855 69.1431C7.72984 69.3137 8.81064 69.4559 9.88193 69.6645C11.9771 70.0627 13.949 70.7168 15.4375 72.3759C16.3381 73.3808 16.7363 74.5564 16.2244 75.8173C15.7409 77.0213 14.5084 77.0024 13.4371 77.1067C11.5979 77.2868 9.95776 76.4051 8.20387 76.1112C8.0427 75.95 7.8626 75.8552 7.72039 76.1017C7.69195 76.1491 7.83413 76.3103 7.90049 76.4241C8.34607 77.6281 9.45529 78.1495 10.4507 78.7088C16.0252 81.809 21.8273 82.0365 27.7905 79.9698C27.8095 80.1688 27.819 80.3585 27.8379 80.5575C25.9987 81.1548 24.7378 82.2545 24.5672 84.3023C23.8466 82.3588 23.8466 82.3588 22.6616 82.9751C22.3298 82.8423 22.0074 82.6906 21.6946 82.539Z" fill="#664F3F"/>
<path d="M10.9153 94.4369C12.4891 94.1145 14.0818 93.8586 15.6271 93.4509C18.3101 92.7399 20.3484 93.4224 21.6662 95.9443C21.998 96.3045 22.3298 96.6553 22.6522 97.0155C21.8463 97.7076 21.031 98.3997 20.2251 99.0918C20.1303 98.8832 19.9028 98.6367 19.9597 98.4945C20.557 96.9871 20.2346 95.603 19.0022 94.7023C17.7982 93.8301 16.3761 93.8017 15.1436 94.9014C14.7549 95.2427 14.3188 95.2427 13.8353 95.0626C11.9013 94.3515 10.9438 95.4987 10.2043 97.025C8.78224 99.9734 9.5217 102.884 10.6594 105.652C10.9248 106.297 11.5885 108.155 13.2286 106.875C13.5509 106.894 13.8827 106.913 14.2051 106.923C12.7925 110.146 13.4372 113.597 13.2286 117.256C11.7212 116.422 12.1478 115.123 11.8823 114.118C11.6264 113.17 12.5081 111.909 11.1144 111.265C11.7117 109.359 11.1429 107.918 9.40796 106.932C9.27523 106.648 9.14249 106.373 9.00977 106.088L9.13302 106.003C9.51223 105.813 9.5786 105.529 9.39847 105.159C7.46445 101.253 8.01433 97.6792 10.9153 94.4369Z" fill="#383634"/>
<path d="M9.32257 60.3358C9.32257 57.0271 9.31311 53.7185 9.31311 50.4098C9.5596 50.2296 9.80609 50.0495 10.0526 49.8694C11.6927 50.3339 13.5035 50.5709 14.3852 52.2869C14.9445 53.3677 15.6745 54.6855 13.5509 55.1026C12.508 55.3017 12.3374 55.9653 13.2759 56.4393C15.5418 57.596 13.5888 58.4113 12.9631 58.8663C12.0719 59.511 10.811 59.6343 10.0052 60.5349C9.76815 60.4685 9.5501 60.4022 9.32257 60.3358Z" fill="#383634"/>
<path d="M10.0526 49.8693C9.80609 50.0494 9.5596 50.2295 9.31311 50.4096C8.58311 44.6266 10.1758 39.4028 13.1242 34.5109C13.8068 33.3827 14.461 32.2451 15.1341 31.1074C15.5797 31.3729 15.8072 32.0934 16.5277 31.7995C14.205 34.8806 12.0245 38.0282 11.4083 41.9626C10.6972 44.5602 9.90089 47.1294 10.0526 49.8693Z" fill="#B59D69"/>
<path d="M9.3226 60.3357C9.55013 60.4021 9.77768 60.4684 9.99573 60.5253C10.0147 60.9045 10.0337 61.2932 10.0526 61.6724C9.26574 64.327 6.98095 66.2989 6.64913 69.1525C6.23199 69.2189 5.81485 69.2852 5.39771 69.3611C5.52095 67.7684 6.20354 66.3842 7.08523 65.1138C8.10912 63.6444 8.82014 62.0422 9.3226 60.3357Z" fill="#B59D69"/>
<path d="M16.5278 31.7994C15.8073 32.0933 15.5797 31.3728 15.1342 31.1073C13.9681 29.6948 12.0056 29.0216 11.361 27.1066C11.5601 26.9644 11.7591 26.8317 11.9677 26.6895C13.2191 28.2253 15.0868 28.9174 16.6226 30.0645C16.907 30.3584 17.1914 30.6428 17.4758 30.9367C17.163 31.2306 16.8501 31.515 16.5278 31.7994Z" fill="#383634"/>
<path d="M9.38893 105.178C9.56905 105.548 9.50269 105.832 9.12347 106.022C9.21828 105.738 9.3036 105.453 9.38893 105.178Z" fill="#664F3F"/>
<path d="M11.2377 26.9834C11.4083 26.7748 11.579 26.5662 11.7496 26.3577C11.8918 26.4335 11.9582 26.5473 11.9582 26.7084C11.7591 26.8506 11.56 26.9834 11.3514 27.1256C11.3704 27.1161 11.2377 26.9834 11.2377 26.9834Z" fill="#383634"/>
<path d="M11.9676 26.6991C11.9676 26.5379 11.8918 26.4241 11.7591 26.3483C9.2657 22.5466 8.27974 18.6407 10.9722 14.4882C12.29 13.8151 13.1243 14.5641 13.987 15.4458C16.6889 18.2046 19.8649 20.1955 23.6002 21.2478C26.34 22.9069 29.1273 24.3764 32.5118 23.4947C35.0431 23.2103 37.5649 22.9258 40.0962 22.6509C39.5653 24.2436 37.6312 23.8928 36.7875 25.0589C35.4128 25.2391 34.1329 27.211 32.6445 25.0115C32.6445 28.3392 32.0378 29.0692 29.5823 29.0218C29.0135 29.0123 28.1223 28.5004 27.9991 29.3726C27.8569 30.368 28.8334 30.5102 29.6202 30.624C30.4356 30.7377 31.1371 30.5387 31.7818 29.9793C33.4883 28.5004 35.2327 27.0593 36.9581 25.6088C38.3518 24.9831 39.8971 24.6513 41.0063 23.4947C42.0017 23.343 42.9972 23.1818 43.9926 23.0301C45.1587 23.1534 46.3248 23.2671 47.4909 23.3809C47.6236 23.4947 47.7564 23.6179 47.8796 23.7317C47.1496 24.3195 46.0783 24.6513 46.2205 25.9122L46.1826 25.9406C43.1773 26.4336 41.9544 29.0597 40.1625 30.9937C39.1481 31.8564 38.1621 32.7476 37.4511 33.8947C34.588 35.1272 31.7628 36.3407 28.4731 35.9236C24.9938 35.478 22.728 33.2121 22.7564 29.7233C22.7659 28.6236 22.9745 27.5239 23.1451 25.9217C21.4765 27.4006 19.3719 27.5713 18.8789 29.7139L18.9073 29.6949C18.0636 29.2778 17.4189 30.0931 16.6415 30.0741C15.0867 28.9365 13.2191 28.2444 11.9676 26.6991Z" fill="#F2C6B2"/>
<path d="M23.2588 113.9C24.4439 116.014 23.9319 118.28 23.8277 120.508C23.5812 120.83 23.3442 121.162 23.0977 121.485C20.0924 124.528 16.6035 125.068 12.7166 123.438C12.7545 123.144 12.7924 122.85 12.8303 122.565C13.0673 122.594 13.2948 122.613 13.5319 122.641C21.3438 123.561 23.6286 121.162 22.3677 113.369C22.5004 112.981 22.6331 112.582 22.7564 112.194C22.8796 112.345 22.9934 112.497 23.1166 112.649C23.0218 113.085 22.9649 113.521 23.2588 113.9Z" fill="#383634"/>
<path d="M9.40797 106.951C11.1429 107.928 11.7117 109.378 11.1144 111.284C9.20887 111.928 7.33173 112.639 5.71057 113.881C4.18421 114.024 2.68631 113.976 1.36853 113.038C3.11294 109.776 5.4641 107.311 9.40797 106.951Z" fill="#FAF285"/>
<path d="M23.0883 121.494C23.3347 121.172 23.5717 120.84 23.8182 120.518C23.9794 120.707 24.1406 120.887 24.3018 121.077C23.9036 121.21 23.4959 121.352 23.0883 121.494Z" fill="#664F3F"/>
<path d="M49.9369 32.2829C49.88 32.4915 49.8136 32.7096 49.7568 32.9181C47.7469 33.9136 46.5808 35.6295 45.9172 37.6773C45.6896 38.3694 45.9646 39.2606 46.8273 39.2606C47.8512 39.2606 47.3108 38.3315 47.3392 37.81C47.5099 35.1366 49.2543 33.9705 51.7951 34.9185C52.288 35.0986 52.6767 35.5727 53.2835 35.3451L53.2361 35.2977C54.1367 38.6064 53.6912 41.5643 51.0271 43.9629C50.8375 44.2378 49.9748 44.0766 50.4678 44.8066L50.4583 44.8161C49.643 44.0766 48.8371 44.9394 48.0218 44.8161C41.6415 44.1051 39.679 41.9435 39.5747 35.5442C39.5652 35.0038 39.4894 34.4634 39.442 33.9231C39.8876 33.1457 40.3237 32.3683 40.7693 31.5909C42.7507 29.8844 44.7606 28.1969 46.1637 25.9405L46.2016 25.9121C47.0738 26.0164 47.5952 25.5329 48.0029 24.8503C50.2118 23.4851 52.2122 23.9781 54.0893 25.5518C53.8144 25.7699 53.511 25.9879 53.748 26.4051L53.7385 26.4145C52.6483 26.5662 52.0321 27.0782 52.3165 28.2727C51.4822 28.0641 51.1314 28.3391 51.3874 29.2113L51.3779 29.2302C50.2687 29.1544 50.1265 29.7327 50.4488 30.6239L50.4299 30.6428C49.3775 30.9272 49.15 31.4487 49.9369 32.2829Z" fill="#FAF285"/>
<path d="M43.9927 22.1104C41.9828 21.7691 39.9635 21.4847 37.9347 21.7122C36.6548 21.8544 36.0955 21.3709 36.4273 20.1574C36.8444 18.6405 35.6214 16.6212 37.783 15.6447C39.1008 15.4835 40.4375 15.3319 41.7648 15.1707C43.13 14.6682 44.5426 15.1612 45.9267 15.019C46.8842 14.9242 47.0359 15.6637 47.1876 16.3652C47.5953 18.2803 47.7564 20.2048 47.5289 22.1578C46.3438 22.7361 45.1683 22.1294 43.9927 22.1104Z" fill="#FAF285"/>
<path d="M41.7647 15.1802C40.4375 15.3414 39.1007 15.4931 37.7829 15.6543C35.5171 14.8674 36.2471 12.5636 35.4982 11.0088C35.2137 10.421 35.3654 9.63416 35.3085 8.93261C36.7496 8.43014 38.1906 7.93716 39.6316 7.43469C42.1724 7.66222 45.8982 11.151 46.249 13.5496C46.3817 14.4502 45.9172 14.6304 45.2251 14.7157C44.078 14.8674 42.9213 15.0191 41.7647 15.1802Z" fill="#F2C6B2"/>
<path d="M53.7575 26.4146C53.5205 25.9879 53.8239 25.7794 54.0988 25.5613C54.8667 25.5992 55.6346 25.8457 56.3931 25.5424C58.3366 26.3672 60.062 27.5427 61.6927 28.8416C62.2804 29.3061 63.3517 29.8275 62.2046 30.823C59.7587 28.6425 57.417 26.2629 53.7575 26.4146Z" fill="#B59D69"/>
<path d="M43.9926 22.1105C45.1682 22.1294 46.3438 22.7362 47.5289 22.1579C47.5099 22.5655 47.4909 22.9827 47.472 23.3903C46.3059 23.2671 45.1398 23.1533 43.9737 23.0301C43.9832 22.7267 43.9832 22.4233 43.9926 22.1105Z" fill="#B59D69"/>
<path d="M48.0124 24.8503C47.6047 25.5329 47.0833 26.0164 46.2111 25.9121C46.0689 24.6607 47.1402 24.3288 47.8702 23.7316C47.9176 24.1108 47.965 24.4805 48.0124 24.8503Z" fill="#B59D69"/>
<path d="M40.9968 23.4947C39.8781 24.6513 38.3423 24.9831 36.9487 25.6088C36.8918 25.4287 36.8444 25.2486 36.7875 25.0684C37.6312 23.9023 39.5653 24.2531 40.0962 22.6604C40.5892 22.7173 40.7882 23.106 40.9968 23.4947Z" fill="#664F3F"/>
<path d="M6.65851 69.162C6.99032 66.3083 9.27514 64.3364 10.062 61.6819C13.8068 62.2886 17.4662 63.3599 21.2774 63.5685C21.7135 63.6064 22.1496 63.6538 22.5857 63.6917C22.7374 64.1942 22.9459 64.5924 23.5527 64.1563C23.8656 64.308 24.1784 64.4691 24.4818 64.6208C25.4109 66.005 26.8329 66.6971 28.274 67.3796C31.8955 69.4653 33.0521 72.9162 33.4882 76.7653C31.5827 77.8461 29.6865 78.9268 27.781 80.0076C21.8178 82.0744 16.0157 81.8468 10.4412 78.7467C9.44578 78.1968 8.34605 77.6659 7.89099 76.4619C7.99527 76.3576 8.09956 76.2534 8.19437 76.1491C9.94825 76.4335 11.5884 77.3246 13.4276 77.1445C14.4989 77.0402 15.7313 77.0592 16.2148 75.8552C16.7268 74.5943 16.3286 73.4187 15.4279 72.4138C13.9395 70.7547 11.9676 70.1005 9.8724 69.7024C8.81059 69.4748 7.7298 69.3326 6.65851 69.162Z" fill="#F2C6B2"/>
<path d="M33.2039 65.9671C30.2839 64.2986 30.5873 61.1985 32.2084 58.5439C34.8914 54.1829 38.5888 50.9311 44.4667 50.7984C50.6764 50.6562 56.0328 56.0411 52.563 63.7866C50.6859 67.9675 43.9073 71.9019 39.3757 71.627C38.4276 71.5701 37.4322 71.5985 37.252 70.2997C38.1622 69.8541 39.0912 69.437 39.9919 68.963C40.5986 68.6406 41.0063 68.1571 40.6366 67.4366C40.3332 66.8393 39.6221 66.2042 40.4375 65.6259C41.414 64.9433 41.3381 66.6971 42.1629 66.5834C43.4049 63.9573 43.2626 61.7673 41.7173 60.5348C40.0014 59.1602 38.1622 59.4446 36.4557 60.4969C34.4743 61.7199 33.5546 63.7013 33.2039 65.9671Z" fill="#F7F1BB"/>
<path d="M21.2775 63.5591C17.4663 63.3505 13.8069 62.2697 10.0621 61.6725C10.0431 61.2933 10.0241 60.9046 10.0052 60.5253C10.811 59.6342 12.072 59.5109 12.9631 58.8568C13.5983 58.4017 15.5418 57.5864 13.276 56.4298C12.3374 55.9463 12.5175 55.2921 13.5509 55.093C15.6745 54.6854 14.9445 53.3676 14.3852 52.2773C13.5035 50.5614 11.6927 50.3244 10.0526 49.8598C9.9104 47.12 10.6973 44.5413 11.4083 41.9531C17.8455 44.9015 19.8554 53.7373 15.2574 58.9137C13.7215 60.6486 14.006 61.4639 16.3287 62.0327C18.0067 62.4499 19.9976 61.8337 21.2775 63.5591Z" fill="#F7F1BB"/>
<path d="M13.2286 106.875C11.5979 108.155 10.9248 106.306 10.6593 105.652C9.52169 102.884 8.78224 99.983 10.2043 97.0251C10.9343 95.4988 11.8918 94.3516 13.8353 95.0627C14.3188 95.2428 14.7549 95.2428 15.1436 94.9015C16.3856 93.8018 17.7982 93.8207 19.0022 94.7024C20.2441 95.603 20.5569 96.9872 19.9597 98.4946C19.9028 98.6368 20.1303 98.8928 20.2251 99.0918C18.5945 100.931 16.9733 102.761 15.3427 104.6C13.3518 104.164 13.9681 106.155 13.2286 106.875Z" fill="#B59D69"/>
<path d="M33.2039 65.967C33.5546 63.7012 34.4742 61.7292 36.4651 60.4968C38.1716 59.4444 40.0014 59.16 41.7268 60.5347C43.2721 61.7766 43.4143 63.9571 42.1724 66.5832C41.3476 66.7065 41.4234 64.9431 40.4469 65.6257C39.6316 66.1945 40.3332 66.8297 40.646 67.4365C41.0063 68.157 40.6081 68.6405 40.0014 68.9628C39.1007 69.4368 38.1811 69.854 37.2615 70.2996C34.4268 70.2427 33.6305 68.2802 33.2039 65.967Z" fill="#383634"/>
<path d="M39.4515 33.9231C39.4989 34.4635 39.5748 35.0039 39.5842 35.5443C39.6885 41.9436 41.6605 44.1052 48.0313 44.8162C47.5668 45.1006 47.1117 45.3755 46.6472 45.66C41.3666 45.6315 38.8542 42.2091 38.5414 34.3687C36.8728 35.1272 35.3085 35.9235 33.6874 36.5587C29.1083 38.36 24.0458 36.3975 22.0549 32.0934C21.9316 31.8185 21.6946 31.5151 21.7325 31.2591C22.1876 28.1116 20.6897 28.6425 18.8789 29.7138C19.3719 27.5712 21.4766 27.4006 23.1451 25.9216C22.9745 27.5238 22.7659 28.6236 22.7564 29.7233C22.728 33.2121 24.9938 35.4779 28.4731 35.9235C31.7628 36.3501 34.5785 35.1272 37.4511 33.8947C38.1053 33.9137 38.7784 33.9137 39.4515 33.9231Z" fill="#664F3F"/>
<path d="M22.6521 82.9941C23.8466 82.3778 23.8466 82.3778 24.5577 84.3213C24.5482 85.0134 24.4723 85.8382 25.2023 86.151C25.9513 86.4734 26.4917 85.8003 26.9467 85.3073C27.9422 84.2644 29.0229 83.2974 29.7055 81.9891C30.8811 80.6713 31.6964 78.9838 33.4503 78.2349C33.5925 79.2967 33.7253 80.368 33.8864 81.4298C34.2088 83.4681 33.7537 85.0798 31.5447 85.7434C29.3074 85.9709 27.6104 87.5731 25.5057 88.1325C24.4249 88.1609 23.7518 87.6584 23.5053 86.5966C23.2304 85.4021 22.9365 84.1981 22.6521 82.9941Z" fill="#F2C6B2"/>
<path d="M56.5922 90.55C52.9802 90.1708 49.9843 91.3179 47.3867 94.2284C47.4815 91.3558 47.4815 91.3558 41.6984 88.4169C43.3101 88.0946 43.5376 88.1325 45.794 89.4029C47.6332 90.4362 49.2733 91.5265 51.6055 90.1044C52.9991 89.2607 54.9331 89.6399 56.5922 90.55Z" fill="#664F3F"/>
<path d="M53.2835 35.3452C52.6768 35.5822 52.2881 35.1082 51.7951 34.9186C49.2543 33.9705 47.5099 35.1366 47.3393 37.8101C47.3108 38.3316 47.8512 39.2606 46.8273 39.2606C45.9646 39.2606 45.6897 38.3695 45.9172 37.6774C46.5808 35.6296 47.7469 33.9137 49.7568 32.9182C50.0886 34.9565 52.5061 33.9611 53.2835 35.3452Z" fill="#383634"/>
<path d="M51.0271 43.963C53.6911 41.5644 54.1367 38.6065 53.236 35.2979C55.9854 37.9524 55.3312 42.3703 51.8993 44.3517C51.7192 44.3327 51.5391 44.3138 51.3589 44.2853C51.2546 44.181 51.1409 44.0768 51.0271 43.963Z" fill="#383634"/>
<path d="M22.6522 97.0251C22.3204 96.6648 21.9885 96.3046 21.6662 95.9538C23.1736 96.6648 23.7519 95.347 24.444 94.5696C25.904 92.9106 27.2312 91.1188 28.6059 89.3933C28.8334 89.6114 29.061 89.8294 29.2885 90.0475C27.6105 92.8726 25.4205 95.2238 22.6522 97.0251Z" fill="#664F3F"/>
<path d="M33.4503 78.2538C31.6964 79.0027 30.8811 80.6808 29.7055 82.008C29.478 81.0031 29.2031 80.0645 27.8189 80.586C27.8 80.3869 27.7905 80.1973 27.7715 79.9982C29.6771 78.9174 31.5732 77.8366 33.4788 76.7559C33.7727 77.2583 33.7632 77.7608 33.4503 78.2538Z" fill="#383634"/>
<path d="M29.2884 90.0285C29.0609 89.8105 28.8334 89.5924 28.6058 89.3744C28.6912 89.2417 28.7765 89.1184 28.8618 88.9857C29.2221 88.8435 29.3263 88.597 29.2031 88.2367C27.8284 87.5636 26.814 88.8719 25.5626 88.8909C25.5436 88.6444 25.5342 88.3979 25.5152 88.1514C27.6199 87.5921 29.3169 85.9899 31.5542 85.7623C30.7958 87.1844 30.0374 88.6065 29.2884 90.0285Z" fill="#383634"/>
<path d="M51.3684 83.1836C51.6149 83.25 51.8614 83.3258 52.1078 83.3922C52.1552 85.0797 54.0229 84.7384 54.696 85.7244C54.4211 86.0088 54.1462 86.2837 53.8712 86.5681C51.9751 86.3216 50.7142 84.3592 48.6285 84.6341C48.5906 84.4066 48.5527 84.179 48.5148 83.9515C49.5102 83.8757 50.4867 83.705 51.3684 83.1836Z" fill="#383634"/>
<path d="M57.9858 92.1236C57.7014 91.9055 57.4169 91.6875 57.142 91.4694C57.0756 90.9575 54.6486 90.6541 56.9998 89.9146C57.8056 90.2085 58.5262 90.3507 58.3745 89.0709C58.5736 88.8907 58.7726 88.7106 58.9812 88.521C59.8913 88.5874 60.8015 88.6442 61.7116 88.7106C61.7211 88.9666 61.7306 89.2226 61.74 89.488C60.6213 90.1706 59.3225 90.5593 58.4409 91.6116L58.2512 91.7064V91.9245C58.1659 92.0003 58.0806 92.0667 57.9858 92.1236Z" fill="#383634"/>
<path d="M48.5149 83.9609C48.5528 84.1885 48.5907 84.416 48.6286 84.6435C46.5335 85.5442 44.334 85.8475 42.0681 85.7148C42.0018 85.6011 41.9828 85.4873 42.0018 85.364C44.0211 84.1695 46.3533 84.4729 48.5149 83.9609Z" fill="#F2C6B2"/>
<path d="M58.9718 88.5211C58.7727 88.7013 58.5736 88.8814 58.365 89.071C57.9668 88.8814 57.5781 88.6918 57.1799 88.4927C56.3362 87.4024 54.734 87.63 53.8713 86.5776C54.1462 86.2932 54.4211 86.0183 54.6961 85.7339C56.3172 86.3501 57.6635 87.4119 58.9718 88.5211Z" fill="#664F3F"/>
<path d="M42.0017 85.3547C41.9733 85.4779 42.0017 85.6012 42.0681 85.7055C40.3426 86.4923 38.5603 86.17 36.7685 85.8287C38.4655 85.203 40.2289 85.2409 42.0017 85.3547Z" fill="#B59D69"/>
<path d="M22.7469 112.194C22.6141 112.582 22.4814 112.981 22.3582 113.369C21.7609 112.308 21.1542 111.246 20.5569 110.193C20.756 109.994 20.9646 109.805 21.1636 109.606C22.0169 110.269 22.5952 111.103 22.7469 112.194Z" fill="#664F3F"/>
<path d="M28.2741 67.3701C26.833 66.6875 25.411 65.9955 24.4819 64.6113C26.1125 65.0285 27.7432 65.4361 28.2741 67.3701Z" fill="#F7F1BB"/>
<path d="M21.1541 109.606C20.955 109.805 20.7465 109.994 20.5474 110.193C19.5899 109.596 18.8125 108.828 17.9308 107.548C19.5804 107.89 20.5474 108.477 21.1541 109.606Z" fill="#B59D69"/>
<path d="M13.2285 106.875C13.968 106.145 13.3517 104.164 15.3426 104.6C14.9634 105.377 14.9066 106.306 14.205 106.923C13.8827 106.913 13.5509 106.894 13.2285 106.875Z" fill="#664F3F"/>
<path d="M46.6472 45.66C47.1118 45.3756 47.5668 45.1006 48.0314 44.8162C48.8372 44.9395 49.6525 44.0768 50.4584 44.8162C50.373 45.8117 49.6051 45.5936 48.9889 45.6316C48.8182 45.4419 48.676 45.4704 48.5528 45.679C47.9176 45.6695 47.2824 45.6695 46.6472 45.66Z" fill="#383634"/>
<path d="M57.18 88.4927C57.5782 88.6823 57.9669 88.8814 58.3651 89.071C58.5168 90.3508 57.8057 90.2086 56.9904 89.9053C57.0568 89.4312 57.1231 88.9572 57.18 88.4927Z" fill="#F2C6B2"/>
<path d="M16.6225 30.0834C17.3999 30.1024 18.0446 29.2776 18.8883 29.7042C18.6608 30.3963 18.1109 30.7281 17.4757 30.9556C17.1913 30.6617 16.9069 30.3678 16.6225 30.0834Z" fill="#664F3F"/>
<path d="M52.3259 28.2822C52.0415 27.0782 52.6577 26.5663 53.748 26.4241C53.9281 27.5428 52.9137 27.7513 52.3259 28.2822Z" fill="#B59D69"/>
<path d="M50.4488 30.6333C50.1265 29.7516 50.2687 29.1733 51.3779 29.2397C51.5201 30.0076 51.1314 30.4152 50.4488 30.6333Z" fill="#B59D69"/>
<path d="M23.5528 64.1468C22.946 64.583 22.7374 64.1848 22.5858 63.6823C22.9934 63.6539 23.3252 63.7866 23.5528 64.1468Z" fill="#F7F1BB"/>
<path d="M49.9368 32.283C49.15 31.4487 49.3775 30.9273 50.4298 30.6523C50.6194 31.3065 50.0885 31.7331 49.9368 32.283Z" fill="#B59D69"/>
<path d="M23.2589 113.9C22.9745 113.512 23.0219 113.085 23.1072 112.649C23.2399 112.649 23.3726 112.668 23.4959 112.706C23.4106 113.104 23.3347 113.502 23.2589 113.9Z" fill="#664F3F"/>
<path d="M51.3874 29.2208C51.1315 28.3486 51.4727 28.0736 52.3165 28.2822C52.1553 28.7467 51.9089 29.1165 51.3874 29.2208Z" fill="#B59D69"/>
<path d="M50.4678 44.8067C49.9748 44.0767 50.8375 44.2378 51.0271 43.9629C51.1409 44.0767 51.2546 44.1809 51.3684 44.2947C51.321 44.418 51.321 44.5412 51.3684 44.6644C51.1124 44.9963 50.8849 45.4798 50.4678 44.8067Z" fill="#383634"/>
<path d="M48.5528 45.6789C48.676 45.4703 48.8277 45.4419 48.9889 45.6315C48.8372 45.6504 48.695 45.6599 48.5528 45.6789Z" fill="#664F3F"/>
<path d="M51.3589 44.6645C51.321 44.5413 51.321 44.418 51.3589 44.2948C51.5391 44.3138 51.7192 44.3327 51.8993 44.3612C51.7192 44.456 51.5391 44.5603 51.3589 44.6645Z" fill="#664F3F"/>
<path d="M56.4595 98.4852C56.4879 98.2102 56.5164 97.9353 56.5448 97.6604C60.0905 97.5087 62.4511 95.1954 64.9445 93.0908C65.3142 92.7779 65.7977 92.1048 66.4519 92.7684C64.48 94.5034 62.5744 96.3141 60.5266 97.9448C59.37 98.8739 57.8721 98.6653 56.4595 98.4852Z" fill="#383634"/>
<path d="M61.7306 89.4787C61.7211 89.2227 61.7116 88.9667 61.7021 88.7013C63.3423 88.2652 64.935 88.4643 66.5087 88.9952C67.5232 89.3365 68.9073 89.5261 68.9642 90.768C69.0116 91.8204 67.7981 92.2754 66.8595 92.6736C66.7078 92.5504 66.5656 92.4271 66.4139 92.3039C66.8406 91.6118 68.2342 91.4791 67.9119 90.4836C67.6464 89.6493 66.4613 89.6873 65.6745 89.583C64.3851 89.4123 63.0484 89.4977 61.7306 89.4787Z" fill="#664F3F"/>
<path d="M66.4234 92.3038C66.5751 92.4271 66.7173 92.5503 66.869 92.6736C66.7079 92.721 66.5562 92.7684 66.395 92.8158C66.1485 92.6357 66.158 92.465 66.4234 92.3038Z" fill="#383634"/>
<path d="M36.8159 121.551C36.1428 121.636 35.4792 121.684 34.9009 121.21C35.6783 120.954 36.4651 120.84 37.2615 121.096C37.5554 121.674 37.0719 121.504 36.8159 121.551Z" fill="#664F3F"/>
<path d="M58.2418 91.915V91.697L58.4314 91.6022L58.4409 91.8202L58.2418 91.915Z" fill="#B59D69"/>
<path d="M25.5057 88.1514C25.5247 88.3979 25.5342 88.6444 25.5531 88.8909C23.913 89.6303 22.9839 88.8245 22.5952 87.3455C22.1781 85.7718 21.979 84.1411 21.6946 82.5389C22.0169 82.6906 22.3298 82.8423 22.6521 82.994C22.9365 84.198 23.2304 85.402 23.5148 86.6061C23.7518 87.6774 24.4249 88.1798 25.5057 88.1514Z" fill="#B59D69"/>
<path d="M29.2032 88.2367C29.3264 88.597 29.2221 88.8529 28.8619 88.9857C28.9756 88.7392 29.0894 88.4927 29.2032 88.2367Z" fill="#664F3F"/>
<path d="M27.819 80.5764C29.2031 80.055 29.4686 80.9936 29.7056 81.9985C29.023 83.3068 27.9328 84.2738 26.9468 85.3167C26.4822 85.8002 25.9418 86.4733 25.2024 86.1604C24.4724 85.8476 24.5577 85.0228 24.5577 84.3307C24.7189 82.2734 25.9892 81.1737 27.819 80.5764Z" fill="#B59D69"/>
<path d="M7.89106 76.4429C7.82469 76.3386 7.68249 76.1774 7.71093 76.1205C7.85313 75.874 8.03327 75.9688 8.19444 76.13C8.09963 76.2438 7.99534 76.3386 7.89106 76.4429Z" fill="#F2C6B2"/>
<path d="M36.778 25.0682C36.8349 25.2484 36.8822 25.4285 36.9391 25.6086C35.2137 27.0591 33.4693 28.5002 31.7628 29.9791C31.1181 30.5385 30.4261 30.7376 29.6013 30.6238C28.8144 30.51 27.8379 30.3678 27.9801 29.3724C28.1033 28.5002 28.9945 29.0121 29.5633 29.0216C32.0282 29.069 32.635 28.339 32.6255 25.0114C34.1329 27.2203 35.4033 25.2389 36.778 25.0682Z" fill="#383634"/>
<path d="M46.1732 25.9407C44.7701 28.197 42.7603 29.8751 40.7789 31.591C40.5703 31.3919 40.3617 31.1928 40.1531 30.9938C41.9449 29.0597 43.1679 26.4337 46.1732 25.9407Z" fill="#B59D69"/>
<path d="M40.153 30.9937C40.3616 31.1927 40.5702 31.3918 40.7787 31.5909C40.3331 32.3683 39.8971 33.1457 39.4515 33.9231C38.7784 33.9136 38.1052 33.9136 37.4416 33.9042C38.1431 32.757 39.1291 31.8564 40.153 30.9937Z" fill="#383634"/>
</svg>
