<svg width="122" height="141" viewBox="0 0 122 141" fill="none" xmlns="http://www.w3.org/2000/svg">
<path d="M101.795 7.27269C103.435 8.59269 105.065 9.93269 106.725 11.2427C107.945 12.2027 109.025 12.6127 109.495 10.4927C109.685 9.64269 110.025 8.57269 111.035 8.49269C112.155 8.41269 112.685 9.42269 113.005 10.3627C113.395 11.4927 114.325 12.4727 114.055 13.8027C113.765 13.8027 113.475 13.8027 113.185 13.8027C112.755 12.6827 112.665 11.4327 111.945 10.4127C111.575 9.89269 111.245 9.48269 110.645 10.1327C109.525 11.3427 109.735 13.4627 111.105 14.7327C113.295 15.9827 113.315 17.6327 111.985 19.5327C111.375 19.7327 111.015 20.0927 111.205 20.7927C110.235 20.4627 109.435 20.9327 108.665 21.4027C104.645 23.8027 100.455 25.7027 95.8249 26.6627C90.8649 27.6927 86.175 27.1727 81.995 24.2527C78.925 22.1127 78.485 19.4227 80.245 16.1327C80.425 15.7927 80.7749 15.4627 80.4449 15.0227C79.7649 14.7927 79.3249 15.2427 78.9849 15.6627C77.5549 17.4627 75.6349 18.1527 73.4249 18.4027C69.7849 18.8127 66.455 20.2127 63.275 21.9227C60.635 23.3427 58.6049 22.2127 56.7049 19.9627C55.8149 18.9027 55.3849 17.5427 55.0849 16.1527C54.5149 13.5227 53.825 10.9227 53.155 8.31269C52.795 6.91269 53.0249 6.33269 54.6949 6.63269C57.2049 7.07269 58.8149 8.92269 60.8249 10.1327C62.5249 11.1627 63.7349 11.0127 64.5749 9.12269C65.1349 7.85269 65.7049 6.57269 66.2949 5.31269C66.5249 4.82269 66.665 4.10269 67.405 4.18269C68.065 4.24269 68.2949 4.87269 68.4549 5.41269C68.6149 5.95269 68.655 6.53269 68.715 7.10269C68.805 7.97269 68.4649 9.07269 69.4849 9.52269C70.6549 10.0227 71.1849 8.87269 71.9149 8.27269C75.4449 5.38269 79.3249 3.09269 83.8949 2.40269C89.9549 1.49269 95.415 3.04269 100.155 7.00269C100.645 7.42269 101.115 8.09269 101.795 7.27269Z" fill="#664F3F"/>
<path d="M45.555 140.443C45.375 140.483 45.195 140.513 45.015 140.553C43.065 140.093 41.1149 139.643 39.1649 139.183C37.4049 137.773 35.945 136.133 35.095 134.013C34.305 128.573 36.755 124.793 41.245 122.073C44.325 121.783 45.875 119.613 47.275 117.223C48.445 115.223 46.195 114.373 45.905 112.873C45.875 112.713 45.745 112.583 45.715 112.423C45.225 109.363 43.275 109.323 40.875 109.983C37.945 110.793 34.785 111.243 34.485 115.223C32.855 119.123 30.105 121.903 26.205 123.543C25.905 123.643 25.595 123.753 25.295 123.853C21.555 124.853 17.805 124.833 14.045 123.993C11.185 122.583 7.93496 121.793 5.89496 119.033C7.08496 118.023 7.93497 119.173 8.71497 119.633C12.405 121.813 16.325 122.823 20.625 122.783C26.435 122.733 34.375 118.833 33.775 110.673C33.705 109.783 33.925 108.773 35.035 109.113C36.775 109.633 38.245 108.903 39.815 108.563C44.635 107.533 45.5949 106.103 44.5049 101.273C44.3249 100.493 43.985 99.7427 43.715 98.9827C44.955 99.2227 45.615 98.7327 46.045 97.5227C46.605 95.9427 47.0549 94.2627 48.3849 93.0727C48.6549 93.2827 48.9249 93.4927 49.1949 93.7027L49.125 93.7827C48.565 94.0827 48.495 94.5927 48.545 95.1527C48.075 96.4627 47.585 97.7627 47.145 99.0727C45.555 103.743 45.645 108.353 47.735 113.093C49.235 111.283 49.4449 109.073 50.5049 107.273C52.2749 104.283 53.795 101.123 56.645 98.9327C58.175 99.1627 59.535 98.4927 60.905 98.0127C64.345 96.8127 67.595 97.0127 70.765 98.9027C71.795 99.5127 73.005 99.9427 74.185 100.153C77.945 100.813 80.935 102.383 82.245 106.263C82.465 106.913 82.8349 107.813 83.6649 107.713C84.7149 107.593 84.6249 106.493 84.6649 105.753C84.8349 102.803 84.625 99.8827 83.865 97.0127C85.235 98.6927 85.6449 100.783 86.2549 103.063C87.8949 98.5227 87.6149 94.0827 87.3549 89.6027C88.3149 90.4827 88.605 91.5727 88.785 92.6727C88.945 93.6227 89.335 94.1627 90.375 94.1227C93.065 94.0127 95.8149 94.2127 98.1949 92.5427C98.5249 92.6227 98.8649 92.7027 99.1949 92.7727C97.9349 94.4327 98.365 95.4627 100.315 96.1027C101.385 96.4527 102.385 97.0227 103.405 97.5127C107.095 99.2627 107.095 99.2727 109.115 96.0227C110.195 97.2827 109.115 98.2327 108.685 99.3027C108.175 100.563 106.595 101.123 106.095 100.673C104.845 99.5527 103.315 99.5827 101.985 98.9627C101.825 97.9227 100.945 97.9227 100.195 97.7127L100.095 97.5827L99.935 97.6127C98.405 96.8527 96.925 95.9827 95.345 95.3627C91.945 94.0327 89.385 95.5827 88.955 99.2327C88.565 102.543 87.595 105.603 85.715 108.373C83.855 111.113 82.045 113.883 81.425 117.223C80.365 119.083 79.3149 120.953 78.2549 122.813L78.1949 122.883C75.8049 125.483 72.7449 127.063 69.6349 128.563C69.3149 128.573 68.985 128.613 68.675 128.573C65.095 128.183 61.645 128.103 59.675 131.963C58.615 131.273 59.205 130.573 59.685 129.923C60.215 129.203 60.595 128.373 59.925 127.693C57.075 124.803 55.545 120.783 51.865 118.573C50.285 117.623 49.335 117.433 48.365 119.263C47.685 120.543 46.815 121.783 45.545 122.613C44.085 123.573 43.265 124.913 43.015 126.623C42.485 126.463 42.135 126.123 42.145 125.573C42.205 123.273 41.075 123.973 39.905 124.643C35.995 126.903 36.145 135.583 40.145 137.973C42.265 139.233 44.505 139.183 46.785 138.543C47.475 138.353 48.1949 137.783 48.5049 138.983C47.5349 139.493 46.545 139.963 45.555 140.443ZM68.015 100.833C69.085 99.5627 68.0549 99.2527 67.1349 99.1327C63.8849 98.7227 60.7549 99.1827 58.0049 101.063C54.2149 103.653 51.925 107.383 50.3549 111.613C49.1249 114.933 49.405 115.733 52.435 117.653C55.205 119.413 55.205 119.413 56.015 116.333C57.635 117.393 56.5249 119.043 56.8849 120.383C57.0249 120.903 56.7449 121.703 57.4449 121.853C58.1849 122.013 58.245 121.203 58.455 120.713C59.055 119.283 59.6849 117.853 60.2249 116.403C62.4249 110.553 72.615 105.343 78.375 107.593C79.055 107.863 79.905 108.173 80.345 107.333C80.775 106.503 80.665 105.563 80.055 104.783C78.635 102.963 76.775 101.993 74.485 101.513C72.325 101.053 70.125 101.463 68.015 100.833Z" fill="#383634"/>
<path d="M43.735 98.9927C44.005 99.7527 44.345 100.493 44.525 101.283C45.605 106.113 44.655 107.543 39.835 108.573C38.255 108.913 36.785 109.643 35.055 109.123C33.935 108.793 33.725 109.803 33.795 110.683C34.395 118.843 26.455 122.743 20.645 122.793C16.345 122.833 12.425 121.823 8.73495 119.643C7.94495 119.183 7.09496 118.033 5.91496 119.043C3.84496 117.363 2.36495 115.243 1.32495 112.803C2.57495 111.303 4.16497 110.713 6.10497 110.913C7.08497 111.013 8.04495 110.773 9.01495 110.593C13.545 109.753 16.525 106.453 19.845 103.763C24.405 100.073 29.1549 97.3527 35.3849 97.9427C37.8049 98.1727 40.2249 98.8727 42.6949 98.4727L42.615 98.5127C42.975 98.6727 43.3349 98.8227 43.6949 98.9827C43.6849 98.9727 43.735 98.9927 43.735 98.9927ZM30.035 106.503C29.995 105.783 29.6749 105.613 29.2249 105.593C27.8449 105.543 25.745 108.473 26.325 109.703C26.545 110.163 27.1049 111.053 27.4749 110.323C28.2049 108.883 27.905 106.863 30.035 106.503Z" fill="#664F3F"/>
<path d="M101.795 7.27265C101.115 8.09265 100.655 7.42265 100.175 7.02265C95.445 3.06265 89.975 1.51265 83.915 2.42265C79.355 3.10265 75.475 5.39265 71.935 8.29265C71.205 8.89265 70.665 10.0427 69.505 9.54265C68.485 9.10265 68.825 7.99265 68.735 7.12265C68.675 6.55265 68.635 5.97265 68.475 5.43265C68.315 4.89265 68.085 4.26265 67.425 4.20265C66.695 4.13265 66.555 4.84265 66.315 5.33265C65.715 6.59265 65.155 7.86265 64.595 9.14265C63.755 11.0327 62.545 11.1727 60.845 10.1527C58.835 8.94265 57.215 7.09265 54.715 6.65265C53.035 6.36265 52.815 6.93265 53.175 8.33265C53.845 10.9427 54.535 13.5427 55.105 16.1727C55.405 17.5727 55.835 18.9227 56.725 19.9827C58.625 22.2227 60.655 23.3527 63.295 21.9427C66.475 20.2327 69.805 18.8327 73.445 18.4227C75.655 18.1727 77.575 17.4827 79.005 15.6827C79.345 15.2627 79.785 14.8127 80.465 15.0427C80.785 15.4827 80.445 15.8127 80.265 16.1527C78.505 19.4427 78.945 22.1327 82.015 24.2727C86.195 27.1827 90.875 27.7127 95.845 26.6827C100.475 25.7227 104.665 23.8227 108.685 21.4227C109.455 20.9627 110.255 20.4927 111.225 20.8127L111.305 20.8927C107.805 24.0627 107.805 24.0627 109.785 28.5527C109.755 28.7227 109.725 28.8927 109.695 29.0727C109.145 29.7527 109.465 30.1227 110.155 30.3627C111.315 31.6927 111.435 33.4527 112.125 34.9827C111.745 35.0227 111.365 35.0727 110.985 35.1127C109.945 34.1127 109.215 35.3426 108.335 35.4726C107.415 35.6126 106.385 36.6627 105.625 35.7727C104.995 35.0427 106.025 34.1626 106.285 33.3326C106.385 33.0226 106.515 32.7026 106.715 32.4526C108.205 30.5126 107.285 29.1127 105.665 27.9427C105.025 27.4827 104.485 26.8127 103.615 26.7227C102.965 26.7327 102.215 26.5227 101.675 26.7727C96.725 29.1227 91.565 29.5027 86.245 28.5427C85.865 27.5827 84.865 27.4727 84.115 27.0627C81.825 25.8027 79.825 24.1027 78.615 21.8927C77.405 19.6727 75.745 19.3727 73.705 19.7527C68.975 20.6427 64.565 22.3527 60.575 25.0927C59.855 25.5927 59.155 26.6327 58.265 26.1727C57.335 25.7027 58.575 24.9227 58.445 24.2427C58.395 24.0027 58.385 23.7027 58.245 23.5527C56.135 21.3527 54.385 18.7727 51.555 16.9727C51.555 19.2827 51.575 21.2527 51.545 23.2127C51.535 24.3027 51.445 25.3827 50.155 25.8027C50.265 24.9127 50.405 24.0327 50.485 23.1427C50.885 18.6427 49.315 14.5227 48.045 10.3427C48.255 10.1527 48.465 9.97265 48.675 9.78265C50.315 11.6827 50.735 14.5627 53.405 15.8427C54.005 11.6127 51.505 8.69265 49.375 5.55265C51.905 4.95265 54.175 5.15265 56.435 5.40265L56.525 5.51265L56.655 5.45265C57.065 5.60265 57.475 5.75265 57.875 5.90265L57.955 6.02265L58.085 5.97265C58.505 6.20265 58.925 6.42265 59.345 6.65265C59.495 6.74265 59.645 6.82265 59.795 6.91265C60.015 7.31265 60.355 7.53265 60.815 7.55265L60.735 7.56265C63.175 9.90265 63.555 9.85265 64.385 6.74265C64.925 4.71265 65.305 2.62265 64.785 0.502651C65.125 -0.147349 65.655 -0.0373487 66.205 0.122651C66.495 0.662651 66.965 0.992651 67.525 1.21265L67.505 1.11265C67.705 1.31265 67.895 1.51265 68.095 1.72265L67.985 1.73265C69.095 3.35265 70.285 4.92265 70.965 7.08265C72.285 6.13265 73.465 5.28265 74.635 4.43265C74.815 4.33265 74.995 4.23265 75.175 4.12265C75.325 4.03265 75.465 3.95265 75.615 3.86265C78.485 2.68265 81.305 1.40265 84.445 1.01265C91.315 0.152651 96.995 2.47265 101.795 7.27265Z" fill="#383634"/>
<path d="M42.675 98.4626C40.205 98.8626 37.785 98.1626 35.365 97.9326C29.145 97.3426 24.385 100.073 19.825 103.753C16.495 106.443 13.525 109.743 8.99498 110.583C8.02498 110.763 7.06498 111.003 6.08498 110.903C4.14498 110.703 2.55498 111.293 1.30498 112.793C1.04498 112.223 0.834968 111.623 0.514968 111.083C-0.565032 109.193 0.104967 108.663 2.04497 109.053L2.07497 109.033C2.67497 109.603 3.41498 109.473 4.13498 109.413C7.10498 110.263 9.62497 109.013 12.115 107.683C15.015 105.653 17.905 103.613 20.485 101.163C23.705 98.7226 27.245 97.0026 31.295 96.4926C35.255 96.2526 39.135 96.3626 42.675 98.4626Z" fill="#383634"/>
<path d="M113.185 13.8026C113.475 13.8026 113.765 13.8026 114.055 13.8026V13.8126C113.875 15.3526 115.615 14.9726 116.095 15.8526C115.885 16.1426 115.675 16.4326 115.475 16.7126C114.755 18.1626 114.895 19.7326 114.785 21.2726C114.705 21.4026 114.635 21.5326 114.575 21.6726C114.245 21.6826 113.915 21.6926 113.595 21.7026C113.235 21.1526 114.765 19.3026 112.485 20.0626C112.325 19.8826 112.155 19.7126 111.995 19.5326C113.335 17.6326 113.305 15.9826 111.115 14.7326C111.745 14.3026 113.095 15.4326 113.185 13.8026Z" fill="#383634"/>
<path d="M47.0049 5.83264C47.3849 7.21264 48.675 8.21264 48.655 9.77264C48.445 9.96264 48.235 10.1426 48.025 10.3326C47.285 9.50264 47.3949 8.18264 46.3849 7.37264C45.8249 8.32264 45.305 9.20264 44.785 10.0826C44.555 9.84264 44.325 9.60264 44.085 9.36264C44.625 8.22264 45.1549 7.08264 45.6949 5.94264C46.1349 5.90264 46.5649 5.87264 47.0049 5.83264Z" fill="#664F3F"/>
<path d="M113.595 21.7126C113.925 21.7026 114.245 21.6926 114.575 21.6826C114.585 22.1726 114.595 22.6626 114.605 23.1526C114.195 23.8026 113.675 24.4126 113.935 25.2726C113.115 25.9426 112.825 27.1726 111.645 27.4626C112.305 25.5426 112.945 23.6226 113.595 21.7126Z" fill="#664F3F"/>
<path d="M116.105 15.8526C115.615 14.9726 113.885 15.3526 114.065 13.8126C114.495 14.8226 115.385 14.7326 116.245 14.7626C116.635 14.7726 117.095 14.9026 116.855 15.4426C116.755 15.6426 116.355 15.7126 116.105 15.8526Z" fill="#664F3F"/>
<path d="M56.9149 134.073C55.2049 135.653 52.425 135.393 51.035 137.523C50.855 137.693 50.675 137.853 50.495 138.023C50.315 138.173 50.135 138.333 49.955 138.483L49.965 138.453C49.485 138.643 49.0049 138.823 48.5149 139.013C48.2149 137.803 47.4849 138.373 46.7949 138.573C44.5149 139.213 42.275 139.263 40.155 138.003C36.155 135.613 36.0149 126.933 39.9149 124.673C41.0849 124.003 42.215 123.303 42.155 125.603C42.135 126.153 42.495 126.503 43.025 126.653C43.555 131.253 45.455 133.693 48.925 134.393C51.755 134.963 54.2549 133.973 56.7649 132.923C56.8149 133.303 56.8649 133.693 56.9149 134.073Z" fill="#664F3F"/>
<path d="M113.185 13.8026C113.085 15.4326 111.745 14.3026 111.105 14.7426C109.735 13.4726 109.525 11.3526 110.645 10.1426C111.245 9.49265 111.575 9.90265 111.945 10.4226C112.675 11.4426 112.765 12.6826 113.185 13.8026Z" fill="#F2C6B2"/>
<path d="M111.215 20.8026C111.015 20.1026 111.375 19.7426 111.995 19.5426C112.155 19.7126 112.325 19.8926 112.485 20.0726C112.085 20.3426 111.685 20.6226 111.285 20.8926L111.215 20.8026Z" fill="#383634"/>
<path d="M43.215 25.0527C43.135 24.7427 43.065 24.4427 42.985 24.1327C42.875 23.8527 42.7649 23.5827 42.6649 23.3027C42.0649 20.3327 42.045 17.3327 42.395 14.3327V14.1627L42.235 14.1227C43.015 13.1527 43.0049 11.9327 43.2549 10.8027L43.305 10.7527C43.565 10.2927 43.825 9.82267 44.095 9.36267C44.325 9.60267 44.555 9.84267 44.795 10.0827C42.965 15.7627 42.735 21.3627 45.615 26.8027C46.225 27.9527 46.795 29.2527 48.535 28.8627C48.955 29.6327 49.9349 29.5327 50.4749 30.1127C48.0949 30.7427 43.075 33.4927 41.015 35.2927C40.765 35.5027 40.495 35.6927 40.245 35.9027C36.255 39.2127 31.885 41.8727 27.045 43.7827C25.545 44.3727 23.965 45.0927 23.845 47.1027C21.765 46.2427 21.285 44.4227 21.055 42.4527L21.015 42.5027C24.625 43.2227 27.985 42.4527 31.075 40.6227C34.945 38.3227 38.485 35.5627 41.775 32.4627C45.135 29.2927 45.175 29.3327 43.215 25.0527Z" fill="#383634"/>
<path d="M4.13496 109.403C3.41496 109.463 2.68495 109.593 2.07495 109.023C2.80495 108.933 3.53496 108.833 4.13496 109.403Z" fill="#F8F167"/>
<path d="M56.6649 98.9326C53.8149 101.123 52.295 104.283 50.525 107.273C49.455 109.073 49.2449 111.293 47.7549 113.093C45.6749 108.353 45.5749 103.753 47.1649 99.0726C47.6149 97.7626 48.095 96.4626 48.565 95.1526C48.755 94.6926 48.945 94.2426 49.145 93.7826L49.215 93.7026C50.295 92.3326 52.535 91.0726 50.875 89.1126C49.335 87.3026 47.175 85.9626 44.615 85.7026C43.815 84.9526 42.5549 84.3726 43.2249 82.9426C44.3249 80.6026 44.235 78.1126 43.995 75.6826C43.765 73.3726 44.6549 72.7026 46.7549 72.9626C53.0049 73.7226 59.245 74.7026 65.175 76.7926C70.845 78.7926 76.5649 80.4226 82.5149 81.2626C87.7549 83.3826 93.1049 84.5626 98.7649 83.2826C99.1449 83.3426 99.525 83.4026 99.905 83.4526C99.865 84.3026 99.8349 85.1626 99.7949 86.0126C99.8849 88.3426 99.285 90.5026 98.205 92.5426C95.825 94.2126 93.0749 94.0126 90.3849 94.1226C89.3449 94.1626 88.9549 93.6126 88.7949 92.6726C88.6149 91.5726 88.325 90.4926 87.365 89.6026C87.635 94.0726 87.9049 98.5126 86.2649 103.063C85.6549 100.773 85.245 98.6926 83.875 97.0126C82.475 94.6826 80.635 92.8726 78.125 91.7126C77.045 91.2126 75.7349 91.2026 74.8849 90.2126C73.1249 89.1426 71.1749 89.1826 69.2249 89.2526C67.4849 90.2526 65.085 89.8926 63.815 91.8626C60.575 93.3426 58.2349 95.7526 56.6649 98.9326Z" fill="#F06F4A"/>
<path d="M56.665 98.9326C58.245 95.7526 60.575 93.3426 63.825 91.8626C65.605 91.3426 67.585 91.4826 69.145 90.2426C71.065 90.2326 72.985 90.2126 74.905 90.2026C75.745 91.2026 77.065 91.2126 78.145 91.7026C80.645 92.8626 82.495 94.6726 83.895 97.0026C84.655 99.8726 84.865 102.803 84.695 105.743C84.655 106.483 84.745 107.583 83.695 107.703C82.865 107.803 82.495 106.903 82.275 106.253C80.965 102.373 77.975 100.813 74.215 100.143C73.035 99.9326 71.825 99.5026 70.795 98.8926C67.615 97.0026 64.375 96.7926 60.935 98.0026C59.555 98.4926 58.195 99.1626 56.665 98.9326Z" fill="#F7F1BB"/>
<path d="M56.775 132.923C54.265 133.973 51.765 134.953 48.935 134.393C45.465 133.693 43.555 131.253 43.035 126.653C43.295 124.943 44.105 123.603 45.565 122.643C46.825 121.813 47.7049 120.573 48.3849 119.293C49.3549 117.463 50.2949 117.653 51.8849 118.603C55.5649 120.813 57.0949 124.833 59.9449 127.723C60.6149 128.403 60.235 129.233 59.705 129.953C59.225 130.603 58.6249 131.313 59.6949 131.993C59.5449 132.173 59.395 132.353 59.155 132.133C58.415 131.553 58.0749 131.913 57.9149 132.673L57.985 132.633C57.455 132.243 57.125 132.623 56.775 132.923Z" fill="#F06F4A"/>
<path d="M68.015 100.833C70.125 101.473 72.335 101.053 74.485 101.513C76.775 101.993 78.625 102.963 80.055 104.783C80.665 105.563 80.775 106.503 80.345 107.333C79.905 108.173 79.055 107.863 78.375 107.593C72.615 105.343 62.4249 110.553 60.2249 116.403C59.6749 117.853 59.055 119.283 58.455 120.713C58.245 121.213 58.1849 122.013 57.4449 121.853C56.7449 121.703 57.0249 120.903 56.8849 120.383C56.5249 119.043 57.645 117.393 56.015 116.333C56.325 111.913 58.0449 108.083 61.1349 104.963C63.0549 103.043 65.775 102.303 68.015 100.833Z" fill="#664F3F"/>
<path d="M109.145 93.8126C109.145 94.5526 109.135 95.2926 109.135 96.0326C107.115 99.2826 107.115 99.2826 103.425 97.5226C102.405 97.0326 101.405 96.4626 100.335 96.1126C98.385 95.4826 97.965 94.4426 99.215 92.7826C100.775 90.6426 100.575 88.3526 99.805 86.0126C99.845 85.1626 99.875 84.3026 99.915 83.4526C101.165 82.3626 103.235 83.3126 104.275 81.6826C104.445 81.6126 104.615 81.5426 104.785 81.4726C106.685 80.9626 107.905 78.7726 110.215 79.2926C111.555 83.9826 107.505 86.0826 104.945 89.2226C106.995 89.3226 109.105 87.3726 109.885 89.9026C110.615 92.2726 108.475 92.6226 106.625 92.8226C107.285 94.0626 108.345 93.5526 109.145 93.8126Z" fill="#F7F1BB"/>
<path d="M68.015 100.833C65.775 102.303 63.055 103.043 61.135 104.973C58.035 108.093 56.325 111.923 56.015 116.343C55.205 119.423 55.205 119.423 52.435 117.663C49.405 115.733 49.125 114.943 50.355 111.623C51.915 107.393 54.215 103.663 58.005 101.073C60.755 99.1927 63.885 98.7327 67.135 99.1427C68.045 99.2527 69.085 99.5627 68.015 100.833Z" fill="#F06F4A"/>
<path d="M48.405 93.0726C50.575 90.5026 50.445 89.8826 47.455 88.2326C46.475 87.6926 45.495 87.1326 44.515 86.5926C44.545 86.2926 44.585 86.0026 44.615 85.7126C47.175 85.9726 49.335 87.3126 50.875 89.1226C52.535 91.0826 50.295 92.3426 49.215 93.7126C48.945 93.4926 48.675 93.2826 48.405 93.0726Z" fill="#664F3F"/>
<path d="M99.795 86.0227C100.565 88.3627 100.755 90.6527 99.205 92.7927C98.875 92.7127 98.535 92.6327 98.205 92.5627C99.285 90.5127 99.885 88.3527 99.795 86.0227Z" fill="#664F3F"/>
<path d="M101.995 98.9727C101.075 99.0127 100.495 98.5827 100.205 97.7327C100.945 97.9227 101.835 97.9227 101.995 98.9727Z" fill="#F7F1BB"/>
<path d="M49.145 93.7926C48.955 94.2526 48.765 94.7026 48.565 95.1626C48.515 94.6026 48.575 94.0926 49.145 93.7926Z" fill="#664F3F"/>
<path d="M30.035 106.503C27.905 106.863 28.205 108.883 27.465 110.323C27.095 111.053 26.535 110.163 26.315 109.703C25.735 108.473 27.835 105.543 29.215 105.593C29.685 105.603 29.995 105.773 30.035 106.503Z" fill="#383634"/>
<path d="M42.605 98.5027C43.015 98.5427 43.465 98.4827 43.685 98.9727C43.325 98.8227 42.965 98.6627 42.605 98.5027Z" fill="#383634"/>
<path d="M50.4549 30.1126C49.9149 29.5326 48.9349 29.6326 48.5149 28.8626C49.0549 27.8426 49.5949 26.8126 50.1349 25.7926C51.4249 25.3726 51.515 24.2926 51.525 23.2026C51.545 21.2426 51.535 19.2826 51.535 16.9626C54.355 18.7526 56.1149 21.3426 58.2249 23.5426C58.3749 23.6926 58.3849 23.9926 58.4249 24.2326C58.5549 24.9226 57.315 25.6926 58.245 26.1626C59.145 26.6126 59.835 25.5726 60.555 25.0826C64.535 22.3426 68.955 20.6326 73.685 19.7426C75.725 19.3626 77.385 19.6626 78.595 21.8826C79.805 24.0926 81.805 25.7926 84.095 27.0526C84.845 27.4626 85.8449 27.5826 86.2249 28.5326C86.3949 30.5926 87.2049 32.4726 87.7649 34.4226C88.9649 38.6526 90.3249 42.8626 89.9149 47.3526C88.2749 48.1126 86.5349 47.7126 84.8549 47.7026C82.8549 47.6926 80.9349 47.7526 79.3849 49.2426C78.5449 49.4226 77.705 49.5926 76.865 49.7726C77.075 44.8826 74.305 42.0126 70.275 39.9926C69.845 39.7826 69.4349 39.4726 68.9749 39.3826C65.4549 38.7426 61.275 41.0826 59.495 44.6426C57.735 48.1826 58.305 53.7426 60.685 55.9926C60.835 56.1326 61.145 56.1126 61.375 56.1726L61.335 56.1426C61.515 56.3226 61.685 56.5026 61.865 56.6926L61.815 56.6526C61.995 56.8326 62.1749 57.0126 62.3549 57.1926L62.305 57.1426C62.505 57.3326 62.7149 57.5226 62.9149 57.7126C64.1549 58.4926 65.4949 59.0226 66.9149 59.3726C68.4049 59.8026 69.855 59.3326 71.305 59.1326C71.595 58.9726 71.895 58.8126 72.185 58.6526L72.1949 58.6426C73.1749 58.5426 73.885 59.1226 74.625 59.6126C72.645 65.8426 73.0449 71.6926 77.3849 76.9226C77.7849 79.1926 77.775 79.2326 76.585 78.9526C69.135 77.2026 62.015 74.9526 56.035 69.7026C46.665 61.4726 45.245 50.2126 49.395 39.5126C50.215 37.3926 51.5049 35.4426 52.4549 33.3626C52.9749 32.2326 53.475 30.9126 51.465 30.5926C51.235 30.1926 50.8949 30.0426 50.4549 30.1126ZM69.285 27.4726C68.045 27.6026 66.635 27.9426 66.345 29.6226C66.075 31.2526 67.615 31.3126 68.585 31.7126C70.325 32.4326 72.1049 33.0226 73.8849 33.6326C75.3349 34.1326 75.955 33.6226 75.555 32.1026C74.915 29.6926 71.935 27.4326 69.285 27.4726ZM55.2549 29.2626C56.2249 28.8526 57.155 28.3926 57.395 26.6026C55.945 27.2926 55.3949 28.0826 55.2549 29.2626Z" fill="#F06F4A"/>
<path d="M89.905 47.3627C90.315 42.8627 88.9649 38.6527 87.7549 34.4327C87.1949 32.4827 86.375 30.5927 86.215 28.5427C91.535 29.5027 96.685 29.1227 101.645 26.7727C102.175 26.5227 102.935 26.7227 103.585 26.7227C101.935 33.4427 101.455 40.2527 102.165 47.1427C98.0749 46.7427 93.995 47.2227 89.905 47.3627Z" fill="#F8F7F5"/>
<path d="M102.165 47.1326C101.465 40.2426 101.945 33.4426 103.585 26.7126C104.455 26.7926 105.005 27.4626 105.635 27.9326C107.255 29.1026 108.175 30.5026 106.685 32.4426C106.495 32.6926 106.355 33.0126 106.255 33.3226C105.995 34.1426 104.965 35.0326 105.595 35.7626C106.355 36.6526 107.385 35.5926 108.305 35.4626C109.185 35.3326 109.915 34.1026 110.955 35.1026C111.985 37.0426 111.505 38.4226 109.605 39.5626C108.105 40.4526 106.915 41.7826 106.475 43.5326C105.925 45.7826 105.205 47.8226 102.595 48.3926C102.445 48.4226 102.325 48.3826 102.225 48.2626C102.215 47.8926 102.185 47.5126 102.165 47.1326Z" fill="#B59D69"/>
<path d="M50.135 25.7827C49.595 26.8027 49.055 27.8327 48.515 28.8527C46.785 29.2427 46.205 27.9427 45.595 26.7927C42.715 21.3527 42.945 15.7527 44.775 10.0727C45.295 9.19267 45.815 8.31267 46.375 7.36267C47.385 8.17267 47.275 9.49267 48.015 10.3227C49.285 14.5027 50.855 18.6227 50.455 23.1227C50.375 24.0227 50.245 24.9027 50.135 25.7827Z" fill="#F7F1BB"/>
<path d="M102.605 48.3927C105.225 47.8227 105.935 45.7827 106.485 43.5327C106.915 41.7727 108.115 40.4527 109.615 39.5627C111.515 38.4327 112.005 37.0427 110.965 35.1027C111.345 35.0627 111.725 35.0127 112.105 34.9727C113.975 39.4027 114.885 44.0027 114.355 48.8027C114.115 50.9327 114.305 52.2327 117.085 51.8127C119.515 51.4427 120.375 52.5127 121.055 55.7127C120.995 56.9227 120.755 58.0627 119.785 58.9027C119.625 58.7527 119.465 58.6127 119.305 58.4627C119.495 57.8427 119.735 57.2327 119.885 56.5927C120.585 53.5127 119.665 52.2827 116.555 52.9127C114.085 53.4127 112.095 53.7427 111.105 50.8227C111.065 50.6927 110.865 50.6227 110.735 50.5227C111.485 50.3027 112.165 49.9327 112.155 49.0627C112.135 47.1827 112.925 45.3627 112.595 43.4627C113.325 42.0027 112.835 40.3927 111.815 39.7327C110.875 39.1227 110.075 40.7627 109.255 41.4527C108.965 41.6927 108.835 42.1227 108.625 42.4627C108.375 43.2127 107.875 43.9127 108.135 44.7727C106.725 45.5427 106.935 46.5927 107.605 47.7327C107.575 48.3127 107.555 48.8927 107.525 49.4727C106.005 48.5727 104.135 49.2727 102.605 48.3927Z" fill="#664F3F"/>
<path d="M111.285 20.8927C111.685 20.6227 112.085 20.3427 112.485 20.0727C114.775 19.3127 113.235 21.1627 113.595 21.7127C112.945 23.6327 112.295 25.5427 111.645 27.4627C111.015 27.8227 110.395 28.1927 109.765 28.5527C107.785 24.0627 107.785 24.0627 111.285 20.8927Z" fill="#F7F1BB"/>
<path d="M109.675 29.0626C110.085 29.4026 110.115 29.8726 110.135 30.3526C109.445 30.1126 109.135 29.7426 109.675 29.0626Z" fill="#F7F1BB"/>
<path d="M56.775 132.923C57.125 132.633 57.4549 132.253 57.9749 132.633C58.5449 133.783 57.495 133.763 56.925 134.083C56.865 133.693 56.815 133.303 56.775 132.923Z" fill="#383634"/>
<path d="M57.905 132.663C58.075 131.913 58.405 131.543 59.145 132.123C58.855 132.583 58.705 133.393 57.905 132.663Z" fill="#383634"/>
<path d="M42.665 23.3026C42.775 23.5826 42.885 23.8526 42.985 24.1326C42.875 23.8526 42.775 23.5826 42.665 23.3026Z" fill="#FBF49F"/>
<path d="M27.315 49.8526C26.085 49.0226 24.535 48.6026 23.815 47.1026C23.945 45.0926 25.525 44.3726 27.015 43.7826C31.855 41.8726 36.225 39.2126 40.215 35.9026C40.465 35.6926 40.735 35.5126 40.985 35.2926C43.045 33.4926 48.065 30.7426 50.445 30.1126C50.895 30.0426 51.235 30.2026 51.445 30.6026C50.985 32.1626 50.635 33.7126 49.795 35.1926C47.295 39.6026 45.845 44.4826 45.695 49.4926C45.465 57.1026 47.935 63.8526 53.775 69.0826C55.155 70.3126 56.555 71.5126 57.945 72.7326C57.755 72.9826 57.555 73.2426 57.365 73.4926C54.555 73.2326 51.925 72.3726 49.405 71.0026C48.265 70.3826 46.965 69.1726 46.005 71.3426C45.645 72.1626 44.915 71.8426 44.285 71.6426C43.205 71.2826 42.125 70.9226 41.045 70.5626L41.105 70.5526C40.905 70.2326 40.715 69.9226 40.515 69.6026C39.535 68.5726 38.565 67.5426 37.585 66.5126C37.885 64.7526 38.205 62.9926 38.475 61.2226C38.585 60.4626 39.465 59.6226 38.655 58.9626C37.715 58.1926 36.845 59.0026 36.005 59.4926C34.655 60.2926 33.255 60.9426 31.605 60.6026C31.585 59.3826 31.935 58.2426 32.415 57.1326C34.465 56.4726 34.985 54.3026 36.465 53.0526C37.055 52.5526 37.695 51.8226 37.255 50.9326C36.865 50.1526 35.985 50.3526 35.275 50.3326C32.625 50.2926 29.945 50.5126 27.315 49.8526Z" fill="#664F3F"/>
<path d="M31.625 60.5927C33.265 60.9327 34.665 60.2827 36.025 59.4827C36.865 58.9927 37.735 58.1827 38.675 58.9527C39.475 59.6127 38.605 60.4527 38.495 61.2127C38.225 62.9827 37.905 64.7427 37.605 66.5027C36.685 65.9827 35.755 65.4727 34.845 64.9427C31.995 63.3027 29.005 62.3727 25.695 63.1327C23.325 63.6727 22.815 65.2427 24.475 67.0327C25.255 67.8627 26.225 68.5127 27.065 69.2927C27.685 69.8627 28.995 70.1427 28.625 71.2127C28.355 72.0027 27.175 71.7127 26.405 71.9227C25.935 72.0527 25.425 72.0627 24.945 72.0527C23.215 72.0127 21.795 72.8427 20.375 73.6727C19.165 74.3827 18.835 75.5327 18.965 76.8527C19.105 78.2827 20.395 78.0327 21.245 78.2427C22.825 78.6227 24.465 78.7827 26.075 79.0727C27.255 79.2827 27.755 79.7927 26.685 80.8227C26.335 81.1627 26.025 81.5527 25.725 81.9427C24.815 83.1227 23.715 84.3527 24.625 85.9127C25.465 87.3627 27.085 87.0627 28.425 86.9227C30.925 86.6527 33.345 85.9427 35.945 86.1427C39.355 86.4127 41.225 84.8927 42.435 81.6727C43.925 77.7127 42.545 74.1427 41.075 70.5627C42.155 70.9227 43.235 71.2827 44.315 71.6427C44.945 71.8527 45.675 72.1627 46.035 71.3427C46.995 69.1727 48.295 70.3827 49.435 71.0027C51.955 72.3727 54.585 73.2327 57.395 73.4927C57.585 73.2427 57.785 72.9827 57.975 72.7327C56.585 71.5127 55.175 70.3127 53.805 69.0827C47.965 63.8527 45.495 57.1027 45.725 49.4927C45.875 44.4827 47.325 39.6027 49.825 35.1927C50.665 33.7127 51.015 32.1627 51.475 30.6027C53.485 30.9127 52.985 32.2427 52.465 33.3727C51.515 35.4527 50.225 37.3927 49.405 39.5227C45.255 50.2227 46.665 61.4827 56.045 69.7127C62.025 74.9627 69.145 77.2127 76.595 78.9627C77.795 79.2427 77.805 79.2027 77.395 76.9327C77.685 76.9027 77.965 76.8727 78.255 76.8427C79.685 78.0027 81.125 79.1727 82.555 80.3327C82.545 80.6427 82.545 80.9627 82.535 81.2727C76.585 80.4327 70.865 78.7927 65.195 76.8027C59.255 74.7127 53.025 73.7327 46.775 72.9727C44.675 72.7227 43.785 73.3927 44.015 75.6927C44.255 78.1227 44.345 80.6127 43.245 82.9527C42.575 84.3827 43.835 84.9627 44.635 85.7127C44.605 86.0027 44.565 86.3027 44.535 86.5927C42.685 85.6427 40.915 85.4027 39.155 86.9027C38.695 87.2927 37.905 87.5527 37.325 87.4827C33.395 86.9927 29.695 88.5327 25.855 88.7227C22.345 86.3427 22.245 85.4527 25.005 80.0627C23.685 80.0027 22.435 79.9927 21.195 79.8827C19.425 79.7227 17.655 79.4127 17.255 77.2827C16.865 75.1927 17.865 73.6227 19.565 72.5227C21.445 71.3127 23.605 70.8327 25.845 70.6027C25.735 69.3427 24.615 69.2727 24.045 68.6727C22.945 67.5027 21.955 66.3327 22.355 64.5727C22.775 62.7127 24.205 61.9627 25.845 61.5227C27.125 61.1727 28.435 61.0927 29.725 61.4327C30.605 61.6527 31.305 61.6327 31.625 60.5927ZM37.115 62.2227C36.945 61.6227 37.455 60.5027 36.455 60.7127C35.435 60.9227 33.775 61.7327 33.755 62.3227C33.725 63.3827 35.135 64.2727 36.195 64.2927C37.395 64.3227 36.765 62.9027 37.115 62.2227Z" fill="#383634"/>
<path d="M82.515 81.2626C82.525 80.9526 82.525 80.6326 82.535 80.3226C87.955 82.4126 93.505 83.3526 99.295 82.2726C99.115 82.6126 98.945 82.9526 98.765 83.2826C93.105 84.5626 87.745 83.3926 82.515 81.2626Z" fill="#664F3F"/>
<path d="M98.765 83.2826C98.945 82.9426 99.115 82.6026 99.295 82.2726C100.705 81.8726 102.105 81.4626 103.515 81.0526C103.765 81.2626 104.015 81.4726 104.275 81.6926C103.245 83.3226 101.165 82.3626 99.9149 83.4626C99.5249 83.4026 99.145 83.3426 98.765 83.2826Z" fill="#383634"/>
<path d="M69.145 90.2427C67.585 91.4727 65.605 91.3427 63.825 91.8627C65.095 89.8927 67.495 90.2427 69.235 89.2527C69.205 89.5727 69.175 89.9127 69.145 90.2427Z" fill="#B59D69"/>
<path d="M69.145 90.2427C69.175 89.9127 69.205 89.5727 69.235 89.2427C71.185 89.1727 73.135 89.1327 74.895 90.2027C72.985 90.2227 71.065 90.2327 69.145 90.2427Z" fill="#664F3F"/>
<path d="M109.145 93.8126C108.345 93.5526 107.295 94.0626 106.605 92.8326C108.465 92.6426 110.595 92.2926 109.865 89.9126C109.085 87.3826 106.975 89.3326 104.925 89.2326C107.475 86.0926 111.525 83.9826 110.195 79.3026L110.135 79.3426C110.175 79.8926 110.585 80.0626 111.025 80.1926C111.805 82.1726 111.675 84.0426 110.355 85.7626C109.565 86.7926 109.515 87.7426 110.275 88.8926C111.585 90.8826 111.185 92.3126 109.145 93.8126Z" fill="#664F3F"/>
<path d="M110.195 79.3027C107.885 78.7827 106.665 80.9727 104.765 81.4827C104.705 81.1627 104.635 80.8427 104.575 80.5227C110.185 77.4527 114.555 73.2727 116.585 67.0227C116.875 67.0327 117.165 67.0427 117.465 67.0527C116.615 71.3427 113.815 74.4427 111.075 77.5827C110.585 78.0827 109.825 78.4327 110.145 79.3527L110.195 79.3027Z" fill="#664F3F"/>
<path d="M117.455 67.0427C117.165 67.0327 116.875 67.0227 116.575 67.0127C117.205 64.5527 116.975 61.8527 118.545 59.6427C118.725 59.6927 118.895 59.7427 119.075 59.7927C118.455 62.2027 118.565 64.7527 117.455 67.0427Z" fill="#B59D69"/>
<path d="M110.135 79.3426C109.815 78.4226 110.575 78.0726 111.065 77.5726C111.055 78.4426 111.035 79.3126 111.025 80.1926C110.585 80.0626 110.175 79.8926 110.135 79.3426Z" fill="#F7F1BB"/>
<path d="M119.075 59.8027C118.895 59.7527 118.725 59.7027 118.545 59.6527C118.645 59.1627 118.835 58.7327 119.295 58.4727C119.455 58.6227 119.615 58.7627 119.775 58.9127C119.545 59.2127 119.315 59.5027 119.075 59.8027Z" fill="#664F3F"/>
<path d="M104.575 80.5227C104.635 80.8427 104.705 81.1627 104.765 81.4827C104.595 81.5527 104.425 81.6227 104.255 81.6927C104.005 81.4827 103.755 81.2727 103.495 81.0527C103.865 80.8827 104.215 80.7027 104.575 80.5227Z" fill="#383634"/>
<path d="M66.8949 59.3827C65.4749 59.0327 64.1349 58.5027 62.8949 57.7227C62.6949 57.5327 62.485 57.3427 62.285 57.1527L62.3349 57.2027C62.1549 57.0227 61.9749 56.8427 61.7949 56.6627L61.845 56.7027C61.665 56.5227 61.495 56.3427 61.315 56.1527L61.3549 56.1827C60.6249 54.2527 59.4549 52.4627 59.4849 50.2927C59.7549 50.2527 60.015 50.2227 60.285 50.1827C60.615 51.1927 60.875 52.2327 61.285 53.2127C61.795 54.4027 62.335 55.4927 63.875 55.8627C67.035 56.6127 69.1449 55.5527 70.2549 52.1827C71.1849 49.3627 70.9249 46.5727 68.8249 44.3727C67.3249 42.8127 65.3249 42.3827 63.2349 43.4227C62.8849 43.2527 62.5249 43.0727 62.1749 42.9027C64.4849 40.8227 67.0249 39.7627 70.1149 41.0827C75.4049 44.6327 76.575 49.0027 73.785 54.7727C73.595 55.1727 73.1349 55.5427 73.5149 56.0627C73.3749 56.0727 73.2249 56.0827 73.0849 56.0927C71.3049 57.7027 69.2849 58.8927 66.8949 59.3827Z" fill="#F8F7F5"/>
<path d="M69.285 27.4727C71.935 27.4327 74.915 29.6927 75.555 32.1027C75.965 33.6227 75.335 34.1327 73.885 33.6327C72.105 33.0227 70.315 32.4327 68.585 31.7127C67.615 31.3127 66.065 31.2427 66.345 29.6227C66.635 27.9427 68.045 27.6027 69.285 27.4727Z" fill="#383634"/>
<path d="M102.165 47.1327C102.185 47.5127 102.205 47.8827 102.235 48.2627C100.755 48.2027 99.275 48.2027 97.805 48.0827C93.175 47.7027 88.815 50.1427 84.015 48.9927C81.065 48.2827 80.515 49.2727 80.565 52.3827C80.575 53.1527 81.1449 54.3627 79.5049 54.2327C79.1949 52.5727 78.405 50.9327 79.365 49.2427C80.915 47.7527 82.835 47.6927 84.835 47.7027C86.525 47.7127 88.255 48.1127 89.895 47.3527C93.995 47.2227 98.0749 46.7427 102.165 47.1327Z" fill="#664F3F"/>
<path d="M79.375 49.2527C78.415 50.9427 79.205 52.5827 79.515 54.2427C77.545 54.8127 77.865 57.0927 76.575 58.1727C75.565 58.1727 75.535 59.4927 74.615 59.6127C73.865 59.1227 73.155 58.5427 72.185 58.6427C72.705 58.0127 73.215 57.3827 73.735 56.7527C73.665 56.5227 73.585 56.2827 73.515 56.0527C74.655 56.2527 74.945 55.2827 75.425 54.6227C76.465 53.1827 76.675 51.4827 76.845 49.7727C77.695 49.6027 78.535 49.4327 79.375 49.2527Z" fill="#B59D69"/>
<path d="M76.855 49.7827C76.685 51.4927 76.475 53.1927 75.435 54.6327C74.955 55.2927 74.665 56.2527 73.525 56.0627C73.145 55.5327 73.595 55.1627 73.795 54.7627C76.575 48.9927 75.415 44.6127 70.125 41.0727C70.175 40.7127 70.225 40.3527 70.265 40.0027C74.295 42.0227 77.065 44.8927 76.855 49.7827Z" fill="#383634"/>
<path d="M70.255 39.9927C70.205 40.3527 70.155 40.7127 70.115 41.0627C67.025 39.7427 64.485 40.7927 62.185 42.8827C60.145 44.9327 59.275 47.4127 59.495 50.2827C59.465 52.4527 60.635 54.2427 61.365 56.1727C61.135 56.1127 60.825 56.1327 60.675 55.9927C58.295 53.7527 57.725 48.1827 59.485 44.6427C61.255 41.0827 65.445 38.7327 68.965 39.3827C69.415 39.4727 69.825 39.7927 70.255 39.9927Z" fill="#664F3F"/>
<path d="M74.615 59.6126C75.535 59.4926 75.565 58.1726 76.575 58.1726C73.645 64.4326 73.685 70.4526 78.055 76.1226C78.195 76.3026 78.175 76.5926 78.235 76.8326C77.955 76.8626 77.665 76.8926 77.375 76.9226C73.045 71.6926 72.645 65.8426 74.615 59.6126Z" fill="#664F3F"/>
<path d="M73.735 56.7526C73.215 57.3826 72.705 58.0126 72.185 58.6426L72.175 58.6526C71.885 58.8126 71.585 58.9726 71.295 59.1326C69.835 59.3326 68.395 59.8026 66.905 59.3726C69.295 58.8926 71.315 57.7026 73.095 56.0826C73.305 56.3126 73.525 56.5326 73.735 56.7526Z" fill="#664F3F"/>
<path d="M55.2549 29.2627C55.3849 28.0827 55.945 27.2927 57.395 26.6027C57.165 28.3927 56.2349 28.8427 55.2549 29.2627Z" fill="#664F3F"/>
<path d="M71.295 59.1426C71.585 58.9826 71.885 58.8226 72.175 58.6626C71.875 58.8126 71.585 58.9826 71.295 59.1426Z" fill="#B59D69"/>
<path d="M62.295 57.1427C62.495 57.3327 62.705 57.5227 62.905 57.7127C62.695 57.5227 62.495 57.3327 62.295 57.1427Z" fill="#664F3F"/>
<path d="M61.325 56.1427C61.505 56.3227 61.6749 56.5027 61.8549 56.6927C61.6749 56.5127 61.505 56.3327 61.325 56.1427Z" fill="#664F3F"/>
<path d="M78.2349 76.8326C78.1749 76.5926 78.1949 76.3026 78.0549 76.1226C73.6949 70.4526 73.6549 64.4326 76.5749 58.1726C77.8649 57.0926 77.5449 54.8126 79.5149 54.2426C81.1549 54.3726 80.5849 53.1626 80.5749 52.3926C80.5149 49.2726 81.0749 48.2926 84.0249 49.0026C88.8249 50.1526 93.185 47.7126 97.815 48.0926C99.285 48.2126 100.765 48.2126 102.245 48.2726C102.345 48.3926 102.465 48.4326 102.615 48.4026C104.145 49.2726 106.015 48.5826 107.535 49.5026C108.605 49.8526 109.675 50.1926 110.745 50.5426C110.875 50.6426 111.075 50.7226 111.115 50.8426C112.095 53.7626 114.085 53.4326 116.565 52.9326C119.665 52.3026 120.595 53.5326 119.895 56.6126C119.755 57.2426 119.515 57.8526 119.315 58.4826C118.845 58.7326 118.665 59.1726 118.565 59.6626C116.995 61.8826 117.235 64.5726 116.595 67.0326C114.565 73.2826 110.195 77.4626 104.585 80.5326C104.225 80.7126 103.875 80.8926 103.515 81.0726C102.105 81.4826 100.705 81.8826 99.2949 82.2926C93.5049 83.3826 87.955 82.4326 82.535 80.3426C81.095 79.1626 79.6649 77.9926 78.2349 76.8326ZM97.2949 79.7126C99.3549 78.3626 101.285 76.8426 102.505 74.6526C103.025 73.7126 103.655 73.1726 104.745 72.9926C105.775 72.8226 106.655 72.1526 107.755 71.9926C108.665 71.8626 109.515 71.3026 110.385 70.9226C110.325 70.7326 110.255 70.5426 110.195 70.3526C102.125 72.8326 94.2549 73.1426 86.4249 67.7726C87.7649 71.2726 88.8449 74.0726 89.9149 76.8726C91.2449 81.0726 93.7049 82.0126 97.2949 79.7126ZM113.685 58.0326C115.315 58.1926 116.675 58.1826 117.955 57.6026C118.325 57.4326 118.635 57.1126 118.555 56.6526C118.465 56.1526 118.025 56.1426 117.615 56.1126C116.065 55.9726 114.785 56.4126 113.685 58.0326ZM85.8549 54.7126C86.2249 54.3826 87.345 55.0926 87.285 54.1626C87.205 53.0626 85.9649 52.9226 85.0449 52.7226C84.3549 52.5726 83.6149 52.7626 83.6649 53.6026C83.7449 54.9126 84.8849 54.5726 85.8549 54.7126Z" fill="#F7F1BB"/>
<path d="M110.735 50.5327C109.665 50.1827 108.595 49.8427 107.525 49.4927C107.555 48.9127 107.575 48.3327 107.605 47.7527C108.545 46.9027 109.535 46.0627 108.135 44.7927C107.875 43.9327 108.385 43.2327 108.625 42.4827C110.195 41.8227 111.425 42.5227 112.595 43.4727C112.925 45.3727 112.135 47.1827 112.155 49.0727C112.155 49.9427 111.485 50.3127 110.735 50.5327Z" fill="#383634"/>
<path d="M112.595 43.4727C111.425 42.5227 110.195 41.8227 108.625 42.4827C108.835 42.1427 108.965 41.7127 109.255 41.4727C110.075 40.7827 110.875 39.1427 111.815 39.7527C112.835 40.4027 113.325 42.0227 112.595 43.4727Z" fill="#F2C6B2"/>
<path d="M108.135 44.7926C109.535 46.0626 108.545 46.9026 107.605 47.7526C106.925 46.6226 106.715 45.5626 108.135 44.7926Z" fill="#F2C6B2"/>
<path d="M27.315 49.8527C29.945 50.5227 32.635 50.2927 35.295 50.3327C36.005 50.3427 36.875 50.1427 37.275 50.9327C37.715 51.8127 37.075 52.5427 36.485 53.0527C35.015 54.3027 34.485 56.4727 32.435 57.1327C32.465 56.9727 32.505 56.8127 32.535 56.6627C32.795 55.2527 34.705 54.0427 33.935 52.8127C33.385 51.9327 31.485 51.8427 30.165 51.5027C29.045 51.2027 28.095 50.6827 27.315 49.8527Z" fill="#383634"/>
<path d="M41.055 70.5426C42.525 74.1226 43.905 77.6926 42.415 81.6526C41.205 84.8726 39.335 86.3926 35.925 86.1226C33.325 85.9126 30.905 86.6326 28.405 86.9026C27.065 87.0426 25.455 87.3526 24.605 85.8926C23.695 84.3326 24.795 83.0926 25.705 81.9226C26.005 81.5326 26.315 81.1426 26.665 80.8026C27.735 79.7626 27.245 79.2626 26.055 79.0526C24.445 78.7626 22.805 78.6126 21.225 78.2226C20.375 78.0126 19.095 78.2626 18.945 76.8326C18.815 75.5126 19.145 74.3626 20.355 73.6526C21.765 72.8226 23.185 71.9926 24.925 72.0326C25.415 72.0426 25.925 72.0326 26.385 71.9026C27.155 71.6926 28.335 71.9826 28.605 71.1926C28.975 70.1226 27.665 69.8426 27.045 69.2726C26.205 68.4926 25.235 67.8426 24.455 67.0126C22.795 65.2326 23.295 63.6526 25.675 63.1126C28.985 62.3626 31.975 63.2926 34.825 64.9226C35.745 65.4526 36.665 65.9626 37.585 66.4826C38.565 67.5126 39.535 68.5426 40.515 69.5726C40.715 69.8926 40.905 70.2026 41.105 70.5226L41.055 70.5426ZM37.715 70.7826C34.075 70.9726 32.145 71.7826 30.475 73.8026C28.615 76.0526 29.315 78.5926 32.065 79.3926C33.485 79.8026 34.935 80.0826 36.395 80.3326C37.055 80.4426 38.065 80.8026 38.165 79.7226C38.245 78.9026 37.315 78.9026 36.665 78.8226C35.205 78.6326 33.745 78.6126 32.305 78.1026C30.835 77.5826 30.605 76.8426 31.215 75.4926C32.075 73.5826 33.725 72.7226 35.545 72.1326C36.425 71.8526 37.255 71.6426 37.715 70.7826Z" fill="#F7F1BB"/>
<path d="M41.115 70.5326C40.915 70.2126 40.725 69.9026 40.525 69.5826C40.715 69.9026 40.915 70.2126 41.115 70.5326Z" fill="#383634"/>
<path d="M37.115 62.2227C36.765 62.9027 37.395 64.3127 36.195 64.2927C35.135 64.2727 33.715 63.3827 33.755 62.3227C33.775 61.7327 35.435 60.9227 36.455 60.7127C37.455 60.5127 36.945 61.6327 37.115 62.2227Z" fill="#F2C6B2"/>
<path d="M63.235 43.4127C65.335 42.3627 67.335 42.7927 68.825 44.3627C70.935 46.5627 71.1949 49.3527 70.2549 52.1727C69.1449 55.5427 67.025 56.5927 63.875 55.8527C62.335 55.4827 61.795 54.4027 61.285 53.2027C60.875 52.2327 60.615 51.1927 60.285 50.1827C60.655 49.2327 59.785 47.8427 61.305 47.2827C61.315 47.6927 61.325 48.0927 61.325 48.4927C61.315 49.3227 61.875 49.6327 62.555 49.7127C63.065 49.7727 63.515 49.5427 63.675 49.0027C63.865 48.3627 63.885 47.7727 63.365 47.2027C62.545 46.3027 61.915 47.1427 61.215 47.3527C60.755 45.4627 62.455 44.6627 63.235 43.4127Z" fill="#383634"/>
<path d="M61.3049 47.2827C59.7949 47.8427 60.6649 49.2227 60.2949 50.1827C60.0249 50.2227 59.765 50.2527 59.495 50.2927C59.275 47.4227 60.145 44.9427 62.185 42.8927C62.535 43.0727 62.895 43.2427 63.245 43.4127C62.455 44.6627 60.7649 45.4627 61.2349 47.3527L61.3049 47.2827Z" fill="#F2C6B2"/>
<path d="M73.735 56.7526C73.525 56.5326 73.305 56.3026 73.095 56.0826C73.235 56.0726 73.375 56.0626 73.525 56.0526C73.595 56.2926 73.665 56.5226 73.735 56.7526Z" fill="#383634"/>
<path d="M89.915 76.8827C88.845 74.0827 87.765 71.2827 86.425 67.7827C94.255 73.1527 102.125 72.8427 110.195 70.3627C110.255 70.5527 110.325 70.7427 110.385 70.9327C109.515 71.3027 108.665 71.8727 107.755 72.0027C106.655 72.1527 105.775 72.8227 104.745 73.0027C103.655 73.1827 103.025 73.7327 102.505 74.6627C101.285 76.8627 99.355 78.3727 97.295 79.7227C95.825 75.8827 92.375 74.5627 89.915 76.8827Z" fill="#664F3F"/>
<path d="M89.915 76.8826C92.375 74.5626 95.825 75.8826 97.295 79.7126C93.705 82.0126 91.245 81.0726 89.915 76.8826Z" fill="#B59D69"/>
<path d="M113.685 58.0327C114.785 56.4127 116.065 55.9727 117.615 56.1027C118.025 56.1327 118.465 56.1427 118.555 56.6427C118.645 57.1027 118.325 57.4327 117.955 57.5927C116.675 58.1827 115.325 58.1927 113.685 58.0327Z" fill="#383634"/>
<path d="M85.8549 54.7126C84.8849 54.5726 83.7449 54.9126 83.6649 53.6026C83.6149 52.7626 84.3549 52.5726 85.0449 52.7226C85.9649 52.9226 87.205 53.0626 87.285 54.1626C87.345 55.0926 86.2249 54.3826 85.8549 54.7126Z" fill="#664F3F"/>
<path d="M37.715 70.7827C37.255 71.6427 36.425 71.8527 35.555 72.1327C33.735 72.7227 32.085 73.5827 31.225 75.4927C30.615 76.8427 30.845 77.5827 32.315 78.1027C33.745 78.6127 35.215 78.6327 36.675 78.8227C37.315 78.9027 38.245 78.8927 38.175 79.7227C38.075 80.8027 37.055 80.4427 36.405 80.3327C34.955 80.0827 33.495 79.8027 32.075 79.3927C29.325 78.5927 28.625 76.0527 30.485 73.8027C32.145 71.7827 34.085 70.9727 37.715 70.7827Z" fill="#383634"/>
<path d="M61.225 47.3527C61.925 47.1427 62.555 46.3027 63.375 47.2027C63.885 47.7727 63.875 48.3627 63.685 49.0027C63.525 49.5527 63.065 49.7827 62.565 49.7127C61.885 49.6327 61.325 49.3227 61.335 48.4927C61.335 48.0927 61.325 47.6827 61.315 47.2827C61.305 47.2827 61.225 47.3527 61.225 47.3527Z" fill="#F8F7F5"/>
</svg>
