<svg width="267" height="266" viewBox="0 0 267 266" fill="none" xmlns="http://www.w3.org/2000/svg">
<path d="M123.823 0C130.246 0 136.675 0 143.098 0C155.045 1.55055 166.866 3.66877 178.24 7.78956C198.986 15.3005 216.867 27.1899 231.831 43.3524C242.27 54.632 250.475 67.4937 256.504 81.6011C261.097 92.3394 263.825 103.661 265.728 115.23C267.326 124.938 267.121 134.662 266.685 144.338C266.348 151.902 264.645 159.402 262.832 166.824C257.818 187.354 247.957 205.351 234.407 221.377C223.201 234.633 209.524 244.835 194.224 252.956C187.659 256.44 180.773 259.1 173.741 261.413C171.891 262.022 171.87 261.965 171.864 260.062C171.854 235.7 171.833 211.333 171.875 186.97C171.88 185.462 171.544 185.083 170.004 185.083C145.589 185.141 121.169 185.136 96.7545 185.089C95.2881 185.083 94.9674 185.488 94.9674 186.897C94.9885 211.206 94.9517 235.521 94.9201 259.831C94.9149 262.043 95.2828 262.059 92.9596 261.355C79.1991 257.171 66.7579 250.375 55.0893 242.081C36.8611 229.13 23.3529 212.205 13.2769 192.384C8.79873 183.575 5.8921 174.24 3.50057 164.695C1.83438 157.999 1.14058 151.15 0 144.37C0 137.311 0 130.257 0 123.198C1.36133 113.148 3.01701 103.162 6.04453 93.4537C11.8788 74.7472 21.6289 58.2377 34.6641 43.7361C47.3418 29.634 62.6581 18.9641 79.9087 11.1955C90.3736 6.48604 101.396 3.39545 112.765 1.66619C116.454 1.10378 120.139 0.557148 123.823 0ZM75.5303 236.273C75.5303 235.526 75.5303 234.948 75.5303 234.37C75.5303 212.689 75.5408 191.007 75.5041 169.32C75.5041 168.106 75.7774 167.723 77.0441 167.738C82.2529 167.817 87.467 167.723 92.6758 167.812C94.0424 167.838 94.2841 167.418 94.2789 166.146C94.2263 156.411 94.2211 146.672 94.2841 136.937C94.2947 135.576 93.995 135.182 92.5706 135.187C81.2595 135.245 69.9431 135.124 58.6319 135.261C56.0512 135.292 54.3114 134.53 52.5138 132.68C44.7768 124.722 36.8559 116.943 29.0085 109.085C28.5933 108.67 27.8153 108.392 28.7036 107.535C32.8717 103.519 36.9873 99.4509 41.0818 95.3564C41.7861 94.6521 42.1488 94.7151 42.8163 95.3932C49.0238 101.685 55.2785 107.929 61.4913 114.221C62.2166 114.956 62.9525 115.235 63.9774 115.235C80.0296 115.219 96.0817 115.261 112.129 115.23C113.443 115.224 113.758 115.55 113.753 116.864C113.7 133.074 113.742 149.284 113.679 165.494C113.674 166.939 114.089 167.176 115.414 167.171C127.413 167.118 139.413 167.108 151.413 167.181C152.921 167.192 153.179 166.719 153.174 165.342C153.126 149.184 153.163 133.027 153.111 116.87C153.105 115.561 153.415 115.23 154.735 115.235C170.734 115.267 186.734 115.224 202.728 115.24C203.864 115.24 204.657 114.946 205.477 114.115C211.537 107.976 217.682 101.911 223.753 95.7821C224.662 94.8623 225.214 94.6521 226.244 95.7243C229.813 99.4404 233.508 103.046 237.156 106.689C238.78 108.313 238.78 108.313 237.119 109.963C229.035 118.026 220.946 126.078 212.888 134.168C212.126 134.93 211.375 135.261 210.281 135.261C198.229 135.235 186.177 135.282 174.124 135.25C172.874 135.245 172.542 135.587 172.553 136.832C172.605 146.619 172.605 156.411 172.553 166.198C172.548 167.476 172.821 167.912 174.177 167.891C179.281 167.807 184.39 167.917 189.488 167.817C191.012 167.786 191.386 168.19 191.38 169.715C191.328 191.291 191.344 212.867 191.344 234.449C191.344 235.038 191.344 235.626 191.344 236.346C231.626 213.377 261.092 165.41 247.862 106.263C237.161 58.3849 190.056 11.9209 124.659 16.0995C74.8365 19.2847 26.6275 58.264 17.5502 113.826C8.79348 167.407 35.3368 213.393 75.5303 236.273Z" fill="#FFC501"/>
<path d="M133.379 105.732C111.54 105.732 89.6957 105.727 67.8565 105.753C66.7633 105.753 66.0064 105.432 65.2442 104.66C59.9934 99.3404 54.7268 94.0423 49.4076 88.7967C48.5613 87.961 48.5876 87.5037 49.4076 86.6995C53.0133 83.1621 56.5717 79.5775 60.1038 75.9665C60.8712 75.1781 61.3547 75.1991 62.1326 75.9928C65.8434 79.793 69.6383 83.5195 73.3649 87.3039C74.0745 88.024 74.7893 88.3604 75.8353 88.3604C114.257 88.3341 152.674 88.3341 191.097 88.3552C192.058 88.3552 192.747 88.1029 193.441 87.3986C197.204 83.5774 201.052 79.8297 204.82 76.0086C205.53 75.2885 205.971 75.2201 206.697 75.9613C210.308 79.6405 213.945 83.2988 217.624 86.9097C218.35 87.6246 218.244 87.9872 217.587 88.639C212.105 94.0948 206.644 99.5717 201.215 105.075C200.558 105.742 199.853 105.727 199.065 105.727C177.168 105.732 155.276 105.732 133.379 105.732Z" fill="#FFC501"/>
<path d="M113.705 51.1152C126.893 51.1152 139.975 51.1152 153.205 51.1152C152.816 49.6593 152.469 48.2506 152.059 46.8577C151.844 46.1271 151.949 45.8275 152.806 45.8328C157.752 45.8643 162.698 45.8696 167.638 45.8223C168.611 45.8118 168.716 46.4688 168.958 47.0838C172.337 55.6197 175.717 64.1556 179.097 72.6915C179.654 74.0949 180.206 75.493 180.842 77.1067C178.03 77.1067 175.417 77.1067 172.81 77.1067C168.968 77.1014 165.131 77.0646 161.289 77.1172C160.301 77.133 159.954 76.8334 159.759 75.861C159.391 74.0161 158.75 72.2237 158.356 70.3788C158.109 69.2067 157.436 69.1121 156.438 69.1121C141.552 69.1384 126.662 69.1331 111.776 69.1331C108.759 69.1331 108.759 69.1279 108.029 72.1291C107.703 73.4537 107.388 74.7835 107.046 76.1028C106.92 76.5916 106.872 77.1014 106.1 77.1014C99.4876 77.0751 92.8701 77.0856 86.2369 77.0856C86.1738 76.1921 86.6259 75.5719 86.8887 74.9044C90.5417 65.6851 94.2315 56.4817 97.8372 47.2467C98.2839 46.1061 98.8358 45.7908 100.003 45.8065C104.476 45.8749 108.949 45.9116 113.416 45.796C115.014 45.754 115.151 46.227 114.662 47.5463C114.252 48.6764 114.031 49.8695 113.705 51.1152Z" fill="#FFC501"/>
<g clip-path="url(#clip0_3824_3969)">
<path d="M140.292 254.654C140.292 256.296 140.251 257.939 140.307 259.577C140.333 260.373 140.102 260.675 139.28 260.639C137.997 260.583 136.709 260.573 135.43 260.645C134.568 260.691 134.429 260.331 134.434 259.572C134.47 252.949 134.491 246.322 134.46 239.694C134.455 238.765 134.794 238.627 135.615 238.616C138.978 238.575 138.978 238.55 139.974 241.763C140.359 243.011 140.677 244.284 141.596 245.803C141.596 243.488 141.637 241.609 141.575 239.735C141.544 238.858 141.827 238.575 142.699 238.627C144.224 238.719 146.185 238.159 147.171 238.909C148.115 239.628 147.438 241.691 147.443 243.165C147.479 248.555 147.438 253.95 147.474 259.341C147.479 260.285 147.315 260.66 146.242 260.66C142.171 260.665 142.181 260.706 141.267 256.738C141.103 256.009 140.841 255.306 140.62 254.592C140.513 254.607 140.405 254.633 140.292 254.654Z" fill="#FFC501"/>
<path d="M97.2054 249.628C97.2054 246.394 97.2362 243.16 97.1849 239.926C97.1695 238.976 97.3492 238.529 98.4272 238.616C99.9006 238.735 101.836 238.149 102.745 238.889C103.699 239.669 102.96 241.676 103.037 243.144C103.083 244.068 103.078 244.992 103.037 245.916C103.001 246.645 103.124 247.025 104.018 247.03C104.993 247.036 104.926 246.502 104.921 245.86C104.906 243.858 104.957 241.856 104.896 239.854C104.87 238.955 105.044 238.545 106.056 238.616C107.334 238.709 108.623 238.668 109.906 238.627C110.584 238.606 110.779 238.853 110.774 239.515C110.753 246.24 110.748 252.97 110.779 259.695C110.784 260.445 110.537 260.67 109.814 260.64C108.582 260.588 107.344 260.573 106.117 260.645C105.198 260.696 104.86 260.455 104.89 259.464C104.967 257.205 104.896 254.946 104.926 252.688C104.937 251.979 104.88 251.569 103.972 251.569C103.032 251.569 103.037 252.046 103.042 252.724C103.063 254.982 103.017 257.241 103.068 259.5C103.089 260.347 102.888 260.701 101.975 260.645C100.45 260.547 98.4888 261.112 97.5032 260.357C96.5586 259.639 97.2619 257.575 97.226 256.102C97.1695 253.945 97.2054 251.789 97.2054 249.628Z" fill="#FFC501"/>
<path d="M112.129 260.604C113.233 253.488 114.331 246.507 115.383 239.525C115.496 238.77 115.846 238.627 116.503 238.632C118.864 238.657 121.226 238.663 123.582 238.632C124.28 238.621 124.532 238.837 124.645 239.556C125.656 246.24 126.698 252.924 127.791 259.597C127.94 260.491 127.679 260.634 126.903 260.614C125.415 260.573 123.926 260.542 122.442 260.624C121.472 260.675 121.138 260.337 121.251 259.407C121.303 259.002 121.226 258.586 121.256 258.175C121.318 257.287 121.318 256.687 120.045 256.661C118.72 256.635 118.7 257.246 118.7 258.222C118.7 260.593 118.669 260.598 116.251 260.604C114.87 260.609 113.494 260.604 112.129 260.604ZM120.656 250.675C120.656 250.116 120.651 249.556 120.656 249.002C120.661 248.56 120.466 248.37 120.014 248.37C119.557 248.37 119.383 248.565 119.388 249.007C119.398 250.126 119.398 251.24 119.393 252.359C119.393 252.739 119.573 252.893 119.947 252.888C120.332 252.888 120.661 252.867 120.656 252.354C120.645 251.794 120.656 251.235 120.656 250.675Z" fill="#FFC501"/>
<path d="M148.716 249.628C148.716 247.882 148.701 246.137 148.721 244.392C148.752 241.46 150.872 238.96 153.773 238.503C156.699 238.046 159.415 238.303 161.365 240.957C162.12 241.984 162.556 243.077 162.551 244.366C162.531 247.857 162.556 251.348 162.541 254.833C162.52 258.17 159.969 260.768 156.632 260.845C155.154 260.881 153.614 261.127 152.253 260.357C150.076 259.125 148.603 257.416 148.711 254.705C148.773 253.016 148.716 251.322 148.716 249.628ZM156.642 249.52C156.642 247.472 156.606 245.418 156.658 243.37C156.678 242.544 156.386 242.318 155.6 242.333C154.897 242.348 154.609 242.518 154.615 243.283C154.645 247.482 154.64 251.687 154.62 255.886C154.615 256.615 154.861 256.861 155.595 256.871C156.396 256.882 156.673 256.625 156.658 255.814C156.612 253.725 156.642 251.62 156.642 249.52Z" fill="#FFC501"/>
<path d="M169.8 249.782C169.8 252.97 169.764 256.153 169.82 259.341C169.836 260.301 169.641 260.732 168.573 260.65C167.048 260.532 165.031 261.138 164.107 260.368C163.136 259.562 163.829 257.477 163.819 255.953C163.783 250.609 163.824 245.265 163.783 239.921C163.778 238.971 163.947 238.529 165.02 238.611C166.545 238.735 168.552 238.139 169.487 238.904C170.457 239.705 169.748 241.784 169.784 243.304C169.836 245.465 169.8 247.621 169.8 249.782Z" fill="#FFC501"/>
<path d="M161.904 237.898C159.989 237.559 158.213 238.504 156.863 236.789C156.499 236.327 155.646 236.296 155.313 236.717C153.927 238.457 152.063 237.58 150.349 237.862C152.407 233.586 157.777 231.65 161.904 237.898Z" fill="#FFC501"/>
<path d="M155.78 261.384C158.116 261.384 158.116 261.384 158.116 263.576C158.116 265.814 158.116 265.814 155.847 265.814C153.367 265.814 153.367 265.814 153.367 263.792C153.367 261.384 153.367 261.384 155.78 261.384Z" fill="#FFC501"/>
<path d="M122.95 237.641C119.598 238.735 117.997 236.409 116.241 234.243C119.742 233.308 121.051 233.986 122.95 237.641Z" fill="#FFC501"/>
</g>
<defs>
<clipPath id="clip0_3824_3969">
<rect width="73" height="31.9516" fill="white" transform="translate(97 233.863)"/>
</clipPath>
</defs>
</svg>
