<svg width="126" height="145" viewBox="0 0 126 145" fill="none" xmlns="http://www.w3.org/2000/svg">
<path d="M73.6405 134.679C73.7405 135.499 73.8305 136.309 73.9305 137.129C72.5905 142.299 70.0405 144.019 64.9505 142.499C62.5505 141.779 60.9005 142.989 58.9605 143.549C53.1405 145.249 47.4705 144.809 41.9305 142.409C41.9305 142.409 41.8205 142.489 41.8205 142.479C41.5905 142.339 41.3705 142.209 41.1405 142.069L41.1705 142.079C40.7905 141.549 40.2805 141.219 39.6505 141.089V141.099C39.4705 140.959 39.3005 140.809 39.1205 140.669L39.1005 140.539L38.9705 140.529C35.0905 135.919 35.1305 134.269 39.3705 129.959C40.4905 128.819 40.9405 127.519 41.1505 125.959C41.4205 123.959 40.5605 123.769 39.0405 124.299C36.8405 125.069 34.6605 125.919 32.3305 126.279C32.1005 126.069 31.8705 125.859 31.6405 125.659C31.8805 125.489 32.1205 125.329 32.3705 125.159L32.5205 125.119C33.1105 125.119 33.7205 125.159 34.2005 124.689V124.699C34.5505 124.559 34.8905 124.409 35.2405 124.269L35.2705 124.259C35.8705 124.249 36.4305 124.109 36.8605 123.649L37.0005 123.619C40.5705 122.579 40.8205 122.139 39.4605 119.959C38.2305 117.989 37.1905 119.119 36.0905 120.019L36.0805 119.999C35.3605 120.009 34.7805 120.319 34.3005 120.849L34.1705 120.909C32.8405 121.139 31.6505 121.699 30.5205 122.429L30.5905 122.529C29.7005 122.649 28.8005 122.729 27.9105 122.899C23.2005 123.829 18.5805 123.569 14.0305 122.039C14.2605 121.829 14.4905 121.609 14.7305 121.399C15.7705 121.579 16.8105 121.759 17.8505 121.939C18.2405 121.979 18.6305 122.029 19.0105 122.069C22.1805 122.379 25.3405 122.299 28.4505 121.579C31.5505 120.859 34.5305 119.869 36.9805 117.699C37.5905 117.159 37.9805 116.569 37.6105 115.739C37.3005 115.029 36.6605 115.179 36.1005 115.269C31.3005 116.039 27.0605 114.609 23.1105 112.029C22.9305 111.859 22.7405 111.679 22.5605 111.509L22.5805 111.529C22.4105 111.339 22.2405 111.139 22.0605 110.949C21.9405 110.799 21.8205 110.649 21.7005 110.499C21.4805 110.329 21.2705 110.159 21.0505 109.989L21.0805 110.019C20.9105 109.809 20.7405 109.599 20.5705 109.379C20.6205 109.249 20.5905 109.139 20.4905 109.049C20.5705 108.689 20.3105 108.569 20.0605 108.439C20.0905 107.889 19.9105 107.429 19.5105 107.049C19.4005 106.819 19.2805 106.589 19.1705 106.369L19.3005 106.429C19.1605 105.659 19.1605 104.839 18.5905 104.209L18.7105 104.099C18.3105 97.8687 20.9905 92.8187 24.9505 88.2987C20.3405 85.2887 19.1605 83.7887 19.2405 80.9587C20.5105 82.1387 21.8405 83.1487 23.3505 83.8187C24.6705 84.3987 26.6205 85.4387 27.4205 84.5587C28.3805 83.4987 26.6405 82.1487 25.9105 81.0387C22.9705 76.5487 23.1805 70.4387 26.4905 66.2987C26.7205 66.5487 26.9605 66.7887 27.1905 67.0387C27.1305 67.3087 27.0805 67.5687 27.0205 67.8387C24.1505 71.7787 24.5705 77.1387 28.0405 80.9787C28.1505 81.4987 28.4705 81.8487 28.9305 82.0887C29.1105 82.2487 29.2905 82.4087 29.4705 82.5687C30.0605 83.6887 31.3105 84.0387 32.1605 84.8487C32.1505 85.2287 32.1405 85.6087 32.1305 85.9987C31.7805 85.9287 31.4405 85.8687 31.0905 85.7987C30.8705 85.7287 30.6405 85.6487 30.4205 85.5787C28.7105 85.5787 27.0005 85.5787 25.2805 85.5787C25.1605 85.7687 25.0405 85.9587 24.9105 86.1487C27.3105 86.8287 27.7905 87.9087 25.9905 89.4487C25.8605 89.5787 25.7205 89.7087 25.5905 89.8387C23.6905 91.4287 22.4805 93.5287 21.5005 95.7187C18.5005 102.479 20.4905 109.379 26.2705 112.359C26.8305 112.649 28.3505 114.429 28.1405 111.669C28.0805 110.899 28.5805 110.769 29.8705 112.199C32.0105 114.559 34.4705 115.019 37.3105 113.859C38.1305 113.519 38.8605 112.949 39.6305 112.479C38.8905 114.799 39.2805 116.919 40.2805 119.149C41.6105 122.109 43.4305 125.089 42.1705 128.609L42.1005 128.789C41.5905 129.539 40.7905 130.099 40.5705 131.049L40.5805 131.029C37.5405 132.829 36.9305 134.319 38.0705 137.119L38.0505 137.079C38.0105 137.549 38.2305 137.869 38.6105 138.089L38.5905 138.059C38.7605 138.239 38.9305 138.429 39.1005 138.609L39.0705 138.579C39.2505 138.759 39.4305 138.939 39.6005 139.109L39.5705 139.089C42.6405 142.549 46.9605 142.759 51.0805 143.489C51.8405 143.629 52.5905 143.489 52.9605 142.639C53.1905 142.869 53.4005 142.799 53.6105 142.619C54.6605 142.629 55.7605 142.919 56.6805 142.109L56.6405 142.149C58.8405 141.749 60.9605 141.239 61.7205 138.709C62.7605 138.859 63.1305 139.799 63.7805 140.409C65.5705 142.099 68.0005 142.379 69.9305 141.009C71.7705 139.699 72.8205 137.919 72.2805 135.649C71.6305 132.919 69.3105 132.609 66.9905 132.419C67.0305 131.659 68.4905 131.629 67.9705 130.699C67.6505 130.129 66.8505 130.039 66.1905 129.999C63.7105 129.859 61.2405 129.799 59.0405 131.259L58.8805 131.369C58.6305 131.549 58.3905 131.729 58.1405 131.909C57.9805 131.969 57.8205 132.029 57.6605 132.089C56.7805 131.259 57.9905 130.489 57.7205 129.679C57.7805 129.459 57.8305 129.249 57.8905 129.029C58.7405 127.339 58.7705 125.669 57.7905 124.029C56.0805 119.759 52.7005 117.879 48.3305 117.359C47.5105 117.259 46.4105 117.789 46.0105 116.499C46.3005 116.369 46.5805 116.239 46.8705 116.109C51.8805 115.679 55.5805 117.859 58.1405 122.009C59.1105 123.579 60.3605 123.259 61.6105 122.909C69.7905 120.619 74.8805 115.099 77.6905 107.269C79.9805 102.049 80.1805 96.5887 79.4605 90.9687C80.0105 91.6387 80.6205 92.3487 80.6505 93.0787C80.7205 94.8487 81.8205 95.2487 83.2305 95.4387C83.2205 95.6487 83.2105 95.8587 83.2005 96.0687C81.7105 95.8287 81.0305 96.2687 81.0505 97.9687C81.0905 100.349 80.9805 102.769 80.1805 105.049C79.4305 107.209 79.6805 108.709 82.2605 109.069C82.2405 109.359 82.2105 109.639 82.1905 109.929C80.0305 109.219 78.5305 109.559 77.4005 111.899C76.1705 114.439 74.1005 116.489 72.1905 118.599C71.7705 119.059 70.9205 119.379 71.2305 120.169C71.4805 120.789 72.2605 120.539 72.8005 120.679C75.4205 121.379 78.3105 121.529 79.8205 124.339C79.6205 124.579 79.4105 124.819 79.2105 125.059C75.3005 121.979 71.0505 120.709 66.1905 122.589C64.4105 123.279 62.6305 124.009 60.7905 124.529C58.5805 125.149 59.5705 126.829 59.5905 128.039C59.6105 129.759 60.9005 128.759 61.6305 128.649C67.7505 127.769 71.3105 129.529 73.6405 134.679Z" fill="#383634"/>
<path d="M98.1605 18.4387C103.321 22.0387 106.881 26.8187 108.781 32.8187C110.201 38.8887 109.891 44.9787 109.101 51.1087C108.881 52.8387 108.371 54.7187 109.331 56.4487C109.311 57.4687 110.181 58.4987 109.301 59.5187C108.991 59.3187 108.671 59.1187 108.361 58.9187C108.291 58.7087 108.221 58.4987 108.151 58.2887C107.801 57.6287 107.561 57.0687 106.651 56.7287C105.361 56.2387 104.431 55.0887 105.001 53.4387C105.671 53.4987 106.441 53.5187 106.401 52.6187C106.351 51.4087 105.161 51.9387 104.531 51.5787C104.871 50.2087 104.711 48.7587 106.281 47.7587C109.041 45.9987 109.581 43.6587 108.451 40.3687C108.871 37.6987 108.621 35.1587 107.031 32.8787C107.071 31.7187 106.571 30.6887 106.231 29.6187L106.141 29.4587C106.031 29.2687 105.921 29.0787 105.801 28.8887C105.821 26.8987 103.721 26.9187 102.841 25.7787C102.481 23.0587 97.9105 19.3487 94.8205 19.2787L94.8705 19.3287C95.5305 18.4987 96.0405 17.5287 97.1405 17.1587C97.3805 17.1987 97.6305 17.2387 97.8705 17.2787C97.9005 17.4487 97.9205 17.6087 97.9505 17.7787C97.7905 18.0787 97.8805 18.2787 98.2005 18.3787L98.1605 18.4387Z" fill="#383634"/>
<path d="M97.8705 17.2788C97.6305 17.2388 97.3805 17.1988 97.1405 17.1588C99.1805 14.5288 100.461 11.6488 100.041 8.22876C100.261 8.23876 100.481 8.25875 100.701 8.26875C101.121 9.75875 100.921 11.2688 100.791 12.7688L100.691 12.8588L100.771 12.9688C100.641 13.2288 100.511 13.4788 100.381 13.7388C99.8205 14.7388 99.2605 15.7388 98.7005 16.7288C98.4305 16.9088 98.1505 17.0888 97.8705 17.2788Z" fill="#664F3F"/>
<path d="M98.2105 18.3688C97.8905 18.2688 97.8005 18.0788 97.9605 17.7688C98.0405 17.9788 98.1205 18.1688 98.2105 18.3688Z" fill="#FAF285"/>
<path d="M6.05053 105.569C6.29053 105.739 6.52053 105.919 6.76053 106.089C7.41053 108.289 5.64053 109.759 5.10053 111.599C4.78053 111.719 4.45053 111.849 4.13053 111.969C3.93053 110.479 4.32053 109.069 4.92053 107.599C3.25053 107.169 2.28053 107.909 1.45053 109.029C1.26053 108.809 1.06053 108.589 0.870532 108.359C0.840532 107.569 1.65053 107.259 1.86053 106.609L2.08053 106.579L2.11053 106.359C3.25053 105.229 4.69053 105.579 6.05053 105.569Z" fill="#383634"/>
<path d="M91.4605 3.07877C89.9905 1.75877 88.3505 0.758758 86.3405 0.548758C87.9705 -0.281242 89.6705 0.0087592 91.3605 0.268759C91.4605 0.418759 91.5705 0.558762 91.6705 0.708762C91.6705 0.968762 91.6705 1.21877 91.6605 1.47877C91.7005 1.89877 91.7405 2.30877 91.7805 2.72877C91.6605 2.82877 91.5605 2.94877 91.4605 3.07877Z" fill="#383634"/>
<path d="M100.701 7.27876C100.701 7.60876 100.701 7.93875 100.701 8.26875C100.481 8.25875 100.261 8.23876 100.031 8.22876C99.3105 6.18876 97.7705 4.68876 96.5205 2.99876C96.6405 2.86876 96.7705 2.73875 96.8905 2.59875C98.9505 3.51875 99.6205 5.56876 100.701 7.27876Z" fill="#B59D69"/>
<path d="M91.6605 1.46883C91.6605 1.20883 91.6605 0.958822 91.6705 0.698822C91.7705 0.578822 91.8505 0.438818 91.8905 0.288818C93.8505 0.438818 95.6205 0.968816 96.9005 2.59882C96.7805 2.72882 96.6505 2.85882 96.5305 2.98882C95.0205 2.46882 93.7305 1.23882 91.9605 1.50882C91.8705 1.46882 91.7605 1.44883 91.6605 1.46883Z" fill="#B59D69"/>
<path d="M91.8905 0.298798C91.8405 0.448798 91.7705 0.588801 91.6705 0.708801C91.5605 0.558801 91.4605 0.408799 91.3605 0.268799C91.5305 0.278799 91.7105 0.288798 91.8905 0.298798Z" fill="#664F3F"/>
<path d="M32.3305 126.289C25.1205 128.029 18.0005 128.119 11.0205 125.229C10.7305 125.109 10.3705 125.139 10.0405 125.089C7.76052 123.379 4.81052 122.479 3.47052 119.649L3.54052 119.549C4.44052 119.719 4.84052 120.539 5.47052 121.059C8.63052 123.629 12.1305 125.399 16.2805 125.609C20.6405 126.959 25.0005 126.869 29.3605 125.589C29.7705 125.599 30.1905 125.609 30.6005 125.629C30.9505 125.639 31.3005 125.659 31.6505 125.669C31.8705 125.879 32.1005 126.079 32.3305 126.289Z" fill="#664F3F"/>
<path d="M0.110524 109.109C0.370524 108.859 0.620524 108.609 0.880524 108.359C1.07052 108.579 1.27052 108.799 1.46052 109.029C0.590524 112.849 1.48052 116.319 3.54052 119.559L3.47052 119.659C3.33052 119.719 3.18052 119.739 3.02052 119.739C2.71052 119.489 2.40052 119.229 2.08052 118.979L2.11052 119.049C1.93052 118.849 1.75052 118.639 1.56052 118.439L1.65052 118.399C1.76052 117.589 1.12052 117.359 0.610524 117.019C-0.0294759 114.399 -0.109476 111.769 0.110524 109.109Z" fill="#664F3F"/>
<path d="M39.1205 140.679C39.3005 140.819 39.4705 140.969 39.6505 141.109C39.4705 140.959 39.3005 140.819 39.1205 140.679Z" fill="#FCF374"/>
<path d="M89.2205 126.799C86.8905 127.959 84.5205 128.849 81.9305 127.619C81.5505 127.439 80.8905 127.419 81.1705 126.679C81.2905 126.299 81.5205 126.239 81.9205 126.289C87.1005 126.939 91.5305 124.009 92.7605 118.949C93.1405 117.359 93.6405 116.419 95.4505 116.369C96.7005 116.339 97.7305 115.549 97.9105 114.249C98.0905 112.949 98.2105 111.499 96.4805 110.949C95.6605 110.209 94.6305 110.899 93.7605 110.549C93.8005 108.999 95.0105 109.599 95.7905 109.489C97.3005 109.279 98.9105 110.129 100.341 109.039L100.311 109.049C100.851 109.169 101.211 108.879 101.541 108.519C102.901 106.999 103.401 105.319 102.451 103.399C101.461 101.399 99.6005 101.459 97.7705 101.459C97.2805 101.459 96.7805 101.469 96.2905 101.479C96.2605 101.149 96.2305 100.819 96.2005 100.489C99.0105 99.8488 101.571 100.299 103.781 102.259C105.501 107.309 105.161 108.189 100.201 111.119C99.4305 111.579 99.1605 112.129 99.2605 112.949C99.4805 114.719 98.8805 116.209 97.7405 117.529C94.9905 117.739 93.6305 119.389 93.1805 121.969C92.8505 122.649 92.5205 123.319 92.1905 123.999L92.2705 124.009C91.9205 124.019 91.7505 124.219 91.7405 124.559L91.7805 124.529C91.5805 124.699 91.3805 124.869 91.1905 125.049C91.0505 125.199 90.9105 125.339 90.7605 125.489C90.5905 125.679 90.4205 125.879 90.2505 126.069L90.2705 126.049C90.0605 126.219 89.8605 126.389 89.6505 126.559C89.5005 126.639 89.3605 126.719 89.2205 126.799Z" fill="#383634"/>
<path d="M109.331 56.4487C110.111 56.4887 110.191 55.9287 110.381 55.3487C112.091 50.0687 118.721 48.5887 122.851 52.4787C124.311 53.8587 125.141 55.4987 125.581 57.3987C125.541 57.7287 125.501 58.0587 125.461 58.3887C124.341 60.2187 123.231 62.0387 125.281 63.9687C125.291 64.2787 125.311 64.5987 125.321 64.9087C125.071 64.9187 124.831 64.9287 124.581 64.9387C123.751 63.9187 123.531 62.4187 122.101 61.8787C121.641 61.5787 121.191 61.2787 120.731 60.9687C120.971 60.7087 121.221 60.4387 121.461 60.1787C122.961 60.7787 123.371 59.7587 123.671 58.6487C124.451 55.8087 123.231 53.5487 120.121 52.0887C117.341 50.7787 113.751 51.5487 112.241 53.7787C110.641 56.1587 111.131 57.6987 113.881 58.7787C114.421 58.9887 115.021 59.0287 115.401 59.5387C115.381 60.2187 115.371 60.8987 115.351 61.5787C114.981 62.0087 114.511 61.9587 114.031 61.8787C114.121 61.2487 115.311 60.6587 114.671 60.2387C113.591 59.5187 112.361 58.6687 110.761 59.1287C111.401 60.2087 112.341 61.0287 112.311 62.2987C112.271 62.5287 112.241 62.7487 112.201 62.9787C109.851 62.9787 110.241 60.6687 109.261 59.5087C110.181 58.4987 109.311 57.4687 109.331 56.4487Z" fill="#664F3F"/>
<path d="M124.591 64.9387C124.841 64.9287 125.081 64.9187 125.331 64.9087C126.411 68.5487 126.031 72.0387 124.211 75.3787C124.051 75.1787 123.891 74.9687 123.741 74.7687C124.601 71.5387 125.141 68.2887 124.591 64.9387Z" fill="#383634"/>
<path d="M123.741 74.7688C123.901 74.9688 124.061 75.1788 124.211 75.3788C123.441 76.7188 122.681 78.0488 121.911 79.3888C121.551 79.3988 121.371 79.6088 121.291 79.9288V79.8788C119.871 80.5588 118.941 82.0088 117.341 82.3888C117.311 82.1288 117.281 81.8588 117.251 81.5988C120.091 79.9688 122.311 77.7388 123.741 74.7688Z" fill="#664F3F"/>
<path d="M89.6505 126.559C89.8605 126.389 90.0605 126.219 90.2705 126.049C90.0605 126.219 89.8505 126.389 89.6505 126.559Z" fill="#FBF49F"/>
<path d="M90.2505 126.079C90.4205 125.889 90.5905 125.689 90.7605 125.499C90.5805 125.689 90.4205 125.879 90.2505 126.079Z" fill="#FBF49F"/>
<path d="M91.1805 125.049C91.3805 124.879 91.5805 124.709 91.7705 124.529C91.5705 124.709 91.3805 124.879 91.1805 125.049Z" fill="#FBF49F"/>
<path d="M25.6005 89.8487C25.7305 89.7187 25.8705 89.5887 26.0005 89.4587C26.9005 89.3887 27.9005 89.4987 28.0305 88.1887C28.2205 86.2587 29.5105 86.2087 30.9205 86.6187C33.2205 87.2787 35.4605 88.2487 37.8005 88.6887C41.4605 89.3887 45.0305 89.2087 47.6505 85.9387L47.6205 85.9587C50.2505 84.4087 52.8905 84.5287 55.5605 85.8687C55.6205 85.8987 55.7205 85.8587 55.8005 85.8487L55.6705 85.8387C56.1905 86.5587 56.9605 86.4487 57.7005 86.4587L57.6605 86.4387C59.7805 87.9887 62.1905 88.7387 64.7805 88.9787C64.9305 88.9687 65.0805 88.9987 65.2105 89.0687C66.3205 89.7687 67.5405 89.3587 68.7105 89.4487C70.4405 91.1987 72.6505 90.3087 74.6505 90.4487C76.3105 90.5587 77.6405 90.9987 78.1305 92.6787C79.3305 96.7487 78.6805 100.739 77.3605 104.659C76.9505 105.869 76.1905 106.099 75.0805 105.189C73.9605 104.269 72.6005 103.869 71.1205 104.139C70.5305 103.969 69.9305 103.809 69.3405 103.639C69.0205 103.219 68.6305 103.019 68.1005 103.159C67.8005 103.119 67.5005 103.089 67.1905 103.049C65.3505 102.099 63.4805 102.599 61.6005 102.879C60.6005 103.029 59.3405 103.469 59.4105 101.569C59.4405 100.729 58.6605 100.549 57.9505 100.619C57.3005 100.679 56.7205 101.069 56.9205 101.739C57.2405 102.869 56.1505 103.559 56.2205 104.579C55.5405 105.079 54.8705 105.569 54.1905 106.069C53.6105 106.059 53.2405 106.339 53.0805 106.899C52.7005 107.249 52.3205 107.589 51.9405 107.939C51.4505 108.149 51.1805 108.509 51.1705 109.059C51.1105 109.189 51.0505 109.319 50.9805 109.459C50.4505 109.659 50.1905 110.029 50.2005 110.599C50.1505 110.729 50.0905 110.859 50.0305 110.989C49.0305 111.399 48.6805 112.159 48.8505 113.199C48.6405 113.699 48.4405 114.199 48.2305 114.709C48.0705 114.849 47.9005 114.999 47.7405 115.139C47.4905 115.249 47.2305 115.349 46.9805 115.459C46.3705 115.569 45.5505 115.499 46.0205 116.559C46.4205 117.839 47.5205 117.319 48.3405 117.419C52.7005 117.939 56.0905 119.809 57.8005 124.089C58.0905 125.749 58.2305 127.419 57.9005 129.089C57.8405 129.309 57.7905 129.519 57.7305 129.739C56.0205 133.669 51.9705 133.929 48.4605 135.339C51.1405 136.739 53.6305 135.809 57.6805 132.149C57.8405 132.089 58.0005 132.029 58.1605 131.969C58.8405 132.379 58.8405 131.869 58.9005 131.429L59.0605 131.319C61.7805 131.219 64.6605 130.069 67.0105 132.479C69.3205 132.659 71.6405 132.969 72.3005 135.709C72.8405 137.979 71.7905 139.769 69.9505 141.069C68.0205 142.439 65.5905 142.169 63.8005 140.469C63.1505 139.859 62.7705 138.909 61.7405 138.769C61.5205 138.499 61.1105 138.249 60.9205 138.529C59.8305 140.149 57.9405 140.819 56.6605 142.199L56.7005 142.159C55.6505 142.199 54.5605 141.929 53.6305 142.669C53.4205 142.859 53.2105 142.919 52.9805 142.689C50.3105 142.789 47.7605 142.229 45.2605 141.379C43.3405 140.719 41.7605 139.179 39.5905 139.139L39.6205 139.159C39.4405 138.979 39.2605 138.799 39.0905 138.629L39.1205 138.659C38.9505 138.479 38.7805 138.289 38.6105 138.109L38.6305 138.139C38.6005 137.719 38.4605 137.349 38.0705 137.129L38.0905 137.169C37.5305 134.559 39.9405 133.189 40.6005 131.079L40.5905 131.099C41.9805 130.939 42.1605 129.969 42.1205 128.839L42.1905 128.659C43.1905 128.249 43.0505 127.369 43.1005 126.549C43.2405 124.089 42.7505 121.609 41.6905 119.539C40.3605 116.929 39.8405 114.559 41.0905 111.889C41.1805 111.779 41.2705 111.669 41.3605 111.559C43.0605 111.309 43.4405 109.839 43.0005 108.769C41.8105 105.909 42.8205 103.079 42.6205 100.249C42.6105 100.099 42.6705 100.019 42.8205 99.9887C43.3405 99.8687 43.5705 99.5088 43.6505 99.0088L43.6405 99.0187C43.8105 98.8387 43.9905 98.6587 44.1605 98.4787L44.1105 98.5287C44.2905 98.3387 44.4705 98.1487 44.6505 97.9587L44.5605 97.9987C45.0905 97.8287 45.4705 97.4987 45.6505 96.9687L45.6205 97.0088C45.8005 96.8288 45.9805 96.6487 46.1605 96.4687L46.1205 96.5187C46.3105 96.3487 46.5005 96.1788 46.6905 96.0088L46.6505 96.0287C47.1105 95.9587 47.4805 95.7487 47.6805 95.3087C47.9605 95.0587 48.2405 94.8087 48.5205 94.5587C49.1005 94.5287 49.7105 94.5787 50.2605 94.4487C51.1905 94.2187 52.4405 94.2387 52.5405 92.9287C52.6505 91.4487 51.3205 91.5687 50.4105 91.3687C47.4405 90.7287 44.3605 91.5087 41.4505 90.9587C38.5005 90.4087 37.1305 91.6687 36.1505 94.0487L36.1705 94.0287C35.7105 93.9887 35.3405 94.1187 35.1305 94.5587L35.1805 94.5287C34.9305 94.5187 34.6505 94.4387 34.4405 94.5187C33.2605 94.9687 31.0805 94.3587 31.3205 96.4287C31.5305 98.3287 33.4705 97.2587 34.6405 97.5487L34.6205 97.5388C35.4005 98.9588 35.9805 100.389 34.8905 101.929C33.8105 103.459 32.2905 103.159 30.8205 102.869C29.3605 102.589 28.2105 102.879 27.3905 104.199C26.8805 105.019 26.1405 105.589 25.1305 105.509C22.4405 105.299 20.7405 103.019 21.2505 100.299C21.4805 99.0887 21.9405 97.9087 22.2405 96.7287C22.8505 94.1387 25.3105 92.5387 25.6005 89.8487Z" fill="#F5E721"/>
<path d="M46.9905 115.439C47.2405 115.329 47.5005 115.229 47.7505 115.119C47.9105 114.979 48.0805 114.829 48.2505 114.689C48.4605 114.189 48.6605 113.689 48.8605 113.179C49.5905 112.619 50.0005 111.899 50.0405 110.969C50.1005 110.839 50.1605 110.709 50.2105 110.579C50.7705 110.399 51.0705 110.049 50.9905 109.439C51.0505 109.309 51.1205 109.179 51.1805 109.039C51.7705 108.899 52.0705 108.559 51.9505 107.919C52.3305 107.569 52.7105 107.229 53.0905 106.889C53.7105 106.939 54.0605 106.649 54.2005 106.059C54.8805 105.559 55.5505 105.069 56.2305 104.569C59.8905 104.059 63.5405 103.549 67.2005 103.039C67.5005 103.079 67.8005 103.109 68.1105 103.149C68.3805 103.669 68.7705 103.909 69.3505 103.629C69.9405 103.799 70.5405 103.959 71.1305 104.129C73.2805 105.279 74.6205 108.109 77.7105 107.299C74.9005 115.139 69.8205 120.649 61.6305 122.939C60.3805 123.289 59.1305 123.609 58.1605 122.039C55.5905 117.899 51.9005 115.719 46.8905 116.139C46.9305 115.909 46.9605 115.669 46.9905 115.439Z" fill="#F7F1BB"/>
<path d="M96.2905 101.499C96.7805 101.489 97.2805 101.489 97.7705 101.479C99.6005 101.469 101.461 101.419 102.451 103.419C103.401 105.339 102.901 107.019 101.541 108.539C101.061 108.549 100.601 108.619 100.311 109.069L100.341 109.059C99.0205 109.039 97.7305 108.799 96.4305 108.579C94.7205 108.289 92.8605 108.139 92.2105 110.459C91.3205 110.749 91.3205 111.289 91.8205 111.939C92.2905 112.569 92.8605 112.299 93.3305 111.989C94.2905 111.339 95.2805 110.819 96.4905 110.969C98.2205 111.519 98.1105 112.969 97.9205 114.269C97.7405 115.569 96.7105 116.349 95.4605 116.389C93.6605 116.439 93.1605 117.379 92.7705 118.969C91.5505 124.029 87.1105 126.959 81.9305 126.309C81.5405 126.259 81.3005 126.319 81.1805 126.699L81.2205 126.629C81.2405 126.459 81.6705 126.329 81.3005 126.139C81.1505 126.059 80.9205 126.119 80.7205 126.119V126.129C80.9605 125.999 81.0005 125.829 80.8305 125.609C80.5105 125.209 80.1805 124.799 79.8605 124.399C78.3505 121.589 75.4605 121.429 72.8405 120.739C72.3005 120.599 71.5205 120.849 71.2705 120.229C70.9605 119.439 71.8105 119.119 72.2305 118.659C74.1405 116.559 76.2105 114.509 77.4405 111.959C78.5705 109.619 80.0705 109.279 82.2305 109.989C83.8505 110.939 85.2705 112.139 86.7705 113.679C86.7705 112.939 86.9405 112.389 86.7405 112.159C85.2005 110.369 86.4605 109.159 87.4805 107.829C89.7805 104.799 92.7305 102.719 96.2905 101.499Z" fill="#F5E721"/>
<path d="M25.6005 89.8488C25.3105 92.5288 22.8605 94.1287 22.2105 96.6987C21.9105 97.8787 21.4505 99.0487 21.2205 100.269C20.7005 102.989 22.4105 105.269 25.1005 105.479C26.1105 105.559 26.8505 104.989 27.3605 104.169C28.1805 102.859 29.3305 102.559 30.7905 102.839C32.2605 103.119 33.7805 103.429 34.8605 101.899C35.9505 100.359 35.3605 98.9288 34.5905 97.5088C34.9605 97.4888 35.3205 97.4588 35.6905 97.4388C35.4405 97.8588 35.7505 97.9687 36.0405 98.0787C36.9505 99.9287 36.7605 101.609 35.2205 103.049C33.6705 104.499 31.7605 103.679 29.3005 103.619C32.4605 105.179 34.3205 107.839 37.8705 106.559C39.5005 105.969 40.5805 107.319 40.6805 109.169C40.7405 110.209 40.4205 111.119 40.1005 112.059L40.1605 112.009C39.9705 112.199 39.7905 112.389 39.6005 112.569L39.6505 112.509C38.8805 112.979 38.1505 113.549 37.3305 113.889C34.4905 115.049 32.0305 114.589 29.8905 112.229C28.6005 110.799 28.1005 110.929 28.1605 111.699C28.3705 114.449 26.8505 112.679 26.2905 112.389C20.5105 109.409 18.5205 102.509 21.5205 95.7487C22.4805 93.5387 23.7005 91.4388 25.6005 89.8488ZM21.7005 105.109C22.0005 106.459 21.8605 107.679 23.1505 108.249C23.4505 108.379 23.8505 108.069 23.8505 107.709C23.8805 106.429 23.2905 105.579 21.7005 105.109Z" fill="#F8F167"/>
<path d="M3.53052 119.549C1.47052 116.309 0.580524 112.839 1.45052 109.019C2.28052 107.909 3.26052 107.159 4.92052 107.589C4.32052 109.059 3.92052 110.469 4.13052 111.959C3.57052 114.159 4.71052 115.769 6.01052 117.319C6.19052 117.559 6.37052 117.799 6.54052 118.049L6.53052 118.029C6.70052 118.199 6.87052 118.369 7.05052 118.549L7.04052 118.529C7.24052 119.289 7.75052 119.599 8.51052 119.569L8.53052 119.579C8.71052 119.729 8.88052 119.879 9.06052 120.029C9.23052 120.199 9.41052 120.369 9.58052 120.529L9.55052 120.509C9.76052 120.929 10.1105 121.079 10.5705 121.029L10.5505 121.019C10.8905 121.609 11.4305 121.649 12.0205 121.569L12.0405 121.579C12.2205 121.729 12.4005 121.879 12.5805 122.029L12.5505 122.009C18.4905 124.839 24.5005 125.589 30.6105 122.519L30.5405 122.419C32.0705 122.669 33.2805 122.149 34.1905 120.899L34.3205 120.839C35.1105 120.959 35.8105 120.909 36.0905 119.989L36.1005 120.009C36.9305 120.129 38.0405 119.519 38.4905 120.659C38.8605 121.599 37.8705 122.069 37.4605 122.739C37.2905 123.019 37.1605 123.319 37.0105 123.609L36.8505 123.659C36.2005 123.549 35.6205 123.609 35.2605 124.269L35.2305 124.279C34.7505 124.099 34.4105 124.259 34.1905 124.709V124.699C33.5405 124.499 32.9905 124.659 32.5205 125.129L32.3705 125.169C31.7005 125.019 31.0905 125.109 30.6005 125.629C30.1905 125.619 29.7705 125.609 29.3605 125.589C25.0005 125.599 20.6405 125.599 16.2805 125.609C12.1305 125.399 8.63052 123.629 5.47052 121.059C4.83052 120.539 4.43052 119.719 3.53052 119.549Z" fill="#F5E721"/>
<path d="M77.7105 107.299C74.6205 108.109 73.2805 105.289 71.1305 104.129C72.6105 103.869 73.9705 104.259 75.0905 105.179C76.2005 106.089 76.9605 105.849 77.3705 104.649C78.6905 100.739 79.3405 96.7388 78.1405 92.6688C77.6505 90.9888 76.3205 90.5488 74.6605 90.4388C72.6605 90.3088 70.4605 91.1988 68.7205 89.4388L68.8705 89.2888C73.6805 89.6688 78.4905 89.7888 83.3105 89.3988C82.7305 90.4688 80.9105 90.6188 81.5505 92.6788C82.1405 94.6088 83.3805 94.7388 84.8305 95.0488C85.2005 95.1288 85.5105 95.4688 85.8405 95.6888C84.9805 95.6088 84.1205 95.5288 83.2605 95.4488C81.8605 95.2588 80.7605 94.8588 80.6805 93.0888C80.6505 92.3588 80.0405 91.6488 79.4905 90.9788C80.2005 96.6188 80.0005 102.079 77.7105 107.299Z" fill="#F8F167"/>
<path d="M65.2205 89.0687C65.0805 88.9987 64.9405 88.9687 64.7905 88.9787C62.6705 87.4287 60.0705 87.2087 57.6705 86.4387L57.7105 86.4587C57.1205 85.9687 56.5005 85.5787 55.6805 85.8387L55.8105 85.8487C52.3105 82.6387 51.6105 82.5987 48.1105 85.4087C47.9205 85.5587 47.7905 85.7687 47.6305 85.9587L47.6605 85.9387C42.5005 88.6187 37.3205 88.4487 32.1405 86.0087C32.1505 85.6287 32.1605 85.2487 32.1705 84.8587C32.7005 85.0787 33.2205 85.3487 33.7705 85.5087C38.2205 86.8787 42.6205 87.6887 46.7005 84.4587L46.6605 84.4787C47.1005 84.4987 47.4605 84.3687 47.6805 83.9587L47.6605 83.9687C48.0005 83.7787 48.3405 83.5887 48.6805 83.3987C48.8505 83.2887 49.0305 83.1787 49.2005 83.0687C50.4705 82.7987 50.9205 80.7087 52.6705 81.4987L52.6405 81.4687C53.1205 82.2487 53.7705 82.7887 54.6705 82.9987L54.6505 82.9587C54.8405 83.1287 55.0205 83.2987 55.2105 83.4687L55.1705 83.4487C55.5805 83.9287 56.1005 84.0787 56.7105 83.9987L56.6405 83.9787C56.8905 84.3787 57.2805 84.4787 57.7105 84.4887L57.6605 84.4687C57.8805 84.8987 58.2605 85.0087 58.7005 84.9887L58.6705 84.9687C59.3305 85.7087 60.2205 85.9087 61.1505 86.0187C63.4605 87.5087 66.3605 87.0787 68.7405 88.3387C68.7205 88.5687 68.7005 88.7887 68.6805 89.0187C67.5205 89.0387 66.3705 89.0487 65.2205 89.0687Z" fill="#664F3F"/>
<path d="M32.1305 86.0188C37.3205 88.4588 42.4905 88.6287 47.6505 85.9487C45.0205 89.2087 41.4605 89.3987 37.8005 88.6987C35.4605 88.2487 33.2205 87.2888 30.9205 86.6288C29.5005 86.2188 28.2205 86.2687 28.0305 88.1987C27.9005 89.5087 26.9005 89.3988 26.0005 89.4688C27.8005 87.9288 27.3205 86.8487 24.9205 86.1687C25.0405 85.9787 25.1605 85.7888 25.2905 85.5988C27.0005 85.5988 28.7105 85.5988 30.4305 85.5988C30.6505 85.6688 30.8805 85.7488 31.1005 85.8188C31.4405 85.8788 31.7805 85.9488 32.1305 86.0188Z" fill="#F8F167"/>
<path d="M27.0305 67.8588C27.0905 67.5888 27.1405 67.3288 27.2005 67.0588C28.2105 66.2188 29.1905 65.3388 30.2305 64.5388C33.6905 61.8888 37.7405 62.5188 41.6805 62.4988C43.8305 63.2988 45.9805 64.1088 48.1305 64.9088L48.1605 64.9288C48.2705 65.3688 48.6605 65.4188 49.0005 65.5388C49.0805 67.2088 48.2105 66.9888 47.3705 66.2388C46.2405 65.2188 45.0505 64.2888 43.5805 63.9588C38.4205 62.7888 33.4005 62.5688 29.1505 66.5488C28.5505 67.1088 28.0305 67.7888 27.1605 67.9788L27.0305 67.8588Z" fill="#F8F167"/>
<path d="M41.6805 62.4987C37.7405 62.5087 33.6905 61.8887 30.2305 64.5387C29.1905 65.3387 28.2105 66.2187 27.2005 67.0587C26.9705 66.8087 26.7305 66.5687 26.5005 66.3187C26.7105 65.9387 26.9105 65.5587 27.1205 65.1787C28.1305 64.4687 29.0505 63.3687 30.1505 63.1287C34.1905 62.2687 34.9205 59.9187 33.6305 56.4187C33.8805 56.1787 34.1305 55.9487 34.3805 55.7087C34.6105 56.2887 34.8405 56.8687 35.0705 57.4487C35.0205 57.5987 35.0405 57.7387 35.1405 57.8587C35.1905 59.2987 35.4505 60.7688 37.0105 61.1888C38.5405 61.6088 40.1905 61.6288 41.7805 61.8288C41.7405 62.0488 41.7105 62.2787 41.6805 62.4987Z" fill="#664F3F"/>
<path d="M82.2905 109.109C83.9905 109.889 85.1105 109.429 86.1805 107.819C88.5905 104.189 91.9105 101.639 96.2105 100.519C96.2405 100.849 96.2705 101.179 96.3005 101.509C92.7305 102.729 89.7905 104.819 87.4805 107.819C86.4505 109.159 85.2005 110.369 86.7405 112.149C86.9405 112.379 86.7705 112.929 86.7705 113.669C85.2705 112.129 83.8505 110.929 82.2305 109.979C82.2405 109.679 82.2705 109.389 82.2905 109.109Z" fill="#664F3F"/>
<path d="M83.2505 95.4687C84.1105 95.5487 84.9705 95.6287 85.8305 95.6987C86.1305 95.7287 86.4405 95.7687 86.7405 95.7987C88.4405 95.9287 90.1505 96.1187 91.8005 95.4887C95.3405 94.5387 98.7105 94.8587 102.121 96.3487C103.971 97.1587 102.671 95.6487 102.701 95.1287C102.961 95.0687 103.221 94.9987 103.481 94.9387C103.971 95.5387 104.331 96.1887 104.301 96.9987C103.361 97.0087 102.411 97.0187 101.471 97.0287C98.6705 95.1687 95.6905 96.0487 92.8105 96.6387C89.5405 97.3087 86.3805 96.9587 83.2305 96.0987C83.2405 95.8887 83.2405 95.6787 83.2505 95.4687Z" fill="#664F3F"/>
<path d="M6.02053 117.329C4.71053 115.779 3.58053 114.169 4.14053 111.969C4.46053 111.849 4.79053 111.719 5.11053 111.599C5.17053 116.149 8.26053 118.319 11.8105 120.109C12.7705 120.589 13.7705 120.979 14.7505 121.419C14.5205 121.629 14.2905 121.849 14.0505 122.059C13.5505 122.049 13.0505 122.039 12.5505 122.039L12.5805 122.059C12.5905 121.679 12.3105 121.649 12.0405 121.609L12.0205 121.599C11.6205 121.169 11.1305 120.989 10.5505 121.049L10.5705 121.059C10.3905 120.579 10.0605 120.389 9.55053 120.539L9.58053 120.559C9.62053 120.169 9.38053 120.069 9.06053 120.059C8.88053 119.909 8.71053 119.759 8.53053 119.609L8.51053 119.599C8.14053 119.079 7.71053 118.659 7.04053 118.559L7.05053 118.579C7.03053 118.259 6.85053 118.089 6.53053 118.059L6.54053 118.079C6.37053 117.809 6.19053 117.569 6.02053 117.329Z" fill="#664F3F"/>
<path d="M57.6905 132.129C53.6505 135.789 51.1605 136.719 48.4705 135.319C51.9805 133.909 56.0405 133.649 57.7405 129.719C58.0105 130.519 56.8105 131.299 57.6905 132.129Z" fill="#664F3F"/>
<path d="M41.0805 111.869C39.8305 114.539 40.3505 116.909 41.6805 119.519C42.7405 121.599 43.2305 124.069 43.0905 126.529C43.0405 127.349 43.1805 128.239 42.1805 128.639C43.4305 125.119 41.6205 122.139 40.2905 119.179C39.2905 116.949 38.9005 114.829 39.6405 112.509L39.5905 112.569C39.9505 112.549 40.1705 112.399 40.1505 112.009L40.0905 112.059C40.4305 111.999 40.7505 111.929 41.0805 111.869Z" fill="#F8F167"/>
<path d="M12.5505 122.029C13.0505 122.039 13.5505 122.049 14.0505 122.049C18.6005 123.579 23.2305 123.829 27.9305 122.909C28.8105 122.739 29.7105 122.659 30.6105 122.539C24.5005 125.609 18.5005 124.859 12.5505 122.029Z" fill="#F8F167"/>
<path d="M46.6805 84.4687C42.6105 87.6987 38.2005 86.8887 33.7505 85.5187C33.2005 85.3487 32.6905 85.0887 32.1505 84.8687C31.3005 84.0587 30.0505 83.7087 29.4605 82.5887L29.6105 82.4287C35.0105 85.6187 40.5705 87.2887 46.6805 84.4687Z" fill="#F8F167"/>
<path d="M39.6005 139.119C41.7705 139.159 43.3405 140.699 45.2705 141.359C47.7705 142.219 50.3205 142.779 52.9905 142.669C52.6205 143.509 51.8805 143.649 51.1105 143.519C47.0005 142.789 42.6705 142.579 39.6005 139.119Z" fill="#F8F167"/>
<path d="M28.0505 80.9888C24.5805 77.1488 24.1605 71.7888 27.0305 67.8488L27.1605 67.9588C26.3105 70.1988 25.9405 72.4788 25.9705 74.9088C26.0105 77.2388 28.0305 78.6488 28.2405 80.8088C28.1805 80.8788 28.1105 80.9388 28.0505 80.9888Z" fill="#F8F167"/>
<path d="M67.0205 132.469C64.6605 130.059 61.7905 131.209 59.0705 131.309C61.2705 129.849 63.7405 129.909 66.2205 130.049C66.8805 130.089 67.6805 130.179 68.0005 130.749C68.5205 131.669 67.0605 131.709 67.0205 132.469Z" fill="#B59D69"/>
<path d="M37.0005 123.619C37.1505 123.329 37.2805 123.029 37.4505 122.749C37.8605 122.079 38.8505 121.609 38.4805 120.669C38.0205 119.529 36.9205 120.129 36.0905 120.019C37.2005 119.119 38.2305 117.989 39.4605 119.959C40.8305 122.139 40.5705 122.569 37.0005 123.619Z" fill="#B59D69"/>
<path d="M56.6705 142.179C57.9505 140.799 59.8405 140.129 60.9305 138.509C61.1205 138.229 61.5205 138.469 61.7505 138.749C60.9905 141.269 58.8705 141.789 56.6705 142.179Z" fill="#F8F167"/>
<path d="M40.6105 131.059C39.9605 133.169 37.5405 134.539 38.1005 137.149C36.9505 134.339 37.5705 132.849 40.6105 131.059Z" fill="#F8F167"/>
<path d="M57.9105 129.069C58.2305 127.389 58.0905 125.729 57.8105 124.069C58.7905 125.709 58.7705 127.379 57.9105 129.069Z" fill="#664F3F"/>
<path d="M34.1805 120.909C33.2805 122.169 32.0705 122.689 30.5305 122.429C31.6605 121.699 32.8505 121.139 34.1805 120.909Z" fill="#B59D69"/>
<path d="M42.1205 128.819C42.1605 129.949 41.9905 130.919 40.5905 131.079C40.8105 130.129 41.6105 129.569 42.1205 128.819Z" fill="#F8F167"/>
<path d="M53.6405 142.649C54.5705 141.909 55.6705 142.189 56.7105 142.139C55.7905 142.959 54.6905 142.669 53.6405 142.649Z" fill="#F8F167"/>
<path d="M79.8505 124.379C80.1705 124.779 80.5005 125.189 80.8205 125.589C80.5905 125.789 80.3705 125.979 80.1405 126.179C79.8405 125.819 79.5405 125.459 79.2405 125.099C79.4405 124.859 79.6405 124.619 79.8505 124.379Z" fill="#664F3F"/>
<path d="M36.0805 119.999C35.7905 120.919 35.0905 120.969 34.3105 120.849C34.7805 120.319 35.3605 120.009 36.0805 119.999Z" fill="#B59D69"/>
<path d="M46.9905 115.439C46.9605 115.679 46.9205 115.909 46.8905 116.149C46.6005 116.279 46.3105 116.409 46.0305 116.539C45.5605 115.479 46.3805 115.549 46.9905 115.439Z" fill="#F8F167"/>
<path d="M28.9305 82.1087C28.4805 81.8687 28.1605 81.5087 28.0405 80.9987C28.1105 80.9387 28.1705 80.8787 28.2305 80.8287C28.7105 81.0487 29.0405 81.3887 29.1205 81.9287C29.0605 81.9887 29.0005 82.0487 28.9305 82.1087Z" fill="#F8F167"/>
<path d="M30.5905 125.629C31.0805 125.109 31.6905 125.019 32.3605 125.169C32.1205 125.339 31.8805 125.499 31.6405 125.669C31.2905 125.649 30.9405 125.639 30.5905 125.629Z" fill="#B59D69"/>
<path d="M58.9005 131.409C58.8405 131.849 58.8405 132.359 58.1605 131.949C58.4105 131.769 58.6605 131.589 58.9005 131.409Z" fill="#B59D69"/>
<path d="M35.2505 124.269C35.6105 123.619 36.1905 123.549 36.8405 123.659C36.4105 124.119 35.8505 124.259 35.2505 124.269Z" fill="#B59D69"/>
<path d="M32.5105 125.129C32.9905 124.669 33.5405 124.499 34.1805 124.699C33.7105 125.159 33.1005 125.129 32.5105 125.129Z" fill="#B59D69"/>
<path d="M34.1805 124.709C34.4005 124.269 34.7405 124.109 35.2205 124.279C34.8705 124.429 34.5305 124.569 34.1805 124.709Z" fill="#B59D69"/>
<path d="M38.0805 137.099C38.4705 137.319 38.6105 137.689 38.6405 138.109C38.2605 137.889 38.0405 137.569 38.0805 137.099Z" fill="#F8F167"/>
<path d="M39.1005 138.609C39.2805 138.789 39.4605 138.969 39.6305 139.139C39.4505 138.959 39.2805 138.789 39.1005 138.609Z" fill="#F8F167"/>
<path d="M38.6305 138.089C38.8005 138.269 38.9705 138.459 39.1405 138.639C38.9605 138.459 38.7905 138.279 38.6305 138.089Z" fill="#F8F167"/>
<path d="M23.1305 112.029C22.9505 111.859 22.7605 111.679 22.5805 111.509C22.7605 111.689 22.9505 111.859 23.1305 112.029Z" fill="#FBF49F"/>
<path d="M22.6005 111.539C22.4305 111.349 22.2605 111.149 22.0805 110.959C22.2605 111.149 22.4305 111.339 22.6005 111.539Z" fill="#FBF49F"/>
<path d="M20.5105 109.069C20.3705 108.869 20.2205 108.669 20.0805 108.459C20.3305 108.579 20.5905 108.709 20.5105 109.069Z" fill="#FBF49F"/>
<path d="M19.5305 107.059C19.4205 106.829 19.3005 106.599 19.1905 106.379C19.3005 106.609 19.4105 106.839 19.5305 107.059Z" fill="#FBF49F"/>
<path d="M31.0905 85.8188C30.8705 85.7488 30.6405 85.6688 30.4205 85.5988C30.6405 85.6688 30.8705 85.7388 31.0905 85.8188Z" fill="#664F3F"/>
<path d="M29.4705 82.5887C29.2905 82.4287 29.1105 82.2687 28.9305 82.1087C29.0005 82.0487 29.0605 81.9887 29.1305 81.9287C29.2905 82.0987 29.4605 82.2587 29.6205 82.4287C29.6205 82.4187 29.4705 82.5887 29.4705 82.5887Z" fill="#F8F167"/>
<path d="M29.6205 82.4187C29.4605 82.2487 29.2905 82.0887 29.1305 81.9187C29.0505 81.3787 28.7205 81.0287 28.2405 80.8187C28.0305 78.6587 26.0005 77.2487 25.9705 74.9187C25.9305 72.4887 26.3105 70.2087 27.1605 67.9687C28.0305 67.7787 28.5505 67.0987 29.1505 66.5387C33.4005 62.5687 38.4205 62.7787 43.5805 63.9487C45.0505 64.2787 46.2405 65.2087 47.3705 66.2287C48.2005 66.9887 49.0705 67.1987 49.0005 65.5287C48.8605 65.1287 48.5905 64.9087 48.1605 64.9187L48.1305 64.8987C48.1805 63.4187 46.5905 63.6087 45.9905 62.7987C45.7105 62.6687 45.4405 62.5287 45.1605 62.3987L45.1305 62.3787C44.1705 60.3087 42.1205 60.6887 40.4505 60.4387C38.3605 60.1187 36.2705 60.0287 35.1405 57.8287C35.0405 57.7087 35.0205 57.5687 35.0705 57.4187C34.1705 52.1687 34.4805 47.0187 36.0805 41.9187C36.7105 39.8987 38.1905 38.0787 37.6105 35.7587L37.5905 35.7987C38.7305 35.5187 38.6005 34.5987 38.6305 33.7587L38.6105 33.7987C41.5905 31.6387 43.3405 28.5887 44.6705 25.2587L44.6505 25.2887C44.8205 25.1087 45.0005 24.9287 45.1705 24.7487L45.1305 24.7787C46.0305 24.7987 46.6705 24.3387 47.3305 23.7687C57.3805 15.1587 68.9105 12.0287 81.9505 14.4687C83.7105 14.7987 85.5605 15.1987 87.2805 14.1687L87.2105 14.1987C87.8105 14.2687 88.3805 14.2687 88.7705 13.6987L88.7205 13.7087C89.5205 13.7987 90.1205 13.5987 90.2705 12.6987L90.2305 12.7287C90.8405 12.6587 91.2405 12.3687 91.2705 11.7087L91.2505 11.7387C91.4305 11.5587 91.6005 11.3887 91.7805 11.2087L91.7505 11.2387C91.9205 11.0587 92.1005 10.8787 92.2705 10.6987L92.2405 10.7387C92.6305 10.4887 92.7605 10.1187 92.7605 9.6887L92.7405 9.73869C93.3105 9.24869 93.2305 8.57869 93.2305 7.92869C93.1505 6.30869 93.1405 4.66869 92.2905 3.19869C92.3405 3.01869 92.3005 2.86869 92.1805 2.72869C92.1105 2.31869 92.0305 1.89869 91.9605 1.48869C93.7305 1.21869 95.0205 2.4487 96.5305 2.9687C97.7805 4.6587 99.3105 6.15869 100.031 8.19869C100.451 11.6287 99.1805 14.5087 97.1305 17.1287C96.0305 17.4887 95.5105 18.4687 94.8505 19.2987C94.7305 19.3687 94.6205 19.4487 94.5005 19.5187C94.6005 19.4287 94.7005 19.3387 94.8105 19.2487C97.9005 19.3287 102.471 23.0287 102.831 25.7487C99.9805 25.9887 97.7205 27.3887 95.7305 29.3187C94.6505 29.2387 93.8405 29.8287 92.9805 30.3487C91.8005 31.0587 90.6105 31.3487 89.1805 30.9087C83.7805 29.2487 78.4505 29.7887 73.4305 32.1487C71.4705 33.0687 68.8505 33.6287 68.2705 36.4187L68.2905 36.3087C68.1005 36.4987 67.9005 36.6787 67.7105 36.8687H67.8205C66.4505 36.6787 65.6405 37.5287 64.9705 38.4987C60.8805 44.4287 61.0205 50.7687 63.2805 57.2587C63.5705 58.1087 64.0605 59.1587 65.3005 59.1987C66.9205 61.0787 68.3805 63.1187 70.6605 64.2887C71.8205 64.7587 72.9805 65.2387 74.1405 65.7087C74.7805 66.8187 75.8405 66.8887 76.9705 66.8987C78.5505 66.8987 80.1505 66.8887 81.7205 67.0387C86.1405 67.4887 90.3705 66.9687 94.3105 64.7687C97.2905 63.0987 100.511 62.8887 104.411 62.9387C102.681 64.4887 102.911 65.7887 104.021 66.7287C104.881 67.4587 105.261 66.4187 105.621 65.7787H105.771L105.911 65.7087C106.271 65.5787 106.621 65.4487 106.981 65.3287C108.251 65.4887 109.221 65.0687 109.741 63.8387L109.811 63.7587C110.981 63.8387 111.261 64.5387 111.341 65.6087C111.631 69.4687 109.761 72.5687 107.041 74.6787C105.231 76.0887 103.091 78.5087 100.501 77.7487C97.5405 76.8887 94.5505 77.8787 91.7005 76.9287L91.7705 76.9387C91.4605 76.7687 91.1605 76.5987 90.8505 76.4287C90.0105 76.1687 89.1705 75.8987 88.3305 75.6387C87.5105 74.8587 86.5205 74.4987 85.4005 74.4587C84.7405 74.4387 83.9905 74.3787 83.6305 75.0787C83.2305 75.8587 83.9705 76.2587 84.3805 76.7387C85.4105 77.9287 86.3105 79.2587 87.5005 80.2587C89.4405 81.8887 90.3805 83.5987 88.8705 85.9787C87.8205 86.1687 86.7705 86.3587 85.7105 86.5387C85.1505 85.9287 84.9005 86.3387 84.6805 86.8587C84.3505 86.9187 84.0205 86.9787 83.7005 87.0387C82.9605 86.2687 82.5305 86.5787 82.2605 87.4487C81.5905 87.4387 80.9205 87.4287 80.2405 87.4187C79.3005 85.6187 77.8505 87.1487 76.6505 86.9487C74.0005 86.4987 71.5505 85.4587 68.9605 84.8587C67.1805 84.4487 66.2505 84.8887 65.7205 86.5187C65.3805 86.4787 65.0505 86.4287 64.7105 86.3887C63.6405 84.4787 62.1305 84.0387 60.1805 85.0087C59.6605 84.9787 59.1505 84.9587 58.6305 84.9287L58.6605 84.9487C58.4605 84.4787 58.0605 84.4087 57.6205 84.4287L57.6705 84.4487C57.3105 84.2787 56.9505 84.1087 56.6005 83.9387L56.6705 83.9587C56.2705 83.4587 55.7205 83.3787 55.1405 83.4087L55.1805 83.4287C54.9905 83.2587 54.8105 83.0887 54.6205 82.9187L54.6405 82.9587C54.5205 81.6987 53.6705 81.4187 52.6105 81.4287L52.6405 81.4587C51.1505 79.9787 50.2305 80.3987 49.1705 83.0287C49.0005 83.1387 48.8205 83.2487 48.6505 83.3587C48.2205 83.3987 47.8305 83.4787 47.6305 83.9287L47.6505 83.9187C47.2005 83.8787 46.8505 84.0387 46.6305 84.4387L46.6705 84.4187C40.5705 87.2887 35.0105 85.6187 29.6205 82.4187ZM47.6405 75.9087C47.8105 75.7387 47.9705 75.5787 48.1405 75.4087L48.1205 75.4187C49.9705 74.4287 49.2705 73.2887 48.2305 72.2687C46.3105 70.3787 43.7805 70.1087 41.2905 70.0187C37.6705 69.8787 34.1305 70.3387 31.2005 72.7687C30.5905 73.2687 29.2805 74.0687 31.1705 74.7387C31.6705 74.6887 31.9605 74.3887 32.1505 73.9487L32.1205 73.9787C33.0805 74.0587 33.8905 73.7387 34.7005 73.2287C36.2305 72.2787 37.9805 72.0887 39.7405 71.9387C41.2605 71.8087 42.1605 72.3887 42.1905 74.0087L42.2005 73.9387C41.8505 74.1887 41.5505 74.4387 42.1005 74.7987C42.6205 75.6387 43.3505 76.1987 44.2905 76.4687C44.4705 76.7787 44.7105 76.8587 45.0205 76.6387C45.4305 76.6587 45.8505 76.6787 46.2605 76.6987L46.3805 76.8087L46.4805 76.6887C46.8005 76.5387 47.1205 76.3987 47.4405 76.2487C47.5805 76.1887 47.6405 76.0887 47.6205 75.9287C47.6305 75.9087 47.6405 75.9087 47.6405 75.9087Z" fill="#F5E721"/>
<path d="M106.221 29.6087C106.561 30.6787 107.061 31.7087 107.021 32.8687C106.781 33.8087 106.701 34.7087 105.721 35.4087C98.8305 40.3587 96.6805 49.8187 102.801 56.5387C103.871 57.7087 106.291 59.3987 103.261 61.2487C102.901 61.2487 102.541 61.2387 102.181 61.2387L102.061 61.1387L101.941 61.2287C101.551 61.2587 101.161 61.2887 100.781 61.3187C100.531 60.9987 100.261 60.8687 99.9705 61.2787C97.4105 60.9087 95.4005 63.0087 92.8905 62.8387C92.9805 59.3987 92.4005 56.0287 91.7305 52.6787C90.8505 47.9587 88.3505 44.5687 84.0105 42.2887C78.3905 39.3287 72.0005 41.4587 69.4105 47.2587C67.8805 50.6887 67.6405 54.1587 68.0105 57.7687C65.4605 59.4087 65.1505 57.0587 64.6605 55.6887C59.7705 42.1087 72.4505 30.3487 84.8905 32.3387C87.0305 32.6787 89.1305 33.0587 91.1805 33.8387C92.8005 34.4587 94.2105 34.3787 94.9305 32.2687C95.4405 30.7587 96.7905 29.7287 97.9405 28.6387C100.451 26.2587 103.401 26.3687 105.801 28.8787C105.911 29.0687 106.021 29.2587 106.141 29.4387L106.101 29.5587L106.221 29.6087Z" fill="#ED4F3F"/>
<path d="M105.801 28.8887C103.391 26.3887 100.451 26.2787 97.9405 28.6487C96.7905 29.7287 95.4405 30.7687 94.9305 32.2787C94.2105 34.3887 92.8005 34.4687 91.1805 33.8487C89.1405 33.0687 87.0305 32.6887 84.8905 32.3487C72.4505 30.3587 59.7805 42.1087 64.6605 55.6987C65.1505 57.0687 65.4605 59.4187 68.0005 57.7787C69.1305 59.6987 69.5005 62.0087 71.1305 63.6787C71.4305 63.9887 70.9605 64.2087 70.6505 64.3287C68.3605 63.1587 66.9105 61.1087 65.2905 59.2387C62.6905 54.5187 62.1205 49.5787 63.5005 44.3687C64.2705 41.4687 66.3405 39.3687 67.8105 36.9087H67.7005C68.0505 36.8887 68.2405 36.6987 68.2805 36.3487L68.2605 36.4587C68.8805 36.0487 69.5105 35.6487 70.1105 35.2187C74.4105 32.1187 79.0805 30.4687 84.4605 31.4587C86.0205 31.7487 87.5905 31.9587 89.1405 32.2787C93.4405 33.1787 93.4405 33.1887 95.7205 29.3687C97.7105 27.4387 99.9805 26.0387 102.821 25.7987C103.721 26.9187 105.811 26.8987 105.801 28.8887Z" fill="#664F3F"/>
<path d="M103.271 61.2488C106.301 59.3888 103.881 57.7088 102.811 56.5388C96.6805 49.8188 98.8405 40.3588 105.731 35.4088C106.711 34.7088 106.791 33.8088 107.031 32.8688C108.621 35.1588 108.871 37.6988 108.451 40.3588C106.211 41.6688 103.531 42.5188 103.071 45.6388C100.961 47.4688 100.721 50.4688 102.451 53.6088C103.521 55.5288 104.351 57.6688 106.731 58.4288C106.411 60.3988 105.981 62.2188 103.271 61.2488Z" fill="#F06F4A"/>
<path d="M103.271 61.2488C105.981 62.2188 106.411 60.3888 106.731 58.4288C107.211 58.3788 107.681 58.3288 108.161 58.2788C108.231 58.4888 108.301 58.6988 108.371 58.9088C108.421 60.6688 108.541 62.3988 109.821 63.7988L109.751 63.8788C108.571 63.8888 107.691 64.4788 106.991 65.3688C106.631 65.4988 106.281 65.6288 105.931 65.7488C105.941 65.7488 105.761 65.6588 105.761 65.6588L105.631 65.8188C105.281 66.4588 104.901 67.4988 104.031 66.7688C102.921 65.8288 102.691 64.5288 104.421 62.9788C100.521 62.9388 97.3005 63.1388 94.3205 64.8088C90.3905 67.0188 86.1605 67.5288 81.7305 67.0788C80.1605 66.9188 78.5605 66.9388 76.9805 66.9388C75.8505 66.9388 74.7905 66.8688 74.1505 65.7588C74.3705 65.4588 74.5905 65.1588 74.8105 64.8488C75.3405 65.0988 75.5105 65.6588 76.3205 65.8088C79.1505 66.3088 81.9605 65.5288 84.7505 65.9788C86.3905 66.8188 87.8805 65.8788 89.4205 65.5588C89.8705 65.3388 90.3305 65.1188 90.7805 64.8988C93.9805 63.8588 97.1905 62.8088 100.391 61.7688C100.521 61.6288 100.651 61.4788 100.781 61.3388C101.171 61.3088 101.561 61.2788 101.941 61.2488L102.061 61.2888L102.191 61.2488C102.551 61.2488 102.911 61.2488 103.271 61.2488Z" fill="#B59D69"/>
<path d="M108.151 58.2888C107.671 58.3388 107.201 58.3888 106.721 58.4388C104.341 57.6788 103.511 55.5488 102.441 53.6188C102.651 50.9588 102.851 48.3088 103.061 45.6488C103.521 42.5288 106.201 41.6688 108.441 40.3688C109.571 43.6588 109.031 45.9988 106.271 47.7588C104.701 48.7588 104.871 50.1988 104.521 51.5788C104.161 52.3288 104.251 52.9588 104.991 53.4388C104.421 55.0988 105.361 56.2488 106.641 56.7288C107.561 57.0688 107.811 57.6188 108.151 58.2888Z" fill="#F8F7F5"/>
<path d="M109.811 63.7987C108.531 62.4087 108.411 60.6687 108.361 58.9087C108.671 59.1087 108.991 59.3087 109.301 59.5087C110.281 60.6687 109.891 62.9787 112.241 62.9787C112.361 66.2287 112.711 69.5087 110.841 72.4687C110.331 72.8287 109.951 73.2787 109.801 73.8987C109.121 74.5487 108.431 75.1987 107.751 75.8487C106.901 76.3587 106.061 76.8787 105.211 77.3787C101.071 79.8487 94.6705 79.6487 91.7005 76.9687C94.5505 77.9287 97.5405 76.9287 100.501 77.7887C103.091 78.5387 105.231 76.1287 107.041 74.7187C109.761 72.5987 111.631 69.5087 111.341 65.6487C111.261 64.5787 110.981 63.8787 109.811 63.7987Z" fill="#F8F167"/>
<path d="M105.001 53.4287C104.271 52.9587 104.171 52.3187 104.531 51.5687C105.161 51.9287 106.351 51.3987 106.401 52.6087C106.431 53.5087 105.671 53.4887 105.001 53.4287Z" fill="#F2C6B2"/>
<path d="M106.221 29.6087L106.101 29.5788L106.131 29.4587L106.221 29.6087Z" fill="#664F3F"/>
<path d="M92.2905 3.22876C93.1505 4.69876 93.1605 6.32876 93.2305 7.95876C92.7905 8.48876 92.7105 9.10875 92.7405 9.76875L92.7605 9.71877C92.3405 9.94877 92.2505 10.3388 92.2405 10.7688L92.2705 10.7288C92.1005 10.9088 91.9205 11.0888 91.7505 11.2688L91.7805 11.2388C91.6005 11.4188 91.4305 11.5888 91.2505 11.7688L91.2705 11.7388C90.9205 12.0788 90.5805 12.4188 90.2305 12.7588L90.2705 12.7288C89.6405 12.8988 89.0805 13.1588 88.7205 13.7388L88.7705 13.7288C88.1905 13.7088 87.6205 13.7188 87.2105 14.2288L87.2805 14.1988C80.9105 13.5388 74.5905 12.3888 68.1105 13.3188C59.1305 14.6188 51.3305 18.0588 45.1205 24.8088L45.1605 24.7788C44.9905 24.9588 44.8105 25.1388 44.6405 25.3188L44.6605 25.2888C44.0205 25.8388 43.3805 26.3888 42.7405 26.9388C42.5205 26.7088 42.3005 26.4788 42.0905 26.2488C42.5405 24.7788 44.2105 24.2788 44.7605 22.8788L44.6505 22.8288C44.9105 22.6588 45.1705 22.4788 45.4305 22.3088C45.5405 22.3388 45.6105 22.2988 45.6305 22.1888C45.9605 21.8888 46.3005 21.5888 46.6305 21.2988L46.6705 21.2688C46.8505 21.1088 47.0405 20.9588 47.2205 20.7988C57.8005 12.7088 69.8605 10.8688 82.7205 12.3188L82.7405 12.2888C84.6105 12.9488 86.4705 13.5988 88.3505 12.3188L88.3405 12.3588C89.2205 12.1088 89.8605 11.5688 90.2805 10.7488L90.2905 10.7388C90.7105 10.4888 90.8705 10.0888 90.9305 9.62875C92.4405 7.66875 92.5205 5.53875 91.6505 3.29875C91.8505 3.26875 92.0705 3.24876 92.2905 3.22876Z" fill="#664F3F"/>
<path d="M92.2905 3.22876C92.0705 3.24876 91.8505 3.27875 91.6205 3.29875C91.4905 3.27875 91.4405 3.20877 91.4505 3.07877C91.5505 2.95877 91.6605 2.83876 91.7705 2.72876C91.9005 2.75876 92.0405 2.76876 92.1705 2.75876C92.3005 2.88876 92.3405 3.04876 92.2905 3.22876Z" fill="#383634"/>
<path d="M92.1805 2.75877C92.0405 2.76877 91.9105 2.75878 91.7805 2.72878C91.7405 2.30878 91.7005 1.89878 91.6605 1.47878C91.7705 1.45878 91.8705 1.46877 91.9605 1.51877C92.0405 1.92877 92.1105 2.33877 92.1805 2.75877Z" fill="#664F3F"/>
<path d="M16.2805 125.609C20.6405 125.599 25.0005 125.599 29.3605 125.589C25.0005 126.879 20.6405 126.959 16.2805 125.609Z" fill="#F8F167"/>
<path d="M103.491 94.9388C103.231 94.9988 102.971 95.0688 102.711 95.1288V95.1188C102.531 94.9188 102.341 94.7188 102.161 94.5288C101.551 94.0288 100.941 93.5288 100.151 92.8688C103.701 91.4188 106.761 89.5588 109.091 86.8988C111.371 84.2988 114.001 82.5588 117.241 81.5988C117.271 81.8588 117.301 82.1288 117.331 82.3888C113.461 84.3088 110.941 87.8888 107.501 90.3288C106.351 91.1488 105.211 91.9888 103.981 92.6788C102.871 93.3088 102.981 94.0388 103.491 94.9388Z" fill="#383634"/>
<path d="M101.471 97.0388C102.411 97.0288 103.361 97.0188 104.301 97.0088C104.481 98.2988 106.021 99.5788 104.321 100.879C103.931 99.1788 102.541 98.2288 101.471 97.0388Z" fill="#383634"/>
<path d="M80.7105 126.099C80.9005 126.099 81.1305 126.039 81.2905 126.119C81.6605 126.309 81.2305 126.439 81.2105 126.609C81.0205 126.639 80.9105 126.939 80.6405 126.669C80.3705 126.399 80.6805 126.289 80.7105 126.099Z" fill="#383634"/>
<path d="M80.1405 126.179C80.3705 125.979 80.5905 125.779 80.8205 125.589C80.9905 125.809 80.9505 125.979 80.7105 126.109C80.5605 126.419 80.3705 126.439 80.1405 126.179Z" fill="#383634"/>
<path d="M92.2005 110.449C92.8505 108.129 94.7005 108.279 96.4205 108.569C97.7205 108.789 99.0105 109.029 100.331 109.049C98.9005 110.139 97.2905 109.279 95.7805 109.499C95.0105 109.609 93.7905 108.999 93.7505 110.559L93.8005 110.529C93.2705 109.619 92.8405 110.629 92.3605 110.609L92.2005 110.449Z" fill="#F8F167"/>
<path d="M96.4705 110.959C95.2605 110.809 94.2805 111.319 93.3105 111.979C92.8505 112.289 92.2805 112.559 91.8005 111.929C91.3105 111.279 91.3105 110.739 92.1905 110.449L92.3505 110.609C92.3805 110.909 92.3805 111.449 92.4505 111.459C93.1405 111.549 93.6505 111.279 93.7805 110.529L93.7305 110.559C94.6305 110.909 95.6505 110.219 96.4705 110.959Z" fill="#F8F167"/>
<path d="M100.301 109.069C100.591 108.619 101.051 108.549 101.531 108.539C101.201 108.889 100.841 109.189 100.301 109.069Z" fill="#F8F167"/>
<path d="M117.241 81.5987C114.001 82.5587 111.361 84.3087 109.091 86.8987C106.761 89.5587 103.701 91.4287 100.151 92.8687C100.941 93.5187 101.551 94.0287 102.161 94.5287C102.341 94.7287 102.531 94.9287 102.711 95.1187V95.1287C102.691 95.6387 103.981 97.1587 102.131 96.3487C98.7205 94.8587 95.3505 94.5387 91.8105 95.4887C90.1205 95.6287 88.4005 95.0787 86.7505 95.7987C86.4505 95.7687 86.1405 95.7287 85.8405 95.6987C85.5105 95.4787 85.2005 95.1387 84.8305 95.0587C83.3805 94.7487 82.1405 94.6187 81.5505 92.6887C80.9205 90.6187 82.7305 90.4787 83.3105 89.4087C83.3105 89.2987 83.3105 89.1987 83.3205 89.0887C83.7205 88.9787 84.1105 88.8087 84.5205 88.7687C92.0805 87.9987 98.4505 84.7387 103.991 79.6287C105.251 78.4587 106.551 77.2387 108.391 76.9587C108.521 77.1587 108.651 77.3587 108.781 77.5587L108.741 77.7287L108.881 77.8387C108.981 78.0687 109.081 78.3087 109.171 78.5387C109.441 80.1687 110.451 81.0587 111.661 81.7387C111.821 81.5887 111.991 81.4487 112.151 81.2987C111.541 80.3487 110.921 79.4087 110.311 78.4587C110.341 77.1987 110.131 75.9187 110.571 74.6787C111.021 74.3787 111.251 73.9387 111.321 73.4187C111.651 73.0487 111.981 72.6787 112.311 72.3087C112.451 72.1787 112.601 72.0487 112.741 71.9087L112.841 71.8287C113.021 71.6987 113.191 71.5587 113.371 71.4287C114.741 70.5087 116.471 70.1687 117.631 68.8987C118.021 67.7387 117.331 67.5887 116.401 67.3287C114.591 66.8187 114.561 65.0687 114.511 63.6787C114.451 61.9987 116.001 62.6087 116.951 62.4287C118.661 62.1087 120.361 61.7987 122.111 61.8987C123.541 62.4287 123.761 63.9387 124.591 64.9587C125.141 68.3087 124.601 71.5587 123.741 74.7887C122.311 77.7387 120.091 79.9687 117.241 81.5987Z" fill="#F5E721"/>
<path d="M115.431 59.5488C115.051 59.0388 114.441 58.9988 113.911 58.7888C111.161 57.7088 110.671 56.1588 112.271 53.7888C113.771 51.5588 117.371 50.7888 120.151 52.0988C123.251 53.5688 124.481 55.8188 123.701 58.6588C123.391 59.7688 122.991 60.7788 121.491 60.1888C120.391 57.9788 118.871 59.7488 117.541 59.7688C117.181 59.7588 116.821 59.7588 116.461 59.7488C116.111 59.6888 115.771 59.6188 115.431 59.5488Z" fill="#F5E721"/>
<path d="M122.111 61.8788C120.361 61.7788 118.651 62.0888 116.951 62.4088C116.001 62.5888 114.451 61.9788 114.511 63.6588C114.561 65.0488 114.581 66.7988 116.401 67.3088C117.321 67.5688 118.021 67.7288 117.631 68.8788C113.361 68.8188 113.361 68.8188 113.381 64.4088C113.381 63.6688 113.381 62.9388 113.381 62.1988C113.611 62.0888 113.851 61.9888 114.081 61.8788C114.561 61.9588 115.041 62.0088 115.401 61.5788C117.161 61.1288 118.931 60.7888 120.761 60.9688C121.201 61.2788 121.651 61.5788 122.111 61.8788Z" fill="#F8F167"/>
<path d="M113.361 62.2087C113.361 62.9487 113.371 63.6787 113.361 64.4187C113.351 68.8387 113.351 68.8387 117.611 68.8887C116.451 70.1687 114.721 70.4987 113.351 71.4187C113.171 71.5487 113.001 71.6887 112.821 71.8187C112.821 71.8187 112.721 71.8987 112.731 71.8987C112.591 72.0287 112.441 72.1587 112.301 72.2987C111.971 72.6687 111.641 73.0387 111.311 73.4087C111.151 73.0987 111.001 72.7887 110.841 72.4688C112.711 69.5087 112.371 66.2287 112.241 62.9787C112.281 62.7487 112.311 62.5287 112.351 62.2987C112.691 62.2687 113.021 62.2387 113.361 62.2087Z" fill="#383634"/>
<path d="M120.741 60.9787C118.911 60.7987 117.141 61.1387 115.381 61.5887C115.391 60.9087 115.411 60.2287 115.431 59.5487C115.771 59.6187 116.111 59.6787 116.451 59.7487C116.811 59.7587 117.171 59.7587 117.531 59.7687C118.861 59.7487 120.381 57.9787 121.481 60.1887C121.231 60.4487 120.991 60.7187 120.741 60.9787Z" fill="#383634"/>
<path d="M113.361 62.2088C113.021 62.2388 112.691 62.2788 112.351 62.3088C112.381 61.0388 111.441 60.2288 110.801 59.1388C112.401 58.6788 113.631 59.5288 114.711 60.2488C115.351 60.6788 114.161 61.2688 114.071 61.8888C113.831 61.9988 113.591 62.0988 113.361 62.2088Z" fill="#F2C6B2"/>
<path d="M41.0805 111.869C40.7505 111.929 40.4205 111.999 40.0905 112.059C40.4105 111.119 40.7305 110.209 40.6705 109.169C40.5705 107.319 39.4905 105.969 37.8605 106.559C34.3105 107.839 32.4505 105.179 29.2905 103.619C31.7505 103.679 33.6605 104.499 35.2105 103.049C36.7505 101.609 36.9405 99.9288 36.0305 98.0788C36.1405 97.9488 36.2605 97.8188 36.3705 97.6888C40.3805 100.919 35.7605 102.879 35.1205 105.389C37.4705 105.939 39.0005 105.359 39.7505 102.969C40.1105 101.819 40.9905 100.829 41.6705 99.7888C43.2705 97.3388 45.3705 95.3188 48.0505 93.3088C43.5305 92.4888 39.8905 93.2288 36.4305 95.0988C35.3505 95.6788 35.0205 96.3888 35.6205 97.4788L35.6805 97.4288C35.3105 97.4488 34.9505 97.4788 34.5805 97.4988L34.6005 97.5088C34.0605 96.6188 32.6105 97.4888 32.1205 96.2788C33.2505 95.7588 34.4205 95.4788 35.1505 94.4888L35.1005 94.5188C35.5305 94.5088 35.9405 94.4688 36.1405 93.9888L36.1205 94.0088C41.3005 91.5488 46.5905 91.1588 52.3705 93.0388C50.9605 93.9588 49.3405 93.2388 48.4905 94.5288C48.2105 94.7788 47.9305 95.0288 47.6505 95.2888C47.3105 95.5288 46.9605 95.7688 46.6205 96.0088L46.6605 95.9888C46.3505 96.0288 46.1205 96.1488 46.0905 96.4988L46.1305 96.4488C45.7705 96.4488 45.5905 96.6288 45.5905 96.9888L45.6205 96.9488C44.9705 96.9888 44.6405 97.3688 44.5305 97.9788C44.5305 97.9788 44.6205 97.9388 44.6205 97.9288C44.2805 97.9688 44.1105 98.1688 44.0805 98.4988L44.1305 98.4488C43.9605 98.6288 43.7805 98.8088 43.6105 98.9888L43.6205 98.9788C43.1705 99.1588 42.9205 99.5088 42.7905 99.9588C42.6505 99.9788 42.5805 100.069 42.5905 100.219C40.7305 102.399 39.7005 104.659 41.4905 107.439C42.3405 108.749 41.9105 110.179 41.3305 111.519C41.2605 111.639 41.1705 111.759 41.0805 111.869Z" fill="#383634"/>
<path d="M48.5005 94.5288C49.3505 93.2488 50.9705 93.9688 52.3805 93.0388C46.5905 91.1588 41.3105 91.5488 36.1305 94.0088C37.1105 91.6288 38.4805 90.3688 41.4305 90.9188C44.3505 91.4688 47.4305 90.6888 50.3905 91.3288C51.3005 91.5288 52.6305 91.4088 52.5205 92.8888C52.4205 94.2088 51.1705 94.1888 50.2405 94.4088C49.6805 94.5488 49.0805 94.4988 48.5005 94.5288Z" fill="#F8F167"/>
<path d="M67.2005 103.039C63.5405 103.549 59.8905 104.059 56.2305 104.569C56.1605 103.559 57.2505 102.869 56.9305 101.729C56.7405 101.049 57.3105 100.669 57.9605 100.609C58.6805 100.539 59.4605 100.709 59.4205 101.559C59.3405 103.469 60.6105 103.019 61.6105 102.869C63.5005 102.589 65.3605 102.089 67.2005 103.039Z" fill="#F8F167"/>
<path d="M41.3505 111.529C41.9305 110.189 42.3605 108.759 41.5105 107.449C39.7105 104.669 40.7405 102.409 42.6105 100.229C42.8105 103.059 41.8005 105.889 42.9905 108.749C43.4305 109.809 43.0505 111.279 41.3505 111.529Z" fill="#F8F167"/>
<path d="M47.6305 85.9588C47.7905 85.7788 47.9205 85.5588 48.1105 85.4088C51.6105 82.5988 52.3105 82.6388 55.8105 85.8488C55.7305 85.8588 55.6305 85.8988 55.5705 85.8688C52.9005 84.5288 50.2505 84.4188 47.6305 85.9588Z" fill="#F8F167"/>
<path d="M35.1505 94.5087C34.4205 95.4987 33.2505 95.7787 32.1205 96.2987C32.6205 97.5087 34.0605 96.6387 34.6005 97.5287C33.4305 97.2487 31.4905 98.3087 31.2805 96.4187C31.0505 94.3487 33.2205 94.9587 34.4005 94.5087C34.6305 94.4187 34.9105 94.4987 35.1505 94.5087Z" fill="#F8F167"/>
<path d="M57.6705 86.4387C60.0705 87.2087 62.6705 87.4287 64.7905 88.9787C62.2005 88.7387 59.7905 87.9887 57.6705 86.4387Z" fill="#F8F167"/>
<path d="M50.0405 110.969C50.0005 111.889 49.5905 112.619 48.8605 113.179C48.6905 112.139 49.0405 111.379 50.0405 110.969Z" fill="#F8F167"/>
<path d="M65.2205 89.0688C66.3705 89.0488 67.5205 89.0388 68.6705 89.0188C68.7705 89.0888 68.8405 89.1788 68.8705 89.2988L68.7205 89.4488C67.5505 89.3488 66.3205 89.7688 65.2205 89.0688Z" fill="#F8F167"/>
<path d="M55.6805 85.8388C56.5005 85.5788 57.1205 85.9688 57.7105 86.4588C56.9705 86.4588 56.2005 86.5688 55.6805 85.8388Z" fill="#F8F167"/>
<path d="M54.2005 106.059C54.0605 106.639 53.7005 106.939 53.0905 106.889C53.2505 106.329 53.6205 106.059 54.2005 106.059Z" fill="#F8F167"/>
<path d="M51.9505 107.919C52.0705 108.549 51.7705 108.889 51.1805 109.039C51.1905 108.499 51.4605 108.129 51.9505 107.919Z" fill="#F8F167"/>
<path d="M50.9905 109.439C51.0805 110.059 50.7705 110.409 50.2105 110.579C50.2005 110.009 50.4605 109.629 50.9905 109.439Z" fill="#F8F167"/>
<path d="M69.3505 103.629C68.7705 103.899 68.3805 103.669 68.1105 103.149C68.6405 103.019 69.0405 103.209 69.3505 103.629Z" fill="#F8F167"/>
<path d="M44.5505 97.9787C44.6505 97.3687 44.9905 96.9887 45.6405 96.9487C45.4605 97.4887 45.0805 97.8087 44.5505 97.9787Z" fill="#F8F167"/>
<path d="M42.8005 99.9688C42.9405 99.5188 43.1805 99.1688 43.6305 98.9888C43.5605 99.4888 43.3205 99.8488 42.8005 99.9688Z" fill="#F8F167"/>
<path d="M36.1405 93.9988C35.9505 94.4788 35.5305 94.5188 35.1005 94.5288C35.3205 94.0888 35.6905 93.9588 36.1405 93.9988Z" fill="#F8F167"/>
<path d="M46.6305 96.0088C46.9705 95.7688 47.3105 95.5288 47.6605 95.2888C47.4505 95.7288 47.0905 95.9388 46.6305 96.0088Z" fill="#F8F167"/>
<path d="M48.2505 114.679C48.0805 114.819 47.9205 114.969 47.7505 115.109C47.9205 114.969 48.0805 114.829 48.2505 114.679Z" fill="#F8F167"/>
<path d="M43.6305 98.9987C43.8005 98.8187 43.9805 98.6387 44.1505 98.4587C43.9705 98.6387 43.8005 98.8187 43.6305 98.9987Z" fill="#F8F167"/>
<path d="M44.1005 98.5087C44.1405 98.1787 44.3105 97.9787 44.6405 97.9387C44.4605 98.1287 44.2805 98.3187 44.1005 98.5087Z" fill="#F8F167"/>
<path d="M45.6005 96.9887C45.6005 96.6287 45.7805 96.4487 46.1405 96.4487C45.9605 96.6287 45.7805 96.8087 45.6005 96.9887Z" fill="#F8F167"/>
<path d="M46.1005 96.4888C46.1205 96.1288 46.3605 96.0188 46.6705 95.9788C46.4805 96.1488 46.2905 96.3188 46.1005 96.4888Z" fill="#F8F167"/>
<path d="M33.1105 52.4988C32.4405 47.2488 33.8405 42.2688 35.1605 37.2888C36.5205 34.3988 37.9705 31.5588 39.6905 28.8588C40.4805 27.9888 41.2805 27.1088 42.0705 26.2388C42.2905 26.4688 42.5105 26.6988 42.7205 26.9288C41.4805 29.3088 39.2905 31.1188 38.5805 33.8288L38.6005 33.7888C38.0305 34.3588 37.6805 35.0388 37.5605 35.8288L37.5805 35.7888C34.3805 42.0888 33.7905 48.8088 34.3505 55.7088C34.1005 55.9488 33.8505 56.1788 33.6005 56.4188C33.5705 56.2488 33.5505 56.0688 33.5205 55.8988C33.6105 54.7388 33.8105 53.5588 33.1105 52.4988Z" fill="#383634"/>
<path d="M21.7005 105.109C23.2905 105.579 23.8805 106.429 23.8605 107.709C23.8505 108.059 23.4505 108.379 23.1605 108.249C21.8605 107.679 22.0105 106.459 21.7005 105.109Z" fill="#F5E721"/>
<path d="M40.1605 112.009C40.1805 112.409 39.9605 112.559 39.6005 112.569C39.7805 112.379 39.9705 112.189 40.1605 112.009Z" fill="#383634"/>
<path d="M36.0405 98.0787C35.7405 97.9687 35.4405 97.8487 35.6905 97.4387L35.6305 97.4887C35.8805 97.5587 36.1305 97.6287 36.3805 97.6887C36.2705 97.8187 36.1505 97.9487 36.0405 98.0787Z" fill="#383634"/>
<path d="M7.04053 118.539C7.70053 118.639 8.14053 119.069 8.51053 119.579C7.75053 119.609 7.24053 119.299 7.04053 118.539Z" fill="#F8F167"/>
<path d="M10.5505 121.039C11.1305 120.989 11.6205 121.159 12.0205 121.589C11.4305 121.669 10.8805 121.629 10.5505 121.039Z" fill="#F8F167"/>
<path d="M9.55054 120.529C10.0505 120.379 10.3905 120.569 10.5705 121.049C10.1105 121.099 9.76054 120.949 9.55054 120.529Z" fill="#F8F167"/>
<path d="M12.0405 121.599C12.3205 121.629 12.5905 121.669 12.5805 122.049C12.4005 121.899 12.2205 121.749 12.0405 121.599Z" fill="#F8F167"/>
<path d="M9.05054 120.049C9.37054 120.059 9.62054 120.159 9.57054 120.549C9.40054 120.379 9.22054 120.209 9.05054 120.049Z" fill="#F8F167"/>
<path d="M8.53052 119.599C8.71052 119.749 8.88052 119.899 9.06052 120.049C8.88052 119.899 8.70052 119.749 8.53052 119.599Z" fill="#F8F167"/>
<path d="M6.54053 118.039C6.86053 118.069 7.03053 118.239 7.06053 118.559C6.88053 118.379 6.71053 118.209 6.54053 118.039Z" fill="#F8F167"/>
<path d="M6.02054 117.329C6.20054 117.569 6.38054 117.809 6.55054 118.059C6.37054 117.809 6.19054 117.569 6.02054 117.329Z" fill="#F8F167"/>
<path d="M68.8705 89.2987C68.8405 89.1787 68.7705 89.0887 68.6705 89.0187C68.6905 88.7887 68.7105 88.5687 68.7305 88.3387C73.5705 88.3987 78.4105 88.4687 83.2505 88.5287C83.2705 88.7187 83.3005 88.8987 83.3205 89.0887C83.3105 89.1987 83.3105 89.2988 83.3105 89.4088C78.4905 89.7988 73.6805 89.6787 68.8705 89.2987Z" fill="#383634"/>
<path d="M83.2405 88.5287C78.4005 88.4687 73.5605 88.3987 68.7205 88.3387C66.3405 87.0787 63.4405 87.5087 61.1305 86.0187L61.2005 85.9287C62.3805 86.0987 63.5505 86.2587 64.7305 86.4287C65.0705 86.4687 65.4005 86.5187 65.7305 86.5587C70.5305 87.5487 75.3105 88.7287 80.2505 87.4587C80.9205 87.4687 81.5905 87.4787 82.2705 87.4887C82.8005 87.5187 83.3005 87.4787 83.7105 87.0787C84.0405 87.0187 84.3705 86.9587 84.6905 86.8987C85.0305 86.7887 85.3705 86.6887 85.7205 86.5787C86.7705 86.3887 87.8205 86.1987 88.8805 86.0187C89.5305 86.0287 90.1805 86.0287 90.8305 86.0387C88.5505 87.5987 85.5105 86.9187 83.2405 88.5287Z" fill="#FAF285"/>
<path d="M49.1905 83.0687C50.2505 80.4387 51.1805 80.0188 52.6605 81.4988C50.9105 80.7088 50.4605 82.7987 49.1905 83.0687Z" fill="#F8F167"/>
<path d="M52.6205 81.4688C53.6805 81.4688 54.5405 81.7487 54.6505 82.9987C53.7505 82.7887 53.1005 82.2387 52.6205 81.4688Z" fill="#F8F167"/>
<path d="M58.6605 84.9688C59.1805 84.9987 59.6905 85.0187 60.2105 85.0487C60.5405 85.3487 60.8805 85.6388 61.2105 85.9388L61.1405 86.0287C60.2105 85.9087 59.3205 85.7088 58.6605 84.9688Z" fill="#FAF285"/>
<path d="M55.1505 83.4488C55.7405 83.4288 56.2905 83.4988 56.6805 83.9988C56.0805 84.0788 55.5605 83.9188 55.1505 83.4488Z" fill="#F8F167"/>
<path d="M47.6505 83.9688C47.8405 83.5188 48.2405 83.4388 48.6705 83.3988C48.3305 83.5888 47.9905 83.7788 47.6505 83.9688Z" fill="#F8F167"/>
<path d="M46.6405 84.4888C46.8605 84.0788 47.2105 83.9288 47.6605 83.9688C47.4505 84.3688 47.0805 84.5088 46.6405 84.4888Z" fill="#F8F167"/>
<path d="M56.6205 83.9788C56.9805 84.1488 57.3405 84.3188 57.6905 84.4888C57.2605 84.4788 56.8705 84.3788 56.6205 83.9788Z" fill="#FAF285"/>
<path d="M57.6505 84.4588C58.0905 84.4388 58.4905 84.5088 58.6905 84.9788C58.2505 84.9988 57.8705 84.8988 57.6505 84.4588Z" fill="#FAF285"/>
<path d="M45.9805 62.8188C46.5905 63.6288 48.1705 63.4388 48.1205 64.9188C45.9705 64.1188 43.8205 63.3088 41.6705 62.5088C41.7005 62.2888 41.7405 62.0588 41.7705 61.8388C42.9305 61.7688 44.0405 62.0188 45.1205 62.4088L45.1505 62.4288C45.4305 62.5488 45.7005 62.6788 45.9805 62.8188Z" fill="#B59D69"/>
<path d="M48.1505 64.9288C48.5805 64.9188 48.8505 65.1388 48.9905 65.5388C48.6505 65.4188 48.2605 65.3688 48.1505 64.9288Z" fill="#B59D69"/>
<path d="M34.3805 55.7088C33.8205 48.7988 34.4105 42.0788 37.6105 35.7888C38.1805 38.1088 36.7105 39.9388 36.0805 41.9488C34.4805 47.0488 34.1705 52.1988 35.0705 57.4488C34.8405 56.8688 34.6105 56.2888 34.3805 55.7088Z" fill="#F8F167"/>
<path d="M45.1205 62.3988C44.0405 62.0088 42.9305 61.7488 41.7705 61.8288C40.1805 61.6288 38.5305 61.6088 37.0005 61.1888C35.4505 60.7588 35.1905 59.2888 35.1305 57.8588C36.2605 60.0488 38.3505 60.1488 40.4405 60.4588C42.1205 60.7088 44.1605 60.3288 45.1205 62.3988Z" fill="#F8F167"/>
<path d="M86.7505 95.8088C88.4005 95.0888 90.1305 95.6388 91.8105 95.4988C90.1605 96.1288 88.4505 95.9288 86.7505 95.8088Z" fill="#F8F167"/>
<path d="M74.8005 64.8388C74.5805 65.1388 74.3605 65.4488 74.1405 65.7488C72.9805 65.2688 71.8205 64.7988 70.6605 64.3288C70.9705 64.2088 71.4405 63.9788 71.1405 63.6788C69.5105 62.0088 69.1405 59.6888 68.0105 57.7788C67.6305 54.1688 67.8805 50.6988 69.4105 47.2688C72.0005 41.4688 78.3905 39.3388 84.0105 42.2988C88.3505 44.5888 90.8505 47.9688 91.7305 52.6888C91.4605 52.7188 91.1905 52.7588 90.9205 52.7888C88.9505 50.2088 86.6505 47.9888 83.3605 47.3588C77.5605 46.2388 72.8805 51.0288 73.4905 57.4888C73.7205 59.9488 74.3505 62.3888 74.8005 64.8388Z" fill="#F3740F"/>
<path d="M90.8305 86.0288C90.1805 86.0188 89.5305 86.0188 88.8805 86.0088C90.3905 83.6288 89.4505 81.9188 87.5105 80.2888C86.3205 79.2888 85.4105 77.9588 84.3905 76.7688C83.9805 76.2888 83.2405 75.8888 83.6405 75.1088C83.9905 74.4088 84.7505 74.4688 85.4105 74.4888C86.5205 74.5188 87.5205 74.8888 88.3405 75.6688C90.6605 78.1588 93.0505 80.4988 96.8105 80.4388C97.4205 80.9788 97.9305 81.5788 97.8105 82.4788L97.8205 82.4688C97.0805 82.4788 96.4405 82.6388 96.3105 83.5188L96.3305 83.4788C95.9805 83.6488 95.6305 83.8288 95.2805 83.9988L95.3205 83.9788C93.5405 84.0588 91.8605 84.3688 90.7905 86.0188L90.8305 86.0288Z" fill="#F8F167"/>
<path d="M96.8105 80.4487C93.0505 80.5087 90.6605 78.1687 88.3405 75.6787C89.1805 75.9387 90.0205 76.2087 90.8605 76.4687C91.0205 76.8987 91.3305 77.0687 91.7805 76.9787L91.7105 76.9687C94.6805 79.6487 101.081 79.8487 105.221 77.3787C106.071 76.8687 106.911 76.3587 107.761 75.8487C107.971 76.2187 108.181 76.5787 108.391 76.9487C106.561 77.2287 105.251 78.4587 103.991 79.6187C98.4605 84.7287 92.0905 87.9887 84.5205 88.7587C84.1105 88.7987 83.7205 88.9687 83.3205 89.0787C83.3005 88.8887 83.2705 88.7087 83.2505 88.5187C85.5205 86.8987 88.5505 87.5887 90.8405 86.0187H90.8105C92.5005 85.7387 93.9705 84.9687 95.3405 83.9787L95.3005 83.9987C95.7405 84.0087 96.1505 83.9487 96.3505 83.4787L96.3305 83.5187C97.0205 83.4387 97.5405 83.1087 97.8405 82.4687L97.8305 82.4787C99.0705 82.0987 100.091 81.3987 101.571 80.1687C99.5305 80.2887 98.1705 80.3687 96.8105 80.4487Z" fill="#664F3F"/>
<path d="M45.1205 24.7987C51.3205 18.0487 59.1305 14.5988 68.1105 13.3088C74.5905 12.3688 80.9105 13.5288 87.2805 14.1888C85.5605 15.2188 83.7105 14.8188 81.9505 14.4888C68.9105 12.0488 57.3805 15.1788 47.3305 23.7888C46.6605 24.3488 46.0205 24.8187 45.1205 24.7987Z" fill="#F8F167"/>
<path d="M95.7305 29.3588C93.4505 33.1788 93.4505 33.1688 89.1505 32.2688C87.6005 31.9488 86.0305 31.7288 84.4705 31.4488C79.1005 30.4588 74.4205 32.1088 70.1205 35.2088C69.5205 35.6388 68.8905 36.0388 68.2705 36.4488C68.8405 33.6688 71.4705 33.1088 73.4305 32.1788C78.4505 29.8188 83.7905 29.2788 89.1805 30.9388C90.6105 31.3788 91.8005 31.0888 92.9805 30.3788C93.8405 29.8588 94.6605 29.2688 95.7305 29.3588Z" fill="#F8F167"/>
<path d="M42.1905 73.9987C42.1505 72.3787 41.2605 71.7987 39.7405 71.9287C37.9905 72.0787 36.2305 72.2687 34.7005 73.2187C33.8805 73.7287 33.0705 74.0487 32.1205 73.9687C35.5205 71.0487 39.6405 70.6387 43.7805 71.1687C45.9405 71.4487 48.1505 72.4987 48.1305 75.4187L48.1505 75.4087C47.9805 75.5787 47.8205 75.7387 47.6505 75.9087H47.6405C47.5105 75.8087 47.3805 75.8087 47.2505 75.9087C45.1405 76.3787 43.9405 74.4587 42.1905 73.9987ZM45.8705 73.8987C45.7705 73.8287 45.6805 73.7387 45.5705 73.6887C45.5405 73.6787 45.4105 73.7887 45.4205 73.8087C45.4605 73.9287 45.5305 74.0287 45.5905 74.1387C45.6905 74.0587 45.7805 73.9787 45.8705 73.8987Z" fill="#FAF285"/>
<path d="M67.8205 36.8887C66.3505 39.3587 64.2805 41.4487 63.5105 44.3487C62.1305 49.5687 62.7005 54.5087 65.3005 59.2187C64.0505 59.1687 63.5705 58.1187 63.2805 57.2787C61.0205 50.7887 60.8805 44.4487 64.9705 38.5187C65.6405 37.5487 66.4505 36.7087 67.8205 36.8887Z" fill="#F8F167"/>
<path d="M80.2605 87.4587C75.3205 88.7287 70.5405 87.5488 65.7405 86.5588C66.2705 84.9288 67.2005 84.4888 68.9805 84.8988C71.5705 85.4988 74.0305 86.5387 76.6705 86.9887C77.8705 87.1887 79.3205 85.6487 80.2605 87.4587Z" fill="#F8F167"/>
<path d="M48.1205 75.4187C48.1405 72.5087 45.9305 71.4487 43.7705 71.1687C39.6305 70.6387 35.5205 71.0487 32.1105 73.9687C32.1105 73.9687 32.1405 73.9387 32.1405 73.9487C31.6805 74.0487 31.3405 74.2787 31.1705 74.7387C29.2805 74.0587 30.5905 73.2687 31.2005 72.7687C34.1305 70.3487 37.6705 69.8887 41.2905 70.0187C43.7805 70.1087 46.3105 70.3787 48.2305 72.2687C49.2705 73.2887 49.9705 74.4287 48.1205 75.4187Z" fill="#B59D69"/>
<path d="M38.6005 33.8188C39.3005 31.1188 41.5005 29.3088 42.7405 26.9188C43.3805 26.3688 44.0205 25.8188 44.6605 25.2688C43.3305 28.6188 41.5805 31.6588 38.6005 33.8188Z" fill="#F8F167"/>
<path d="M61.2005 85.9287C60.8705 85.6287 60.5305 85.3387 60.2005 85.0387C62.1505 84.0687 63.6605 84.5187 64.7305 86.4187C63.5605 86.2687 62.3805 86.0987 61.2005 85.9287Z" fill="#F8F167"/>
<path d="M42.1905 73.9987C43.9405 74.4587 45.1405 76.3787 47.2405 75.9087C47.2305 76.0687 47.3005 76.1787 47.4505 76.2387C47.1305 76.3887 46.8105 76.5287 46.4905 76.6787L46.2705 76.6987C45.8605 76.6787 45.4405 76.6587 45.0305 76.6387C44.7905 76.5787 44.5405 76.5187 44.3005 76.4687C43.3505 76.1887 42.6205 75.6387 42.1105 74.7987C42.1405 74.5087 42.1705 74.2287 42.2105 73.9387C42.2005 73.9287 42.1905 73.9987 42.1905 73.9987Z" fill="#664F3F"/>
<path d="M106.971 65.3688C107.681 64.4788 108.551 63.8888 109.731 63.8788C109.211 65.1088 108.251 65.5288 106.971 65.3688Z" fill="#F8F167"/>
<path d="M83.7205 87.0787C83.3105 87.4687 82.8005 87.5087 82.2805 87.4887C82.5505 86.6187 82.9805 86.2987 83.7205 87.0787Z" fill="#F8F167"/>
<path d="M37.5905 35.8188C37.7105 35.0188 38.0505 34.3388 38.6305 33.7788C38.6005 34.6288 38.7305 35.5488 37.5905 35.8188Z" fill="#F8F167"/>
<path d="M88.7205 13.7287C89.0805 13.1487 89.6505 12.8888 90.2705 12.7188C90.1205 13.6187 89.5205 13.8187 88.7205 13.7287Z" fill="#F8F167"/>
<path d="M85.7305 86.5788C85.3905 86.6888 85.0505 86.7888 84.7005 86.8988C84.9205 86.3688 85.1605 85.9688 85.7305 86.5788Z" fill="#F8F167"/>
<path d="M87.2105 14.2088C87.6205 13.6988 88.1905 13.6888 88.7705 13.7088C88.3805 14.2788 87.8105 14.2788 87.2105 14.2088Z" fill="#F8F167"/>
<path d="M90.2305 12.7488C90.5805 12.4088 90.9205 12.0688 91.2705 11.7288C91.2505 12.3988 90.8405 12.6788 90.2305 12.7488Z" fill="#F8F167"/>
<path d="M31.1705 74.7287C31.3405 74.2787 31.6905 74.0387 32.1405 73.9387C31.9605 74.3787 31.6605 74.6787 31.1705 74.7287Z" fill="#FAF285"/>
<path d="M92.7405 9.75873C92.7205 9.10873 92.7905 8.47873 93.2305 7.94873C93.2305 8.59873 93.3105 9.26873 92.7405 9.75873Z" fill="#F8F167"/>
<path d="M92.2505 10.7587C92.2605 10.3287 92.3505 9.93874 92.7705 9.70874C92.7605 10.1387 92.6305 10.5087 92.2505 10.7587Z" fill="#F8F167"/>
<path d="M94.8205 19.2788C94.7205 19.3688 94.6205 19.4588 94.5105 19.5488C94.6305 19.4688 94.7405 19.3988 94.8605 19.3288C94.8705 19.3288 94.8205 19.2788 94.8205 19.2788Z" fill="#383634"/>
<path d="M45.9805 62.8187C45.7005 62.6887 45.4305 62.5487 45.1505 62.4187C45.4305 62.5487 45.7005 62.6787 45.9805 62.8187Z" fill="#F8F167"/>
<path d="M105.611 65.8187L105.741 65.6587L105.911 65.7487C105.901 65.7487 105.771 65.8187 105.771 65.8187H105.611Z" fill="#F8F167"/>
<path d="M42.2005 73.9287C42.1705 74.2187 42.1405 74.4987 42.1005 74.7887C41.5505 74.4287 41.8505 74.1787 42.2005 73.9287Z" fill="#FAF285"/>
<path d="M44.3005 76.4587C44.5405 76.5187 44.7905 76.5787 45.0305 76.6287C44.7205 76.8487 44.4805 76.7687 44.3005 76.4587Z" fill="#B59D69"/>
<path d="M91.7805 76.9787C91.3305 77.0587 91.0205 76.8988 90.8605 76.4688C91.1605 76.6388 91.4705 76.8087 91.7805 76.9787Z" fill="#F8F167"/>
<path d="M68.3005 36.3387C68.2605 36.6887 68.0705 36.8787 67.7205 36.8987C67.9105 36.7087 68.1005 36.5187 68.3005 36.3387Z" fill="#F8F167"/>
<path d="M44.6405 25.3088C44.8105 25.1288 44.9905 24.9488 45.1605 24.7688C44.9805 24.9488 44.8105 25.1288 44.6405 25.3088Z" fill="#F8F167"/>
<path d="M91.2605 11.7588C91.4405 11.5788 91.6105 11.4088 91.7905 11.2288C91.6105 11.4088 91.4305 11.5788 91.2605 11.7588Z" fill="#F8F167"/>
<path d="M46.2705 76.6887L46.4905 76.6687L46.3905 76.7987L46.2705 76.6887Z" fill="#B59D69"/>
<path d="M47.4505 76.2288C47.3005 76.1688 47.2305 76.0588 47.2405 75.8988C47.3705 75.8088 47.5005 75.8088 47.6305 75.8988C47.6405 76.0688 47.5805 76.1788 47.4505 76.2288Z" fill="#B59D69"/>
<path d="M47.6405 75.9087C47.8105 75.7387 47.9705 75.5787 48.1405 75.4087C47.9705 75.5787 47.8105 75.7487 47.6405 75.9087Z" fill="#B59D69"/>
<path d="M90.9205 52.7787C91.1905 52.7487 91.4605 52.7187 91.7305 52.6787C92.4005 56.0287 92.9805 59.3987 92.8905 62.8387C92.5905 63.0887 92.2905 63.3387 91.9905 63.5887C91.6305 59.9887 91.2705 56.3887 90.9205 52.7787Z" fill="#F2C6B2"/>
<path d="M91.9905 63.5888C92.2905 63.3388 92.5905 63.0888 92.8905 62.8388C95.4005 63.0088 97.4105 60.9088 99.9705 61.2788C100.111 61.4388 100.251 61.5988 100.391 61.7488C97.1905 62.7888 93.9805 63.8388 90.7805 64.8788L90.7905 64.8988C90.7305 64.7288 90.6805 64.5688 90.6205 64.3988C91.0705 64.1388 91.5305 63.8688 91.9905 63.5888Z" fill="#664F3F"/>
<path d="M100.381 61.7588C100.241 61.5988 100.101 61.4388 99.9605 61.2888C100.251 60.8788 100.521 61.0088 100.771 61.3288C100.641 61.4688 100.511 61.6188 100.381 61.7588Z" fill="#F06F4A"/>
<path d="M102.191 61.2388L102.061 61.2788L101.941 61.2388L102.061 61.1388L102.191 61.2388Z" fill="#F06F4A"/>
<path d="M103.071 45.6488C102.861 48.3088 102.661 50.9588 102.451 53.6188C100.721 50.4788 100.961 47.4788 103.071 45.6488Z" fill="#F2C6B2"/>
<path d="M91.9905 63.5888C91.5305 63.8588 91.0805 64.1388 90.6205 64.4088C90.2905 64.2388 89.9605 64.0588 89.6305 63.8888C90.1905 62.4588 90.2905 60.9688 90.0605 59.4788C89.6405 56.7688 87.2105 54.4988 84.6905 54.4188C82.3305 54.3388 81.7005 56.0788 81.0905 57.8688C80.6305 59.2388 80.4805 60.2588 82.4805 59.7388C83.0105 59.5988 83.4805 59.5888 83.6905 60.1888C83.8605 60.6788 83.8705 61.4488 83.4705 61.5588C80.1805 62.5088 83.1605 63.3588 83.5105 64.1788C83.7905 64.8288 84.7405 65.0688 84.7305 65.9588C81.9405 65.5088 79.1305 66.2788 76.3005 65.7888C75.4805 65.6488 75.3205 65.0788 74.7905 64.8288C74.3405 62.3788 73.7105 59.9388 73.4805 57.4588C72.8605 50.9988 77.5405 46.2088 83.3505 47.3288C86.6405 47.9688 88.9405 50.1888 90.9105 52.7588C91.2705 56.3888 91.6305 59.9888 91.9905 63.5888Z" fill="#F8F7F5"/>
<path d="M84.7405 65.9688C84.7505 65.0788 83.8005 64.8388 83.5205 64.1888C83.1705 63.3688 80.1905 62.5188 83.4805 61.5688C83.8805 61.4488 83.8705 60.6888 83.7005 60.1988C83.4905 59.5888 83.0205 59.6088 82.4905 59.7488C80.4905 60.2788 80.6405 59.2488 81.1005 57.8788C81.7105 56.0888 82.3405 54.3488 84.7005 54.4288C87.2305 54.5088 89.6505 56.7788 90.0705 59.4888C90.3005 60.9788 90.2005 62.4688 89.6405 63.8988C89.2305 64.1488 89.2805 64.5188 89.3805 64.8988C89.3905 65.1188 89.4005 65.3388 89.4105 65.5588C87.8705 65.8688 86.3905 66.8188 84.7405 65.9688Z" fill="#383634"/>
<path d="M89.4105 65.5488C89.4005 65.3288 89.3905 65.1088 89.3805 64.8888C89.8505 64.8988 90.3205 64.8988 90.7905 64.9088L90.7805 64.8888C90.3205 65.1088 89.8605 65.3288 89.4105 65.5488Z" fill="#664F3F"/>
<path d="M108.381 76.9488C108.171 76.5788 107.961 76.2188 107.751 75.8488C108.431 75.1988 109.121 74.5488 109.801 73.8988C110.051 74.1588 110.301 74.4088 110.551 74.6688C110.111 75.8988 110.321 77.1788 110.291 78.4488C109.911 78.4788 109.531 78.4988 109.151 78.5288C109.051 78.2988 108.951 78.0588 108.861 77.8288C108.911 77.7088 108.881 77.6188 108.761 77.5588C108.631 77.3488 108.511 77.1488 108.381 76.9488Z" fill="#383634"/>
<path d="M110.551 74.6687C110.301 74.4087 110.051 74.1587 109.801 73.8987C109.951 73.2787 110.331 72.8288 110.841 72.4688C111.001 72.7788 111.151 73.0887 111.311 73.4087C111.231 73.9387 111.011 74.3687 110.551 74.6687Z" fill="#664F3F"/>
<path d="M102.711 95.1188C102.531 94.9188 102.341 94.7288 102.161 94.5288C102.341 94.7288 102.521 94.9188 102.711 95.1188Z" fill="#664F3F"/>
<path d="M93.8005 110.529C93.6705 111.279 93.1605 111.549 92.4705 111.459C92.4005 111.449 92.4005 110.909 92.3705 110.609C92.8405 110.629 93.2605 109.619 93.8005 110.529Z" fill="#383634"/>
<path d="M109.151 78.5287C109.531 78.4987 109.911 78.4787 110.291 78.4487C110.901 79.3987 111.521 80.3387 112.131 81.2887C111.971 81.4387 111.801 81.5787 111.641 81.7287C110.431 81.0487 109.421 80.1587 109.151 78.5287Z" fill="#664F3F"/>
<path d="M108.761 77.5487C108.881 77.6087 108.911 77.6987 108.861 77.8187L108.721 77.7087L108.761 77.5487Z" fill="#664F3F"/>
<path d="M112.821 71.8187C113.001 71.6887 113.171 71.5487 113.351 71.4187C113.181 71.5587 113.001 71.6887 112.821 71.8187Z" fill="#664F3F"/>
<path d="M117.531 59.7688C117.171 59.7588 116.811 59.7588 116.451 59.7488C116.811 59.7588 117.171 59.7688 117.531 59.7688Z" fill="#664F3F"/>
<path d="M33.1105 52.4988C33.8105 53.5588 33.6105 54.7388 33.5405 55.8888C33.0105 54.8188 33.0405 53.6588 33.1105 52.4988Z" fill="#664F3F"/>
<path d="M96.8105 80.4487C98.1705 80.3687 99.5305 80.2887 101.551 80.1687C100.081 81.4087 99.0505 82.0987 97.8105 82.4787C97.9305 81.5887 97.4205 80.9887 96.8105 80.4487Z" fill="#FAF285"/>
<path d="M95.3305 83.9788C93.9605 84.9688 92.4905 85.7388 90.8005 86.0188C91.8705 84.3688 93.5505 84.0588 95.3305 83.9788Z" fill="#FAF285"/>
<path d="M97.8205 82.4688C97.5205 83.1087 97.0005 83.4387 96.3105 83.5187C96.4505 82.6387 97.0805 82.4787 97.8205 82.4688Z" fill="#FAF285"/>
<path d="M96.3305 83.4788C96.1305 83.9488 95.7205 84.0088 95.2805 83.9988C95.6305 83.8288 95.9805 83.6588 96.3305 83.4788Z" fill="#FAF285"/>
<path d="M45.8705 73.9087C45.7805 73.9887 45.6905 74.0687 45.5905 74.1387C45.5305 74.0287 45.4605 73.9187 45.4205 73.8087C45.4105 73.7887 45.5505 73.6788 45.5705 73.6888C45.6805 73.7388 45.7705 73.8287 45.8705 73.9087Z" fill="#F5E721"/>
<path d="M90.7805 64.9088C90.3105 64.8988 89.8405 64.8988 89.3705 64.8888C89.2705 64.5088 89.2205 64.1388 89.6305 63.8888C89.9605 64.0588 90.2905 64.2388 90.6205 64.4088C90.6705 64.5788 90.7305 64.7488 90.7805 64.9088Z" fill="#F2C6B2"/>
</svg>
